<svg xmlns="http://www.w3.org/2000/svg" width="36" height="36"><g fill="#424143"><path d="M32.436 9.517h-5.621v11.312c0 1.926-1.672 3.497-3.729 3.497h-12.677v5.848c0 1.303 1.12 2.348 2.502 2.348h14.924l4.514 3.31v-3.31h.086c1.381 0 2.504-1.045 2.504-2.348v-18.31c0-1.297-1.123-2.347-2.503-2.347"/><path d="M23.086.17h-19.521c-1.383 0-2.504 1.051-2.504 2.351v18.308c0 1.295 1.121 2.346 2.504 2.346h.001v3.31l4.596-3.31h14.924c1.385 0 2.502-1.051 2.502-2.346v-18.308c0-1.3-1.117-2.351-2.502-2.351"/></g></svg>