<?xml version="1.0" encoding="utf-8"?>
<!-- Generator: Adobe Illustrator 16.0.0, SVG Export Plug-In . SVG Version: 6.00 Build 0)  -->
<!DOCTYPE svg PUBLIC "-//W3C//DTD SVG 1.1//EN" "http://www.w3.org/Graphics/SVG/1.1/DTD/svg11.dtd">
<svg version="1.1" id="Layer_1" xmlns="http://www.w3.org/2000/svg" xmlns:xlink="http://www.w3.org/1999/xlink" x="0px" y="0px"
	 width="36px" height="36px" viewBox="0 0 36 36" enable-background="new 0 0 36 36" xml:space="preserve">
<g>
	<path fill="#424143" d="M32.436,9.517h-5.621v11.312c0,1.926-1.672,3.497-3.729,3.497H10.409v5.848c0,1.303,1.12,2.348,2.502,2.348
		h14.924l4.514,3.31v-3.31h0.086c1.381,0,2.504-1.045,2.504-2.348V11.864C34.939,10.567,33.816,9.517,32.436,9.517"/>
	<path fill="#424143" d="M23.086,0.17H3.565c-1.383,0-2.504,1.051-2.504,2.351v18.308c0,1.295,1.121,2.346,2.504,2.346h0.001v3.31
		l4.596-3.31h2.248h12.676c1.385,0,2.502-1.051,2.502-2.346V9.517V2.521C25.588,1.221,24.471,0.17,23.086,0.17"/>
</g>
</svg>
