<?xml version="1.0" encoding="utf-8"?>
<!-- Generator: Adobe Illustrator 16.0.0, SVG Export Plug-In . SVG Version: 6.00 Build 0)  -->
<!DOCTYPE svg PUBLIC "-//W3C//DTD SVG 1.1//EN" "http://www.w3.org/Graphics/SVG/1.1/DTD/svg11.dtd">
<svg version="1.1" id="Layer_1" xmlns="http://www.w3.org/2000/svg" xmlns:xlink="http://www.w3.org/1999/xlink" x="0px" y="0px"
	 width="98px" height="77px" viewBox="0 0 98 77" enable-background="new 0 0 98 77" xml:space="preserve">
<g>
	<defs>
		<polygon id="SVGID_1_" points="16.106,0.401 -0.043,24.069 48.749,76.496 97.544,24.069 81.393,0.401 		"/>
	</defs>
	<clipPath id="SVGID_2_">
		<use xlink:href="#SVGID_1_"  overflow="visible"/>
	</clipPath>
	<polygon clip-path="url(#SVGID_2_)" fill="#333333" points="-0.912,24.304 15.397,0.401 81.334,0.401 97.645,24.304 48.365,77.252 
			"/>
	<path clip-path="url(#SVGID_2_)" fill="#FFFFFF" d="M48.365,77.252L-2.124,23.001H98.854L48.365,77.252z M3.326,25.374
		l45.039,48.395l45.041-48.395H3.326z"/>
	<path clip-path="url(#SVGID_2_)" fill="#FFFFFF" d="M28.573,25.374H-1.644L16.211-0.791L28.573,25.374z M2.847,23.001h21.98
		L15.836,3.966L2.847,23.001z"/>
	<path clip-path="url(#SVGID_2_)" fill="#FFFFFF" d="M98.376,25.374H68.159L80.521-0.791L98.376,25.374z M71.905,23.001h21.979
		L80.896,3.966L71.905,23.001z"/>
	<path clip-path="url(#SVGID_2_)" fill="#FFFFFF" d="M72.812,25.374H23.918L48.365-0.128L72.812,25.374z M29.48,23.001h37.771
		l-18.887-19.7L29.48,23.001z"/>
	<path clip-path="url(#SVGID_2_)" fill="#FFFFFF" d="M70.368,26.253L45.584,0.401h36.995L70.368,26.253z M51.146,2.771
		l18.549,19.352l9.14-19.352H51.146z"/>
	<path clip-path="url(#SVGID_2_)" fill="#FFFFFF" d="M26.362,26.253L14.15,0.401h36.996L26.362,26.253z M17.896,2.771l9.14,19.352
		L45.584,2.771H17.896z"/>
	<path clip-path="url(#SVGID_2_)" fill="#FFFFFF" d="M48.365,78.564L24.91,23.001h46.91L48.365,78.564z M28.489,25.374
		l19.876,47.088l19.877-47.088H28.489z"/>
</g>
</svg>
