<?xml version="1.0" encoding="utf-8"?>
<!-- Generator: Adobe Illustrator 16.0.0, SVG Export Plug-In . SVG Version: 6.00 Build 0)  -->
<!DOCTYPE svg PUBLIC "-//W3C//DTD SVG 1.1//EN" "http://www.w3.org/Graphics/SVG/1.1/DTD/svg11.dtd">
<svg version="1.1" id="Layer_1" xmlns="http://www.w3.org/2000/svg" xmlns:xlink="http://www.w3.org/1999/xlink" x="0px" y="0px"
	 width="36px" height="36px" viewBox="0 0 36 36" enable-background="new 0 0 36 36" xml:space="preserve">
<path fill="#424143" d="M18,0.119C8.125,0.119,0.119,8.125,0.119,18c0,9.875,8.006,17.881,17.881,17.881
	c9.875,0,17.88-8.006,17.88-17.881C35.881,8.125,27.876,0.119,18,0.119 M20.683,30.981h-5.364v-17.38h5.364V30.981z M20.198,10.328
	c-0.605,0.608-1.339,0.913-2.198,0.913c-0.858,0-1.592-0.305-2.2-0.913c-0.606-0.606-0.911-1.34-0.911-2.199
	c0-0.857,0.304-1.592,0.911-2.199c0.608-0.607,1.342-0.912,2.2-0.912c0.859,0,1.592,0.304,2.198,0.912
	c0.609,0.607,0.914,1.342,0.914,2.199C21.112,8.988,20.808,9.722,20.198,10.328"/>
</svg>
