<?xml version="1.0" encoding="utf-8"?>
<!-- Generator: Adobe Illustrator 17.1.0, SVG Export Plug-In . SVG Version: 6.00 Build 0)  -->
<!DOCTYPE svg PUBLIC "-//W3C//DTD SVG 1.1//EN" "http://www.w3.org/Graphics/SVG/1.1/DTD/svg11.dtd">
<svg version="1.1" id="Layer_1" xmlns="http://www.w3.org/2000/svg" xmlns:xlink="http://www.w3.org/1999/xlink" x="0px" y="0px"
	 viewBox="0 0 118 134" enable-background="new 0 0 118 134" xml:space="preserve">
<g>
	<g>
		<g>
			<g>
				<rect x="4.4" y="0.1" fill="#BC9E2F" width="109.1" height="128.3"/>
				<polygon fill="#CFAC2C" points="10.5,128.4 4.4,124.1 4.4,0.1 10.5,4.4 				"/>
				<polygon fill="#E0BA30" points="10.5,128.4 0.3,133.9 0.3,9.9 10.5,4.4 				"/>
				<polygon fill="#CFAC2C" points="107.5,128.4 113.6,124.1 113.6,0.1 107.5,4.4 				"/>
				<polygon fill="#E0BA30" points="107.5,128.4 117.7,133.9 117.7,9.9 107.5,4.4 				"/>
				<rect x="0.3" y="9.9" fill="#F8AA1F" width="117.4" height="124"/>
				<g>
					<circle fill="#BC9E2F" cx="85.6" cy="22.7" r="2.6"/>
					<circle fill="#BC9E2F" cx="32.2" cy="22.7" r="2.6"/>
					<path fill="#E0BA30" d="M58.9,76c15.8,0,28.7-12.8,28.7-28.7V24.7c0-1.1-0.9-2-2-2c-1.1,0-2,0.9-2,2v22.7
						c0,13.7-11.1,24.7-24.7,24.7c-13.7,0-24.7-11.1-24.7-24.7V24.7c0-1.1-0.9-2-2-2c-1.1,0-2,0.9-2,2v22.7
						C30.3,63.2,43.1,76,58.9,76z"/>
					<path fill="#FFF9F1" d="M58.9,74.2c15.8,0,28.7-12.8,28.7-28.7V22.9c0-1.1-0.9-2-2-2c-1.1,0-2,0.9-2,2v22.7
						c0,13.7-11.1,24.7-24.7,24.7c-13.7,0-24.7-11.1-24.7-24.7V22.9c0-1.1-0.9-2-2-2c-1.1,0-2,0.9-2,2v22.7
						C30.3,61.4,43.1,74.2,58.9,74.2z"/>
				</g>
			</g>
		</g>
	</g>
	<g>
		<g>
			<g>
				<rect x="4.4" y="0.1" fill="#27767A" width="109.1" height="128.3"/>
				<polygon fill="#4AC2C4" points="10.5,128.4 4.4,124.1 4.4,0.1 10.5,4.4 				"/>
				<polygon fill="#27767A" points="10.5,128.4 0.3,133.9 0.3,9.9 10.5,4.4 				"/>
				<polygon fill="#4AC2C4" points="107.5,128.4 113.6,124.1 113.6,0.1 107.5,4.4 				"/>
				<polygon fill="#27767A" points="107.5,128.4 117.7,133.9 117.7,9.9 107.5,4.4 				"/>
				<rect x="0.3" y="9.9" fill="#509E9F" width="117.4" height="124"/>
				<polygon fill="#FFFFFF" points="87.2,105.5 69.8,105.2 54.4,79.7 53.9,104.9 38.9,104.6 39.4,76.5 40,46.5 54.8,46.7 54.4,72.9 
					71.4,47 87,47.3 67.2,76 69.3,79.1 				"/>
				<polygon opacity="0.3" fill="#C4E6DF" points="117.7,9.9 0.3,9.9 0.3,130.6 117.7,13.2 				"/>
				<g>
					<circle fill="#389A84" cx="85.6" cy="22.7" r="2.6"/>
					<path fill="#389A84" d="M29.6,22.7c0-1.4,3.1-2.6,4.6-2.6c1.4,0,0.7,1.2,0.7,2.6c0,1.4-1.2,2.6-2.6,2.6
						C30.8,25.3,29.6,24.1,29.6,22.7z"/>
					<path fill="#389A84" d="M58.9,76c15.8,0,28.7-12.8,28.7-28.7V24.7c0-1.1-0.9-2-2-2c-1.1,0-2,0.9-2,2v22.7
						c0,13.7-11.1,24.7-24.7,24.7c-13.7,0-24.7-11.1-24.7-24.7V24.7c0-1.1-0.9-2-2-2c-1.1,0-2,0.9-2,2v22.7
						C30.3,63.2,48.3,76,58.9,76z"/>
					<path fill="#D3D3D3" d="M58.9,74.2c15.8,0,28.7-12.8,28.7-28.7V22.9c0-1.1-0.9-2-2-2c-1.1,0-2,0.9-2,2v22.7
						c0,13.7-11.1,24.7-24.7,24.7c-13.7,0-24.7-11.1-24.7-24.7V22.9c0-1.1-0.9-2-2-2c-1.1,0-2,0.9-2,2v22.7
						C30.3,61.4,43.1,74.2,58.9,74.2z"/>
				</g>
			</g>
		</g>
	</g>
</g>
</svg>
