<?xml version="1.0" encoding="utf-8"?>
<!-- Generator: Adobe Illustrator 17.1.0, SVG Export Plug-In . SVG Version: 6.00 Build 0)  -->
<!DOCTYPE svg PUBLIC "-//W3C//DTD SVG 1.1//EN" "http://www.w3.org/Graphics/SVG/1.1/DTD/svg11.dtd">
<svg version="1.1" id="Layer_1" xmlns="http://www.w3.org/2000/svg" xmlns:xlink="http://www.w3.org/1999/xlink" x="0px" y="0px"
	 viewBox="0 0 186 282" enable-background="new 0 0 186 282" xml:space="preserve">
<g>
	<path fill="#DC4537" d="M185.8,272.3c0,5.4-4.4,9.8-9.8,9.8H10c-5.4,0-9.8-4.4-9.8-9.8V43.8c0-5.4,4.4-9.8,9.8-9.8h166
		c5.4,0,9.8,4.4,9.8,9.8V272.3z"/>
	<path fill="#EB5A4A" d="M185.8,266.4c0,5.4-4.4,9.8-9.8,9.8H10c-5.4,0-9.8-4.4-9.8-9.8V37.9c0-5.4,4.4-9.8,9.8-9.8h166
		c5.4,0,9.8,4.4,9.8,9.8V266.4z"/>
	<path fill="#27767C" d="M172.1,252.2c0,4.6-3.8,8.4-8.4,8.4H20.4c-4.6,0-8.4-3.8-8.4-8.4V54.9c0-4.6,3.8-8.4,8.4-8.4h143.3
		c4.6,0,8.4,3.8,8.4,8.4V252.2z"/>
	<path fill="#FFFFFF" d="M173.1,249.2c0,4.6-3.8,8.4-8.4,8.4H21.4c-4.6,0-8.4-3.8-8.4-8.4V52c0-4.6,3.8-8.4,8.4-8.4h143.3
		c4.6,0,8.4,3.8,8.4,8.4V249.2z"/>
	<g>
		<path fill="#818285" d="M144.3,20.7h-34.2c-0.3-9.7-8.2-17.6-18-17.6S74.2,11,74,20.7H39.8c-4.3,0-7.8,3.5-7.8,7.8v19.5
			c0,4.3,3.5,7.8,7.8,7.8h104.5c4.3,0,7.8-3.5,7.8-7.8V28.6C152.1,24.3,148.6,20.7,144.3,20.7z M92.2,30.3c-4.9,0-8.8-3.9-8.8-8.8
			c0-4.9,3.9-8.8,8.8-8.8c4.9,0,8.8,3.9,8.8,8.8C101,26.3,97,30.3,92.2,30.3z"/>
	</g>
	<path fill="#509E9F" d="M141.1,80.3H44c-2.1,0-3.9,1.8-3.9,3.9v97.1c0,2.1,1.8,3.9,3.9,3.9h97.1c2.1,0,3.9-1.8,3.9-3.9V84.2
		C145,82,143.2,80.3,141.1,80.3z M124.6,173.4l-24,0L79.1,138l0,35.4H59.5l0-81.3l19.6,0l0,38.1l24.2-38.1l22.2,0l-27,41.3
		L124.6,173.4z"/>
	<g>
		<path fill="#C6CED2" d="M144.3,52.7c4.3,0,7.8-3.5,7.8-7.8V25.4c0-4.3-3.5-7.8-7.8-7.8h-7.9L47.1,52.7H144.3z"/>
		<path fill="#D5DBDE" d="M92,0c-9.8,0-17.8,7.8-18,17.6H39.8c-4.3,0-7.8,3.5-7.8,7.8v19.5c0,4.3,3.5,7.8,7.8,7.8h7.3l89.3-35.2
			h-26.3C109.8,7.8,101.8,0,92,0z M92.2,27.1c-4.9,0-8.8-3.9-8.8-8.8c0-4.9,3.9-8.8,8.8-8.8c4.9,0,8.8,3.9,8.8,8.8
			C101,23.2,97,27.1,92.2,27.1z"/>
	</g>
</g>
</svg>
