<?xml version="1.0" encoding="utf-8"?>
<!-- Generator: Adobe Illustrator 17.1.0, SVG Export Plug-In . SVG Version: 6.00 Build 0)  -->
<!DOCTYPE svg PUBLIC "-//W3C//DTD SVG 1.1//EN" "http://www.w3.org/Graphics/SVG/1.1/DTD/svg11.dtd">
<svg version="1.1" id="Layer_1" xmlns="http://www.w3.org/2000/svg" xmlns:xlink="http://www.w3.org/1999/xlink" x="0px" y="0px"
	 viewBox="0 0 166 280" enable-background="new 0 0 166 280" xml:space="preserve">
<g>
	<g>
		<path fill="#8CBFC1" d="M143.2,110.8c1.8,4.5-0.3,9.6-4.8,11.4L82.1,145c-4.5,1.8-9.6-0.3-11.4-4.8l-30.3-75
			c-1.8-4.5,0.3-9.6,4.8-11.4L101.5,31c4.5-1.8,9.6,0.3,11.4,4.8L143.2,110.8z"/>
		<g>
			<path fill="#8CBFC1" d="M45.8,87.7c-13.4,5.6-33.4-2.1-38.7-17.9c-3.9-16,10.6-26.9,26.5-24c8.3,1.5,16.2,3.6,22.4,6.6
				c0.6-1.3,1.4-2.6,2.1-3.9c-7.2-3.1-16-5.5-25.1-7.1C14,37.8-3.5,51,1.2,70.1c6.4,19,30.3,28.3,46.5,21.5c1.2-0.5,2.3-1,3.5-1.5
				c-0.5-1.3-0.9-2.8-1.2-4.4C48.7,86.4,47.2,87.1,45.8,87.7z"/>
			<linearGradient id="SVGID_1_" gradientUnits="userSpaceOnUse" x1="6.434" y1="67.3596" x2="56.0518" y2="67.3596">
				<stop  offset="0" style="stop-color:#2F999E"/>
				<stop  offset="0.6069" style="stop-color:#309BA0"/>
				<stop  offset="1" style="stop-color:#309EA3"/>
			</linearGradient>
			<path fill="url(#SVGID_1_)" d="M7.1,69.7c5.3,15.8,25.3,23.6,38.7,17.9c1.5-0.6,2.9-1.2,4.3-1.9c-0.1-0.5-0.1-1.1-0.2-1.7
				c-1.5,0.7-3.1,1.5-4.8,2.1c-12.5,5.2-31-1.9-35.9-16.6c-3.6-14.8,9.8-25,24.6-22.3c8,1.4,15.7,3.6,21.6,6.5
				c0.2-0.5,0.5-1,0.7-1.5c-6.2-3-14.2-5.2-22.4-6.6C17.7,42.8,3.2,53.8,7.1,69.7z"/>
			<path fill="#214764" d="M9.2,69.6c4.9,14.7,23.4,21.9,35.9,16.6c1.6-0.7,3.2-1.4,4.8-2.1c-0.2-2.4-0.2-5.2,0-8.4
				c0.6-6.3,2.1-14.3,5.5-21.9c-5.9-3-13.6-5.1-21.6-6.5C19,44.6,5.5,54.8,9.2,69.6z"/>
			<path fill="#8CBFC1" d="M126,55.2c13.6-5.3,22.5-24.7,15.3-39.8c-8.3-14.2-26.4-12-35.8,1.2c-4.9,6.8-9.1,13.9-11.5,20.4
				c-1.4-0.5-2.8-1-4.3-1.3c3-7.3,7.6-15.1,13.1-22.6c11.3-15.8,33-18.4,43-1.4c8.6,18.1-2.1,41.4-18.4,47.8
				c-1.2,0.5-2.4,0.9-3.5,1.3c-0.5-1.3-1.3-2.6-2.2-4C123.1,56.3,124.5,55.8,126,55.2z"/>
			<linearGradient id="SVGID_2_" gradientUnits="userSpaceOnUse" x1="94.0284" y1="31.269" x2="143.8788" y2="31.269">
				<stop  offset="0" style="stop-color:#2F999E"/>
				<stop  offset="0.6069" style="stop-color:#309BA0"/>
				<stop  offset="1" style="stop-color:#309EA3"/>
			</linearGradient>
			<path fill="url(#SVGID_2_)" d="M141.3,15.4c7.2,15.1-1.8,34.5-15.3,39.8c-1.5,0.6-2.9,1.1-4.4,1.6c-0.3-0.4-0.7-0.9-1-1.4
				c1.6-0.5,3.3-1.1,4.9-1.8c12.6-4.9,20.9-22.9,14.2-36.9c-7.7-13.2-24.4-11.1-33.2,1.1c-4.8,6.6-8.8,13.5-11,19.7
				c-0.5-0.2-1-0.4-1.5-0.6c2.4-6.5,6.6-13.6,11.5-20.4C115,3.5,133,1.2,141.3,15.4z"/>
			<path fill="#214764" d="M139.7,16.8c6.7,14-1.6,32-14.2,36.9c-1.6,0.7-3.3,1.3-4.9,1.8c-1.5-1.9-3.5-3.9-5.9-6
				c-4.7-4.1-11.4-8.8-19.2-11.9c2.2-6.2,6.2-13.1,11-19.7C115.3,5.7,132,3.6,139.7,16.8z"/>
			<path fill="#303030" d="M104.7,117.4c-3.2,1.4-5,4.1-4.1,6c0.9,1.9,4.1,2.3,7.3,0.9c3.2-1.4,5-4.1,4.2-6
				C111.1,116.4,107.9,116,104.7,117.4z M109.9,119.3c-0.5,0.2-1.1,0-1.3-0.5c-0.2-0.5,0-1.1,0.5-1.3c0.5-0.2,1.1,0,1.3,0.5
				C110.6,118.5,110.3,119.1,109.9,119.3z"/>
			<path fill="#FFFFFF" d="M109.1,117.5c-0.5,0.2-0.7,0.8-0.5,1.3c0.2,0.5,0.8,0.7,1.3,0.5c0.5-0.2,0.7-0.8,0.5-1.3
				C110.1,117.5,109.5,117.3,109.1,117.5z"/>
			<linearGradient id="SVGID_3_" gradientUnits="userSpaceOnUse" x1="101.9176" y1="79.3308" x2="118.5228" y2="79.3308">
				<stop  offset="0" style="stop-color:#2F999E"/>
				<stop  offset="0.6069" style="stop-color:#309BA0"/>
				<stop  offset="1" style="stop-color:#309EA3"/>
			</linearGradient>
			<path fill="url(#SVGID_3_)" d="M110.9,71.1c-4.6-0.4-8.6,3-9,7.6c-0.4,4.6,3,8.6,7.6,9c4.6,0.4,8.6-3,9-7.6
				C118.9,75.5,115.5,71.4,110.9,71.1z M116.9,79.9c-0.3,3.7-3.5,6.4-7.2,6.1c-3.7-0.3-6.4-3.6-6.1-7.3c0.3-3.7,3.6-6.4,7.2-6.1
				C114.5,72.9,117.2,76.2,116.9,79.9z"/>
			<path fill="#303030" d="M110.9,72.6c-3.7-0.4-7,2.3-7.4,6c-0.4,3.7,2.3,7,6,7.4c3.7,0.4,7-2.3,7.4-6
				C117.3,76.3,114.6,73,110.9,72.6z M108.2,81.5c-0.1,0.6-0.6,1.1-1.2,1c-0.6-0.1-1.1-0.6-1-1.3c0.1-0.6,0.6-1.1,1.3-1
				C107.8,80.3,108.2,80.9,108.2,81.5z M114.5,78c-0.1,1-1,1.7-2,1.6c-1-0.1-1.7-1-1.6-2c0.1-1,1-1.7,2-1.6
				C113.8,76.2,114.6,77.1,114.5,78z"/>
			<linearGradient id="SVGID_4_" gradientUnits="userSpaceOnUse" x1="110.8568" y1="77.8589" x2="114.4712" y2="77.8589">
				<stop  offset="0" style="stop-color:#2F999E"/>
				<stop  offset="0.6069" style="stop-color:#309BA0"/>
				<stop  offset="1" style="stop-color:#309EA3"/>
			</linearGradient>
			<path fill="url(#SVGID_4_)" d="M112.8,76.1c-1-0.1-1.9,0.6-2,1.6c-0.1,1,0.6,1.9,1.6,2c1,0.1,1.9-0.6,2-1.6
				C114.6,77.1,113.8,76.2,112.8,76.1z"/>
			<linearGradient id="SVGID_5_" gradientUnits="userSpaceOnUse" x1="105.9027" y1="81.3889" x2="108.183" y2="81.3889">
				<stop  offset="0" style="stop-color:#2F999E"/>
				<stop  offset="0.6069" style="stop-color:#309BA0"/>
				<stop  offset="1" style="stop-color:#309EA3"/>
			</linearGradient>
			<path fill="url(#SVGID_5_)" d="M107.2,80.3c-0.6-0.1-1.2,0.4-1.3,1c-0.1,0.6,0.4,1.2,1,1.3c0.6,0.1,1.2-0.4,1.2-1
				C108.2,80.9,107.8,80.3,107.2,80.3z"/>
			<linearGradient id="SVGID_6_" gradientUnits="userSpaceOnUse" x1="65.6823" y1="95.608" x2="82.2865" y2="95.608">
				<stop  offset="0" style="stop-color:#2F999E"/>
				<stop  offset="0.6069" style="stop-color:#309BA0"/>
				<stop  offset="1" style="stop-color:#309EA3"/>
			</linearGradient>
			<path fill="url(#SVGID_6_)" d="M80.7,100.4c2.7-3.7,1.8-8.9-1.9-11.6c-3.7-2.7-8.9-1.8-11.6,1.9c-2.7,3.7-1.8,8.9,1.9,11.6
				C72.9,105,78.1,104.2,80.7,100.4z M67.3,94.9c0.4-3.7,3.7-6.4,7.4-6c3.7,0.4,6.4,3.7,6,7.4c-0.4,3.7-3.7,6.4-7.4,6
				C69.6,101.9,66.9,98.6,67.3,94.9z"/>
			<path fill="#303030" d="M73.3,102.3c3.7,0.4,7-2.3,7.4-6c0.4-3.7-2.3-7-6-7.4c-3.7-0.4-7,2.3-7.4,6
				C66.9,98.6,69.6,101.9,73.3,102.3z M74.6,94c0.1-1,1-1.7,2-1.6c1,0.1,1.7,1,1.6,2c-0.1,1-1,1.7-2,1.6
				C75.2,95.8,74.5,94.9,74.6,94z M69.7,97.6c0.1-0.6,0.6-1.1,1.3-1c0.6,0.1,1.1,0.6,1,1.2c-0.1,0.6-0.6,1.1-1.3,1
				C70.1,98.7,69.6,98.2,69.7,97.6z"/>
			<linearGradient id="SVGID_7_" gradientUnits="userSpaceOnUse" x1="74.6205" y1="94.1418" x2="78.232" y2="94.1418">
				<stop  offset="0" style="stop-color:#2F999E"/>
				<stop  offset="0.6069" style="stop-color:#309BA0"/>
				<stop  offset="1" style="stop-color:#309EA3"/>
			</linearGradient>
			<path fill="url(#SVGID_7_)" d="M76.2,95.9c1,0.1,1.9-0.6,2-1.6c0.1-1-0.6-1.9-1.6-2c-1-0.1-1.9,0.6-2,1.6
				C74.5,94.9,75.2,95.8,76.2,95.9z"/>
			<linearGradient id="SVGID_8_" gradientUnits="userSpaceOnUse" x1="69.6619" y1="97.6676" x2="71.9475" y2="97.6676">
				<stop  offset="0" style="stop-color:#2F999E"/>
				<stop  offset="0.6069" style="stop-color:#309BA0"/>
				<stop  offset="1" style="stop-color:#309EA3"/>
			</linearGradient>
			<path fill="url(#SVGID_8_)" d="M70.7,98.8c0.6,0.1,1.2-0.4,1.3-1c0.1-0.6-0.4-1.2-1-1.2c-0.6-0.1-1.2,0.4-1.3,1
				C69.6,98.2,70.1,98.7,70.7,98.8z"/>
			<path fill="#303030" d="M114.3,119c0.1,0.4,0.6,0.7,1,0.5c2.8-0.8,5.7-1.7,8.6-2.6c3.4-1.1,6.7-2.2,10-3.5
				c3.3-1.3,6.5-2.8,9.6-4.6c0.4-0.2,0.5-0.7,0.3-1.1c-0.2-0.4-0.7-0.5-1.1-0.3c-2.9,1.7-6.1,3.2-9.3,4.5c-2.9,1.2-5.8,2.2-8.8,3.1
				c-3.2,1-6.4,1.9-9.6,2.9C114.4,118.2,114.2,118.6,114.3,119z"/>
			<path fill="#303030" d="M115.1,121c0.1,0.4,0.5,0.7,0.9,0.6c2.3-0.5,4.5-1.1,6.8-1.6c4.1-1,8.1-2.1,12.1-3.4
				c3.4-1.2,6.7-2.5,9.8-4.1c0.4-0.2,0.5-0.7,0.3-1.1c-0.2-0.4-0.7-0.5-1.1-0.3c-3,1.6-6.2,2.9-9.6,4c-3.5,1.2-7.2,2.2-10.9,3.2
				c-2.6,0.7-5.2,1.3-7.8,1.9C115.3,120.2,115,120.6,115.1,121z"/>
			<path fill="#303030" d="M113.7,117.5c0.2,0.4,0.6,0.6,1,0.4c3.4-1.4,6.8-2.8,10.2-4.3c2.6-1.2,5.1-2.4,7.6-3.7
				c3.2-1.7,6.2-3.5,9-5.6c0.3-0.3,0.4-0.7,0.2-1.1c-0.3-0.3-0.7-0.4-1.1-0.2c-2.7,2-5.7,3.8-8.8,5.5c-2.1,1.1-4.2,2.1-6.4,3.1
				c-3.7,1.7-7.6,3.3-11.3,4.8C113.7,116.7,113.5,117.1,113.7,117.5z"/>
			<path fill="#303030" d="M97.6,125.1c0.2,0.4,0.1,0.9-0.3,1.1c-2.6,1.4-5.3,2.8-8,4.1c-3.2,1.6-6.4,3.1-9.6,4.4
				c-3.3,1.4-6.7,2.5-10.1,3.3c-0.4,0.1-0.8-0.2-0.9-0.6c-0.1-0.4,0.1-0.8,0.6-0.9c3.3-0.8,6.6-1.9,9.8-3.3c2.9-1.2,5.7-2.5,8.5-3.9
				c3-1.5,6-3.1,8.9-4.6C97,124.6,97.4,124.8,97.6,125.1z"/>
			<path fill="#303030" d="M98.4,127.1c0.2,0.4,0.1,0.8-0.3,1.1c-2,1.2-4,2.4-6,3.6c-3.6,2.1-7.3,4.1-11.1,5.9
				c-3.2,1.5-6.5,2.8-9.9,3.9c-0.4,0.1-0.8-0.1-1-0.5c-0.1-0.4,0.1-0.8,0.5-1c3.3-1,6.5-2.3,9.7-3.8c3.4-1.6,6.7-3.4,10-5.3
				c2.3-1.3,4.6-2.7,6.9-4.1C97.7,126.6,98.2,126.7,98.4,127.1z"/>
			<path fill="#303030" d="M97,123.6c0.2,0.4,0,0.9-0.4,1c-3.4,1.3-6.8,2.7-10.4,4c-2.7,1-5.3,1.9-8,2.6c-3.4,1-6.9,1.8-10.4,2.2
				c-0.4,0.1-0.8-0.2-0.9-0.7c-0.1-0.4,0.2-0.8,0.7-0.9c3.4-0.4,6.8-1.2,10.1-2.2c2.3-0.6,4.5-1.4,6.7-2.2c3.9-1.4,7.7-2.9,11.5-4.4
				C96.4,123,96.9,123.2,97,123.6z"/>
		</g>
	</g>
	<g>
		<g>
			<g>
				<g>
					<path fill="#303030" d="M67.8,191.5C70.1,185,79,158,88.9,152.6c2.6-1.5,4.7-2.5,6.5-3.4c3-1,19.6-8.9,19.6-8.9
						c6.8-2.9,16.7-6.7,17.1-6.8c7.3-2.5,11-7.5,11.4-13.4c0.6-8.2-1.5-10.8-1.5-10.8c-1.1-3.3,11.4-10.3,13.4-5.4
						c0.8,1.8,6.9,11.2,4.9,19.1c-7.4,28.8-23,24.1-21.6,44c0.6,9.1,2.9,16.9,4.2,22.9c0.7,3.4,4.3,14.8,4.7,16.4
						c6.6,23.4,16.9,61.9,17,62.3c1.7,4.1,2.1,9.5-4.7,11.1c-6.8,1.6-11-2.6-12.6-6.6c-0.5-1.2-13.4-37.6-17.1-45
						c-1.9-3.8-3.5-6.8-5.1-7.4c-0.4-0.2-1.7-0.3-2.3-0.1c-1.6,0.6-3.1,3.4-4.5,7.1c-2.7,7.3-17.2,41-18.9,45.3
						c-1.5,3.9-5.6,9-12.6,6.1c-5.5-2.2-6.5-5.8-4.7-11.5c0.2-0.6,15.1-43,19.3-63.1c0-0.2,0.9-6.7,1-7.5c1-14.2-2.6-26.8-5.3-26
						c-4.8,1.5-8.8,14.1-12.9,22.5c-0.7,1.4-2.7,5.6-2.7,5.6c-1.1,2-4.5,5.9-10.2,3.3C65.5,199.9,67.2,193.2,67.8,191.5z"/>
				</g>
			</g>
		</g>
		<path fill="#303030" d="M155.4,103.8c0,0-9-15.3-20.6-5.1c-3.4,3.5-5.4,5.7-3.8,9.2c2.2,4.7,7.5-2.3,11.4,2
			C145.6,113.6,155.4,103.8,155.4,103.8z"/>
	</g>
</g>
</svg>
