<?xml version="1.0" encoding="utf-8"?>
<!-- Generator: Adobe Illustrator 17.1.0, SVG Export Plug-In . SVG Version: 6.00 Build 0)  -->
<!DOCTYPE svg PUBLIC "-//W3C//DTD SVG 1.1//EN" "http://www.w3.org/Graphics/SVG/1.1/DTD/svg11.dtd">
<svg version="1.1" id="Layer_1" xmlns="http://www.w3.org/2000/svg" xmlns:xlink="http://www.w3.org/1999/xlink" x="0px" y="0px"
	 viewBox="0 0 147 143" enable-background="new 0 0 147 143" xml:space="preserve">
<g>
	<path fill="#468986" d="M92.4,0.2c0,0-5.2,5.3-18.9,5.3c-13.7,0-18.9-5.3-18.9-5.3s-0.5,18,18.9,18S92.4,0.2,92.4,0.2"/>
	<path fill="none" stroke="#5D5E60" stroke-width="0.25" stroke-miterlimit="10" d="M92.4,0.2c0,0-5.2,5.3-18.9,5.3
		c-13.7,0-18.9-5.3-18.9-5.3s-0.5,18,18.9,18S92.4,0.2,92.4,0.2z"/>
	<path fill="#367D78" d="M91.2,4.7c0,0-3.1,4.5-17.7,4.5c-14.6,0-17.7-4.5-17.7-4.5s1.3,13,18.3,13C91.2,17.6,91.2,4.7,91.2,4.7"/>
	<path fill="none" stroke="#5D5E60" stroke-width="0.25" stroke-miterlimit="10" d="M91.2,4.7c0,0-3.1,4.5-17.7,4.5
		c-14.6,0-17.7-4.5-17.7-4.5s1.3,13,18.3,13C91.2,17.6,91.2,4.7,91.2,4.7z"/>
	<path fill="#303030" d="M82.9,142.8h38.4V57.5l7.9,1.8l17.6-21.4L120.6,8.8l-28-8.3C91,9.6,83,16.5,73.4,16.5h0.1
		c-9.6,0-17.6-7-19.1-16.1l-28,8.3L0.2,37.9l17.6,21.4l7.9-1.8v85.3h38.4H82.9z"/>
	<line fill="#F79321" x1="3.7" y1="34.7" x2="22.8" y2="58.1"/>
	<line fill="none" stroke="#5D5E60" stroke-width="0.277" x1="3.7" y1="34.7" x2="22.8" y2="58.1"/>
	<path fill="none" stroke="#5D5E60" stroke-width="0.277" d="M27.2,8.9c4.1,16.1,3,38-0.8,48.5"/>
	<path fill="none" stroke="#5D5E60" stroke-width="0.25" stroke-miterlimit="10" d="M96.3,1.5C94.3,12,85,19.9,73.9,19.9H74
		c-11.1,0-20.4-7.9-22.4-18.5"/>
	<polygon fill="#FFFFFF" points="82.4,72.7 80,69.3 101.3,37.2 84.1,37.2 65.7,66.2 65.7,37.2 49.3,37.2 49.3,70.4 49.3,101.6 
		65.9,101.6 65.9,73.7 83.5,101.6 102.7,101.6 	"/>
</g>
</svg>
