<svg id="Layer_1" data-name="Layer 1" xmlns="http://www.w3.org/2000/svg" viewBox="0 0 115.4 115.4"><defs><style>.cls-1{fill:#1a1a1a;opacity:0.08;}.cls-2{fill:#f07d2e;}.cls-3{fill:#fff;}</style></defs><title>brokerage_starburst2</title><polygon class="cls-1" points="48.6 16.5 60.3 4 71.7 16.8 88.1 11.8 91.6 28.5 108.3 32.4 102.9 48.6 115.4 60.3 102.6 71.7 107.6 88.1 90.9 91.6 87 108.3 70.8 102.9 59.1 115.4 47.7 102.6 31.3 107.6 27.8 90.9 11.1 87 16.5 70.7 4 59.1 16.8 47.7 11.8 31.3 28.5 27.8 32.4 11.1 48.6 16.5"/><polygon class="cls-2" points="44.6 12.5 56.3 0 67.7 12.8 84.1 7.8 87.6 24.5 104.3 28.4 98.9 44.6 111.4 56.3 98.6 67.7 103.6 84.1 86.9 87.6 83 104.3 66.8 98.9 55.1 111.4 43.7 98.6 27.3 103.6 23.8 86.9 7.1 83 12.5 66.7 0 55.1 12.8 43.7 7.8 27.3 24.5 23.8 28.4 7.1 44.6 12.5"/><path class="cls-3" d="M62.1,42.8c1.3,5.3-1.9,9.9-7.4,11.3-3.8,1-7.4.1-9.7-2.3l2.1-3.7a7.73,7.73,0,0,0,6.6,1.7,4.37,4.37,0,0,0,3.4-5.5,4.24,4.24,0,0,0-5.3-3.2,4.83,4.83,0,0,0-3.4,3.1l-4.3,1.1c0-.6-1-16.3-1-16.3L56,25.6l1.1,4.5-9.3,2.4,0.5,6.1a4.62,4.62,0,0,1,3.1-1.9C56.3,35.4,60.9,37.8,62.1,42.8Z" transform="translate(-0.3 -0.3)"/><path class="cls-3" d="M22.7,66.8A4.19,4.19,0,0,1,26.9,68l-1.2,1.4a2.37,2.37,0,0,0-2.6-.9c-1.8.5-2.2,2.4-1.9,3.9,0.4,1.7,1.9,3,3.5,2.6a2.59,2.59,0,0,0,1.9-2l1.8,0.5c-0.2,1.6-1.8,2.8-3.3,3.2-2.7.7-5.2-1.4-5.8-3.8S19.7,67.5,22.7,66.8Z" transform="translate(-0.3 -0.3)"/><path class="cls-3" d="M28.4,71.9a3.64,3.64,0,0,1,2.8-4.6A3.77,3.77,0,0,1,35.9,70a3.68,3.68,0,0,1-2.8,4.6A3.77,3.77,0,0,1,28.4,71.9ZM32.7,73A2.09,2.09,0,0,0,34,70.4a2.15,2.15,0,0,0-2.4-1.7,2.09,2.09,0,0,0-1.3,2.6A2,2,0,0,0,32.7,73Z" transform="translate(-0.3 -0.3)"/><path class="cls-3" d="M48.8,70.4l-1.8.5-1-4c-0.3-1.1-.8-1.5-1.5-1.4a2,2,0,0,0-1.3,1.9l1.1,4.1-1.8.5-1-4c-0.3-1.1-.8-1.5-1.5-1.4a2,2,0,0,0-1.3,1.9l1.1,4.2-1.8.5-2-7.1,1.6-.4L37.9,67a2.92,2.92,0,0,1,2.3-2.1,1.94,1.94,0,0,1,2.4,1,3.06,3.06,0,0,1,2.2-2.2c1.8-.4,2.5.9,2.8,2.2Z" transform="translate(-0.3 -0.3)"/><path class="cls-3" d="M61.2,67.2l-1.8.5-1-4c-0.3-1.1-.8-1.5-1.5-1.4a2,2,0,0,0-1.3,1.9l1.1,4.1-1.8.5-1-4c-0.3-1.1-.8-1.5-1.5-1.4a2,2,0,0,0-1.3,1.9l1.1,4.2-1.8.5-2-7,1.6-.4,0.3,1.3a2.92,2.92,0,0,1,2.3-2.1,1.94,1.94,0,0,1,2.4,1,3.06,3.06,0,0,1,2.2-2.2c1.8-.4,2.5.9,2.8,2.2Z" transform="translate(-0.3 -0.3)"/><path class="cls-3" d="M60.5,58.8L60,57l1.8-.5,0.5,1.8Zm2.1,8.1-1.8-7.1,1.8-.5,1.8,7.1Z" transform="translate(-0.3 -0.3)"/><path class="cls-3" d="M65,65.4L65.4,64a4.59,4.59,0,0,0,2.8.2c0.8-.2,1.1-0.6,1-1.1s-0.6-.6-1.9-0.5c-2,0-2.8-.2-3-1.3-0.4-1.5.6-2.7,2.3-3.1a5.46,5.46,0,0,1,3.1.1l-0.5,1.3a5.11,5.11,0,0,0-2.4-.2c-0.7.2-1.1,0.5-.9,1.1s0.5,0.5,1.7.5c2.1,0,3.1.2,3.4,1.4,0.4,1.4-.6,2.5-2.4,3A5.55,5.55,0,0,1,65,65.4Z" transform="translate(-0.3 -0.3)"/><path class="cls-3" d="M71.7,63.7l0.4-1.4a4.59,4.59,0,0,0,2.8.2c0.8-.2,1.1-0.6,1-1.1s-0.6-.6-1.9-0.5c-2,0-2.8-.2-3-1.3-0.4-1.5.6-2.7,2.3-3.1a5.46,5.46,0,0,1,3.1.1L76,57.9a5.11,5.11,0,0,0-2.4-.2c-0.7.2-1.1,0.5-.9,1.1s0.5,0.5,1.7.5c2.1,0,3.1.2,3.4,1.4,0.4,1.4-.6,2.5-2.4,3A5.85,5.85,0,0,1,71.7,63.7Z" transform="translate(-0.3 -0.3)"/><path class="cls-3" d="M77.1,54.6l-0.5-1.8,1.8-.5,0.5,1.8Zm2.1,8.1-1.8-7.1,1.8-.5L81,62.2Z" transform="translate(-0.3 -0.3)"/><path class="cls-3" d="M81.1,58.4a3.64,3.64,0,0,1,2.8-4.6,3.77,3.77,0,0,1,4.7,2.7A3.87,3.87,0,0,1,81.1,58.4Zm4.2,1.2A2.09,2.09,0,0,0,86.6,57a2.15,2.15,0,0,0-2.4-1.7,2.09,2.09,0,0,0-1.3,2.6A2.12,2.12,0,0,0,85.3,59.6Z" transform="translate(-0.3 -0.3)"/><path class="cls-3" d="M97,58.1l-1.8.5-1-4c-0.3-1.1-.8-1.5-1.5-1.4a2.34,2.34,0,0,0-1.5,2l1.1,4.2-1.8.5-1.8-7.1,1.6-.4,0.3,1.3a3.52,3.52,0,0,1,2.5-2.2c1.8-.5,2.5.9,2.9,2.2Z" transform="translate(-0.3 -0.3)"/><path class="cls-3" d="M30.9,89.9l-2.1-8.2,5.5-1.4,0.4,1.4-3.9,1,0.5,2.1,3.3-.8,0.3,1.3-3.3.8,0.9,3.4Z" transform="translate(-0.3 -0.3)"/><path class="cls-3" d="M39.6,82.6a2.46,2.46,0,0,0-1.8,1.6l0.9,3.7-1.6.4-1.6-6.1,1.4-.4,0.3,1.3a2.51,2.51,0,0,1,1.5-1.9,1,1,0,0,0,.3-0.1Z" transform="translate(-0.3 -0.3)"/><path class="cls-3" d="M40.4,84.2a3.31,3.31,0,0,1,6.4-1.7,4.33,4.33,0,0,0,.1.5l-4.7,1.2a1.67,1.67,0,0,0,2,1.1,1.49,1.49,0,0,0,1.2-1.2h1.4a3.13,3.13,0,0,1-2.4,2.3A3,3,0,0,1,40.4,84.2ZM45,82.5a1.62,1.62,0,0,0-2-1.1,1.69,1.69,0,0,0-1.2,1.9Z" transform="translate(-0.3 -0.3)"/><path class="cls-3" d="M47.2,82.5a3.31,3.31,0,0,1,6.4-1.7,4.33,4.33,0,0,0,.1.5L49,82.5a1.67,1.67,0,0,0,2,1.1,1.49,1.49,0,0,0,1.2-1.2h1.4a3.13,3.13,0,0,1-2.4,2.3A3,3,0,0,1,47.2,82.5Zm4.6-1.8a1.62,1.62,0,0,0-2-1.1,1.69,1.69,0,0,0-1.2,1.9Z" transform="translate(-0.3 -0.3)"/><path class="cls-3" d="M62.3,74.6l-2.6.7,1.8,6.8-1.6.4-1.8-6.8-2.6.7L55.1,75,62,73.2Z" transform="translate(-0.3 -0.3)"/><path class="cls-3" d="M67.1,75.6a2.46,2.46,0,0,0-1.8,1.6l0.9,3.7-1.6.4L63,75.2l1.4-.4,0.3,1.3a2.51,2.51,0,0,1,1.5-1.9,1,1,0,0,0,.3-0.1Z" transform="translate(-0.3 -0.3)"/><path class="cls-3" d="M68.2,78.4c-0.3-1.2.6-2.2,2.1-2.6a4.33,4.33,0,0,1,1.6-.1l-0.1-.3a1.24,1.24,0,0,0-1.7-.9,3.35,3.35,0,0,0-1.7,1.2l-0.7-.9A4.65,4.65,0,0,1,70,73.4c1.7-.4,3,0.2,3.4,1.8l0.5,1.9a0.45,0.45,0,0,0,.5.4l0.3,1.3a4.87,4.87,0,0,0-.7.3,0.85,0.85,0,0,1-1.1-.5l-0.1-.3a3.39,3.39,0,0,1-2,1.7A2.36,2.36,0,0,1,68.2,78.4Zm3.9-.7a0.51,0.51,0,0,0,.1-0.5L72,76.5a5.7,5.7,0,0,0-1.3.1,1.17,1.17,0,0,0-1.1,1.3,1.09,1.09,0,0,0,1.3.7A2.26,2.26,0,0,0,72.1,77.7Z" transform="translate(-0.3 -0.3)"/><path class="cls-3" d="M74.5,75.5c-0.4-1.8.3-3.4,1.9-3.8a2.35,2.35,0,0,1,2.3.7l-0.9-3.5,1.6-.4,1.7,6.7a0.45,0.45,0,0,0,.5.4l0.3,1.3a4.87,4.87,0,0,0-.7.3c-0.6.1-1,0-1.1-.5L80,76.2a2.39,2.39,0,0,1-1.8,1.7A3,3,0,0,1,74.5,75.5Zm4.9-.4L79,73.6a2,2,0,0,0-1.9-.8A1.78,1.78,0,0,0,76,75.1a1.84,1.84,0,0,0,2.1,1.4A1.69,1.69,0,0,0,79.4,75.1Z" transform="translate(-0.3 -0.3)"/><path class="cls-3" d="M81.8,73.6a3.31,3.31,0,0,1,6.4-1.7,1.09,1.09,0,0,1,.1.5l-4.7,1.2a1.67,1.67,0,0,0,2,1.1,1.49,1.49,0,0,0,1.2-1.2h1.4a3.13,3.13,0,0,1-2.4,2.3A3.09,3.09,0,0,1,81.8,73.6Zm4.7-1.7a1.62,1.62,0,0,0-2-1.1,1.69,1.69,0,0,0-1.2,1.9Z" transform="translate(-0.3 -0.3)"/><path class="cls-3" d="M89.1,74.2L89.5,73a4.08,4.08,0,0,0,2.4.2q1-.3.9-0.9c-0.1-.4-0.6-0.5-1.7-0.5-1.7,0-2.4-.2-2.6-1.1a2.17,2.17,0,0,1,1.9-2.6,5,5,0,0,1,2.7.1l-0.4,1.1a2.8,2.8,0,0,0-2-.1,0.79,0.79,0,0,0-.8.9c0.1,0.4.4,0.5,1.4,0.4,1.8,0,2.6.2,2.9,1.2,0.3,1.2-.5,2.2-2,2.6A4.67,4.67,0,0,1,89.1,74.2Z" transform="translate(-0.3 -0.3)"/></svg>