<?xml version="1.0" encoding="utf-8"?>
<!-- Generator: Adobe Illustrator 16.0.4, SVG Export Plug-In . SVG Version: 6.00 Build 0)  -->
<!DOCTYPE svg PUBLIC "-//W3C//DTD SVG 1.1//EN" "http://www.w3.org/Graphics/SVG/1.1/DTD/svg11.dtd">
<svg version="1.1" id="Layer_1" xmlns="http://www.w3.org/2000/svg" xmlns:xlink="http://www.w3.org/1999/xlink" x="0px" y="0px"
	 width="118px" height="34.229px" viewBox="0 0 118 34.229" enable-background="new 0 0 118 34.229" xml:space="preserve">
<g>
	<path fill="#969696" d="M26.41,10.34c0.43,0,0.779,0.35,0.779,0.78v15.289c0,0.431-0.35,0.779-0.779,0.779h-2v2v0.86l-3.001-2.418
		l-0.549-0.442h-0.705h-9.033c-0.431,0-0.781-0.35-0.781-0.779V11.12c0-0.431,0.351-0.78,0.781-0.78H26.41 M26.41,8.34H11.121
		c-1.535,0-2.781,1.245-2.781,2.78v15.289c0,1.535,1.246,2.779,2.781,2.779h9.033l6.256,5.039V29.19
		c1.535,0,2.779-1.244,2.779-2.779V11.12C29.189,9.585,27.945,8.34,26.41,8.34L26.41,8.34z"/>
	<path fill="#D6D6D6" d="M19.461,23.63H6.951c-2.303,0-4.172-1.867-4.172-4.17V6.95c0-2.306,1.869-4.172,4.172-4.172h12.51
		c2.303,0,4.17,1.866,4.17,4.172v12.51C23.631,21.763,21.763,23.63,19.461,23.63z"/>
	<path fill="#969696" d="M18.07,2c0.43,0,0.779,0.35,0.779,0.778v15.29c0,0.432-0.35,0.78-0.779,0.78H9.035H8.33l-0.549,0.442
		L4.78,21.708V20.85v-2h-2C2.349,18.85,2,18.5,2,18.07V2.78C2,2.35,2.349,2,2.779,2H18.07 M18.07,0H2.779C1.244,0,0,1.244,0,2.78
		v15.29c0,1.535,1.244,2.78,2.779,2.78v5.038l6.256-5.038h9.035c1.535,0,2.779-1.245,2.779-2.78V2.78C20.849,1.244,19.605,0,18.07,0
		L18.07,0z"/>
</g>
<g>
	<path fill="#969696" d="M45.995,9.911c2.269,0,3.962,1.151,4.754,2.79l-1.278,0.828c-0.757-1.62-2.251-2.16-3.547-2.16
		c-2.846,0-4.376,2.574-4.376,4.986c0,2.665,1.891,5.06,4.43,5.06c1.332,0,2.917-0.666,3.655-2.25l1.351,0.737
		c-0.811,1.908-3.098,2.972-5.078,2.972c-3.511,0-5.995-3.351-5.995-6.59C39.91,13.187,42.143,9.911,45.995,9.911z"/>
	<path fill="#969696" d="M60.883,22.767h-1.584v-5.258c0-1.927-0.703-2.881-1.981-2.881c-1.242,0-2.593,1.045-3.007,2.467v5.672
		h-1.585V9.623h1.585v5.762c0.738-1.351,2.106-2.179,3.601-2.179c2.232,0,2.971,1.71,2.971,3.942V22.767z"/>
	<path fill="#969696" d="M62.572,20.066c0-1.782,1.639-2.953,3.961-2.953c0.918,0,1.908,0.181,2.629,0.469v-0.756
		c0-1.531-0.918-2.468-2.484-2.468c-0.973,0-1.963,0.378-2.99,1.099l-0.521-1.026c1.207-0.81,2.396-1.224,3.69-1.224
		c2.396,0,3.89,1.403,3.89,3.78v3.834c0,0.396,0.146,0.56,0.504,0.576v1.369c-0.233,0.035-0.467,0.072-0.647,0.072
		c-0.521,0-1.152-0.271-1.188-0.955l-0.037-0.666c-0.846,1.135-2.285,1.729-3.563,1.729C63.922,22.947,62.572,21.667,62.572,20.066z
		 M68.82,20.642c0.234-0.27,0.342-0.541,0.342-0.738v-1.387c-0.738-0.287-1.604-0.449-2.377-0.449c-1.621,0-2.701,0.72-2.701,1.854
		c0,0.973,0.793,1.838,2.125,1.838C67.217,21.759,68.279,21.273,68.82,20.642z"/>
	<path fill="#969696" d="M78.035,22.298c-0.396,0.18-1.277,0.594-2.287,0.594c-1.152,0-2.123-0.61-2.123-1.963V14.61h-1.279v-1.241
		h1.279v-3.134h1.584v3.134h2.105v1.241h-2.105v5.834c0.035,0.685,0.504,0.99,1.062,0.99c0.629,0,1.205-0.289,1.387-0.396
		L78.035,22.298z"/>
	<path fill="#969696" d="M84.207,22.767V9.982h1.621v11.344h7.131v1.44L84.207,22.767L84.207,22.767z"/>
	<path fill="#969696" d="M94.539,11.603V9.623h1.586v1.979H94.539z M94.539,22.767v-9.398h1.586v9.398H94.539z"/>
	<path fill="#969696" d="M101.326,22.767l-3.709-9.398h1.639l2.971,8.012l2.99-8.012h1.512l-3.709,9.398H101.326z"/>
	<path fill="#969696" d="M107.625,18.068c0-2.646,1.98-4.861,4.809-4.861c2.844,0,4.699,2.269,4.699,4.79
		c0,0.252-0.02,0.504-0.037,0.61h-7.797c0.145,1.855,1.531,3.152,3.17,3.152c1.152,0,2.287-0.631,2.684-1.568l1.367,0.379
		c-0.61,1.388-2.215,2.377-4.104,2.377C109.588,22.947,107.625,20.714,107.625,18.068z M115.637,17.436
		c-0.162-1.8-1.529-3.042-3.203-3.042c-1.677,0-3.043,1.26-3.17,3.042H115.637z"/>
</g>
</svg>
