<?xml version="1.0" encoding="utf-8"?>
<!-- Generator: Adobe Illustrator 16.0.4, SVG Export Plug-In . SVG Version: 6.00 Build 0)  -->
<!DOCTYPE svg PUBLIC "-//W3C//DTD SVG 1.1//EN" "http://www.w3.org/Graphics/SVG/1.1/DTD/svg11.dtd">
<svg version="1.1" id="Layer_1" xmlns="http://www.w3.org/2000/svg" xmlns:xlink="http://www.w3.org/1999/xlink" x="0px" y="0px"
	 width="556px" height="381px" viewBox="0 0 556 381" enable-background="new 0 0 556 381" xml:space="preserve">
<g>
	<g>
		<g opacity="0.4">
			<g>
				<g>
					<line fill="none" stroke="#AAAAAA" stroke-miterlimit="10" x1="34.751" y1="18.748" x2="37.751" y2="18.748"/>
					
						<line fill="none" stroke="#AAAAAA" stroke-miterlimit="10" stroke-dasharray="6.0376,6.0376" x1="43.789" y1="18.748" x2="547.927" y2="18.748"/>
					<line fill="none" stroke="#AAAAAA" stroke-miterlimit="10" x1="550.945" y1="18.748" x2="553.945" y2="18.748"/>
				</g>
			</g>
			<g>
				<g>
					<line fill="none" stroke="#AAAAAA" stroke-miterlimit="10" x1="34.751" y1="104.998" x2="37.751" y2="104.998"/>
					
						<line fill="none" stroke="#AAAAAA" stroke-miterlimit="10" stroke-dasharray="6.0376,6.0376" x1="43.789" y1="104.998" x2="547.927" y2="104.998"/>
					<line fill="none" stroke="#AAAAAA" stroke-miterlimit="10" x1="550.945" y1="104.998" x2="553.945" y2="104.998"/>
				</g>
			</g>
			<g>
				<g>
					<line fill="none" stroke="#AAAAAA" stroke-miterlimit="10" x1="34.751" y1="191.248" x2="37.751" y2="191.248"/>
					
						<line fill="none" stroke="#AAAAAA" stroke-miterlimit="10" stroke-dasharray="6.0376,6.0376" x1="43.789" y1="191.248" x2="547.927" y2="191.248"/>
					<line fill="none" stroke="#AAAAAA" stroke-miterlimit="10" x1="550.945" y1="191.248" x2="553.945" y2="191.248"/>
				</g>
			</g>
			<g>
				<g>
					<line fill="none" stroke="#AAAAAA" stroke-miterlimit="10" x1="34.751" y1="277.498" x2="37.751" y2="277.498"/>
					
						<line fill="none" stroke="#AAAAAA" stroke-miterlimit="10" stroke-dasharray="6.0376,6.0376" x1="43.789" y1="277.498" x2="547.927" y2="277.498"/>
					<line fill="none" stroke="#AAAAAA" stroke-miterlimit="10" x1="550.945" y1="277.498" x2="553.945" y2="277.498"/>
				</g>
			</g>
		</g>
		<g opacity="0.08">
			<path fill="#1A1A1A" d="M182.441,149.119l0.401,5.72l8.983,128.179l1.146,16.352c0.317,4.525,3.54,8.396,7.911,10.171
				c0.529,0.236,1.084,0.422,1.65,0.58l137.729-171.285l53.855,23.59l18.373-42.535l-3.287-5.264v-7.49
				c0-2.248-0.631-4.345-1.707-6.144l1.094-4.215l-55.478-14.392l-3.219,12.408v-16.37c0-7.015-5.686-12.697-12.701-12.697h-71.427
				c-7.013,0-12.701,5.683-12.701,12.697v16.712h-37.676l-5.765-4.477l-3.476,4.477h-0.391c-6.627,0-12,5.373-12,12v3.957
				l-19.283,24.834l9.036,7.016C182.688,144.802,182.286,146.897,182.441,149.119z M264.178,89.536
				c0-6.14,4.973-11.113,11.112-11.113h52.38c6.139,0,11.111,4.974,11.111,11.113v0.672l-28.395,4.927h-46.21v-5.599H264.178z"/>
			<path fill="#1A1A1A" d="M398.273,172.977l-55.613-24.359L212.427,310.581h184.375l0.002-0.001h0.398
				c1.736,0,3.383-0.376,4.875-1.041c4.371-1.774,7.594-5.646,7.91-10.171l1.146-16.351l8.982-128.18l0.02-0.263l6.408-3.783
				l-11.344-17.672L398.273,172.977z"/>
		</g>
		<defs>
			<filter id="Adobe_OpacityMaskFilter" filterUnits="userSpaceOnUse" x="32.124" y="36.75" width="521.821" height="330.084">
				<feColorMatrix  type="matrix" values="1 0 0 0 0  0 1 0 0 0  0 0 1 0 0  0 0 0 1 0"/>
			</filter>
		</defs>
		<mask maskUnits="userSpaceOnUse" x="32.124" y="36.75" width="521.821" height="330.084" id="SVGID_1_">
			<g filter="url(#Adobe_OpacityMaskFilter)">
				<rect x="34.751" y="3.748" fill="#FFFFFF" width="521.194" height="360"/>
			</g>
		</mask>
		<g mask="url(#SVGID_1_)">
			<g opacity="0.08">
				<g>
					<polyline fill="none" stroke="#1A1A1A" stroke-width="8" stroke-miterlimit="10" points="34.751,363.748 142.986,274.475 
						189.236,333.039 341.461,143.726 396.195,167.7 434.195,79.725 456.945,120.475 535.645,72.018 					"/>
					<g>
						<polygon fill="#1A1A1A" points="534.024,88.671 531.858,74.35 520.046,65.967 553.945,60.75 						"/>
					</g>
				</g>
			</g>
			<g>
				<g>
					<polyline fill="none" stroke="#BE463D" stroke-width="8" stroke-miterlimit="10" points="34.751,363.748 142.986,269.475 
						189.236,323.039 341.461,130.726 396.195,151.7 434.195,58.725 456.945,96.475 535.645,48.018 					"/>
					<g>
						<polygon fill="#BE463D" points="534.024,64.671 531.858,50.35 520.046,41.967 553.945,36.75 						"/>
					</g>
				</g>
			</g>
		</g>
		<g display="none" opacity="0.05">
			
				<line display="inline" fill="none" stroke="#1A1A1A" stroke-width="2" stroke-miterlimit="10" x1="36.751" y1="380.748" x2="36.751" y2="5.748"/>
			
				<line display="inline" fill="none" stroke="#1A1A1A" stroke-width="2" stroke-miterlimit="10" x1="21.751" y1="365.748" x2="555.945" y2="365.748"/>
		</g>
		<g>
			<line fill="none" stroke="#B4B4B4" stroke-width="2" stroke-miterlimit="10" x1="34.751" y1="378.748" x2="34.751" y2="11.15"/>
			
				<line fill="none" stroke="#B4B4B4" stroke-width="2" stroke-miterlimit="10" x1="19.751" y1="363.748" x2="553.945" y2="363.748"/>
		</g>
	</g>
	<g>
		<path fill="#0C9DA0" d="M258.178,83.536c0-6.14,4.973-11.113,11.112-11.113h52.38c6.139,0,11.111,4.974,11.111,11.113v14.286
			h11.113V72.423c0-7.015-5.687-12.698-12.701-12.698h-71.428c-7.013,0-12.701,5.684-12.701,12.698v25.399h11.113V83.536H258.178z"
			/>
		<path fill="#31ADB3" d="M391.203,304.581H199.757c-6.627,0-12-5.372-12-12V101.135c0-6.627,5.373-12,12-12h191.446
			c6.627,0,12,5.373,12,12v191.446C403.203,299.209,397.83,304.581,391.203,304.581z"/>
		<path fill="#0D9191" d="M386.822,296.275h-181.76c-4.97,0-9-4.029-9-9V106.441c0-4.971,4.03-9,9-9h180.834c4.971,0,9,4.029,9,9
			V288.2C394.896,292.66,391.281,296.275,386.822,296.275z"/>
		<g>
			
				<rect x="334.5" y="82.926" transform="matrix(0.968 0.2511 -0.2511 0.968 44.8043 -86.709)" fill="#BFDC99" width="55.418" height="98.609"/>
			<path fill="#87C440" d="M377.35,188.058l-55.475-14.392l25.238-97.281l55.477,14.392L377.35,188.058z M324.188,172.307
				l51.804,13.438l24.287-93.607L348.473,78.7L324.188,172.307z"/>
			<path fill="#87C440" d="M373.891,182.67l-46.358-12.028l22.987-88.603l46.359,12.026L373.891,182.67z M329.844,169.282
				l42.688,11.075l22.032-84.932l-42.684-11.073L329.844,169.282z"/>
			<path fill="#87C440" d="M366.674,113.478c10.602,2.749,17.121,12.979,14.561,22.847c-2.561,9.867-13.229,15.635-23.829,12.885
				c-10.603-2.749-17.117-12.978-14.562-22.846C345.404,116.498,356.074,110.729,366.674,113.478"/>
			<polygon fill="#87C440" points="350.975,83.137 362.289,86.073 347.99,94.64 			"/>
			<polygon fill="#87C440" points="396.076,94.838 384.76,91.902 393.092,106.341 			"/>
		</g>
		<g>
			
				<rect x="289.95" y="88.514" transform="matrix(0.9853 -0.1709 0.1709 0.9853 -18.8789 56.312)" fill="#BFDC99" width="55.414" height="98.605"/>
			<path fill="#87C440" d="M354.48,182.447l-56.467,9.797l-17.183-99.022l56.469-9.797L354.48,182.447z M299.559,190.051
				l52.729-9.15l-16.533-95.283l-52.729,9.15L299.559,190.051z"/>
			<path fill="#87C440" d="M349.105,178.969l-47.189,8.186L286.27,96.967l47.188-8.188L349.105,178.969z M303.461,184.961
				l43.451-7.537l-15-86.452l-43.451,7.54L303.461,184.961z"/>
			<path fill="#87C440" d="M313.963,118.929c10.789-1.873,20.949,4.751,22.693,14.796c1.742,10.043-5.592,19.703-16.383,21.576
				c-10.789,1.871-20.949-4.754-22.693-14.795C295.838,130.461,303.174,120.802,313.963,118.929"/>
			<polygon fill="#87C440" points="287.135,97.778 298.652,95.78 289.168,109.486 			"/>
			<polygon fill="#87C440" points="333.045,89.812 321.527,91.811 335.076,101.521 			"/>
			<polygon fill="#BFDC99" points="318.041,132.994 316.871,134.166 302.771,127.965 303.947,134.75 316.607,140 305.203,141.978 
				306.326,148.449 319.42,146.178 331.678,144.051 330.545,137.51 319.58,139.413 329.344,130.589 328.029,123.018 			"/>
		</g>
		<g>
			
				<rect x="338.696" y="95.305" transform="matrix(0.5298 0.8481 -0.8481 0.5298 294.9218 -242.7595)" fill="#BFDC99" width="55.412" height="98.601"/>
			<path fill="#87C440" d="M338.982,195.52l-30.361-48.606l85.238-53.244l30.362,48.607L338.982,195.52z M311.234,147.516
				l28.354,45.39l82.021-51.233l-28.354-45.391L311.234,147.516z"/>
			<path fill="#87C440" d="M340.178,189.229l-25.371-40.62l77.635-48.495l25.374,40.62L340.178,189.229z M317.42,149.211
				l23.363,37.404l74.418-46.485l-23.365-37.403L317.42,149.211z"/>
			<path fill="#87C440" d="M382.541,134.045c5.801,9.288,3.496,21.196-5.15,26.597c-8.645,5.399-20.356,2.249-26.16-7.039
				c-5.801-9.288-3.496-21.196,5.148-26.597C365.025,121.605,376.738,124.758,382.541,134.045"/>
			<polygon fill="#87C440" points="392.016,101.223 398.207,111.139 381.938,107.519 			"/>
			<polygon fill="#87C440" points="416.701,140.742 410.508,130.826 406.623,147.037 			"/>
			<polygon fill="#BFDC99" points="371.049,143.125 369.523,142.48 369.953,127.084 364.111,130.732 364.023,144.439 
				357.889,134.621 352.318,138.101 359.359,149.371 365.949,159.924 371.58,156.408 365.686,146.969 377.539,152.686 
				384.057,148.615 			"/>
		</g>
		<g>
			
				<rect x="198.024" y="88.814" transform="matrix(0.6133 -0.7899 0.7899 0.6133 -21.7982 231.7139)" fill="#BFDC99" width="55.416" height="98.608"/>
			<path fill="#87C440" d="M283.004,146.295l-35.147,45.268l-79.383-61.637l35.15-45.268L283.004,146.295z M247.522,188.9
				l32.822-42.27l-76.386-59.31l-32.821,42.27L247.522,188.9z"/>
			<path fill="#87C440" d="M276.688,147.344l-29.374,37.828l-72.299-56.139l29.372-37.83L276.688,147.344z M246.979,182.51
				l27.047-34.831l-69.305-53.812l-27.046,34.832L246.979,182.51z"/>
		</g>
		<g>
			
				<rect x="207.688" y="101.354" transform="matrix(0.9422 -0.335 0.335 0.9422 -36.8689 87.5654)" fill="#BFDC99" width="55.413" height="98.603"/>
			<path fill="#87C440" d="M279.223,188.414l-54,19.201l-33.67-94.695l53.998-19.2L279.223,188.414z M226.375,205.191l50.421-17.933
				l-32.4-91.117l-50.422,17.932L226.375,205.191z"/>
			<path fill="#87C440" d="M273.337,185.893l-45.129,16.046l-30.665-86.247l45.125-16.046L273.337,185.893z M229.361,199.516
				l41.551-14.772l-29.397-82.672l-41.549,14.775L229.361,199.516z"/>
			<polygon fill="#87C440" points="198.534,116.347 209.548,112.432 202.516,127.545 			"/>
			<polygon fill="#87C440" points="242.436,100.736 231.422,104.652 246.417,111.934 			"/>
		</g>
		<g>
			<path fill="#31ADB3" d="M405.135,277.018h-219.31l-9.384-133.897c-0.528-7.54,5.224-13.702,12.853-13.702h212.372
				c7.629,0,13.381,6.162,12.852,13.702L405.135,277.018z"/>
			<path opacity="0.2" fill="#FFFFFF" enable-background="new    " d="M176.842,148.839c1.434-5.456,6.335-9.422,12.452-9.422
				h212.372c6.115,0,11.018,3.966,12.451,9.422l0.399-5.72c0.529-7.54-5.223-13.702-12.852-13.702H189.294
				c-7.628,0-13.381,6.162-12.853,13.702L176.842,148.839z"/>
			<path fill="#424142" d="M390.803,304.581H200.157c-6.848,0-12.75-5-13.186-11.213l-1.146-16.351h219.31l-1.146,16.351
				C403.553,299.581,397.65,304.581,390.803,304.581z"/>
			<polygon fill="#B8E2E0" points="306.379,216.831 302.326,211.938 340.039,164.207 309.709,164.207 277.834,207.391 
				277.395,164.207 248.472,164.207 249.777,213.602 250.935,257.422 278.634,257.422 278.244,218.338 307.951,257.422 
				340.025,257.422 			"/>
		</g>
	</g>
	<g>
		<g opacity="0.08">
			<polygon fill="#1A1A1A" points="55.11,16.619 68.735,2 82.027,16.924 101.137,11.076 105.185,30.646 124.66,35.137 118.38,54.11 
				133,67.735 118.075,81.027 123.922,100.136 104.354,104.185 99.863,123.66 80.889,117.381 67.265,132 53.973,117.076 
				34.862,122.924 30.815,103.354 11.34,98.861 17.62,79.888 3,66.265 17.924,52.972 12.076,33.862 31.647,29.815 36.137,10.34 			
				"/>
		</g>
		<g>
			<g>
				<polygon fill="#F07D2E" points="52.11,14.619 65.735,0 79.027,14.924 98.137,9.076 102.185,28.646 121.66,33.137 115.38,52.11 
					130,65.735 115.075,79.027 120.922,98.136 101.354,102.185 96.863,121.66 77.889,115.381 64.265,130 50.973,115.076 
					31.862,120.924 27.815,101.354 8.34,96.861 14.62,77.888 0,64.265 14.924,50.972 9.076,31.862 28.647,27.815 33.137,8.34 				
					"/>
			</g>
			<g>
				
					<text transform="matrix(0.9688 -0.2479 0.2479 0.9688 20.6089 70.7598)" fill="#FFFFFF" font-family="'Raleway-Bold'" font-size="17.4967">Trade Free</text>
				
					<text transform="matrix(0.9688 -0.2479 0.2479 0.9688 24.7373 91.3774)" fill="#FFFFFF" font-family="'Raleway-Bold'" font-size="17.4967">for 30 Days</text>
			</g>
		</g>
	</g>
</g>
</svg>
