<?xml version="1.0" encoding="utf-8"?>
<!-- Generator: Adobe Illustrator 16.0.4, SVG Export Plug-In . SVG Version: 6.00 Build 0)  -->
<!DOCTYPE svg PUBLIC "-//W3C//DTD SVG 1.1//EN" "http://www.w3.org/Graphics/SVG/1.1/DTD/svg11.dtd">
<svg version="1.1" id="Layer_1" xmlns="http://www.w3.org/2000/svg" xmlns:xlink="http://www.w3.org/1999/xlink" x="0px" y="0px"
	 width="32.057px" height="32.057px" viewBox="0 0 32.057 32.057" enable-background="new 0 0 32.057 32.057" xml:space="preserve">
<g>
	<g>
		<path fill="#969696" d="M14.771,16.49c0-1.325,0-1.495-0.918-2.106l-0.307-0.204c-0.135-0.137-0.135-0.511,0.035-0.612
			c0.78-0.271,2.719-1.154,3.5-1.665c0.171,0,0.307,0.067,0.34,0.204c-0.066,1.189-0.135,2.82-0.135,4.215v6.117
			c0,2.447,0.067,2.787,1.291,2.959l0.715,0.102c0.235,0.17,0.169,0.748-0.068,0.85c-1.02-0.066-2.006-0.102-3.195-0.102
			c-1.225,0-2.243,0.034-3.194,0.102c-0.238-0.102-0.308-0.68-0.068-0.85l0.715-0.102c1.256-0.172,1.291-0.512,1.291-2.959
			L14.771,16.49L14.771,16.49z M17.592,6.803c0,1.224-0.85,1.768-1.801,1.768c-1.056,0-1.732-0.781-1.732-1.698
			c0-1.122,0.814-1.836,1.834-1.836C16.913,5.036,17.592,5.852,17.592,6.803z"/>
	</g>
	<g>
		<path fill="#969696" d="M16.029,32.057C7.191,32.057,0,24.866,0,16.029C0,7.192,7.191,0,16.029,0
			c8.839,0,16.027,7.189,16.027,16.027C32.056,24.866,24.867,32.057,16.029,32.057z M16.029,1.834
			c-7.825,0-14.194,6.368-14.194,14.193c0,7.826,6.369,14.193,14.194,14.193c7.826,0,14.193-6.367,14.193-14.193
			C30.222,8.202,23.855,1.834,16.029,1.834z"/>
	</g>
</g>
</svg>
