<?xml version="1.0" encoding="utf-8"?>
<!-- Generator: Adobe Illustrator 17.1.0, SVG Export Plug-In . SVG Version: 6.00 Build 0)  -->
<!DOCTYPE svg PUBLIC "-//W3C//DTD SVG 1.1//EN" "http://www.w3.org/Graphics/SVG/1.1/DTD/svg11.dtd">
<svg version="1.1" id="Layer_1" xmlns="http://www.w3.org/2000/svg" xmlns:xlink="http://www.w3.org/1999/xlink" x="0px" y="0px"
	 viewBox="0 0 169 280" enable-background="new 0 0 169 280" xml:space="preserve">
<g>
	<g>
		<path fill="#214764" d="M52.8,131.3c-5.2,2-10.9-0.6-12.9-5.7L14.9,60.7c-2-5.2,0.6-10.9,5.7-12.9L107,14.6
			c5.2-2,10.9,0.6,12.9,5.7l24.9,64.8c2,5.2-0.6,10.9-5.7,12.9L52.8,131.3z"/>
		<path fill="#214764" d="M5.1,63.6c-0.9-7.7,0.3-15.2,5.4-17.8c4.5-2.3,10.4,0.2,15.6,4.5c0.6-1.6,1.4-3.2,2.2-4.7
			c-6.9-5.2-14.4-8-20.3-5c-7.2,3.6-8.8,14.2-7.6,25c1,9.3,11.2,15.5,22.4,12.3c-0.4-1.9-0.6-3.9-0.7-5.9C13.8,75,5.9,70.5,5.1,63.6
			z"/>
		<linearGradient id="SVGID_1_" gradientUnits="userSpaceOnUse" x1="4.8718" y1="58.9406" x2="26.1279" y2="58.9406">
			<stop  offset="0" style="stop-color:#2F999E"/>
			<stop  offset="0.6069" style="stop-color:#309BA0"/>
			<stop  offset="1" style="stop-color:#309EA3"/>
		</linearGradient>
		<path fill="url(#SVGID_1_)" d="M10.5,45.8c-5.1,2.6-6.3,10.1-5.4,17.8c0.7,6.9,8.6,11.4,17,8.4c0-0.4,0-1.3,0-1.6
			C14.2,73.3,6.7,69.8,6,63.3c-0.8-7.1,0.3-14.1,5-16.5c4.3-2.2,9.8,0.3,14.8,4.4c0.1-0.3,0.2-0.6,0.4-0.9
			C20.9,46,15.1,43.5,10.5,45.8z"/>
		<path fill="#FAAC1F" d="M11.2,46.7C6.6,49,5.5,55.9,6.3,62.9c0.7,6.4,8,10.5,15.8,7.5C22,64,23.2,57.4,25.7,51
			C20.9,47,15.5,44.5,11.2,46.7z"/>
		<path fill="#214764" d="M134.1,13.1c-0.5-0.6-0.9-1.1-1.4-1.7c-6.5-7.7-14.4-13.1-21.6-10.9c-6.3,2-9.7,9.2-11,17.8
			c1.7,0.6,3.3,1.2,4.9,1.9c0.8-6.7,3.2-12.6,8-14.1c5.5-1.7,11.6,2.8,16.3,8.9c4.3,5.4,1.8,14.2-6.3,17.8c1.3,1.5,2.5,3,3.6,4.7
			c5.1-2.7,8.3-6.9,9.7-11.4C137.8,21.6,137.1,16.8,134.1,13.1z"/>
		<linearGradient id="SVGID_2_" gradientUnits="userSpaceOnUse" x1="105.0349" y1="19.2589" x2="131.4644" y2="19.2589">
			<stop  offset="0" style="stop-color:#2F999E"/>
			<stop  offset="0.6069" style="stop-color:#309BA0"/>
			<stop  offset="1" style="stop-color:#309EA3"/>
		</linearGradient>
		<path fill="url(#SVGID_2_)" d="M129.4,15c-4.8-6.1-10.8-10.7-16.3-8.9c-4.9,1.5-7.3,7.4-8,14.1c0.3,0.1,0.6,0.2,0.9,0.4
			c0.6-6.4,2.9-12,7.5-13.5c5.1-1.6,10.7,2.6,15.1,8.3c4.1,5.1,1.6,13.4-6.2,16.7c0.3,0.3,0.5,0.5,0.7,0.8
			C131.2,29.2,133.7,20.4,129.4,15z"/>
		<path fill="#FAAC1F" d="M128.5,15.3c-4.4-5.7-10.1-9.9-15.1-8.3c-4.6,1.5-6.8,7.1-7.5,13.5c6.4,2.9,12,6.8,16.5,11.5
			C130.1,28.7,132.6,20.5,128.5,15.3z"/>
		<path fill="#3EBFBB" d="M119.4,79.9c-7.3-7.4-21.1-10.1-34.1-4c-13,6.2-19.6,18.6-18.5,28.9c0.9,9.6,17.8,14.9,35.6,7.2
			C119.7,103.1,126.2,86.6,119.4,79.9z M107.9,93.4c0.5-0.3,1.2,0,1.5,0.5c0.3,0.5,0,1.2-0.5,1.5c-0.5,0.3-1.2,0-1.5-0.5
			C107.1,94.3,107.3,93.6,107.9,93.4z M107.2,97.1c0.3,0.6,0,1.2-0.5,1.5c-0.5,0.3-1.2,0-1.5-0.5c-0.3-0.5,0-1.2,0.5-1.5
			C106.3,96.3,106.9,96.5,107.2,97.1z M103.9,92.9c0.6-0.3,1.2,0,1.5,0.5c0.3,0.5,0,1.2-0.5,1.5c-0.5,0.3-1.2,0-1.5-0.5
			C103.1,93.8,103.4,93.2,103.9,92.9z M85.2,104.1c0.5-0.3,1.2,0,1.5,0.5c0.3,0.5,0,1.2-0.5,1.5c-0.5,0.3-1.2,0-1.5-0.5
			C84.4,105,84.7,104.4,85.2,104.1z M110.1,102.3c-4.9,2.5-9.2,1.9-12.6-0.9c0.1,4.7-2.6,8.6-8.1,10.6c-5.7,2-13.1,1-16.5-4.4
			c-0.8-1.3,1.4-2.3,2.2-1c2.8,4.5,9.7,4.9,14.2,3c5.7-2.4,7-7,5-12.3c-0.2-0.4-0.5-0.9-0.7-1.3c0,0,0,0,0-0.1
			c-4.2,1.6-8.3,1-9.5-1.6c-1.3-2.8,1.3-6.8,5.9-8.9c4.6-2.2,9.3-1.7,10.6,1.1c1.2,2.5-0.9,6.1-4.8,8.3c0,0,0,0,0,0.1
			c0.2,0.4,0.4,0.9,0.6,1.3c3.1,5.4,8.6,7.4,14,3.1c3.6-2.8,6.9-7.2,5.4-12c-0.5-1.5,1.7-2.5,2.2-1C120,92.6,115.7,99.4,110.1,102.3
			z M88.3,102.7c-0.5,0.3-1.2,0-1.5-0.5c-0.3-0.5,0-1.2,0.5-1.5c0.5-0.3,1.2,0,1.5,0.5C89.1,101.8,88.8,102.5,88.3,102.7z M90.5,105
			c0.3,0.5,0,1.2-0.5,1.5c-0.5,0.3-1.2,0-1.5-0.5c-0.3-0.5,0-1.2,0.5-1.5C89.6,104.2,90.2,104.4,90.5,105z"/>
		<path fill="#303030" d="M94.2,94.3c0.5-0.3,1.2-0.2,1.6,0.5c3.9-2.2,6-5.8,4.8-8.3c-1.3-2.8-6.1-3.3-10.6-1.1
			c-4.6,2.2-7.2,6.2-5.9,8.9c1.2,2.5,5.3,3.2,9.5,1.6C93.2,95.2,93.6,94.6,94.2,94.3z M87.1,92.8c-0.7,0.3-1.6,0-1.9-0.7
			c-0.3-0.7,0-1.6,0.7-1.9c0.7-0.3,1.6,0,1.9,0.7C88.2,91.7,87.8,92.5,87.1,92.8z"/>
		<path fill="#303030" d="M94.2,97.2c2.1,5.3,0.7,9.9-5,12.3c-4.5,1.9-11.4,1.5-14.2-3c-0.8-1.3-3-0.3-2.2,1
			c3.4,5.4,10.7,6.5,16.5,4.4c5.6-2,8.2-5.9,8.1-10.6C96.2,100.3,95.1,98.9,94.2,97.2z"/>
		<path d="M94.2,94.3c0.5-0.2,1.2-0.1,1.5,0.6c0.2,0.4,0.4,0.9,0.7,1.3c-0.2-0.4-0.4-0.9-0.6-1.3c0,0,0,0,0-0.1
			C95.4,94.1,94.7,94.1,94.2,94.3z"/>
		<path fill="#303030" d="M117.9,86.3c-0.5-1.5-2.6-0.4-2.2,1c1.6,4.7-1.8,9.2-5.4,12c-5.4,4.2-10.9,2.2-14-3.1
			c-0.2-0.4-0.5-0.8-0.7-1.3c-0.3-0.7-1-0.8-1.5-0.6c-0.5,0.2-0.9,0.8-0.7,1.5c0,0,0,0,0,0.1c0.2,0.5,0.4,0.9,0.7,1.3
			c0.9,1.7,2,3.1,3.3,4.2c3.3,2.9,7.7,3.5,12.6,0.9C115.7,99.4,120,92.6,117.9,86.3z"/>
		<path fill="#FFFFFF" d="M85.9,90.3c-0.7,0.3-1,1.2-0.7,1.9c0.3,0.7,1.2,1,1.9,0.7c0.7-0.3,1-1.2,0.7-1.9
			C87.5,90.2,86.6,89.9,85.9,90.3z"/>
		<path fill="#3EBFBB" d="M106.9,35.7c-8.5-4.2-18.8-1.7-21.8,3.4c-2.8,4.6-0.8,16.3,7.9,22.3c9.1,5.6,20.4-2.2,23.5-8.4
			C119.9,47.1,115.4,40.5,106.9,35.7z M102.6,45.6c-0.3,4-3.8,6.9-7.8,6.6c-4-0.3-6.9-3.8-6.6-7.8c0.3-4,3.8-6.9,7.8-6.6
			C100,38.2,102.9,41.7,102.6,45.6z"/>
		<linearGradient id="SVGID_3_" gradientUnits="userSpaceOnUse" x1="88.2286" y1="45.0363" x2="102.6054" y2="45.0363">
			<stop  offset="0" style="stop-color:#2F999E"/>
			<stop  offset="0.6069" style="stop-color:#309BA0"/>
			<stop  offset="1" style="stop-color:#309EA3"/>
		</linearGradient>
		<path fill="url(#SVGID_3_)" d="M96,37.9c-4-0.3-7.4,2.6-7.8,6.6c-0.3,4,2.6,7.4,6.6,7.8c4,0.3,7.4-2.6,7.8-6.6
			C102.9,41.7,100,38.2,96,37.9z M100.2,48.3c-1.8,2.6-5.4,3.3-8.1,1.5c-2.6-1.8-3.3-5.4-1.5-8.1c1.8-2.6,5.4-3.3,8.1-1.5
			C101.4,42.1,102,45.7,100.2,48.3z"/>
		<path fill="#303030" d="M98.7,40.2c-2.6-1.8-6.3-1.1-8.1,1.5c-1.8,2.6-1.1,6.3,1.5,8.1c2.7,1.8,6.3,1.1,8.1-1.5
			C102,45.7,101.4,42.1,98.7,40.2z M94.4,46.7c-0.5,0.7-1.5,0.9-2.2,0.4c-0.7-0.5-0.9-1.5-0.4-2.2c0.5-0.7,1.5-0.9,2.2-0.4
			C94.7,45,94.9,46,94.4,46.7z M99.4,44.7c-0.3,0.4-0.9,0.6-1.4,0.3c-0.5-0.3-0.6-0.9-0.3-1.4c0.3-0.4,0.9-0.6,1.4-0.3
			C99.6,43.6,99.7,44.2,99.4,44.7z"/>
		<linearGradient id="SVGID_4_" gradientUnits="userSpaceOnUse" x1="91.5142" y1="45.8235" x2="94.6431" y2="45.8235">
			<stop  offset="0" style="stop-color:#2F999E"/>
			<stop  offset="0.6069" style="stop-color:#309BA0"/>
			<stop  offset="1" style="stop-color:#309EA3"/>
		</linearGradient>
		<path fill="url(#SVGID_4_)" d="M91.8,44.9c-0.5,0.7-0.3,1.7,0.4,2.2c0.7,0.5,1.7,0.3,2.2-0.4c0.5-0.7,0.3-1.7-0.4-2.2
			C93.3,44,92.3,44.2,91.8,44.9z"/>
		<linearGradient id="SVGID_5_" gradientUnits="userSpaceOnUse" x1="97.5683" y1="44.0959" x2="99.546" y2="44.0959">
			<stop  offset="0" style="stop-color:#2F999E"/>
			<stop  offset="0.6069" style="stop-color:#309BA0"/>
			<stop  offset="1" style="stop-color:#309EA3"/>
		</linearGradient>
		<circle fill="url(#SVGID_5_)" cx="98.6" cy="44.1" r="1"/>
		<path fill="#3EBFBB" d="M70.7,72c0.8-10.5-6.9-19.4-12.3-20.2C52.6,51,44.2,57.3,42,66.6c-1.7,9.6,0.6,17.3,7.3,18.3
			C56.1,86.4,69.3,82.6,70.7,72z M62.4,67.6c-2.2,3.3-6.7,4.1-10,1.9c-3.3-2.2-4.1-6.7-1.9-10c2.2-3.3,6.7-4.1,10-1.9
			C63.8,59.8,64.7,64.3,62.4,67.6z"/>
		<linearGradient id="SVGID_6_" gradientUnits="userSpaceOnUse" x1="49.3165" y1="63.5373" x2="63.6932" y2="63.5373">
			<stop  offset="0" style="stop-color:#2F999E"/>
			<stop  offset="0.6069" style="stop-color:#309BA0"/>
			<stop  offset="1" style="stop-color:#309EA3"/>
		</linearGradient>
		<path fill="url(#SVGID_6_)" d="M60.6,57.6c-3.3-2.2-7.7-1.4-10,1.9c-2.2,3.3-1.4,7.8,1.9,10c3.3,2.2,7.8,1.4,10-1.9
			C64.7,64.3,63.8,59.8,60.6,57.6z M62.3,64c-0.3,3.2-3.1,5.6-6.3,5.3c-3.2-0.3-5.6-3.1-5.3-6.3c0.3-3.2,3.1-5.6,6.3-5.3
			C60.2,58,62.6,60.8,62.3,64z"/>
		<path fill="#303030" d="M57,57.7c-3.2-0.3-6,2.1-6.3,5.3c-0.3,3.2,2.1,6,5.3,6.3c3.2,0.3,6-2.1,6.3-5.3C62.6,60.8,60.2,58,57,57.7
			z M54.8,65.5c0,0.5-0.5,0.9-1.1,0.9c-0.5,0-0.9-0.5-0.9-1.1c0-0.5,0.5-0.9,1.1-0.9C54.4,64.4,54.8,64.9,54.8,65.5z M60.1,62.3
			c-0.1,0.9-0.8,1.5-1.7,1.4C57.6,63.7,57,63,57,62.1c0.1-0.9,0.8-1.5,1.7-1.4C59.6,60.7,60.2,61.5,60.1,62.3z"/>
		<linearGradient id="SVGID_7_" gradientUnits="userSpaceOnUse" x1="57.0292" y1="62.2216" x2="60.1545" y2="62.2216">
			<stop  offset="0" style="stop-color:#2F999E"/>
			<stop  offset="0.6069" style="stop-color:#309BA0"/>
			<stop  offset="1" style="stop-color:#309EA3"/>
		</linearGradient>
		<path fill="url(#SVGID_7_)" d="M58.7,60.7c-0.9-0.1-1.6,0.6-1.7,1.4c-0.1,0.9,0.6,1.6,1.4,1.7c0.9,0.1,1.6-0.6,1.7-1.4
			C60.2,61.5,59.6,60.7,58.7,60.7z"/>
		<linearGradient id="SVGID_8_" gradientUnits="userSpaceOnUse" x1="52.804" y1="65.3795" x2="54.7806" y2="65.3795">
			<stop  offset="0" style="stop-color:#2F999E"/>
			<stop  offset="0.6069" style="stop-color:#309BA0"/>
			<stop  offset="1" style="stop-color:#309EA3"/>
		</linearGradient>
		<circle fill="url(#SVGID_8_)" cx="53.8" cy="65.4" r="1"/>
	</g>
	<g>
		<g>
			<g>
				<g>
					<path fill="#E05644" d="M57.2,178.8c2.7-7.4,12.8-38.3,24.1-44.5c3-1.7,5.4-2.9,7.4-3.9c3.5-1.1,22.4-10.2,22.4-10.2
						c7.7-3.3,19.1-7.7,19.5-7.8c8.4-2.9,12.6-8.6,13-15.4c0.6-9.4-1.8-12.3-1.8-12.3c-1.2-3.8,13-11.7,15.3-6.2
						c0.9,2,7.9,12.8,5.6,21.9c-8.5,32.9-26.3,27.6-24.8,50.3c0.7,10.4,3.3,19.3,4.8,26.1c0.8,3.8,4.9,16.9,5.4,18.7
						c7.6,26.7,19.3,70.8,19.5,71.2c1.9,4.6,2.4,10.9-5.3,12.7c-7.8,1.8-12.6-2.9-14.4-7.6c-0.6-1.4-15.3-43-19.6-51.4
						c-2.2-4.4-4-7.7-5.9-8.4c-0.5-0.2-1.9-0.3-2.6-0.1c-1.9,0.7-3.6,3.9-5.2,8.1C111.6,228.5,95,267,93.1,272
						c-1.7,4.4-6.4,10.3-14.5,7c-6.2-2.6-7.4-6.6-5.4-13.1c0.2-0.7,17.3-49.1,22.1-72.2c0.1-0.3,1-7.7,1.1-8.6
						c1.2-16.2-3-30.6-6-29.7c-5.5,1.7-10.1,16.2-14.8,25.7c-0.8,1.6-3.1,6.4-3.1,6.4c-1.3,2.3-5.2,6.7-11.6,3.8
						C54.6,188.5,56.6,180.7,57.2,178.8z"/>
				</g>
			</g>
		</g>
		<path fill="#E05644" d="M157.3,78.6c0,0-10.3-17.5-23.6-5.9c-3.9,4-6.2,6.5-4.3,10.6c2.5,5.4,8.6-2.7,13,2.3
			C146.2,89.7,157.3,78.6,157.3,78.6z"/>
	</g>
</g>
</svg>
