<?xml version="1.0" encoding="utf-8"?>
<!-- Generator: Adobe Illustrator 17.1.0, SVG Export Plug-In . SVG Version: 6.00 Build 0)  -->
<!DOCTYPE svg PUBLIC "-//W3C//DTD SVG 1.1//EN" "http://www.w3.org/Graphics/SVG/1.1/DTD/svg11.dtd">
<svg version="1.1" id="Layer_1" xmlns="http://www.w3.org/2000/svg" xmlns:xlink="http://www.w3.org/1999/xlink" x="0px" y="0px"
	 viewBox="0 0 167 280" enable-background="new 0 0 167 280" xml:space="preserve">
<g>
	<path fill="#214764" d="M52.7,34.4c3.4-1.6,5-4.6,4-7.2c-1.1,2.3-1.7,3.5-5.1,5c-2.8,1.3-6.2,1.1-8.4-0.8c0.1,0.4,0.2,0.7,0.4,1
		C45.1,35.2,49.3,36,52.7,34.4z"/>
	<path fill="#214764" d="M68.6,29.4c3.4-1.6,5-4.6,4-7.2c-1.1,2.3-1.7,3.5-5.1,5c-2.8,1.3-6.2,1.1-8.4-0.8c0.1,0.4,0.2,0.7,0.4,1
		C61,30.2,65.1,31,68.6,29.4z"/>
	<path fill="#214764" d="M74.9,21.5c0.1,0.4,0.2,0.7,0.4,1c1.5,2.7,5.7,3.5,9.1,1.9c3.4-1.6,5-4.6,4-7.2c-1.1,2.3-1.7,3.5-5.1,5
		C80.5,23.6,77.1,23.4,74.9,21.5z"/>
	<path fill="#214764" d="M54.3,39.5c1.4,2.5,5.3,3.3,8.5,1.8c3.2-1.5,4.7-4.3,3.7-6.7c-1,2.1-1.6,3.3-4.8,4.7
		c-2.6,1.2-5.8,1-7.9-0.8C54,38.9,54.2,39.2,54.3,39.5z"/>
	<path fill="#214764" d="M78.2,33.6c-2.8,1.3-6.2,1.1-8.4-0.8c0.1,0.4,0.2,0.7,0.4,1c1.5,2.7,5.7,3.5,9.1,1.9c3.4-1.6,5-4.6,4-7.2
		C82.1,30.9,81.5,32.1,78.2,33.6z"/>
	<path fill="#214764" d="M76.9,41.3c-1.1,2.1-1.6,3.3-4.8,4.7c-2.6,1.2-5.8,1-7.9-0.8c0.1,0.3,0.2,0.7,0.4,1
		c1.4,2.5,5.3,3.3,8.5,1.8C76.4,46.6,77.9,43.8,76.9,41.3z"/>
	<g>
		<g>
			<path fill="#3EBFBB" d="M143.3,114.9c1.7,4.4-0.6,9.4-5,11.1l-55.9,21c-4.4,1.7-9.4-0.6-11.1-5L43.3,67.5
				c-1.7-4.4,0.6-9.4,5-11.1l55.9-21c4.4-1.7,9.4,0.6,11.1,5L143.3,114.9z"/>
			<linearGradient id="SVGID_1_" gradientUnits="userSpaceOnUse" x1="103.3403" y1="81.2726" x2="119.6671" y2="81.2726">
				<stop  offset="0" style="stop-color:#2F999E"/>
				<stop  offset="0.6069" style="stop-color:#309BA0"/>
				<stop  offset="1" style="stop-color:#309EA3"/>
			</linearGradient>
			<path fill="url(#SVGID_1_)" d="M112.4,73.2c-4.5-0.5-8.5,2.7-9,7.2c-0.5,4.5,2.7,8.5,7.2,9c4.5,0.5,8.5-2.7,9-7.2
				C120.1,77.7,116.9,73.7,112.4,73.2z M118.1,82c-0.4,3.6-3.6,6.2-7.3,5.9c-3.6-0.4-6.2-3.7-5.8-7.3c0.4-3.6,3.7-6.2,7.3-5.8
				C115.8,75.1,118.5,78.4,118.1,82z"/>
			<path fill="#303030" d="M112.3,74.7c-3.6-0.5-6.9,2.1-7.4,5.7c-0.5,3.6,2.1,6.9,5.7,7.4c3.6,0.5,6.9-2.1,7.4-5.7
				C118.5,78.5,116,75.2,112.3,74.7z M109.4,83.4c-0.1,0.6-0.6,1.1-1.3,1c-0.6-0.1-1.1-0.6-1-1.3c0.1-0.6,0.6-1,1.3-1
				C109.1,82.2,109.5,82.7,109.4,83.4z M115.7,80.1c-0.1,1-1,1.7-2,1.5c-1-0.1-1.7-1-1.5-2c0.1-1,1-1.7,2-1.5
				C115.1,78.3,115.8,79.1,115.7,80.1z"/>
			<linearGradient id="SVGID_2_" gradientUnits="userSpaceOnUse" x1="112.1655" y1="79.8872" x2="115.7193" y2="79.8872">
				<stop  offset="0" style="stop-color:#2F999E"/>
				<stop  offset="0.6069" style="stop-color:#309BA0"/>
				<stop  offset="1" style="stop-color:#309EA3"/>
			</linearGradient>
			<path fill="url(#SVGID_2_)" d="M114.2,78.1c-1-0.1-1.9,0.6-2,1.5c-0.1,1,0.6,1.9,1.5,2c1,0.1,1.9-0.6,2-1.5
				C115.8,79.1,115.1,78.3,114.2,78.1z"/>
			<linearGradient id="SVGID_3_" gradientUnits="userSpaceOnUse" x1="107.208" y1="83.2158" x2="109.4502" y2="83.2158">
				<stop  offset="0" style="stop-color:#2F999E"/>
				<stop  offset="0.6069" style="stop-color:#309BA0"/>
				<stop  offset="1" style="stop-color:#309EA3"/>
			</linearGradient>
			<path fill="url(#SVGID_3_)" d="M108.5,82.1c-0.6-0.1-1.2,0.4-1.3,1c-0.1,0.6,0.4,1.2,1,1.3c0.6,0.1,1.2-0.4,1.3-1
				C109.5,82.7,109.1,82.2,108.5,82.1z"/>
			<linearGradient id="SVGID_4_" gradientUnits="userSpaceOnUse" x1="65.2581" y1="97.1361" x2="81.5833" y2="97.1361">
				<stop  offset="0" style="stop-color:#2F999E"/>
				<stop  offset="0.6069" style="stop-color:#309BA0"/>
				<stop  offset="1" style="stop-color:#309EA3"/>
			</linearGradient>
			<path fill="url(#SVGID_4_)" d="M79.9,102.1c2.7-3.6,2-8.7-1.6-11.4c-3.6-2.7-8.7-2-11.4,1.6c-2.7,3.6-2,8.7,1.6,11.4
				C72.1,106.4,77.2,105.7,79.9,102.1z M66.9,96.3c0.5-3.6,3.8-6.2,7.4-5.7c3.6,0.5,6.2,3.8,5.7,7.4c-0.5,3.6-3.8,6.2-7.4,5.7
				C69,103.2,66.4,99.9,66.9,96.3z"/>
			<path fill="#303030" d="M72.6,103.7c3.6,0.5,6.9-2.1,7.4-5.7c0.5-3.6-2.1-6.9-5.7-7.4c-3.6-0.5-6.9,2.1-7.4,5.7
				C66.4,99.9,69,103.2,72.6,103.7z M74.1,95.5c0.1-1,1-1.7,2-1.5c1,0.1,1.7,1,1.5,2c-0.1,1-1,1.7-2,1.5
				C74.7,97.4,74,96.5,74.1,95.5z M69.1,98.9c0.1-0.6,0.6-1.1,1.3-1c0.6,0.1,1,0.6,1,1.3c-0.1,0.6-0.6,1.1-1.3,1
				C69.5,100.1,69.1,99.6,69.1,98.9z"/>
			<linearGradient id="SVGID_5_" gradientUnits="userSpaceOnUse" x1="74.0822" y1="95.7561" x2="77.6329" y2="95.7561">
				<stop  offset="0" style="stop-color:#2F999E"/>
				<stop  offset="0.6069" style="stop-color:#309BA0"/>
				<stop  offset="1" style="stop-color:#309EA3"/>
			</linearGradient>
			<path fill="url(#SVGID_5_)" d="M75.6,97.5c1,0.1,1.9-0.6,2-1.5c0.1-1-0.6-1.9-1.5-2c-1-0.1-1.9,0.6-2,1.5
				C74,96.5,74.7,97.4,75.6,97.5z"/>
			<linearGradient id="SVGID_6_" gradientUnits="userSpaceOnUse" x1="69.1204" y1="99.0808" x2="71.3676" y2="99.0808">
				<stop  offset="0" style="stop-color:#2F999E"/>
				<stop  offset="0.6069" style="stop-color:#309BA0"/>
				<stop  offset="1" style="stop-color:#309EA3"/>
			</linearGradient>
			<path fill="url(#SVGID_6_)" d="M70.1,100.2c0.6,0.1,1.2-0.4,1.3-1c0.1-0.6-0.4-1.2-1-1.3c-0.6-0.1-1.2,0.4-1.3,1
				C69.1,99.6,69.5,100.1,70.1,100.2z"/>
			<path fill="#214764" d="M112.6,54.8c2.6,6.8-1.4,14.6-8.9,17.4L71.3,84.4c-7.5,2.8-15.6-0.5-18.2-7.3l-0.7-1.8
				c-2.6-6.8,1.4-14.6,8.9-17.4l32.4-12.1c7.5-2.8,15.6,0.5,18.2,7.3L112.6,54.8z"/>
			<path fill="#3EBFBB" d="M115.1,59.8c-0.2,2.6,0.9,4.9,3.5,6.4c4,2.3,9.6,4.8,14,3.2c1.8-0.7,3.5-2.1,4.7-4.6l6.2-21.6
				c4.2-8.3,1.4-10.7-6.1-5.2c-1.5,1.1-3,2.3-4.6,3.4c-3.8,2.8-7.6,5.8-11.2,8.5C117.6,53.1,115.4,56.7,115.1,59.8z M134.2,44.8
				c5.4-4.6,8.1-2.9,5.9,3.6l-3.7,10.7c-2.2,6.5-8.3,9.9-13.6,7.7c-5.3-2.2-5.3-7.7,0.1-12.3C126.5,51.4,130.6,47.9,134.2,44.8z"/>
			<path fill="#214764" d="M122.9,54.5c-5.4,4.6-5.4,10.1-0.1,12.3c5.3,2.2,11.4-1.3,13.6-7.7l3.7-10.7c2.2-6.5-0.5-8.1-5.9-3.6
				C130.6,47.9,126.5,51.4,122.9,54.5z"/>
			<path fill="#3EBFBB" d="M47.5,82.9c-4.4,0.8-9.1,1.7-13.8,2.6c-1.9,0.4-3.8,0.7-5.6,1.1c-9.1,1.8-9.2,5.5-0.3,8l20.1,9.9
				c2.6,0.7,4.8,0.5,6.5-0.4c4.2-2.1,6-7.9,7-12.5c0.6-2.9-0.3-5.3-2.3-6.9C56.7,82.7,52.5,82,47.5,82.9z M59.2,95
				c-1.9,5.4-8.6,7.6-14.9,4.9l-10.4-4.5c-6.3-2.7-5.7-5.8,1.3-6.7c4.8-0.6,10.1-1.3,14.8-1.9C57.1,85.9,61.2,89.6,59.2,95z"/>
			<path fill="#214764" d="M50.1,86.8c-4.7,0.6-10.1,1.3-14.8,1.9c-7,0.9-7.6,4.1-1.3,6.7l10.4,4.5c6.3,2.7,12.9,0.5,14.9-4.9
				C61.2,89.6,57.1,85.9,50.1,86.8z"/>
			<path fill="#FAAC1F" d="M100.4,43.3c7.8-2.5,24.8-11,34.9-43.4c0,0,23.2,55.4-27.4,70.1c-5.3,2.4-11.6-3.4-14.1-9.9
				C91,52.6,93.6,45.4,100.4,43.3z"/>
			<path fill="#FAAC1F" d="M55.3,60.2c-7.5,3.3-25.9,8.1-54.8-9.8c0,0,19,57,66.8,34.8c5.6-1.7,6.5-10.2,4.1-16.7
				C68.6,61,61.8,57.3,55.3,60.2z"/>
			<path fill="#214764" d="M128,119c2.6,6.8-0.9,14.4-7.7,17l-17.8,6.7c-6.8,2.6-14.4-0.9-17-7.7l0.2-8.9l-6.7-8.4
				c-2.6-6.8,0.9-14.4,7.7-17l17.8-6.7c6.8-2.6,14.4,0.9,17,7.7l0.3,10.2L128,119z"/>
			
				<ellipse transform="matrix(0.9363 -0.3513 0.3513 0.9363 -38.0549 40.968)" fill="#303030" cx="93.9" cy="125.4" rx="4.7" ry="7.1"/>
			
				<ellipse transform="matrix(0.9363 -0.3513 0.3513 0.9363 -33.8711 47.9725)" fill="#303030" cx="115.3" cy="117.3" rx="4.7" ry="7.1"/>
		</g>
		<g>
			<g>
				<g>
					<g>
						<path fill="#FAAC1F" d="M70.6,192.8c2.3-6.4,11-33,20.7-38.3c2.6-1.4,4.6-2.5,6.4-3.3c3-1,19.3-8.7,19.3-8.7
							c6.6-2.9,16.4-6.6,16.8-6.7c7.2-2.5,10.8-7.4,11.2-13.2c0.5-8.1-1.5-10.6-1.5-10.6c-1-3.3,11.2-10.1,13.2-5.3
							c0.7,1.7,6.8,11,4.8,18.8c-7.3,28.3-22.6,23.7-21.3,43.3c0.6,8.9,2.8,16.6,4.1,22.5c0.7,3.3,4.2,14.6,4.6,16.1
							c6.5,23,16.6,60.9,16.7,61.2c1.6,4,2.1,9.4-4.6,11c-6.7,1.6-10.8-2.5-12.4-6.5c-0.5-1.2-13.2-37-16.9-44.2
							c-1.9-3.7-3.4-6.7-5.1-7.3c-0.4-0.2-1.6-0.3-2.3-0.1c-1.6,0.6-3.1,3.3-4.5,7c-2.7,7.2-16.9,40.3-18.6,44.5
							c-1.5,3.8-5.5,8.8-12.4,6c-5.4-2.2-6.4-5.7-4.7-11.3c0.2-0.6,14.8-42.3,19-62.1c0-0.2,0.9-6.6,0.9-7.4
							c1-13.9-2.6-26.3-5.2-25.5c-4.8,1.5-8.7,13.9-12.7,22.1c-0.7,1.3-2.7,5.5-2.7,5.5c-1.1,2-4.5,5.8-10,3.2
							C68.3,201.1,70,194.5,70.6,192.8z"/>
					</g>
				</g>
			</g>
			<path fill="#FAAC1F" d="M156.6,106.6c0,0-8.8-15-20.3-5.1c-3.3,3.4-5.3,5.6-3.7,9.1c2.1,4.6,7.4-2.3,11.2,2
				C147,116.2,156.6,106.6,156.6,106.6z"/>
		</g>
	</g>
</g>
</svg>
