<?xml version="1.0" encoding="utf-8"?>
<!-- Generator: Adobe Illustrator 17.1.0, SVG Export Plug-In . SVG Version: 6.00 Build 0)  -->
<!DOCTYPE svg PUBLIC "-//W3C//DTD SVG 1.1//EN" "http://www.w3.org/Graphics/SVG/1.1/DTD/svg11.dtd">
<svg version="1.1" id="Layer_1" xmlns="http://www.w3.org/2000/svg" xmlns:xlink="http://www.w3.org/1999/xlink" x="0px" y="0px"
	 viewBox="0 0 109.2 130.1" enable-background="new 0 0 109.2 130.1" xml:space="preserve">
<g>
	<g>
		<g>
			<g>
				<path fill="#EAE8E7" d="M0.3,7.3c0,6.1,0,103.3,0,112.5c0,9.2,0.9,10.3,9.5,10.3c7.9,0,62.8,0,62.8,0l36.6-38.3
					c0,0,0-78.8,0-84.9S106.7,0,102.3,0C98.1,0,21,0,7.5,0C1.9,0,0.3,1.2,0.3,7.3z"/>
			</g>
		</g>
	</g>
	<g>
		<path fill="#424143" d="M16.2,16.3V8.5h1.9v7.8H16.2z"/>
		<path fill="#424143" d="M19.4,16.3V8.5h1.7l2.9,4.3V8.5h1.9v7.8h-1.7l-2.9-4.3v4.3H19.4z"/>
		<path fill="#424143" d="M27.1,8.5h4.2v1.7H29v1.2h2.3v1.8H29v3.1h-1.9V8.5z"/>
		<path fill="#424143" d="M33.3,9.5c0.8-0.8,1.7-1.1,2.8-1.1c1,0,2,0.4,2.8,1.1c0.8,0.8,1.2,1.8,1.2,2.8c0,1.1-0.4,2.1-1.1,2.9
			c-0.8,0.8-1.8,1.2-2.9,1.2c-1.1,0-2.1-0.4-2.9-1.2c-0.7-0.8-1.1-1.7-1.1-2.9C32.1,11.2,32.6,10.2,33.3,9.5z M36.1,14.5
			c1.1,0,2-0.9,2-2.2c0-1.1-0.9-2-2-2c-1.2,0-2.1,0.9-2.1,2C34.1,13.6,35.1,14.5,36.1,14.5z"/>
		<path fill="#424143" d="M48.7,12.4c0,0.9-0.2,1.6-0.7,2.3c-0.7,1.1-2,1.7-3.3,1.7c-1.1,0-2.1-0.4-2.9-1.2
			c-0.7-0.8-1.1-1.7-1.1-2.9c0-1.1,0.4-2.1,1.2-2.8s1.7-1.1,2.8-1.1c1.7,0,3.1,1,3.7,2.7h-2.2c-0.5-0.5-1-0.8-1.6-0.8
			c-1.1,0-2,0.9-2,2c0,1.2,1,2.2,2,2.2c0.7,0,1.4-0.4,1.8-1.1h-2.2v-1.6h4.4C48.7,12.1,48.7,12.2,48.7,12.4z"/>
		<path fill="#424143" d="M49.6,16.3V8.5h2.6c0.8,0,1.4,0.1,2,0.4c0.7,0.5,1.1,1.2,1.1,2.2c0,1.3-0.7,2.2-1.8,2.5l1.9,2.7H53
			l-1.5-2.5v2.5H49.6z M51.9,12.1c0.9,0,1.4-0.2,1.4-0.9c0-0.6-0.4-0.9-1.2-0.9h-0.5v1.8H51.9z"/>
		<path fill="#424143" d="M57.2,16.3h-2.1l3-7.8h1.6l3,7.8h-2.1l-0.4-1.1h-2.6L57.2,16.3z M58.9,11l-0.8,2.5h1.5L58.9,11z"/>
		<path fill="#424143" d="M62.8,16.3V8.5h2.6c0.8,0,1.4,0.1,2,0.4c0.7,0.5,1.1,1.2,1.1,2.2c0,1-0.5,1.8-1.2,2.3
			c-0.5,0.3-1.1,0.4-1.9,0.4h-0.5v2.5H62.8z M65.1,12.1c0.9,0,1.4-0.2,1.4-0.9c0-0.6-0.4-0.9-1.2-0.9h-0.5v1.8H65.1z"/>
		<path fill="#424143" d="M73.2,13.3h-1.9v3h-1.9V8.5h1.9v3h1.9v-3h1.9v7.8h-1.9V13.3z"/>
		<path fill="#424143" d="M76.3,16.3V8.5h1.9v7.8H76.3z"/>
		<path fill="#424143" d="M83.1,16.4c-1.1,0-2.1-0.4-2.9-1.2c-0.7-0.8-1.1-1.7-1.1-2.9c0-1.1,0.4-2.1,1.2-2.8
			c0.8-0.8,1.7-1.1,2.8-1.1c1.8,0,3.4,1.2,3.9,3.1H85c-0.4-0.8-1-1.2-1.8-1.2c-1.2,0-2.1,0.9-2.1,2c0,1.2,1,2.2,2,2.2
			c0.7,0,1.4-0.4,1.8-1.1H87C86.5,15.3,85,16.4,83.1,16.4z"/>
		<path fill="#424143" d="M89.4,13.7C89.4,13.7,89.4,13.8,89.4,13.7c0,0.7,0.2,1,0.7,1c0.5,0,0.7-0.2,0.7-0.6c0-0.7-0.5-0.8-1.4-1.1
			c-1.2-0.5-1.8-1.3-1.8-2.2c0-1.4,1.1-2.4,2.6-2.4c1.4,0,2.4,0.9,2.4,2.3c0,0,0,0.1,0,0.1H91c0-0.5-0.3-0.8-0.7-0.8
			c-0.4,0-0.6,0.2-0.6,0.6c0,0.6,0.6,0.7,1.6,1.2c1.1,0.5,1.6,1.2,1.6,2.2c0,1.4-1.1,2.5-2.6,2.5c-1.7,0-2.6-0.9-2.6-2.5
			c0-0.1,0-0.1,0-0.2H89.4z"/>
	</g>
	<rect x="0" y="20" fill="#3CBFBB" width="109" height="2.3"/>
	<g>
		<g>
			<path fill="#5A5656" d="M101.2,69.5H42.9c-0.2,0-0.3-0.1-0.3-0.3c0-0.2,0.1-0.3,0.3-0.3h58.3c0.2,0,0.3,0.1,0.3,0.3
				C101.5,69.4,101.4,69.5,101.2,69.5z"/>
		</g>
		<rect x="89" y="35.8" fill="#3CBFBB" width="9.8" height="31.7"/>
		<rect x="44.8" y="27.7" fill="#3CBFBB" width="9.8" height="39.8"/>
		<rect x="74.3" y="30.7" fill="#3CBFBB" width="9.8" height="36.8"/>
		<rect x="59.5" y="43.6" fill="#3CBFBB" width="9.8" height="23.9"/>
		<g>
			<rect x="42.6" y="64.1" fill="#5A5656" width="0.8" height="5.1"/>
		</g>
		<g>
			<rect x="101.2" y="64.1" fill="#5A5656" width="0.8" height="5.4"/>
		</g>
	</g>
	<path fill="#27767C" d="M30.6,32.3c-0.2-0.6-0.5-1.1-0.8-1.6c-0.3-0.5-0.6-1-1-1.5c-0.4-0.5-0.8-0.9-1.3-1.3
		c-0.5-0.4-0.9-0.7-1.5-1c-0.5-0.3-1.1-0.6-1.6-0.8c-0.6-0.2-1.1-0.4-1.7-0.5c-0.6-0.1-1.2-0.2-1.8-0.2v3.2c0.4,0,0.8,0,1.2,0.1
		c0.4,0.1,0.8,0.2,1.2,0.3c0.4,0.1,0.8,0.3,1.1,0.5c0.4,0.2,0.7,0.4,1,0.7c0.3,0.3,0.6,0.6,0.9,0.9c0.3,0.3,0.5,0.6,0.7,1
		c0.2,0.4,0.4,0.7,0.5,1.1c0.1,0.4,0.2,0.8,0.3,1.2l3.2-0.6C31,33.5,30.8,32.9,30.6,32.3z"/>
	<path fill="#5A5656" d="M31.1,34.1l-3.2,0.6C28,35,28,35.4,28,35.9l0,0c0,0.4,0,0.8-0.1,1.2c-0.1,0.4-0.2,0.8-0.3,1.2
		c-0.1,0.4-0.3,0.8-0.5,1.1c-0.2,0.4-0.4,0.7-0.7,1c-0.3,0.3-0.6,0.6-0.9,0.9c-0.3,0.3-0.6,0.5-1,0.7c-0.4,0.2-0.7,0.4-1.1,0.5
		c-0.4,0.1-0.8,0.2-1.2,0.3c-0.4,0.1-0.8,0.1-1.2,0.1c-0.4,0-0.8,0-1.2-0.1c-0.4-0.1-0.8-0.2-1.2-0.3c-0.4-0.1-0.8-0.3-1.1-0.5
		c-0.4-0.2-0.7-0.4-1-0.7c-0.3-0.3-0.6-0.6-0.9-0.9c-0.3-0.3-0.5-0.6-0.7-1c-0.2-0.4-0.4-0.7-0.5-1.1l-3,1.1
		c0.2,0.6,0.5,1.1,0.8,1.6c0.3,0.5,0.6,1,1,1.5c0.4,0.5,0.8,0.9,1.3,1.3c0.5,0.4,0.9,0.7,1.5,1c0.5,0.3,1.1,0.6,1.6,0.8
		c0.6,0.2,1.1,0.4,1.7,0.5c0.6,0.1,1.2,0.2,1.8,0.2c0.6,0,1.2-0.1,1.8-0.2c0.6-0.1,1.2-0.3,1.7-0.5c0.6-0.2,1.1-0.5,1.6-0.8
		c0.5-0.3,1-0.6,1.5-1c0.5-0.4,0.9-0.8,1.3-1.3c0.4-0.5,0.7-0.9,1-1.5c0.3-0.5,0.6-1.1,0.8-1.6c0.2-0.6,0.4-1.1,0.5-1.7
		c0.1-0.6,0.2-1.2,0.2-1.8c0,0,0,0,0,0C31.3,35.2,31.2,34.6,31.1,34.1z"/>
	<path fill="#3CBFBB" d="M19.2,25.7c-0.6,0.1-1.2,0.3-1.7,0.5c-0.6,0.2-1.1,0.5-1.6,0.8c-0.5,0.3-1,0.6-1.5,1
		c-0.5,0.4-0.9,0.8-1.3,1.3c-0.4,0.5-0.7,0.9-1,1.5c-0.3,0.5-0.6,1.1-0.8,1.6c-0.2,0.6-0.4,1.1-0.5,1.7c-0.1,0.6-0.2,1.2-0.2,1.8
		c0,0,0,0,0,0c0,0.6,0.1,1.2,0.2,1.8c0.1,0.6,0.3,1.2,0.5,1.7l3-1.1c-0.1-0.4-0.2-0.8-0.3-1.2C14,36.7,14,36.3,14,35.9l0,0
		c0-0.4,0-0.8,0.1-1.2c0.1-0.4,0.2-0.8,0.3-1.2c0.1-0.4,0.3-0.8,0.5-1.1c0.2-0.4,0.4-0.7,0.7-1c0.3-0.3,0.6-0.6,0.9-0.9
		c0.3-0.3,0.6-0.5,1-0.7c0.4-0.2,0.7-0.4,1.1-0.5c0.4-0.1,0.8-0.2,1.2-0.3c0.4-0.1,0.8-0.1,1.2-0.1v-3.2
		C20.4,25.6,19.8,25.6,19.2,25.7z"/>
	<g>
		<g>
			<path fill="#3CBFBB" d="M15.5,101.7c1.1-0.4,2.4,1,1.9,2.1c-0.3,1.1-2,1.4-2.7,0.5C13.9,103.4,14.4,101.9,15.5,101.7L15.5,101.7z
				"/>
			<path fill="#3CBFBB" d="M12.9,105.4c1-0.4,2.2-0.2,3.3-0.3c0.9,0,2-0.1,2.8,0.5c0.6,0.5,0.6,1.3,0.6,2c0,1.5,0,3,0,4.6
				c0,0.3-0.1,0.9-0.5,0.9c-0.5,0.1-0.8-0.4-0.8-0.9c0-1.5,0-3,0-4.4c-0.1,0-0.4,0-0.5,0c0,4.2,0,8.5,0,12.7c0.1,1-1.7,1.2-1.8,0.2
				c0-2.5,0-5.1,0-7.6c-0.1,0-0.3,0-0.4,0c0,2.2,0,4.4,0,6.7c0,0.5,0,1-0.2,1.4c-0.6,0.5-1.7,0.2-1.6-0.6c0-4.2,0-8.5,0-12.7
				c-0.1,0-0.3,0-0.4,0c0,1.4,0,2.8,0,4.2c0,0.5-0.2,1.2-0.8,1c-0.3,0-0.6-0.4-0.5-0.7c0-1.8,0-3.6,0-5.3
				C12,106.4,12.3,105.7,12.9,105.4L12.9,105.4z"/>
		</g>
		<g>
			<path fill="#3CBFBB" d="M24.1,101.7c1.1-0.4,2.4,1,1.9,2.1c-0.3,1.1-2,1.4-2.7,0.5C22.5,103.4,22.9,101.9,24.1,101.7L24.1,101.7z
				"/>
			<path fill="#3CBFBB" d="M21.5,105.4c1-0.4,2.2-0.2,3.3-0.3c0.9,0,2-0.1,2.8,0.5c0.6,0.5,0.6,1.3,0.6,2c0,1.5,0,3,0,4.6
				c0,0.3-0.1,0.9-0.5,0.9c-0.5,0.1-0.8-0.4-0.8-0.9c0-1.5,0-3,0-4.4c-0.1,0-0.4,0-0.5,0c0,4.2,0,8.5,0,12.7c0.1,1-1.7,1.2-1.8,0.2
				c0-2.5,0-5.1,0-7.6c-0.1,0-0.3,0-0.4,0c0,2.2,0,4.4,0,6.7c0,0.5,0,1-0.2,1.4c-0.6,0.5-1.7,0.2-1.6-0.6c0-4.2,0-8.5,0-12.7
				c-0.1,0-0.3,0-0.4,0c0,1.4,0,2.8,0,4.2c0,0.5-0.2,1.2-0.8,1c-0.3,0-0.6-0.4-0.5-0.7c0-1.8,0-3.6,0-5.3
				C20.5,106.4,20.9,105.7,21.5,105.4L21.5,105.4z"/>
		</g>
		<g>
			<path fill="#3CBFBB" d="M32.6,101.7c1.1-0.4,2.4,1,1.9,2.1c-0.3,1.1-2,1.4-2.7,0.5C31.1,103.4,31.5,101.9,32.6,101.7L32.6,101.7z
				"/>
			<path fill="#3CBFBB" d="M30.1,105.4c1-0.4,2.2-0.2,3.3-0.3c0.9,0,2-0.1,2.8,0.5c0.6,0.5,0.6,1.3,0.6,2c0,1.5,0,3,0,4.6
				c0,0.3-0.1,0.9-0.5,0.9c-0.5,0.1-0.8-0.4-0.8-0.9c0-1.5,0-3,0-4.4c-0.1,0-0.4,0-0.5,0c0,4.2,0,8.5,0,12.7c0.1,1-1.7,1.2-1.8,0.2
				c0-2.5,0-5.1,0-7.6c-0.1,0-0.3,0-0.4,0c0,2.2,0,4.4,0,6.7c0,0.5,0,1-0.2,1.4c-0.6,0.5-1.7,0.2-1.6-0.6c0-4.2,0-8.5,0-12.7
				c-0.1,0-0.3,0-0.4,0c0,1.4,0,2.8,0,4.2c0,0.5-0.2,1.2-0.8,1c-0.3,0-0.6-0.4-0.5-0.7c0-1.8,0-3.6,0-5.3
				C29.1,106.4,29.4,105.7,30.1,105.4L30.1,105.4z"/>
		</g>
		<g>
			<path fill="#3CBFBB" d="M41.2,101.7c1.1-0.4,2.4,1,1.9,2.1c-0.3,1.1-2,1.4-2.7,0.5C39.6,103.4,40.1,101.9,41.2,101.7L41.2,101.7z
				"/>
			<path fill="#3CBFBB" d="M38.7,105.4c1-0.4,2.2-0.2,3.3-0.3c0.9,0,2-0.1,2.8,0.5c0.6,0.5,0.6,1.3,0.6,2c0,1.5,0,3,0,4.6
				c0,0.3-0.1,0.9-0.5,0.9c-0.5,0.1-0.8-0.4-0.8-0.9c0-1.5,0-3,0-4.4c-0.1,0-0.4,0-0.5,0c0,4.2,0,8.5,0,12.7c0.1,1-1.7,1.2-1.8,0.2
				c0-2.5,0-5.1,0-7.6c-0.1,0-0.3,0-0.4,0c0,2.2,0,4.4,0,6.7c0,0.5,0,1-0.2,1.4c-0.6,0.5-1.7,0.2-1.6-0.6c0-4.2,0-8.5,0-12.7
				c-0.1,0-0.3,0-0.4,0c0,1.4,0,2.8,0,4.2c0,0.5-0.2,1.2-0.8,1c-0.3,0-0.6-0.4-0.5-0.7c0-1.8,0-3.6,0-5.3
				C37.7,106.4,38,105.7,38.7,105.4L38.7,105.4z"/>
		</g>
		<g>
			<path fill="#5A5656" d="M49.8,101.7c1.1-0.4,2.4,1,1.9,2.1c-0.3,1.1-2,1.4-2.7,0.5C48.2,103.4,48.7,101.9,49.8,101.7L49.8,101.7z
				"/>
			<path fill="#5A5656" d="M47.3,105.4c1-0.4,2.2-0.2,3.3-0.3c0.9,0,2-0.1,2.8,0.5c0.6,0.5,0.6,1.3,0.6,2c0,1.5,0,3,0,4.6
				c0,0.3-0.1,0.9-0.5,0.9c-0.5,0.1-0.8-0.4-0.8-0.9c0-1.5,0-3,0-4.4c-0.1,0-0.4,0-0.5,0c0,4.2,0,8.5,0,12.7c0.1,1-1.7,1.2-1.8,0.2
				c0-2.5,0-5.1,0-7.6c-0.1,0-0.3,0-0.4,0c0,2.2,0,4.4,0,6.7c0,0.5,0,1-0.2,1.4c-0.6,0.5-1.7,0.2-1.6-0.6c0-4.2,0-8.5,0-12.7
				c-0.1,0-0.3,0-0.4,0c0,1.4,0,2.8,0,4.2c0,0.5-0.2,1.2-0.8,1c-0.3,0-0.6-0.4-0.5-0.7c0-1.8,0-3.6,0-5.3
				C46.3,106.4,46.6,105.7,47.3,105.4L47.3,105.4z"/>
		</g>
		<g>
			<path fill="#5A5656" d="M58.4,101.7c1.1-0.4,2.4,1,1.9,2.1c-0.3,1.1-2,1.4-2.7,0.5C56.8,103.4,57.2,101.9,58.4,101.7L58.4,101.7z
				"/>
			<path fill="#5A5656" d="M55.8,105.4c1-0.4,2.2-0.2,3.3-0.3c0.9,0,2-0.1,2.8,0.5c0.6,0.5,0.6,1.3,0.6,2c0,1.5,0,3,0,4.6
				c0,0.3-0.1,0.9-0.5,0.9c-0.5,0.1-0.8-0.4-0.8-0.9c0-1.5,0-3,0-4.4c-0.1,0-0.4,0-0.5,0c0,4.2,0,8.5,0,12.7c0.1,1-1.7,1.2-1.8,0.2
				c0-2.5,0-5.1,0-7.6c-0.1,0-0.3,0-0.4,0c0,2.2,0,4.4,0,6.7c0,0.5,0,1-0.2,1.4c-0.6,0.5-1.7,0.2-1.6-0.6c0-4.2,0-8.5,0-12.7
				c-0.1,0-0.3,0-0.4,0c0,1.4,0,2.8,0,4.2c0,0.5-0.2,1.2-0.8,1c-0.3,0-0.6-0.4-0.5-0.7c0-1.8,0-3.6,0-5.3
				C54.8,106.4,55.2,105.7,55.8,105.4L55.8,105.4z"/>
		</g>
		<g>
			<path fill="#5A5656" d="M66.9,101.7c1.2-0.4,2.4,1,1.9,2.1c-0.3,1.1-2,1.4-2.7,0.5C65.4,103.4,65.8,101.9,66.9,101.7L66.9,101.7z
				"/>
			<path fill="#5A5656" d="M64.4,105.4c1-0.4,2.2-0.2,3.3-0.3c0.9,0,2-0.1,2.8,0.5c0.6,0.5,0.6,1.3,0.6,2c0,1.5,0,3,0,4.6
				c0,0.3-0.1,0.9-0.5,0.9c-0.5,0.1-0.8-0.4-0.8-0.9c0-1.5,0-3,0-4.4c-0.1,0-0.4,0-0.5,0c0,4.2,0,8.5,0,12.7c0.1,1-1.7,1.2-1.8,0.2
				c0-2.5,0-5.1,0-7.6c-0.1,0-0.3,0-0.4,0c0,2.2,0,4.4,0,6.7c0,0.5,0,1-0.2,1.4c-0.6,0.5-1.7,0.2-1.6-0.6c0-4.2,0-8.5,0-12.7
				c-0.1,0-0.3,0-0.4,0c0,1.4,0,2.8,0,4.2c0,0.5-0.2,1.2-0.8,1c-0.3,0-0.6-0.4-0.5-0.7c0-1.8,0-3.6,0-5.3
				C63.4,106.4,63.7,105.7,64.4,105.4L64.4,105.4z"/>
		</g>
		<g>
			<path fill="#5A5656" d="M75.5,101.7c1.1-0.4,2.4,1,1.9,2.1c-0.3,1.1-2,1.4-2.7,0.5C73.9,103.4,74.4,101.9,75.5,101.7L75.5,101.7z
				"/>
			<path fill="#5A5656" d="M73,105.4c1-0.4,2.2-0.2,3.3-0.3c0.9,0,2-0.1,2.8,0.5c0.6,0.5,0.6,1.3,0.6,2c0,1.5,0,3,0,4.6
				c0,0.3-0.1,0.9-0.5,0.9c-0.5,0.1-0.8-0.4-0.8-0.9c0-1.5,0-3,0-4.4c-0.1,0-0.4,0-0.5,0c0,4.2,0,8.5,0,12.7c0.1,1-1.7,1.2-1.8,0.2
				c0-2.5,0-5.1,0-7.6c-0.1,0-0.3,0-0.4,0c0,2.2,0,4.4,0,6.7c0,0.5,0,1-0.2,1.4c-0.6,0.5-1.7,0.2-1.6-0.6c0-4.2,0-8.5,0-12.7
				c-0.1,0-0.3,0-0.4,0c0,1.4,0,2.8,0,4.2c0,0.5-0.2,1.2-0.8,1c-0.3,0-0.6-0.4-0.5-0.7c0-1.8,0-3.6,0-5.3
				C72,106.4,72.3,105.7,73,105.4L73,105.4z"/>
		</g>
		<g>
			<path fill="#5A5656" d="M84.1,101.7c1.1-0.4,2.4,1,1.9,2.1c-0.3,1.1-2,1.4-2.7,0.5C82.5,103.4,83,101.9,84.1,101.7L84.1,101.7z"
				/>
		</g>
	</g>
	<path fill="#5A5656" d="M15.1,67.8c0.5,0.3,1,0.7,1.5,0.9c0.5,0.3,1.1,0.5,1.7,0.6c0.6,0.2,1.2,0.3,1.8,0.3c0.6,0.1,1.2,0.1,1.8,0
		c0.6-0.1,1.2-0.2,1.8-0.3c0.6-0.2,1.1-0.4,1.7-0.6c0.5-0.2,1.1-0.6,1.6-0.9c0.5-0.3,0.9-0.7,1.4-1.1L26,64.3
		c-0.3,0.3-0.6,0.6-0.9,0.8c-0.3,0.2-0.7,0.4-1.1,0.6c-0.4,0.2-0.8,0.3-1.2,0.4c-0.4,0.1-0.8,0.2-1.2,0.2c-0.4,0-0.8,0-1.2,0
		c-0.4,0-0.8-0.1-1.2-0.2c-0.4-0.1-0.8-0.2-1.2-0.4c-0.4-0.2-0.7-0.4-1.1-0.6c-0.3-0.2-0.6-0.5-0.9-0.8c-0.3-0.3-0.6-0.6-0.8-0.9
		c-0.2-0.3-0.4-0.7-0.6-1.1c-0.2-0.4-0.3-0.8-0.4-1.2C14.1,60.8,14,60.4,14,60c0-0.4,0-0.8,0-1.2c0-0.4,0.1-0.8,0.2-1.2
		c0.1-0.4,0.2-0.8,0.4-1.2c0.2-0.4,0.4-0.7,0.6-1.1c0.2-0.3,0.5-0.6,0.8-0.9c0.3-0.3,0.6-0.6,0.9-0.8c0.3-0.2,0.7-0.4,1.1-0.6
		c0.4-0.2,0.8-0.3,1.2-0.4c0.4-0.1,0.8-0.2,1.2-0.2c0.4,0,0.8,0,1.2,0c0.4,0,0.8,0.1,1.2,0.2c0.4,0.1,0.8,0.2,1.2,0.4l1.4-2.9
		c-0.5-0.3-1.1-0.5-1.7-0.6c-0.6-0.2-1.2-0.3-1.8-0.3c-0.6-0.1-1.2,0-1.8,0c-0.6,0.1-1.2,0.2-1.8,0.3c-0.6,0.2-1.1,0.4-1.7,0.6
		c-0.5,0.2-1.1,0.5-1.5,0.9c-0.5,0.3-0.9,0.7-1.4,1.1c-0.4,0.4-0.8,0.9-1.1,1.4c-0.3,0.5-0.6,1-0.9,1.5c-0.3,0.5-0.5,1.1-0.6,1.7
		c-0.2,0.6-0.3,1.2-0.3,1.8c-0.1,0.6-0.1,1.2,0,1.8c0.1,0.6,0.2,1.2,0.3,1.8c0.2,0.6,0.4,1.1,0.6,1.7c0.2,0.5,0.5,1.1,0.9,1.5
		c0.3,0.5,0.7,0.9,1.1,1.4c0,0,0,0,0,0C14.2,67.1,14.6,67.4,15.1,67.8z"/>
	<path fill="#3CBFBB" d="M29.4,65.3c0.3-0.5,0.6-1,0.9-1.6c0.3-0.5,0.5-1.1,0.6-1.7c0.2-0.6,0.3-1.2,0.3-1.8c0.1-0.6,0.1-1.2,0-1.8
		c-0.1-0.6-0.2-1.2-0.3-1.8c-0.2-0.6-0.4-1.1-0.6-1.7c-0.3-0.5-0.6-1.1-0.9-1.5c-0.3-0.5-0.7-0.9-1.1-1.4c0,0,0,0,0,0
		c-0.4-0.4-0.9-0.8-1.4-1.1c-0.5-0.3-1-0.6-1.5-0.9L24,53c0.4,0.2,0.7,0.4,1.1,0.6c0.3,0.2,0.6,0.5,0.9,0.8l0,0
		c0.3,0.3,0.6,0.6,0.8,0.9c0.2,0.3,0.4,0.7,0.6,1.1c0.2,0.4,0.3,0.8,0.4,1.2c0.1,0.4,0.2,0.8,0.2,1.2c0,0.4,0,0.8,0,1.2
		c0,0.4-0.1,0.8-0.2,1.2c-0.1,0.4-0.2,0.8-0.4,1.2c-0.2,0.4-0.4,0.7-0.6,1.1c-0.2,0.3-0.5,0.6-0.8,0.9l2.3,2.3
		C28.7,66.2,29.1,65.7,29.4,65.3z"/>
	<rect x="12.3" y="78.8" fill="#5A5656" width="89.7" height="9.5"/>
	<line fill="none" stroke="#7C7F84" stroke-width="0.25" stroke-miterlimit="10" x1="76.1" y1="79" x2="76.1" y2="88.2"/>
	<line fill="none" stroke="#7C7F84" stroke-width="0.25" stroke-miterlimit="10" x1="88.8" y1="79" x2="88.8" y2="88.2"/>
	<polygon fill="#FAF8FA" points="72.5,130.1 72.5,91.8 109.2,91.8 	"/>
	<polygon opacity="0.5" fill="#5A5656" points="72.6,91.8 72.6,130.1 35.9,130.1 	"/>
	<line fill="none" stroke="#7C7F84" stroke-width="0.25" stroke-miterlimit="10" x1="25.2" y1="79" x2="25.2" y2="88.2"/>
	<line fill="none" stroke="#7C7F84" stroke-width="0.25" stroke-miterlimit="10" x1="38" y1="79" x2="38" y2="88.2"/>
	<line fill="none" stroke="#7C7F84" stroke-width="0.25" stroke-miterlimit="10" x1="50.7" y1="79" x2="50.7" y2="88.2"/>
	<line fill="none" stroke="#7C7F84" stroke-width="0.25" stroke-miterlimit="10" x1="63.4" y1="79" x2="63.4" y2="88.2"/>
</g>
</svg>
