<?xml version="1.0" encoding="utf-8"?>
<!-- Generator: Adobe Illustrator 17.1.0, SVG Export Plug-In . SVG Version: 6.00 Build 0)  -->
<!DOCTYPE svg PUBLIC "-//W3C//DTD SVG 1.1//EN" "http://www.w3.org/Graphics/SVG/1.1/DTD/svg11.dtd">
<svg version="1.1" id="Layer_1" xmlns="http://www.w3.org/2000/svg" xmlns:xlink="http://www.w3.org/1999/xlink" x="0px" y="0px"
	 viewBox="0 0 390.6 132.1" enable-background="new 0 0 390.6 132.1" xml:space="preserve">
<g>
	<g>
		<g>
			<linearGradient id="SVGID_1_" gradientUnits="userSpaceOnUse" x1="307.6342" y1="10.3675" x2="360.335" y2="10.3675">
				<stop  offset="0" style="stop-color:#2F999E"/>
				<stop  offset="0.6069" style="stop-color:#309BA0"/>
				<stop  offset="1" style="stop-color:#309EA3"/>
			</linearGradient>
			<path fill="url(#SVGID_1_)" d="M313.7,13c0-3.3,2.7-6,6-6h28.5c3.3,0,6,2.7,6,6v7.8h6V6.9c0-3.8-3.1-6.9-6.9-6.9h-38.9
				c-3.8,0-6.9,3.1-6.9,6.9v13.8h6V13z"/>
		</g>
		<g>
			<linearGradient id="SVGID_2_" gradientUnits="userSpaceOnUse" x1="273.4999" y1="64.2692" x2="390.6029" y2="64.2692">
				<stop  offset="0" style="stop-color:#2F999E"/>
				<stop  offset="0.6069" style="stop-color:#309BA0"/>
				<stop  offset="1" style="stop-color:#309EA3"/>
			</linearGradient>
			<path fill="url(#SVGID_2_)" d="M390.6,21.4c0-3.3-2.6-5.9-5.9-5.9H279.4c-3.3,0-5.9,2.6-5.9,5.9v49.8V113h117.1V71.2V21.4z"/>
		</g>
		<linearGradient id="SVGID_3_" gradientUnits="userSpaceOnUse" x1="332.0515" y1="113.2429" x2="332.0515" y2="133.017">
			<stop  offset="0" style="stop-color:#47494B"/>
			<stop  offset="1" style="stop-color:#494E53"/>
		</linearGradient>
		<path fill="url(#SVGID_3_)" d="M273.5,126.2c0,3.3,2.6,5.9,5.9,5.9h105.3c3.3,0,5.9-2.6,5.9-5.9v-13.7H273.5V126.2z"/>
		<g>
		</g>
		<path fill="none" stroke="#FFFFFF" stroke-width="0.5" d="M303,84.5"/>
		<path fill="none" stroke="#FFFFFF" stroke-width="0.5" d="M332.7,84.5"/>
		<polygon fill="#FFFFFF" points="339.5,66.1 337.4,63.2 355.8,35.5 341,35.5 325.1,60.5 325.1,35.5 311,35.5 311,64.2 311,91 
			325.3,91 325.3,67 340.4,91 357,91 		"/>
	</g>
	<g>
		<g>
			<path fill="#F19720" d="M176.9,13c0-3.3,2.7-6,6-6h28.5c3.3,0,6,2.7,6,6v7.8h6V6.9c0-3.8-3.1-6.9-6.9-6.9h-38.9
				c-3.8,0-6.9,3.1-6.9,6.9v13.8h6V13z"/>
		</g>
		<g>
			<path fill="#FAAC1F" d="M253.9,21.4c0-3.3-2.6-5.9-5.9-5.9H142.6c-3.3,0-5.9,2.6-5.9,5.9v49.8V113h117.1V71.2V21.4z"/>
		</g>
		<linearGradient id="SVGID_4_" gradientUnits="userSpaceOnUse" x1="195.3015" y1="113.2429" x2="195.3015" y2="133.017">
			<stop  offset="0" style="stop-color:#47494B"/>
			<stop  offset="1" style="stop-color:#494E53"/>
		</linearGradient>
		<path fill="url(#SVGID_4_)" d="M136.7,126.2c0,3.3,2.6,5.9,5.9,5.9H248c3.3,0,5.9-2.6,5.9-5.9v-13.7H136.7V126.2z"/>
		<g>
		</g>
		<path fill="none" stroke="#FFFFFF" stroke-width="0.5" d="M166.2,84.5"/>
		<path fill="none" stroke="#FFFFFF" stroke-width="0.5" d="M195.9,84.5"/>
		<g>
			<g>
				<path fill="#FFFFFF" d="M200.3,88.5c0-2.1,0-4.3,0-6.4c14.5-12.7,33.5-21.8,30.6-48.5c-5.5,0-10.9,0-16.4,0.1
					c-0.4,1.3,0.8,3.9-0.6,4.3c-6.2,0-12.4,0-18.6,0.1c-6.2,0-12.4,0-18.6,0.1c-1.5-0.4-0.3-3-0.7-4.3c-5.5,0-10.9,0-16.4,0.1
					c-2.7,26.7,16.4,35.7,30.9,48.3c0,2.1,0,4.2,0,6.4c-3.4,3.3-11.6,2.7-14.4,6.4c6.4,0,12.8,0,19.2-0.1c6.4,0,12.8,0,19.2-0.1
					C211.9,91.1,203.7,91.7,200.3,88.5z M205.5,73.6c8.3-8.5,12.6-20.3,11-36.8c3.7,0,7.4,0,11.1,0c-1,17.6-9.8,28.9-22.2,37.3
					C204.7,74.9,205.2,74.2,205.5,73.6z M185.3,74.2C172.9,65.8,164.1,54.6,163,37c3.7,0,7.4,0,11.1,0c-1.5,16.5,2.9,28.2,11.3,36.7
					C185.6,74.2,186.1,74.9,185.3,74.2z"/>
			</g>
		</g>
	</g>
	<g>
		<g>
			<path fill="#0E68A5" d="M40.1,12.9c0-3.3,2.7-6,6-6h28.5c3.3,0,6,2.7,6,6v7.8h6.1V6.9c0-3.8-3.1-6.9-6.9-6.9H41
				c-3.8,0-6.9,3.1-6.9,6.9v13.8h6.1V12.9z"/>
		</g>
		<g>
			<path fill="#1C75BC" d="M116.9,21.3c0-3.2-2.6-5.9-5.9-5.9H5.9c-3.2,0-5.9,2.6-5.9,5.9V71v41.8h116.9V71V21.3L116.9,21.3z"/>
		</g>
		
			<linearGradient id="SVGID_5_" gradientUnits="userSpaceOnUse" x1="42.4321" y1="20.0707" x2="42.4321" y2="0.3359" gradientTransform="matrix(1 0 0 -1 16 133.089)">
			<stop  offset="0" style="stop-color:#47494B"/>
			<stop  offset="1" style="stop-color:#494E53"/>
		</linearGradient>
		<path fill="url(#SVGID_5_)" d="M0,125.9c0,3.2,2.6,5.9,5.9,5.9H111c3.2,0,5.9-2.6,5.9-5.9v-13.6H0V125.9z"/>
		<path fill="none" stroke="#FFFFFF" stroke-width="0.5" d="M29.4,84.3"/>
		<path fill="none" stroke="#FFFFFF" stroke-width="0.5" d="M59,84.3"/>
		<g>
			<path fill="#FFFFFF" d="M82.3,64.8c0-3-11.3-5.4-25.3-5.4s-25.3,2.4-25.3,5.4v19.4h0.6C34.9,81.8,45,80,57,80
				c12.1,0,22.2,1.8,24.7,4.2h0.6V64.8z"/>
			<path fill="#FFFFFF" d="M97,58.7l-40-20l-40,20l4.6,2.9v15c0,0,0.6,0.7,1.6,2.1c-3.1,3.1-3.2,8.6-2.8,8.8c0.5,0.1,5.5,0,5.5,0
				s-0.7-6.2-1.9-8.3c0.4-1,0.9-2.4,0.9-2.4L24,63.2l5.5,3.5v-1.9c0-7.2,19.4-7.9,27.7-7.9c8.3,0,27.7,0.8,27.7,7.9v1.6L97,58.7z"/>
		</g>
	</g>
</g>
</svg>
