<?xml version="1.0" encoding="utf-8"?>
<!-- Generator: Adobe Illustrator 17.1.0, SVG Export Plug-In . SVG Version: 6.00 Build 0)  -->
<!DOCTYPE svg PUBLIC "-//W3C//DTD SVG 1.1//EN" "http://www.w3.org/Graphics/SVG/1.1/DTD/svg11.dtd">
<svg version="1.1" id="Layer_1" xmlns="http://www.w3.org/2000/svg" xmlns:xlink="http://www.w3.org/1999/xlink" x="0px" y="0px"
	 viewBox="0 0 832 281" enable-background="new 0 0 832 281" xml:space="preserve">
<g>
	<g>
		<path fill="#0E68A5" d="M85.5,27.5c0-7.1,5.8-12.8,12.8-12.8H159c7.1,0,12.8,5.8,12.8,12.8v16.5h12.9V14.7
			C184.7,6.6,178.1,0,170,0H87.3c-8.1,0-14.7,6.6-14.7,14.7v29.4h12.9V27.5z"/>
	</g>
	<g>
		<path fill="#1C75BC" d="M249.1,45.5c0-6.9-5.6-12.5-12.5-12.5H12.5C5.6,32.9,0,38.5,0,45.5v105.8v89.1h249.1v-89L249.1,45.5
			L249.1,45.5z"/>
	</g>
	
		<linearGradient id="SVGID_1_" gradientUnits="userSpaceOnUse" x1="108.5483" y1="41.1008" x2="108.5483" y2="-0.9641" gradientTransform="matrix(1 0 0 -1 16 282)">
		<stop  offset="0" style="stop-color:#47494B"/>
		<stop  offset="1" style="stop-color:#494E53"/>
	</linearGradient>
	<path fill="url(#SVGID_1_)" d="M0,268.4c0,6.9,5.6,12.5,12.5,12.5h224.1c6.9,0,12.5-5.6,12.5-12.5v-29H0V268.4z"/>
	<path fill="none" stroke="#FFFFFF" stroke-width="0.5" d="M62.7,179.7"/>
	<path fill="none" stroke="#FFFFFF" stroke-width="0.5" d="M125.8,179.7"/>
	<g>
		<path fill="#FFFFFF" d="M175.5,138.2c0-6.3-24.1-11.4-54-11.4s-54,5.1-54,11.4v41.2h1.3c5.4-5.1,26.9-8.9,52.7-8.9
			c25.8,0,47.4,3.8,52.7,8.9h1.3V138.2z"/>
		<path fill="#FFFFFF" d="M206.7,125.1l-85.3-42.7l-85.3,42.7l9.7,6.2v31.9c0,0,1.2,1.4,3.3,4.5c-6.6,6.6-6.9,18.4-6,18.7
			c1,0.3,11.7,0,11.7,0s-1.5-13.2-4.1-17.7c0.8-2.1,1.9-5.2,1.9-5.2l-1.4-28.9l11.8,7.5v-4c0-15.3,41.2-16.9,59.1-16.9
			c17.7,0,59.1,1.6,59.1,16.9v3.3L206.7,125.1z"/>
	</g>
</g>
</svg>
