<?xml version="1.0" encoding="utf-8"?>
<!-- Generator: Adobe Illustrator 17.1.0, SVG Export Plug-In . SVG Version: 6.00 Build 0)  -->
<!DOCTYPE svg PUBLIC "-//W3C//DTD SVG 1.1//EN" "http://www.w3.org/Graphics/SVG/1.1/DTD/svg11.dtd">
<svg version="1.1" id="Layer_1" xmlns="http://www.w3.org/2000/svg" xmlns:xlink="http://www.w3.org/1999/xlink" x="0px" y="0px"
	 viewBox="0 0 133.8 133.8" enable-background="new 0 0 133.8 133.8" xml:space="preserve">
<g>
	<g>
		<path opacity="0.4" fill="#FFFFFF" d="M125.4,62.7c8.1-0.8,8.1,9.3,0,8.5l6.3,0.5c0.1-1.6,0.2-3.2,0.2-4.8c0-1.6-0.1-3.2-0.2-4.8
			l-5.2,0.5L125.4,62.7z"/>
		<circle fill="#25557C" cx="66.9" cy="66.9" r="66.9"/>
		<path opacity="0.2" fill="#010101" d="M132.4,60.6l-7.9,0.7c-0.1-1.5-0.3-3-0.6-4.4c-0.3-1.7-0.7-3.3-1.1-4.9
			c-0.4-1.6-0.9-3.2-1.5-4.8c-0.6-1.6-1.2-3.1-1.9-4.7c-0.7-1.5-1.5-3-2.3-4.5c-0.7-1.3-1.5-2.5-2.4-3.8l6.5-4.6
			c-2.4-3.5-5.1-6.7-8.1-9.7l-4.4,4.4l-1.3,1.3c-1.1-1-2.2-2-3.3-3c-1.3-1.1-2.6-2.1-4-3.1c-1.4-1-2.8-1.9-4.3-2.7
			c-1.4-0.8-3-1.6-4.5-2.3c-1.5-0.7-3.1-1.4-4.7-1.9c-1.4-0.5-2.8-1-4.2-1.4l2.1-7.7c-4-1.1-8.2-1.9-12.5-2.2l-0.7,7.9
			c-1.5-0.1-3-0.2-4.5-0.2c-1.7,0-3.4,0.1-5,0.2c-1.7,0.1-3.3,0.4-5,0.7c-1.7,0.3-3.3,0.7-4.9,1.1c-1.6,0.4-3.2,0.9-4.8,1.5
			c-1.4,0.5-2.8,1.1-4.1,1.7L39.6,7c-3.9,1.8-7.5,3.9-11,6.3l3.5,5l1,1.5c-1.2,0.9-2.4,1.8-3.5,2.7c-1.2,1-2.4,2.1-3.5,3.2h0L26,26
			c-1.2,1.2-2.3,2.4-3.4,3.7c-1.1,1.3-2.1,2.6-3.1,4c-1,1.4-1.9,2.8-2.7,4.3c-0.7,1.3-1.4,2.6-2.1,3.9l-1.6-0.8l-5.6-2.6
			c-1.8,3.8-3.3,7.8-4.3,11.9l7.7,2.1c-0.4,1.4-0.7,2.9-0.9,4.4c-0.3,1.6-0.5,3.3-0.7,5c-0.1,1.7-0.2,3.4-0.2,5c0,1.7,0.1,3.4,0.2,5
			c0.1,1.7,0.4,3.4,0.7,5c0.3,1.5,0.6,2.9,0.9,4.4l-7.7,2.1c1.1,4.1,2.5,8.1,4.3,11.9l5.6-2.6l1.6-0.8c0.6,1.3,1.3,2.7,2.1,3.9
			c0.8,1.5,1.8,2.9,2.7,4.3c1,1.4,2,2.7,3.1,4c1.1,1.3,2.2,2.5,3.4,3.7s2.4,2.3,3.7,3.4c1.1,0.9,2.3,1.9,3.5,2.7l-4.6,6.5
			c3.4,2.4,7.1,4.6,11,6.3l2.6-5.6l0.8-1.6c1.3,0.6,2.7,1.2,4.1,1.7c1.6,0.6,3.2,1.1,4.8,1.5c1.6,0.4,3.3,0.8,4.9,1.1
			c1.6,0.3,3.3,0.5,5,0.7c1.7,0.1,3.4,0.2,5,0.2c1.5,0,3-0.1,4.5-0.2l0.2,1.8l0.5,6.1c4.3-0.3,8.5-1.1,12.5-2.2l-2.1-7.7
			c1.4-0.4,2.9-0.9,4.2-1.4c1.6-0.6,3.1-1.2,4.7-1.9c1.5-0.7,3-1.5,4.5-2.3c1.5-0.8,2.9-1.8,4.3-2.7c1.4-1,2.7-2,4-3.1
			c1.1-0.9,2.2-2,3.3-3l1.3,1.3l4.4,4.4c3-3,5.7-6.2,8.1-9.7l-5-3.5l-1.5-1c0.8-1.2,1.6-2.5,2.4-3.8c0.8-1.5,1.6-3,2.3-4.5
			c0.7-1.5,1.4-3.1,1.9-4.7c0.6-1.6,1.1-3.2,1.5-4.8c0.4-1.6,0.8-3.3,1.1-4.9c0.3-1.5,0.5-2.9,0.6-4.4l7.9,0.7
			c0.2-2.1,0.3-4.2,0.3-6.3C132.8,64.8,132.6,62.7,132.4,60.6z M66.9,115.5c-26.8,0-48.6-21.8-48.6-48.6c0-26.8,21.8-48.6,48.6-48.6
			s48.6,21.8,48.6,48.6C115.5,93.7,93.7,115.5,66.9,115.5z"/>
		<path fill="#FFFFFF" d="M66.9,112c-12,0-23.4-4.7-31.9-13.2C26.5,90.3,21.8,79,21.8,66.9c0-12,4.7-23.4,13.2-31.9
			c8.5-8.5,19.8-13.2,31.9-13.2c12,0,23.4,4.7,31.9,13.2c8.5,8.5,13.2,19.8,13.2,31.9c0,12-4.7,23.4-13.2,31.9
			C90.3,107.3,79,112,66.9,112z M66.9,24.2c-23.6,0-42.8,19.2-42.8,42.8c0,23.6,19.2,42.8,42.8,42.8c23.6,0,42.8-19.2,42.8-42.8
			C109.7,43.3,90.5,24.2,66.9,24.2z"/>
		<path fill="#FFFFFF" d="M132.8,66.9c0,1.9-0.1,3.8-0.2,5.7l-6.1-0.5l-2.4-0.2c-0.1,1.7-0.4,3.3-0.6,5c-0.3,1.7-0.6,3.3-1.1,4.9
			c-0.4,1.6-0.9,3.2-1.5,4.8c-0.6,1.6-1.2,3.1-1.9,4.6c-0.7,1.5-1.5,3-2.3,4.4c-0.8,1.4-1.7,2.9-2.7,4.2l1.9,1.4l5,3.5
			c-1.1,1.6-2.3,3.1-3.5,4.6c-1.2,1.5-2.5,2.9-3.9,4.2l-4.4-4.4l-1.7-1.7c-1.2,1.2-2.4,2.3-3.7,3.4c-1.3,1.1-2.6,2.1-4,3
			c-1.4,1-2.8,1.9-4.2,2.7c-1.4,0.8-2.9,1.6-4.4,2.3c-1.5,0.7-3,1.3-4.6,1.9c-1.6,0.6-3.2,1.1-4.8,1.5l0.6,2.3l1.6,6
			c-1.8,0.5-3.7,0.9-5.6,1.2c-1.9,0.3-3.8,0.6-5.7,0.7l-0.5-6.1l-0.2-2.4c-1.6,0.1-3.3,0.2-5,0.2h0c-1.7,0-3.3-0.1-5-0.2
			c-1.7-0.1-3.3-0.4-5-0.6c-1.7-0.3-3.3-0.6-4.9-1.1c-1.6-0.4-3.2-0.9-4.8-1.5c-1.6-0.6-3.1-1.2-4.6-1.9l-1,2.2l-2.6,5.6
			c-1.7-0.8-3.4-1.7-5.1-2.7c-1.7-1-3.3-2-4.8-3.1l3.5-5l1.4-1.9c-1.4-1-2.7-2-4-3c-1.3-1.1-2.5-2.2-3.7-3.4
			c-1.2-1.2-2.3-2.4-3.4-3.7c-1.1-1.3-2.1-2.6-3-4c-1-1.4-1.9-2.8-2.7-4.2c-0.8-1.4-1.6-2.9-2.3-4.4l-2.2,1l-5.6,2.6
			C6.4,93,5.7,91.2,5,89.4c-0.7-1.8-1.2-3.6-1.7-5.5l6-1.6l2.3-0.6c-0.4-1.6-0.8-3.2-1.1-4.9c-0.3-1.6-0.5-3.3-0.6-5
			c-0.1-1.6-0.2-3.3-0.2-5c0-1.7,0.1-3.3,0.2-5c0.1-1.7,0.4-3.3,0.6-5c0.3-1.7,0.6-3.3,1.1-4.9l-2.3-0.6l-6-1.6
			C3.8,48,4.4,46.2,5,44.4c0.7-1.8,1.4-3.6,2.2-5.3l5.6,2.6l2.2,1c0.7-1.5,1.5-3,2.3-4.4c0.8-1.4,1.7-2.9,2.7-4.2c1-1.4,2-2.7,3-4
			c1.1-1.3,2.2-2.5,3.4-3.7h0c1.2-1.2,2.4-2.3,3.7-3.4c1.3-1.1,2.6-2.1,4-3L32.7,18l-3.5-5c1.6-1.1,3.2-2.1,4.8-3.1
			c1.7-1,3.4-1.8,5.1-2.7l2.6,5.6l1,2.2c1.5-0.7,3-1.3,4.6-1.9c1.6-0.6,3.1-1.1,4.8-1.5c1.6-0.4,3.2-0.8,4.9-1.1
			c1.6-0.3,3.3-0.5,5-0.6c1.6-0.1,3.3-0.2,5-0.2c1.7,0,3.3,0.1,5,0.2l0.2-2.4l0.5-6.1c1.9,0.2,3.8,0.4,5.7,0.7
			c1.9,0.3,3.8,0.7,5.6,1.2l-1.6,6l-0.6,2.3c1.6,0.4,3.2,0.9,4.8,1.5c1.6,0.6,3.1,1.2,4.6,1.9c1.5,0.7,3,1.5,4.4,2.3
			c1.4,0.8,2.9,1.7,4.2,2.7c1.4,1,2.7,2,4,3c1.3,1.1,2.5,2.2,3.7,3.4h0l1.7-1.7l4.4-4.4h0c1.4,1.4,2.6,2.8,3.9,4.2
			c1.2,1.5,2.4,3,3.5,4.6l-5,3.5l-1.9,1.4c1,1.4,1.9,2.8,2.7,4.2c0.8,1.4,1.6,2.9,2.3,4.4c0.7,1.5,1.3,3,1.9,4.6
			c0.6,1.6,1.1,3.1,1.5,4.8c0.4,1.6,0.8,3.2,1.1,4.9c0.3,1.6,0.5,3.3,0.6,5l2.4-0.2l6.1-0.5C132.7,63.1,132.8,65,132.8,66.9z
			 M117.4,66.9c0-27.9-22.6-50.5-50.5-50.5C39,16.4,16.4,39,16.4,66.9c0,27.9,22.6,50.5,50.5,50.5C94.8,117.4,117.4,94.8,117.4,66.9
			z"/>
		<path fill="#FFFFFF" d="M51.3,9.6l0.3-0.1c1.7-0.4,3.4-0.8,5.1-1.1c1.7-0.3,3.4-0.5,5.1-0.7l0.3,0l-0.6-6.4
			c-4.1,0.3-8.1,1-11.9,2.1L51.3,9.6z"/>
		<path fill="#FFFFFF" d="M18.1,33.1l0.2-0.2c1-1.4,2.1-2.8,3.2-4.1c1.1-1.3,2.3-2.6,3.5-3.8l0.2-0.2l-4.6-4.6
			c-2.9,2.9-5.5,6-7.8,9.2L18.1,33.1z"/>
		<path fill="#FFFFFF" d="M7.8,72.4l0-0.3c-0.2-1.7-0.2-3.5-0.2-5.2c0-1.7,0.1-3.5,0.2-5.2l0-0.3l-6.4-0.6C1,65,1,69,1.3,72.9
			L7.8,72.4z"/>
		<path fill="#FFFFFF" d="M25.1,109.1l-0.2-0.2c-1.2-1.2-2.4-2.5-3.5-3.8c-1.1-1.3-2.2-2.7-3.1-4.1l-0.2-0.2l-5.3,3.7
			c2.3,3.4,4.9,6.5,7.7,9.3L25.1,109.1z"/>
		<path fill="#FFFFFF" d="M62,126.1l-0.3,0c-1.7-0.2-3.5-0.4-5.1-0.7c-1.7-0.3-3.4-0.7-5.1-1.1l-0.3-0.1l-1.7,6.2
			c3.9,1.1,7.9,1.8,11.9,2.1L62,126.1z"/>
		<path fill="#FFFFFF" d="M101.2,115.4l-0.2,0.2c-1.4,1-2.9,1.9-4.4,2.8c-1.5,0.9-3,1.7-4.6,2.4l-0.3,0.1l2.7,5.9
			c3.7-1.7,7.2-3.7,10.5-6L101.2,115.4z"/>
		<path fill="#FFFFFF" d="M124.4,82l-0.1,0.3c-0.4,1.7-1,3.3-1.6,4.9c-0.6,1.6-1.3,3.2-2,4.8l-0.1,0.3l5.9,2.7
			c1.7-3.7,3.1-7.5,4.1-11.3L124.4,82z"/>
		<path fill="#FFFFFF" d="M120.6,41.5l0.1,0.3c0.7,1.6,1.4,3.2,2,4.8c0.6,1.6,1.1,3.3,1.6,4.9l0.1,0.3l6.2-1.7
			c-1-4-2.4-7.7-4.1-11.3L120.6,41.5z"/>
		<path fill="#FFFFFF" d="M91.7,13l0.3,0.1c1.6,0.7,3.1,1.5,4.6,2.4c1.5,0.9,3,1.8,4.4,2.8l0.2,0.2l3.7-5.3c-3.3-2.4-6.8-4.4-10.4-6
			L91.7,13z"/>
		<path opacity="0.5" fill="#FFFFFF" d="M66.9,15.8c-28.2,0-51.1,22.9-51.1,51.1S38.7,118,66.9,118c28.2,0,51.1-22.9,51.1-51.1
			S95.1,15.8,66.9,15.8z M66.9,117.7c-28,0-50.8-22.8-50.8-50.8c0-28,22.8-50.8,50.8-50.8s50.8,22.8,50.8,50.8
			C117.7,94.9,94.9,117.7,66.9,117.7z"/>
		<path opacity="0.4" fill="#FFFFFF" d="M34,18.4c-4.8-6.6,4-11.6,7.3-4.2l-2.7-5.7c-1.4,0.7-2.8,1.4-4.2,2.2
			c-1.4,0.8-2.7,1.7-4,2.5l3,4.3L34,18.4z"/>
		<path opacity="0.4" fill="#FFFFFF" d="M10.5,50.9c-7.9-2-4.4-11.5,2.9-7.9l-5.7-2.7c-0.7,1.4-1.3,2.9-1.8,4.4
			c-0.5,1.5-1,3-1.5,4.6l5.1,1.4L10.5,50.9z"/>
		<path opacity="0.4" fill="#FFFFFF" d="M13.4,90.9c-7.3,3.6-10.8-6-2.9-7.9l-6.1,1.6c0.4,1.5,0.9,3.1,1.5,4.5
			c0.5,1.5,1.2,3,1.8,4.4l4.8-2.2L13.4,90.9z"/>
		<path opacity="0.4" fill="#FFFFFF" d="M41.3,119.7c-3.3,7.4-12.1,2.4-7.3-4.2l-3.6,5.2c1.3,0.9,2.7,1.7,4.1,2.5
			c1.4,0.8,2.8,1.5,4.2,2.2l2.2-4.8L41.3,119.7z"/>
		<path opacity="0.4" fill="#FFFFFF" d="M81.2,123.8c2.2,7.8-7.7,9.6-8.3,1.5l0.5,6.3c1.6-0.2,3.2-0.4,4.7-0.7
			c1.6-0.3,3.1-0.6,4.7-1l-1.4-5.1L81.2,123.8z"/>
		<path opacity="0.4" fill="#FFFFFF" d="M114.5,101.3c6.7,4.5,0.2,12.3-5.4,6.5l4.5,4.5c1.1-1.1,2.2-2.3,3.2-3.5
			c1-1.2,2-2.5,2.9-3.8l-4.3-3L114.5,101.3z"/>
		<path opacity="0.4" fill="#FFFFFF" d="M109,26.1c5.6-5.8,12.2,1.9,5.4,6.5l5.2-3.6c-0.9-1.3-1.9-2.6-2.9-3.8
			c-1-1.2-2.1-2.4-3.2-3.5l-3.7,3.7L109,26.1z"/>
		<path opacity="0.5" fill="#FFFFFF" d="M34.9,20.1l-1.7-2.4L30,13.1c1.4-1,2.8-1.9,4.3-2.7c1.5-0.9,3-1.7,4.5-2.4l3.6,7.7
			c0,0,6.5-3,9.8-3.9c-1.6,0.4-3.2,0.9-4.7,1.5c-1.6,0.6-3.1,1.2-4.6,1.9l-0.3,0.1l-3.6-7.7c-1.6,0.8-3.2,1.6-4.8,2.5
			c-1.6,0.9-3.1,1.9-4.6,2.9l3.4,4.8l1.5,2.2l-0.2,0.2c-1.4,1-2.7,2-3.9,3c-1.3,1.1-2.5,2.2-3.7,3.4l-0.1,0.1
			C30.3,23.2,34.9,20.1,34.9,20.1z"/>
		<path opacity="0.5" fill="#FFFFFF" d="M12.3,51.7l-2.9-0.8L4,49.5c0.4-1.6,1-3.3,1.6-4.9c0.6-1.6,1.2-3.2,1.9-4.7l7.7,3.6
			c0,0,3.1-6.5,5-9.3c-0.9,1.4-1.8,2.8-2.7,4.2c-0.8,1.4-1.6,2.9-2.3,4.4l-0.1,0.3l-7.7-3.6c-0.8,1.6-1.4,3.3-2.1,5
			c-0.6,1.7-1.2,3.4-1.6,5.2l5.7,1.5l2.6,0.7l-0.1,0.3c-0.4,1.6-0.8,3.2-1.1,4.9c-0.3,1.6-0.5,3.3-0.6,4.9l0,0.1
			C10.8,57,12.3,51.7,12.3,51.7z"/>
		<path opacity="0.5" fill="#FFFFFF" d="M15.3,90.3l-2.7,1.3l-5,2.4c-0.7-1.5-1.4-3.1-1.9-4.7C5,87.6,4.5,86,4,84.4l8.2-2.2
			c0,0-1.8-6.9-2.2-10.3c0.1,1.6,0.4,3.3,0.6,4.9c0.3,1.6,0.6,3.3,1.1,4.9l0.1,0.3l-8.2,2.2c0.5,1.7,1,3.5,1.6,5.2
			c0.6,1.7,1.3,3.4,2.1,5l5.3-2.5l2.4-1.1l0.1,0.3c0.7,1.5,1.5,3,2.3,4.4c0.8,1.4,1.7,2.8,2.7,4.2l0.1,0.1
			C17.5,95.4,15.3,90.3,15.3,90.3z"/>
		<path opacity="0.5" fill="#FFFFFF" d="M42.4,118.1l-1.3,2.7l-2.4,5c-1.5-0.7-3-1.5-4.5-2.4c-1.5-0.8-2.9-1.8-4.3-2.7l4.9-7
			c0,0-5.8-4.2-8.3-6.5c1.2,1.2,2.4,2.3,3.7,3.4c1.3,1.1,2.6,2.1,3.9,3l0.2,0.2l-4.9,7c1.5,1,3,2,4.6,2.9c1.6,0.9,3.2,1.7,4.8,2.5
			l2.5-5.3l1.1-2.4l0.3,0.1c1.5,0.7,3.1,1.3,4.6,1.9c1.6,0.6,3.1,1.1,4.7,1.5l0.1,0C47.4,120.5,42.4,118.1,42.4,118.1z"/>
		<path opacity="0.5" fill="#FFFFFF" d="M81,121.8l0.8,2.9l1.4,5.4c-1.6,0.4-3.3,0.8-5,1.1c-1.7,0.3-3.4,0.5-5.1,0.7l-0.7-8.5
			c0,0-7.1,0.5-10.5,0.3c1.6,0.1,3.3,0.2,5,0.2c1.7,0,3.3-0.1,5-0.2l0.3,0l0.7,8.5c1.8-0.2,3.6-0.4,5.4-0.7c1.8-0.3,3.6-0.7,5.3-1.2
			l-1.5-5.7l-0.7-2.6l0.3-0.1c1.6-0.4,3.2-0.9,4.7-1.5c1.6-0.6,3.1-1.2,4.6-1.9l0.1,0C86.4,120.5,81,121.8,81,121.8z"/>
		<path opacity="0.5" fill="#FFFFFF" d="M113,99.9l2.4,1.7l4.6,3.2c-1,1.4-2,2.7-3.1,4c-1.1,1.3-2.2,2.6-3.4,3.8l-6-6
			c0,0-5.1,5-7.8,7c1.4-0.9,2.7-2,3.9-3c1.3-1.1,2.5-2.2,3.7-3.4l0.2-0.2l6,6c1.3-1.3,2.5-2.6,3.7-4c1.2-1.4,2.3-2.8,3.3-4.3
			l-4.8-3.4l-2.2-1.5l0.2-0.2c1-1.4,1.8-2.8,2.7-4.2c0.8-1.4,1.6-2.9,2.3-4.4l0.1-0.1C116.3,95.4,113,99.9,113,99.9z"/>
		<path opacity="0.5" fill="#FFFFFF" d="M123.5,62.6l3-0.3l5.5-0.5c0.1,1.7,0.2,3.4,0.2,5.1c0,1.7-0.1,3.4-0.2,5.1l-8.5-0.7
			c0,0-0.7,7.1-1.5,10.4c0.4-1.6,0.8-3.2,1.1-4.9c0.3-1.6,0.5-3.3,0.6-4.9l0-0.3l8.5,0.7c0.1-1.8,0.2-3.6,0.2-5.4
			c0-1.8-0.1-3.6-0.2-5.4l-5.8,0.5l-2.7,0.2l0-0.3c-0.1-1.7-0.4-3.3-0.7-4.9c-0.3-1.6-0.6-3.3-1.1-4.9l0-0.1
			C123,57,123.5,62.6,123.5,62.6z"/>
		<path opacity="0.5" fill="#FFFFFF" d="M107.4,27.2l2.1-2.1l3.9-3.9c1.2,1.2,2.3,2.5,3.4,3.8c1.1,1.3,2.1,2.7,3.1,4l-7,4.9
			c0,0,4,5.9,5.6,8.9c-0.7-1.5-1.5-3-2.3-4.4c-0.8-1.4-1.7-2.8-2.7-4.2l-0.2-0.2l7-4.9c-1-1.5-2.2-2.9-3.3-4.3
			c-1.2-1.4-2.4-2.7-3.7-4l-4.1,4.1l-1.9,1.9l-0.2-0.2c-1.2-1.2-2.4-2.3-3.7-3.4c-1.3-1.1-2.6-2.1-3.9-3l-0.1-0.1
			C103.6,23.2,107.4,27.2,107.4,27.2z"/>
		<path opacity="0.4" fill="#FFFFFF" d="M72.9,8.6c0.6-8.1,10.5-6.4,8.3,1.5l1.6-6.1c-1.5-0.4-3.1-0.7-4.7-1
			c-1.6-0.3-3.2-0.5-4.7-0.7L73,7.5L72.9,8.6z"/>
	</g>
	
		<text transform="matrix(1 0 0 1 36.7622 89.819)" fill="#FFFFFF" font-family="'AvantGardeITCbyBT-BoldCondensed'" font-size="63.4104" letter-spacing="-9">10</text>
	<g opacity="0.5">
		<g>
			<path fill="#FFFFFF" d="M47.1,93.2l-1.2-1L41.8,97L41,96.4l4.1-4.9l-1.2-1l0.6-0.7l3.1,2.6L47.1,93.2z"/>
			<path fill="#FFFFFF" d="M43.7,98.6l3.9-6.1l1.7,1.1c1.4,0.9,1.7,2,0.9,3.2c-0.6,1-1.6,1.3-2.5,0.8l0.1,3.6l-1-0.7l-0.1-4.5
				l0.8,0.5c0.7,0.4,1.3,0.3,1.8-0.4c0.5-0.7,0.3-1.4-0.4-1.8l-1-0.6l-3.4,5.4L43.7,98.6z"/>
			<path fill="#FFFFFF" d="M52.6,103.4l-0.9-0.4l0.4-2.3l-1.9-0.9l-1.5,1.7l-0.9-0.4l5-5.7l1,0.4L52.6,103.4z M52.2,99.8l0.3-1.7
				c0.1-0.4,0.2-1,0.4-1.6c-0.4,0.5-0.7,1-1,1.3l-1.1,1.4L52.2,99.8z"/>
			<path fill="#FFFFFF" d="M55.4,96.7l2.1,0.6c1.8,0.5,2.4,2.1,1.8,4.3c-0.7,2.2-2,3.2-3.8,2.6l-2.1-0.6L55.4,96.7z M55.5,103.4
				c1.3,0.4,2.2-0.3,2.7-2.1c0.5-1.7,0.1-2.8-1.2-3.2l-1-0.3l-1.6,5.3L55.5,103.4z"/>
			<path fill="#FFFFFF" d="M60.3,98.1l3.7,0.5l-0.1,0.9l-2.7-0.4l-0.3,2.1l2.7,0.4l-0.1,0.9l-2.7-0.4l-0.3,2.5l2.7,0.4l-0.1,0.9
				l-3.7-0.5L60.3,98.1z"/>
			<path fill="#FFFFFF" d="M72.2,99.1l-1.5,0.2l0.7,6.3l-1,0.1l-0.7-6.3l-1.5,0.2L68,98.6l4-0.5L72.2,99.1z"/>
			<path fill="#FFFFFF" d="M72.5,101.8c-0.6-2.4,0.1-3.9,1.7-4.3c1.7-0.4,3,0.6,3.6,3c0.6,2.4-0.1,3.9-1.7,4.3
				C74.5,105.2,73.1,104.2,72.5,101.8z M74.5,98.3c-1.1,0.3-1.4,1.4-0.9,3.2s1.3,2.6,2.4,2.4c1.1-0.3,1.4-1.4,0.9-3.2
				C76.4,98.8,75.6,98.1,74.5,98.3z"/>
			<path fill="#FFFFFF" d="M79.9,103.5L77,96.8l0.9-0.4l1.2,2.8c0,0.1,0.1,0.2,0.2,0.5c0-0.3,0.1-0.6,0.1-0.9l0.7-3.3l1-0.4
				l-0.7,3.4l3.8,3.2l-1,0.4l-3.1-2.6l-0.3,1.4l1,2.2L79.9,103.5z"/>
			<path fill="#FFFFFF" d="M81.1,95l3.2-1.9l0.5,0.8l-2.4,1.4l1.1,1.8l2.4-1.4l0.5,0.8L84,97.8l1.3,2.1l2.4-1.4l0.5,0.8l-3.2,1.9
				L81.1,95z"/>
			<path fill="#FFFFFF" d="M89.2,98.5l-4.6-5.6l0.8-0.6l4.2,1.8c0.6,0.3,1.2,0.6,1.7,0.9c-0.6-0.6-1.1-1.1-1.5-1.6l-2.3-2.9l0.8-0.6
				l4.6,5.6L92,96.2l-4.2-1.8c-0.6-0.3-1.2-0.6-1.7-0.9c0.6,0.6,1.1,1.1,1.5,1.6l2.3,2.8L89.2,98.5z"/>
		</g>
	</g>
	<g opacity="0.5">
		<g>
			<path fill="#FFFFFF" d="M45.4,36l-1.2,0.8l3.2,4.8l-0.8,0.5l-3.2-4.8L42.4,38l-0.4-0.7l3.1-2L45.4,36z"/>
			<path fill="#FFFFFF" d="M48.8,40.7l-3-5.8l1.6-0.8c1.3-0.7,2.3-0.4,2.9,0.7c0.5,1,0.3,1.8-0.5,2.4l2.9,1.6l-1,0.5l-3.6-2l0.8-0.4
				c0.7-0.3,0.9-0.9,0.5-1.6c-0.4-0.7-0.9-0.9-1.6-0.5l-0.9,0.5l2.7,5.1L48.8,40.7z"/>
			<path fill="#FFFFFF" d="M56.5,37.3l-0.9,0.3L54.4,36l-1.7,0.7l0.2,2.1L52,39l-0.5-6.8l0.9-0.3L56.5,37.3z M53.9,35.3L53,34
				c-0.2-0.3-0.5-0.8-0.8-1.3c0.1,0.6,0.2,1.1,0.2,1.5l0.2,1.6L53.9,35.3z"/>
			<path fill="#FFFFFF" d="M54.9,30.9l1.9-0.5c1.6-0.4,2.9,0.5,3.4,2.6c0.5,2.1-0.2,3.4-1.8,3.8l-1.9,0.5L54.9,30.9z M58.1,36.1
				c1.2-0.3,1.6-1.3,1.2-2.9c-0.4-1.6-1.2-2.3-2.4-2L56,31.5l1.2,4.8L58.1,36.1z"/>
			<path fill="#FFFFFF" d="M60.4,29.7l3.4-0.4l0.1,0.8l-2.5,0.3l0.2,1.9l2.5-0.3l0.1,0.8l-2.5,0.3l0.3,2.2l2.5-0.3l0.1,0.8l-3.4,0.4
				L60.4,29.7z"/>
			<path fill="#FFFFFF" d="M72.9,30.3l-1.4-0.1L70.9,36L70,35.9l0.5-5.8L69.2,30l0.1-0.8l3.7,0.3L72.9,30.3z"/>
			<path fill="#FFFFFF" d="M72.8,32.8c0.5-2.2,1.6-3.2,3.2-2.8c1.5,0.3,2.2,1.7,1.7,3.9c-0.5,2.2-1.6,3.1-3.2,2.8
				C73,36.4,72.4,35,72.8,32.8z M75.8,30.8c-1-0.2-1.7,0.5-2.1,2.3c-0.4,1.7,0,2.7,1,2.9c1,0.2,1.7-0.5,2.1-2.2
				C77.2,32,76.8,31,75.8,30.8z"/>
			<path fill="#FFFFFF" d="M77.3,37.2l2.2-6.2l0.9,0.3l-0.9,2.6c0,0.1-0.1,0.2-0.2,0.4c0.2-0.2,0.4-0.4,0.7-0.5l2.5-1.8l1,0.3
				l-2.6,1.8l0.6,4.5l-1-0.3l-0.5-3.6l-1.1,0.8l-0.7,2.1L77.3,37.2z"/>
			<path fill="#FFFFFF" d="M84.2,32.7l3.1,1.5l-0.3,0.7l-2.3-1.1l-0.8,1.7l2.3,1.1l-0.3,0.7l-2.3-1.1l-1,2l2.3,1.1l-0.3,0.7
				l-3.1-1.5L84.2,32.7z"/>
			<path fill="#FFFFFF" d="M84.8,40.3l3.5-5.5l0.8,0.5l-0.4,4.1c-0.1,0.6-0.2,1.2-0.3,1.7c0.3-0.7,0.6-1.2,0.9-1.7l1.8-2.8l0.8,0.5
				l-3.5,5.5l-0.8-0.5L88,38c0.1-0.6,0.2-1.2,0.3-1.7C88,37,87.7,37.5,87.4,38l-1.8,2.8L84.8,40.3z"/>
		</g>
	</g>
</g>
</svg>
