<?xml version="1.0" encoding="utf-8"?>
<!-- Generator: Adobe Illustrator 17.1.0, SVG Export Plug-In . SVG Version: 6.00 Build 0)  -->
<!DOCTYPE svg PUBLIC "-//W3C//DTD SVG 1.1//EN" "http://www.w3.org/Graphics/SVG/1.1/DTD/svg11.dtd">
<svg version="1.1" id="Layer_1" xmlns="http://www.w3.org/2000/svg" xmlns:xlink="http://www.w3.org/1999/xlink" x="0px" y="0px"
	 viewBox="0 0 832 281" enable-background="new 0 0 832 281" xml:space="preserve">
<g>
	<g>
		<path fill="#F19720" d="M377,27.5c0-7.1,5.8-12.8,12.8-12.8h60.6c7.1,0,12.8,5.7,12.8,12.8v16.5h12.8V14.7
			c0-8.1-6.6-14.7-14.7-14.7h-82.6c-8.1,0-14.7,6.6-14.7,14.7v29.4H377V27.5z"/>
	</g>
	<g>
		<path fill="#FAAC1F" d="M540.4,45.4c0-6.9-5.6-12.5-12.5-12.5H304.1c-6.9,0-12.5,5.6-12.5,12.5v105.7v89h248.8v-88.9V45.4z"/>
	</g>
	<linearGradient id="SVGID_1_" gradientUnits="userSpaceOnUse" x1="416" y1="240.5869" x2="416" y2="282.5973">
		<stop  offset="0" style="stop-color:#47494B"/>
		<stop  offset="1" style="stop-color:#494E53"/>
	</linearGradient>
	<path fill="url(#SVGID_1_)" d="M291.6,268.1c0,6.9,5.6,12.5,12.5,12.5h223.7c6.9,0,12.5-5.6,12.5-12.5v-29H291.6V268.1z"/>
	<g>
	</g>
	<path fill="none" stroke="#FFFFFF" stroke-width="0.5" d="M354.2,179.4"/>
	<path fill="none" stroke="#FFFFFF" stroke-width="0.5" d="M417.3,179.4"/>
	<g>
		<g>
			<path fill="#FFFFFF" d="M426.6,188c0-4.5,0-9,0-13.6c30.8-27,71.2-46.3,65.1-103.1c-11.6,0-23.2,0.1-34.8,0.1
				c-0.9,2.7,1.8,8.2-1.4,9c-13.1,0-26.3,0.1-39.5,0.1c-13.2,0-26.3,0.1-39.5,0.1c-3.2-0.8-0.6-6.3-1.4-9c-11.6,0-23.2,0.1-34.8,0.1
				c-5.7,56.8,34.8,75.8,65.7,102.7c0,4.5,0,9,0,13.6c-7.2,7-24.7,5.6-30.6,13.7c13.6,0,27.3-0.1,40.9-0.1c13.6,0,27.3-0.1,40.9-0.1
				C451.3,193.5,433.9,194.9,426.6,188z M437.6,156.3c17.6-18.1,26.8-43,23.4-78.1c7.9,0,15.8-0.1,23.7-0.1
				c-2.1,37.4-20.8,61.4-47.1,79.3C436,159,437.1,157.5,437.6,156.3z M394.9,157.6c-26.4-17.7-45.2-41.6-47.6-79
				c7.9,0,15.8-0.1,23.7-0.1c-3.1,35.1,6.1,60,23.9,77.9C395.4,157.7,396.5,159.2,394.9,157.6z"/>
		</g>
	</g>
</g>
</svg>
