<?xml version="1.0" encoding="utf-8"?>
<!-- Generator: Adobe Illustrator 16.0.0, SVG Export Plug-In . SVG Version: 6.00 Build 0)  -->
<!DOCTYPE svg PUBLIC "-//W3C//DTD SVG 1.1//EN" "http://www.w3.org/Graphics/SVG/1.1/DTD/svg11.dtd">
<svg version="1.1" id="Layer_1" xmlns="http://www.w3.org/2000/svg" xmlns:xlink="http://www.w3.org/1999/xlink" x="0px" y="0px"
	 width="116.394px" height="34.229px" viewBox="0 0 116.394 34.229" enable-background="new 0 0 116.394 34.229"
	 xml:space="preserve">
<g>
	<g>
		<g>
			<path fill="#31ADB3" d="M26.409,10.34c0.43,0,0.78,0.35,0.78,0.78v15.289c0,0.43-0.35,0.78-0.78,0.78h-2v2v0.859l-3-2.417
				l-0.549-0.442h-0.706H11.12c-0.43,0-0.78-0.35-0.78-0.78V11.12c0-0.43,0.35-0.78,0.78-0.78H26.409 M26.409,8.34H11.12
				c-1.535,0-2.78,1.245-2.78,2.78v15.289c0,1.536,1.245,2.78,2.78,2.78h9.034l6.255,5.039v-5.039c1.536,0,2.78-1.244,2.78-2.78
				V11.12C29.189,9.585,27.945,8.34,26.409,8.34L26.409,8.34z"/>
		</g>
		<path fill="#104247" d="M19.46,23.63H6.95c-2.302,0-4.171-1.867-4.171-4.17V6.95c0-2.305,1.869-4.171,4.171-4.171h12.51
			c2.303,0,4.17,1.866,4.17,4.171v12.51C23.63,21.763,21.763,23.63,19.46,23.63z"/>
		<g>
			<path fill="#31ADB3" d="M18.069,2c0.43,0,0.78,0.35,0.78,0.779v15.29c0,0.43-0.35,0.78-0.78,0.78H9.035H8.33l-0.549,0.442
				l-3.001,2.417V20.85v-2h-2C2.35,18.85,2,18.5,2,18.069V2.779C2,2.35,2.35,2,2.779,2H18.069 M18.069,0H2.779
				C1.244,0,0,1.244,0,2.779v15.29c0,1.535,1.244,2.78,2.779,2.78v5.038l6.256-5.038h9.034c1.535,0,2.78-1.245,2.78-2.78V2.779
				C20.85,1.244,19.604,0,18.069,0L18.069,0z"/>
		</g>
	</g>
	<g>
		<path fill="#31ADB3" d="M46.05,9.911c2.269,0,3.925,1.152,4.717,2.79l-1.008,0.612c-0.811-1.692-2.395-2.269-3.781-2.269
			c-3.061,0-4.735,2.737-4.735,5.312c0,2.827,2.07,5.384,4.789,5.384c1.44,0,3.133-0.72,3.943-2.377l1.044,0.54
			c-0.828,1.909-3.097,2.972-5.06,2.972c-3.511,0-5.978-3.35-5.978-6.591C39.981,13.206,42.196,9.911,46.05,9.911z"/>
		<path fill="#31ADB3" d="M60.793,22.766h-1.225v-5.239c0-2.125-0.757-3.188-2.161-3.188c-1.386,0-2.845,1.152-3.276,2.683v5.744
			h-1.225V9.623h1.225v5.888c0.756-1.404,2.179-2.287,3.69-2.287c2.161,0,2.972,1.639,2.972,4.052V22.766z"/>
		<path fill="#31ADB3" d="M62.59,20.083c0-1.747,1.62-2.881,3.961-2.881c0.937,0,1.98,0.18,2.755,0.486v-0.847
			c0-1.656-1.026-2.701-2.629-2.701c-0.99,0-1.998,0.396-3.024,1.117l-0.433-0.811c1.207-0.811,2.341-1.225,3.583-1.225
			c2.27,0,3.728,1.404,3.728,3.728v4.231c0,0.342,0.126,0.504,0.432,0.504v1.08c-0.197,0.018-0.359,0.036-0.485,0.036
			c-0.486,0-0.955-0.288-0.99-0.864L69.45,21.2c-0.811,1.099-2.287,1.746-3.638,1.746C63.887,22.946,62.59,21.631,62.59,20.083z
			 M69,20.696c0.162-0.217,0.306-0.486,0.306-0.702v-1.531c-0.81-0.306-1.729-0.485-2.574-0.485c-1.747,0-2.953,0.756-2.953,1.998
			c0,0.99,0.774,2.035,2.341,2.035C67.199,22.01,68.388,21.505,69,20.696z"/>
		<path fill="#31ADB3" d="M77.603,22.316c-0.288,0.126-1.116,0.559-2.124,0.559c-1.062,0-1.981-0.595-1.981-1.801v-6.716h-1.296
			v-0.973h1.296v-3.169h1.225v3.169h2.161v0.973h-2.161v6.374c0.054,0.684,0.54,1.008,1.135,1.008c0.684,0,1.278-0.324,1.422-0.414
			L77.603,22.316z"/>
		<path fill="#31ADB3" d="M83.955,22.766V9.982h1.243V21.65h7.399v1.116H83.955z"/>
		<path fill="#31ADB3" d="M94.27,11.422v-1.8h1.225v1.8H94.27z M94.27,22.766v-9.381h1.225v9.381H94.27z"/>
		<path fill="#31ADB3" d="M100.93,22.766l-3.817-9.381h1.278l3.224,8.246l3.241-8.246h1.188l-3.816,9.381H100.93z"/>
		<path fill="#31ADB3" d="M107.049,18.048c0-2.628,1.98-4.825,4.699-4.825c2.737,0,4.628,2.232,4.646,4.808
			c0,0.18-0.018,0.414-0.036,0.486h-8.012c0.144,2.017,1.656,3.493,3.457,3.493c1.242,0,2.448-0.685,2.881-1.693l1.062,0.289
			c-0.576,1.368-2.179,2.34-3.979,2.34C109.029,22.946,107.049,20.713,107.049,18.048z M115.224,17.581
			c-0.162-1.999-1.639-3.403-3.476-3.403c-1.836,0-3.312,1.423-3.438,3.403H115.224z"/>
	</g>
</g>
</svg>
