<?xml version="1.0" encoding="utf-8"?>
<!-- Generator: Adobe Illustrator 16.0.0, SVG Export Plug-In . SVG Version: 6.00 Build 0)  -->
<!DOCTYPE svg PUBLIC "-//W3C//DTD SVG 1.1//EN" "http://www.w3.org/Graphics/SVG/1.1/DTD/svg11.dtd">
<svg version="1.1" id="Layer_1" xmlns="http://www.w3.org/2000/svg" xmlns:xlink="http://www.w3.org/1999/xlink" x="0px" y="0px"
	 width="32.056px" height="32.057px" viewBox="0 0 32.056 32.057" enable-background="new 0 0 32.056 32.057" xml:space="preserve">
<g>
	<g>
		<path fill="#31ADB3" d="M14.771,16.489c0-1.325,0-1.495-0.918-2.106l-0.306-0.204c-0.136-0.137-0.136-0.511,0.034-0.612
			c0.782-0.271,2.719-1.155,3.501-1.665c0.17,0,0.306,0.067,0.34,0.204c-0.067,1.189-0.136,2.82-0.136,4.215v6.117
			c0,2.447,0.068,2.787,1.292,2.958l0.714,0.102c0.237,0.17,0.169,0.748-0.068,0.85c-1.02-0.067-2.006-0.102-3.195-0.102
			c-1.224,0-2.243,0.034-3.194,0.102c-0.238-0.102-0.307-0.68-0.068-0.85l0.714-0.102c1.257-0.171,1.291-0.511,1.291-2.958V16.489z
			 M17.592,6.803c0,1.224-0.85,1.768-1.802,1.768c-1.054,0-1.732-0.782-1.732-1.699c0-1.122,0.815-1.836,1.835-1.836
			S17.592,5.852,17.592,6.803z"/>
	</g>
	<g>
		<path fill="#31ADB3" d="M16.028,32.057C7.19,32.057,0,24.866,0,16.028S7.19,0,16.028,0s16.027,7.19,16.027,16.028
			S24.866,32.057,16.028,32.057z M16.028,1.834c-7.826,0-14.194,6.368-14.194,14.194s6.368,14.193,14.194,14.193
			s14.193-6.367,14.193-14.193S23.854,1.834,16.028,1.834z"/>
	</g>
</g>
</svg>
