<?xml version="1.0" encoding="utf-8"?>
<!-- Generator: Adobe Illustrator 16.0.0, SVG Export Plug-In . SVG Version: 6.00 Build 0)  -->
<!DOCTYPE svg PUBLIC "-//W3C//DTD SVG 1.1//EN" "http://www.w3.org/Graphics/SVG/1.1/DTD/svg11.dtd">
<svg version="1.1" id="Layer_1" xmlns="http://www.w3.org/2000/svg" xmlns:xlink="http://www.w3.org/1999/xlink" x="0px" y="0px"
	 width="351.76px" height="569.938px" viewBox="0 0 351.76 569.938" enable-background="new 0 0 351.76 569.938"
	 xml:space="preserve">
<g>
	<g>
		<g>
			<path fill="#0D3435" d="M102.593,567.723c0,1.224-0.992,2.216-2.216,2.216h-8.7c-1.224,0-2.216-0.992-2.216-2.216v-18.801
				c0-1.225,0.992-2.217,2.216-2.217h8.7c1.224,0,2.216,0.992,2.216,2.217V567.723z"/>
			<path fill="#0D3435" d="M118.755,567.723c0,1.224-0.992,2.216-2.216,2.216h-8.7c-1.224,0-2.216-0.992-2.216-2.216v-18.801
				c0-1.225,0.992-2.217,2.216-2.217h8.7c1.224,0,2.216,0.992,2.216,2.217V567.723z"/>
		</g>
		<g>
			<path fill="#0D3435" d="M174.312,567.723c0,1.224-0.992,2.216-2.216,2.216h-8.7c-1.224,0-2.216-0.992-2.216-2.216v-18.801
				c0-1.225,0.992-2.217,2.216-2.217h8.7c1.224,0,2.216,0.992,2.216,2.217V567.723z"/>
			<path fill="#0D3435" d="M189.463,567.723c0,1.224-0.992,2.216-2.216,2.216h-8.699c-1.225,0-2.216-0.992-2.216-2.216v-18.801
				c0-1.225,0.991-2.217,2.216-2.217h8.699c1.224,0,2.216,0.992,2.216,2.217V567.723z"/>
		</g>
		<path fill="#31ADB3" d="M26.524,377.005H14.976c-5.836,5.051-9.606,12.048-9.606,20.426c0,9.383,4.728,17.959,11.792,22h10.851
			c-4.035-3.03-9.51-11.32-9.51-22C18.502,388.021,22.754,382.056,26.524,377.005z"/>
		<path opacity="0.5" fill="#1A4F5B" d="M26.524,377.005H14.976c-5.836,5.051-9.606,12.048-9.606,20.426
			c0,9.383,4.728,17.959,11.792,22h10.851c-4.035-3.03-9.51-11.32-9.51-22C18.502,388.021,22.754,382.056,26.524,377.005z"/>
		<path fill="#31ADB3" d="M30.512,377.005h-8.038c-4.062,5.051-6.688,12.048-6.688,20.426c0,9.383,3.291,17.959,8.208,22h7.553
			c-2.809-3.03-6.619-11.32-6.619-22C24.928,388.021,27.887,382.056,30.512,377.005z"/>
		<polygon fill="#31ADB3" points="160.893,535.594 116.194,535.594 90.941,466.906 186.146,466.906 		"/>
		<polygon opacity="0.5" fill="#1A4F5B" points="160.893,535.594 116.194,535.594 90.941,466.906 186.146,466.906 		"/>
		<polygon opacity="0.5" fill="#1A4F5B" points="160.893,535.594 116.194,535.594 90.941,466.906 186.146,466.906 		"/>
		<polygon opacity="0.5" fill="#1A4F5B" points="140.978,466.906 140.978,535.594 160.887,535.594 186.14,466.906 		"/>
		<path opacity="0.5" fill="#1A4F5B" d="M177.529,490.386l8.616-23.479H90.941l8.616,23.479c0,0,20.713,5.351,37.885,5.351
			S177.529,490.386,177.529,490.386z"/>
		<path fill="#31ADB3" d="M223.679,462.06c4.871-48.062,15.143-156.958,11.24-185.056c-4.021-28.95-11.235-35.998-17.89-56.055
			c-5.537-16.688-8.522-34.634-9.368-40.189c-0.153-1.004-1.014-1.738-2.028-1.738H59.697c-1.014,0-1.874,0.733-2.027,1.735
			c-0.853,5.554-3.857,23.502-9.396,40.192c-6.654,20.057-4.899,9.589-13.423,56.055c-6.634,36.164,9.929,140.55,17.599,185.056
			c0,0,40.848,15.152,83.627,15.152S223.679,462.06,223.679,462.06z"/>
		<path opacity="0.15" fill="#1A4F5B" d="M223.894,462.06c5.227-55.585,17.287-191.222,10.842-185.804
			c-4.057-9.354-11.308-36.129-17.962-56.186c-6.654-20.056-9.695-42.059-9.695-42.059h-71.151c0,0,0,301.016,0,299.2
			C164.21,478.018,223.894,462.06,223.894,462.06z"/>
		<path fill="#31ADB3" d="M57.926,179.014l-32.064,97.99h8.99C34.852,277.004,61.821,220.967,57.926,179.014z"/>
		<path fill="#31ADB3" d="M48.258,457.963l4.037,3.939L35.854,301.039c-1.269-11.581,0.275-23.294,4.524-34.142
			c8.02-20.473,20.219-57.239,17.561-85.863l-28.944,77.579c-4.144,11.107-5.488,23.064-3.916,34.815l21.027,157.129
			C46.624,454.431,47.25,456.512,48.258,457.963z"/>
		<path opacity="0.5" fill="#1A4F5B" d="M48.258,457.963l4.037,3.939L40.561,301.039c-1.27-11.581,2.683-22.638,4.523-34.142
			c4.309-26.932,15.513-57.239,12.854-85.863l-28.944,77.579c-4.144,11.107-5.488,23.064-3.916,34.815l21.027,157.129
			C46.624,454.431,47.25,456.512,48.258,457.963z"/>
		<path fill="#31ADB3" d="M227.765,457.922l-3.896,4.079l6.069-161.176c0.861-11.618-3.478-22.53-5.722-33.962
			c-5.254-26.764-17.517-56.658-15.867-85.358l31.655,76.515c4.532,10.954,6.297,22.856,5.139,34.654l-15.488,157.772
			C229.272,454.335,228.721,456.437,227.765,457.922z"/>
		<path opacity="0.5" fill="#B8E2E0" d="M227.765,457.922l-3.896,4.079l6.069-161.176c0.861-11.618-3.478-22.53-5.722-33.962
			c-5.254-26.764-17.517-56.658-15.867-85.358l31.655,76.515c4.532,10.954,6.297,22.856,5.139,34.654l-15.488,157.772
			C229.272,454.335,228.721,456.437,227.765,457.922z"/>
		<g>
			<g>
				<rect x="102.593" y="35.584" fill="#31ADB3" width="59.597" height="8.081"/>
				<rect x="102.593" y="35.584" opacity="0.5" fill="#1A4F5B" width="59.597" height="8.081"/>
				<path fill="#31ADB3" d="M170.745,33.564h-8.556v12.121h2.003c2.115,0,4.059,1.925,4.059,4.041v15.151H96.532V49.727
					c0-2.116,1.963-4.041,4.078-4.041h1.982V33.564h-8.512c-5.228,0-9.671,4.485-9.671,9.713v43.823h95.962V43.277
					C180.372,38.05,175.972,33.564,170.745,33.564z"/>
				<path fill="#31ADB3" d="M108.653,45.686c0,0.558-0.452,1.01-1.01,1.01l0,0c-0.558,0-1.011-0.452-1.011-1.01V33.564
					c0-0.559,0.453-1.011,1.011-1.011l0,0c0.558,0,1.01,0.452,1.01,1.011V45.686z"/>
				<path fill="#31ADB3" d="M112.694,45.686c0,0.558-0.452,1.01-1.011,1.01l0,0c-0.558,0-1.01-0.452-1.01-1.01V33.564
					c0-0.559,0.452-1.011,1.01-1.011l0,0c0.559,0,1.011,0.452,1.011,1.011V45.686z"/>
				<path fill="#31ADB3" d="M115.725,45.686c0,0.558-0.453,1.01-1.011,1.01l0,0c-0.558,0-1.01-0.452-1.01-1.01V33.564
					c0-0.559,0.452-1.011,1.01-1.011l0,0c0.558,0,1.011,0.452,1.011,1.011V45.686z"/>
				<path fill="#31ADB3" d="M118.755,45.686c0,0.558-0.452,1.01-1.011,1.01l0,0c-0.558,0-1.01-0.452-1.01-1.01V33.564
					c0-0.559,0.452-1.011,1.01-1.011l0,0c0.559,0,1.011,0.452,1.011,1.011V45.686z"/>
				<path fill="#31ADB3" d="M122.795,45.686c0,0.558-0.452,1.01-1.01,1.01l0,0c-0.558,0-1.01-0.452-1.01-1.01V33.564
					c0-0.559,0.452-1.011,1.01-1.011l0,0c0.558,0,1.01,0.452,1.01,1.011V45.686z"/>
				<path fill="#31ADB3" d="M125.825,45.686c0,0.558-0.452,1.01-1.01,1.01l0,0c-0.558,0-1.011-0.452-1.011-1.01V33.564
					c0-0.559,0.453-1.011,1.011-1.011l0,0c0.558,0,1.01,0.452,1.01,1.011V45.686z"/>
				<path fill="#31ADB3" d="M129.866,45.686c0,0.558-0.452,1.01-1.011,1.01l0,0c-0.558,0-1.01-0.452-1.01-1.01V33.564
					c0-0.559,0.452-1.011,1.01-1.011l0,0c0.559,0,1.011,0.452,1.011,1.011V45.686z"/>
				<path fill="#31ADB3" d="M129.866,45.686c0,0.558-0.452,1.01-1.011,1.01l0,0c-0.558,0-1.01-0.452-1.01-1.01V33.564
					c0-0.559,0.452-1.011,1.01-1.011l0,0c0.559,0,1.011,0.452,1.011,1.011V45.686z"/>
				<path fill="#31ADB3" d="M132.896,45.686c0,0.558-0.452,1.01-1.01,1.01l0,0c-0.559,0-1.011-0.452-1.011-1.01V33.564
					c0-0.559,0.452-1.011,1.011-1.011l0,0c0.558,0,1.01,0.452,1.01,1.011V45.686z"/>
				<path fill="#31ADB3" d="M136.937,45.686c0,0.558-0.452,1.01-1.01,1.01l0,0c-0.558,0-1.01-0.452-1.01-1.01V33.564
					c0-0.559,0.452-1.011,1.01-1.011l0,0c0.558,0,1.01,0.452,1.01,1.011V45.686z"/>
				<path fill="#31ADB3" d="M139.967,45.686c0,0.558-0.452,1.01-1.01,1.01l0,0c-0.558,0-1.01-0.452-1.01-1.01V33.564
					c0-0.559,0.452-1.011,1.01-1.011l0,0c0.558,0,1.01,0.452,1.01,1.011V45.686z"/>
				<path fill="#31ADB3" d="M144.008,45.686c0,0.558-0.452,1.01-1.01,1.01l0,0c-0.559,0-1.011-0.452-1.011-1.01V33.564
					c0-0.559,0.452-1.011,1.011-1.011l0,0c0.558,0,1.01,0.452,1.01,1.011V45.686z"/>
				<path fill="#31ADB3" d="M147.038,45.686c0,0.558-0.452,1.01-1.01,1.01l0,0c-0.559,0-1.011-0.452-1.011-1.01V33.564
					c0-0.559,0.452-1.011,1.011-1.011l0,0c0.558,0,1.01,0.452,1.01,1.011V45.686z"/>
				<path fill="#31ADB3" d="M151.078,45.686c0,0.558-0.452,1.01-1.01,1.01l0,0c-0.558,0-1.01-0.452-1.01-1.01V33.564
					c0-0.559,0.452-1.011,1.01-1.011l0,0c0.558,0,1.01,0.452,1.01,1.011V45.686z"/>
				<path fill="#31ADB3" d="M154.109,45.686c0,0.558-0.453,1.01-1.011,1.01l0,0c-0.558,0-1.01-0.452-1.01-1.01V33.564
					c0-0.559,0.452-1.011,1.01-1.011l0,0c0.558,0,1.011,0.452,1.011,1.011V45.686z"/>
				<path fill="#31ADB3" d="M157.14,45.686c0,0.558-0.452,1.01-1.011,1.01l0,0c-0.558,0-1.01-0.452-1.01-1.01V33.564
					c0-0.559,0.452-1.011,1.01-1.011l0,0c0.559,0,1.011,0.452,1.011,1.011V45.686z"/>
				<path opacity="0.5" fill="#B8E2E0" d="M108.653,45.686c0,0.558-0.452,1.01-1.01,1.01l0,0c-0.558,0-1.011-0.452-1.011-1.01
					V33.564c0-0.559,0.453-1.011,1.011-1.011l0,0c0.558,0,1.01,0.452,1.01,1.011V45.686z"/>
				<path opacity="0.5" fill="#B8E2E0" d="M112.694,45.686c0,0.558-0.452,1.01-1.011,1.01l0,0c-0.558,0-1.01-0.452-1.01-1.01V33.564
					c0-0.559,0.452-1.011,1.01-1.011l0,0c0.559,0,1.011,0.452,1.011,1.011V45.686z"/>
				<path opacity="0.5" fill="#B8E2E0" d="M115.725,45.686c0,0.558-0.453,1.01-1.011,1.01l0,0c-0.558,0-1.01-0.452-1.01-1.01V33.564
					c0-0.559,0.452-1.011,1.01-1.011l0,0c0.558,0,1.011,0.452,1.011,1.011V45.686z"/>
				<path opacity="0.5" fill="#B8E2E0" d="M118.755,45.686c0,0.558-0.452,1.01-1.011,1.01l0,0c-0.558,0-1.01-0.452-1.01-1.01V33.564
					c0-0.559,0.452-1.011,1.01-1.011l0,0c0.559,0,1.011,0.452,1.011,1.011V45.686z"/>
				<path opacity="0.5" fill="#B8E2E0" d="M122.795,45.686c0,0.558-0.452,1.01-1.01,1.01l0,0c-0.558,0-1.01-0.452-1.01-1.01V33.564
					c0-0.559,0.452-1.011,1.01-1.011l0,0c0.558,0,1.01,0.452,1.01,1.011V45.686z"/>
				<path opacity="0.5" fill="#B8E2E0" d="M125.825,45.686c0,0.558-0.452,1.01-1.01,1.01l0,0c-0.558,0-1.011-0.452-1.011-1.01
					V33.564c0-0.559,0.453-1.011,1.011-1.011l0,0c0.558,0,1.01,0.452,1.01,1.011V45.686z"/>
				<path opacity="0.5" fill="#B8E2E0" d="M129.866,45.686c0,0.558-0.452,1.01-1.011,1.01l0,0c-0.558,0-1.01-0.452-1.01-1.01V33.564
					c0-0.559,0.452-1.011,1.01-1.011l0,0c0.559,0,1.011,0.452,1.011,1.011V45.686z"/>
				<path opacity="0.5" fill="#B8E2E0" d="M132.896,45.686c0,0.558-0.452,1.01-1.01,1.01l0,0c-0.559,0-1.011-0.452-1.011-1.01
					V33.564c0-0.559,0.452-1.011,1.011-1.011l0,0c0.558,0,1.01,0.452,1.01,1.011V45.686z"/>
				<path opacity="0.5" fill="#B8E2E0" d="M136.937,45.686c0,0.558-0.452,1.01-1.01,1.01l0,0c-0.558,0-1.01-0.452-1.01-1.01V33.564
					c0-0.559,0.452-1.011,1.01-1.011l0,0c0.558,0,1.01,0.452,1.01,1.011V45.686z"/>
				<path opacity="0.5" fill="#B8E2E0" d="M139.967,45.686c0,0.558-0.452,1.01-1.01,1.01l0,0c-0.558,0-1.01-0.452-1.01-1.01V33.564
					c0-0.559,0.452-1.011,1.01-1.011l0,0c0.558,0,1.01,0.452,1.01,1.011V45.686z"/>
				<path opacity="0.5" fill="#B8E2E0" d="M144.008,45.686c0,0.558-0.452,1.01-1.01,1.01l0,0c-0.559,0-1.011-0.452-1.011-1.01
					V33.564c0-0.559,0.452-1.011,1.011-1.011l0,0c0.558,0,1.01,0.452,1.01,1.011V45.686z"/>
				<path opacity="0.5" fill="#B8E2E0" d="M147.038,45.686c0,0.558-0.452,1.01-1.01,1.01l0,0c-0.559,0-1.011-0.452-1.011-1.01
					V33.564c0-0.559,0.452-1.011,1.011-1.011l0,0c0.558,0,1.01,0.452,1.01,1.011V45.686z"/>
				<path opacity="0.5" fill="#B8E2E0" d="M151.078,45.686c0,0.558-0.452,1.01-1.01,1.01l0,0c-0.558,0-1.01-0.452-1.01-1.01V33.564
					c0-0.559,0.452-1.011,1.01-1.011l0,0c0.558,0,1.01,0.452,1.01,1.011V45.686z"/>
				<path opacity="0.5" fill="#B8E2E0" d="M154.109,45.686c0,0.558-0.453,1.01-1.011,1.01l0,0c-0.558,0-1.01-0.452-1.01-1.01V33.564
					c0-0.559,0.452-1.011,1.01-1.011l0,0c0.558,0,1.011,0.452,1.011,1.011V45.686z"/>
				<path opacity="0.5" fill="#B8E2E0" d="M157.14,45.686c0,0.558-0.452,1.01-1.011,1.01l0,0c-0.558,0-1.01-0.452-1.01-1.01V33.564
					c0-0.559,0.452-1.011,1.01-1.011l0,0c0.559,0,1.011,0.452,1.011,1.011V45.686z"/>
			</g>
			<path fill="#31ADB3" d="M217.988,125.377c0-32.129-2.262-58.375-3.272-60.084v0.595h-0.503c-0.037,0-0.074-0.034-0.112-0.034
				s-0.075,0.034-0.112,0.034H51.047c-0.037,0-0.075-0.034-0.113-0.034c-0.037,0-0.074,0.034-0.112,0.034h-0.755v-0.632
				c-2.021,1.281-3.32,27.706-3.32,60.121c0,32.416,1.3,58.841,3.32,60.122v0.594h164.649v-0.631
				C215.727,183.753,217.988,157.507,217.988,125.377z"/>
			<ellipse opacity="0.5" fill="#B8E2E0" cx="214.431" cy="125.377" rx="3.461" ry="60.176"/>
			<rect x="85.421" y="62.857" opacity="0.5" fill="#1A4F5B" width="11.111" height="3.03"/>
			<rect x="167.24" y="62.857" opacity="0.5" fill="#1A4F5B" width="14.142" height="3.03"/>
			<polygon opacity="0.15" fill="#1A4F5B" points="50.934,185.082 212.642,185.082 211.652,171.951 53.761,171.951 			"/>
			<polygon opacity="0.3" fill="#1A4F5B" points="51.573,182.052 50.934,185.082 212.642,185.082 212.418,182.052 			"/>
			<ellipse opacity="0.5" fill="#1A4F5B" cx="50.207" cy="125.377" rx="3.46" ry="60.176"/>
		</g>
		<g>
			<ellipse fill="#31ADB3" cx="219.346" cy="125.23" rx="0.877" ry="12.525"/>
			<path fill="#31ADB3" d="M214.716,112.809L214.716,112.809c0,0.785-0.765,6.045-0.765,12.422c0,6.376,0.765,11.636,0.765,12.421
				v-0.045h4.519l0.111-24.798H214.716z"/>
			<ellipse opacity="0.5" fill="#B8E2E0" cx="219.346" cy="125.23" rx="0.877" ry="12.525"/>
		</g>
		<g>
			<ellipse fill="#31ADB3" cx="45.961" cy="125.23" rx="0.877" ry="12.526"/>
			<path fill="#31ADB3" d="M50.066,137.606v0.045c0-0.785,0.766-6.045,0.766-12.421c0-6.377-0.766-11.637-0.766-12.422v0.555h-3.993
				l-0.112,24.243H50.066z"/>
			<ellipse opacity="0.5" fill="#1A4F5B" cx="45.961" cy="125.23" rx="0.877" ry="12.526"/>
		</g>
		<rect x="112.694" y="138.617" opacity="0.5" fill="#1A4F5B" width="39.395" height="38.384"/>
		<rect x="114.714" y="140.637" opacity="0.5" fill="#1A4F5B" width="35.354" height="33.334"/>
		<rect x="89.461" y="318.418" opacity="0.5" fill="#1A4F5B" width="96.972" height="16.162"/>
		<rect x="89.461" y="321.448" opacity="0.5" fill="#1A4F5B" width="96.972" height="10.102"/>
		<rect x="89.461" y="316.398" fill="#31ADB3" width="96.972" height="2.02"/>
		<rect x="89.461" y="316.398" opacity="0.5" fill="#B8E2E0" width="96.972" height="2.02"/>
		<rect x="113.704" y="140.637" fill="#31ADB3" width="37.374" height="13.132"/>
		<rect x="113.704" y="151.748" opacity="0.75" fill="#0F383F" width="37.374" height="2.021"/>
		<rect x="113.704" y="160.84" fill="#31ADB3" width="37.374" height="13.131"/>
		<rect x="113.704" y="160.84" opacity="0.5" fill="#B8E2E0" width="37.374" height="2.02"/>
		<g opacity="0.5">
			<circle fill="#1A4F5B" cx="95.718" cy="111.104" r="29.69"/>
			<circle fill="#1A4F5B" cx="169.947" cy="111.104" r="29.69"/>
		</g>
		<g>
			<circle fill="#6F9C40" cx="95.965" cy="112.752" r="26.721"/>
			<circle fill="#6F9C40" cx="169.699" cy="112.752" r="26.721"/>
		</g>
		<g opacity="0.15">
			<g>
				<path fill="#F2F2F3" d="M96.281,86.337c-1.556,0-3.078,0.141-4.561,0.396c-7.341,7.35-14.652,14.729-21.847,22.223
					c-0.206,1.338-0.313,2.707-0.313,4.104c0,1.487,0.127,2.944,0.36,4.365c10.313-10.238,20.649-20.455,30.975-30.682
					C99.396,86.481,97.855,86.337,96.281,86.337z"/>
				<path fill="#F2F2F3" d="M122.119,106.232c-0.996-3.78-2.797-7.233-5.212-10.163c-12.6,12.485-25.218,24.951-37.795,37.459
					c2.968,2.492,6.486,4.348,10.345,5.366L122.119,106.232z"/>
			</g>
			<g>
				<path fill="#F2F2F3" d="M170.016,86.337c-1.556,0-3.078,0.141-4.561,0.396c-7.341,7.35-14.652,14.729-21.847,22.223
					c-0.206,1.338-0.314,2.707-0.314,4.104c0,1.487,0.128,2.944,0.361,4.365c10.313-10.238,20.649-20.455,30.975-30.682
					C173.13,86.481,171.59,86.337,170.016,86.337z"/>
				<path fill="#F2F2F3" d="M195.854,106.232c-0.996-3.78-2.797-7.233-5.212-10.163c-12.6,12.485-25.218,24.951-37.796,37.459
					c2.969,2.492,6.486,4.348,10.346,5.366L195.854,106.232z"/>
			</g>
		</g>
		<g>
			<polygon opacity="0.55" fill="#FFFFFF" points="79.057,123.465 88.863,116.147 96.398,119.631 103.386,108.203 105.936,110.778 
				109.39,104.958 111.117,105.992 111.474,100.004 106.38,103.18 108.297,104.32 105.676,108.747 103.142,106.213 95.896,118.117 
				88.458,114.887 77.34,123.24 77.34,102.252 77.34,102.252 77.34,124.475 118.755,124.475 118.755,123.465 			"/>
			<polygon opacity="0.3" fill="#FFFFFF" points="78.985,124.045 88.862,116.504 96.515,119.797 103.366,108.509 106.125,110.987 
				109.328,105.114 111.047,105.957 111.464,123.979 			"/>
		</g>
		<g>
			<polygon opacity="0.55" fill="#FFFFFF" points="151.667,123.465 161.473,116.147 169.008,119.631 175.995,108.203 
				178.545,110.778 181.999,104.958 183.727,105.992 184.083,100.004 178.989,103.18 180.906,104.32 178.285,108.747 
				175.751,106.213 168.506,118.117 161.127,114.887 150.068,123.24 150.068,102.252 150.068,102.252 150.068,124.475 
				191.483,124.475 191.483,123.465 			"/>
			<polygon opacity="0.3" fill="#FFFFFF" points="151.595,124.045 161.472,116.504 169.124,119.797 175.976,108.509 
				178.734,110.987 181.938,105.114 183.656,105.957 184.073,123.979 			"/>
		</g>
		<rect x="15.723" y="124.475" fill="#1A4F5B" width="29.293" height="3.031"/>
		<circle fill="#6F9C40" cx="14.745" cy="126.189" r="3.296"/>
		<rect x="217.746" y="124.475" fill="#1A4F5B" width="33.334" height="3.031"/>
		<circle fill="#6F9C40" cx="250.609" cy="126.189" r="3.296"/>
		<g>
			<circle opacity="0.5" fill="#1A4F5B" cx="135.86" cy="206.191" r="5.377"/>
			<circle opacity="0.5" fill="#1A4F5B" cx="135.86" cy="247.395" r="5.377"/>
			<circle opacity="0.5" fill="#1A4F5B" cx="135.86" cy="281.938" r="5.377"/>
			<circle fill="#6F9C40" cx="135.86" cy="204.789" r="5.377"/>
			<circle fill="#6F9C40" cx="135.86" cy="245.992" r="5.377"/>
			<circle fill="#6F9C40" cx="135.86" cy="280.535" r="5.377"/>
		</g>
		<path fill="#31ADB3" d="M193.056,555.797c0.864-2.021,1.336-4.697,1.336-7.186c0-18.255-24.554-33.026-54.843-33.026
			s-54.843,14.758-54.843,33.013c0,2.488,0.471,5.179,1.335,7.199H193.056z"/>
		<path opacity="0.5" fill="#B8E2E0" d="M192.002,541.354c-6.861-13.538-27.746-23.386-52.453-23.386s-45.592,9.848-52.453,23.386
			c0,0,16.17-16.03,52.535-16.03C175.995,525.324,192.002,541.354,192.002,541.354z"/>
		<path fill="#31ADB3" d="M25.205,383.066h-6.598c-4.575,0-8.433-3.327-8.992-7.867L0,297.332l30.929,2.095l3.328,74.246
			C34.488,378.831,30.368,383.066,25.205,383.066z"/>
		<path opacity="0.5" fill="#1A4F5B" d="M6.411,302.045c-2.033,1.12-3.774,2.729-5.259,4.671l8.463,68.577
			c0.542,4.396,4.176,7.722,8.558,7.932C17.33,376.944,8.848,318.57,6.411,302.045z"/>
		<path opacity="0.5" fill="#1A4F5B" d="M84.743,547.716c-0.009,0-0.037,0.539-0.037,0.781c0,2.488,0.471,4.27,1.335,7.3h107.015
			c0.864-3.03,1.336-4.812,1.336-7.3c0-0.242-0.029-0.781-0.038-0.781H84.743z"/>
		<path fill="#31ADB3" d="M26.106,302.256H5.587c-3.483,0-6.117-3.154-5.495-6.582l13.002-71.422
			c3.84-20.238,14.03-31.089,31.338-31.089h0.459c7.761,0,9.774,5.417,5.961,18.298c-2.912,9.839-15.67,69.768-19.332,86.562
			C30.965,300.568,28.711,302.256,26.106,302.256z"/>
		<path opacity="0.5" fill="#1A4F5B" d="M9.319,288.812l20.764-92.858c-10.013,5.241-14.298,15.426-16.827,27.813L0.648,293.785
			C2.87,291.176,5.961,289.612,9.319,288.812z"/>
		<path opacity="0.5" fill="#1A4F5B" d="M0.101,298.189l1.269-1.826c2.573-3.963,6.977-6.229,11.702-6.229h4.577
			c5.574,0,10.486,3.191,12.69,8.311l0.535,1.412v3.156l-1.342-2.91c-2.335-4.629-6.98-7.581-12.164-7.667l-3.243-0.054
			c-4.65-0.077-9.018,2.169-11.672,5.988l-1.984,2.866L0.101,298.189z"/>
		<path fill="#31ADB3" d="M239.732,302.256h20.52c3.483,0,6.117-3.154,5.495-6.582l-13.002-71.422
			c-3.839-20.238-14.03-31.089-31.338-31.089h-0.458c-7.762,0-9.775,5.417-5.962,18.298c2.912,9.839,15.67,69.768,19.332,86.562
			C234.875,300.568,237.128,302.256,239.732,302.256z"/>
		<path opacity="0.5" fill="#1A4F5B" d="M265.738,298.189l-1.269-1.826c-2.573-3.963-6.978-6.229-11.702-6.229h-4.577
			c-5.574,0-10.51,3.191-12.713,8.311l-0.559,1.412v3.156l1.364-2.91c2.335-4.629,6.992-7.581,12.176-7.667l3.249-0.054
			c4.65-0.077,9.021,2.169,11.675,5.988l1.985,2.866L265.738,298.189z"/>
		<circle fill="#31ADB3" cx="250.225" cy="310.464" r="18.814"/>
		<path fill="#31ADB3" d="M210.97,340.305c0,8.911-7.225,16.136-16.136,16.136c-8.912,0-16.137-7.225-16.137-16.136
			c0-3.707,1.25-7.121,3.351-9.846c2.95-3.826,7.58-6.291,12.786-6.291C203.745,324.168,210.97,331.393,210.97,340.305z"/>
		<polygon fill="#31ADB3" points="239.856,294.764 188.357,326.067 203.72,353.775 260.929,326.499 		"/>
		<path opacity="0.5" fill="#B8E2E0" d="M198.72,345.333l4.495,8.108l57.209-27.276l-0.259-0.39
			c5.044-3.375,8.368-9.121,8.368-15.646c0-1.372-0.155-2.706-0.434-3.995C244.925,319.114,221.867,332.307,198.72,345.333z"/>
		
			<rect x="130.852" y="405.783" transform="matrix(0.7071 0.7071 -0.7071 0.7071 328.5932 24.9432)" fill="#B8E2E0" width="6.671" height="6.671"/>
		
			<rect x="140.286" y="405.783" transform="matrix(0.7072 0.707 -0.707 0.7072 331.316 18.2525)" fill="#B8E2E0" width="6.671" height="6.672"/>
		
			<rect x="149.721" y="405.783" transform="matrix(0.7072 0.707 -0.707 0.7072 334.0787 11.5819)" fill="#B8E2E0" width="6.671" height="6.672"/>
		
			<rect x="159.155" y="405.783" transform="matrix(0.7071 0.7071 -0.7071 0.7071 336.8828 4.9301)" fill="#B8E2E0" width="6.671" height="6.671"/>
		
			<rect x="168.59" y="405.783" transform="matrix(0.7071 0.7071 -0.7071 0.7071 339.6462 -1.7411)" fill="#B8E2E0" width="6.671" height="6.671"/>
		
			<rect x="178.024" y="405.783" transform="matrix(0.7071 0.7071 -0.7071 0.7071 342.4095 -8.4124)" fill="#B8E2E0" width="6.671" height="6.671"/>
		
			<rect x="187.365" y="405.783" transform="matrix(0.7072 0.707 -0.707 0.7072 345.1014 -15.0333)" fill="#B8E2E0" width="6.671" height="6.672"/>
		
			<rect x="196.799" y="405.783" transform="matrix(0.7072 0.707 -0.707 0.7072 347.8641 -21.7039)" fill="#B8E2E0" width="6.671" height="6.672"/>
		
			<rect x="206.531" y="405.783" transform="matrix(0.7072 0.707 -0.707 0.7072 350.7137 -28.5844)" fill="#B8E2E0" width="6.671" height="6.672"/>
		
			<rect x="215.965" y="405.783" transform="matrix(0.7072 0.707 -0.707 0.7072 353.4763 -35.2549)" fill="#B8E2E0" width="6.671" height="6.672"/>
		<path fill="#B8E2E0" d="M215.388,303.602l-95.294,8.248c-1.506-0.033-3.267,0.094-5.334,0.462l0,0l-0.373,0.032
			c0,0,0.036,0.014,0.089,0.033c-9.92,1.926-19.63,11.876-21.849,14.275c-0.309,0.333-0.473,0.521-0.473,0.521
			s21.996-1.516,29.968-1.516c3.295,0,11.021,3.87,11.434,15.962c-0.258,21.371-4.026,67.71-4.026,67.71h94.614
			c0,0,9.429-53.713,9.429-78.962S215.388,303.602,215.388,303.602z"/>
		<path opacity="0.5" fill="#B8E2E0" d="M256.549,287.915l-20.764-92.859c10.012,5.242,14.298,15.427,16.826,27.814l12.608,70.019
			C262.998,290.279,259.906,288.716,256.549,287.915z"/>
		<path fill="#92C0BE" d="M92.395,326.905c0,0,13.733-12.906,23.582-12.022c5.814,0.521,12.415,8.052,15.59,14.268
			c2.203,4.314,1.961,9.723,1.961,9.723s-5.112-12.541-12.374-12.838C113.956,325.742,92.395,326.905,92.395,326.905z"/>
	</g>
	<g>
		<g>
			
				<ellipse transform="matrix(0.9883 0.1522 -0.1522 0.9883 11.1507 -42.4948)" fill="#F6901E" cx="283.063" cy="51.566" rx="53.543" ry="36.901"/>
			<polygon fill="#F6901E" points="267.908,27.263 257.584,15.819 269.31,0 279.351,16.939 			"/>
			<polygon fill="#F6901E" points="254.387,31.512 240.24,25.396 244.33,6.134 260.502,17.367 			"/>
			<polygon fill="#F6901E" points="299.684,32.857 297.791,17.562 316.469,11.328 314.979,30.962 			"/>
			<polygon fill="#F6901E" points="286.039,27.06 277.96,13.937 292.356,0.503 299.163,18.98 			"/>
			<polygon fill="#F6901E" points="321.123,50.32 326.357,35.825 345.835,38.719 335.618,55.554 			"/>
			<polygon fill="#F6901E" points="313.045,38.924 313.603,23.524 333.034,20.334 328.445,39.482 			"/>
			<polygon fill="#F6901E" points="261.315,70.059 248.027,77.864 254.447,96.479 269.121,83.347 			"/>
			<polygon fill="#F6901E" points="251.057,63.203 235.662,62.49 217.662,83.477 224.007,90.58 205.908,119.029 244.716,93.04 
				239.168,86.292 250.344,78.599 			"/>
			<polygon fill="#F6901E" points="293.303,74.287 286.893,88.302 302.83,99.868 307.318,80.695 			"/>
			<polygon fill="#F6901E" points="278.545,75.708 266.891,85.791 276.578,102.936 288.629,87.362 			"/>
			<polygon fill="#F6901E" points="319.004,64.085 319.632,79.483 339.078,82.584 334.401,63.456 			"/>
			<polygon fill="#F6901E" points="324.474,60.618 335.695,71.181 351.76,59.794 335.037,49.396 			"/>
			<polygon fill="#F6901E" points="244.45,38.509 243.82,23.11 224.375,20.009 229.051,39.138 			"/>
			<polygon fill="#F6901E" points="242.329,52.273 237.096,66.769 217.617,63.875 227.834,47.04 			"/>
			<polygon fill="#F6901E" points="238.156,47.321 224.275,54.018 212.383,38.324 231.459,33.441 			"/>
			<polygon fill="#F6901E" points="307.869,72.52 303.768,87.375 321.337,96.266 322.725,76.623 			"/>
		</g>
		<g>
			<g>
				<path fill="#FFFFFF" d="M236.993,38.492l-0.886-1.03c0.236-0.264,0.464-0.504,0.684-0.721l0.705-0.68
					c-0.104-0.032-0.406-0.152-0.908-0.36c-0.348-0.148-0.579-0.255-0.694-0.321l0.525-1.355c0.521,0.333,0.995,0.695,1.426,1.087
					c-0.018-0.862,0.005-1.57,0.069-2.124l1.149,0.121c-0.04,0.375-0.172,1.077-0.397,2.105l0.596-0.25
					c0.419-0.175,0.797-0.322,1.136-0.441l0.198,1.471c-0.5,0.081-1.07,0.152-1.713,0.213l0.982,1.721l-1.075,0.696l-0.703-1.86
					C237.788,37.283,237.423,37.859,236.993,38.492z"/>
				<path fill="#FFFFFF" d="M241.061,50.088l1.717-16.4l2.641,0.276l4.356,11.528l1.147-10.952l2.527,0.265l-1.717,16.4
					l-2.729-0.286l-4.295-11.261l-1.12,10.694L241.061,50.088z"/>
				<path fill="#FFFFFF" d="M255.229,43.383c0.204-1.954,0.662-3.533,1.373-4.736c0.71-1.204,1.563-2.066,2.561-2.588
					c0.997-0.521,2.159-0.712,3.487-0.573c1.924,0.201,3.415,1.101,4.474,2.696c1.058,1.596,1.443,3.751,1.159,6.466
					c-0.287,2.745-1.152,4.822-2.597,6.231c-1.269,1.248-2.87,1.77-4.801,1.567c-1.947-0.204-3.413-1.04-4.397-2.507
					C255.367,48.261,254.947,46.076,255.229,43.383z M258.038,43.564c-0.198,1.887,0.014,3.34,0.632,4.358
					c0.617,1.019,1.457,1.584,2.518,1.695c1.068,0.112,2.002-0.264,2.802-1.126c0.801-0.862,1.303-2.263,1.506-4.202
					c0.198-1.902,0.004-3.343-0.584-4.325c-0.589-0.982-1.435-1.531-2.541-1.646c-1.105-0.116-2.053,0.25-2.844,1.094
					S258.239,41.641,258.038,43.564z"/>
				<path fill="#FFFFFF" d="M275.485,53.692l1.718-16.4l9.219,0.965l-0.29,2.774l-6.512-0.682l-0.406,3.882l5.638,0.59l-0.291,2.774
					l-5.637-0.59l-0.73,6.97L275.485,53.692z"/>
				<path fill="#FFFFFF" d="M287.296,54.929l1.718-16.4l9.979,1.044l-0.291,2.774l-7.271-0.761l-0.381,3.636l6.757,0.707
					l-0.289,2.764l-6.757-0.708l-0.466,4.453l7.519,0.787L297.521,56L287.296,54.929z"/>
				<path fill="#FFFFFF" d="M300.17,56.277l1.717-16.4l9.979,1.044l-0.29,2.774l-7.271-0.761l-0.381,3.636l6.757,0.708l-0.289,2.763
					l-6.757-0.708l-0.466,4.453l7.519,0.787l-0.291,2.774L300.17,56.277z"/>
				<path fill="#FFFFFF" d="M312.911,52.204l2.684-0.036c0.079,2.127,0.946,3.277,2.601,3.451c0.821,0.086,1.488-0.061,2.004-0.44
					c0.515-0.379,0.806-0.886,0.872-1.52c0.039-0.373-0.011-0.698-0.147-0.976s-0.364-0.518-0.682-0.721
					c-0.318-0.203-1.102-0.569-2.351-1.099c-1.12-0.471-1.927-0.939-2.421-1.406c-0.494-0.465-0.864-1.049-1.112-1.749
					c-0.247-0.701-0.33-1.434-0.25-2.201c0.094-0.895,0.382-1.678,0.863-2.352c0.481-0.672,1.1-1.154,1.854-1.444
					c0.754-0.291,1.657-0.381,2.708-0.271c1.58,0.166,2.77,0.723,3.569,1.674c0.798,0.951,1.139,2.227,1.024,3.828l-2.734-0.139
					c-0.026-0.893-0.22-1.535-0.579-1.927c-0.358-0.392-0.902-0.626-1.634-0.703c-0.73-0.076-1.311,0.017-1.737,0.281
					c-0.428,0.263-0.665,0.622-0.712,1.075c-0.047,0.446,0.093,0.84,0.42,1.184c0.326,0.341,1.116,0.763,2.368,1.264
					c1.323,0.538,2.265,1.057,2.827,1.557s0.967,1.111,1.215,1.834c0.248,0.724,0.321,1.577,0.218,2.562
					c-0.149,1.424-0.712,2.576-1.689,3.453c-0.979,0.877-2.4,1.219-4.264,1.023C314.528,58.063,312.891,55.995,312.911,52.204z"/>
			</g>
			<g>
				<path fill="#FFFFFF" d="M240.664,64.5l1.001-9.567l5.378,0.563l-0.169,1.618l-3.799-0.397l-0.237,2.265l3.29,0.344l-0.169,1.618
					l-3.29-0.344l-0.426,4.066L240.664,64.5z"/>
				<path fill="#FFFFFF" d="M247.588,60.449c0.119-1.14,0.387-2.061,0.801-2.764c0.414-0.702,0.913-1.205,1.495-1.509
					c0.581-0.305,1.259-0.416,2.034-0.335c1.121,0.118,1.991,0.642,2.608,1.573s0.843,2.188,0.677,3.772
					c-0.167,1.601-0.672,2.812-1.515,3.635c-0.74,0.728-1.674,1.033-2.802,0.915c-1.135-0.119-1.989-0.607-2.563-1.463
					C247.669,63.293,247.424,62.019,247.588,60.449z M249.227,60.554c-0.115,1.101,0.009,1.948,0.368,2.542
					c0.361,0.595,0.851,0.924,1.469,0.989c0.623,0.065,1.169-0.154,1.636-0.657c0.467-0.504,0.758-1.321,0.877-2.452
					c0.116-1.109,0.003-1.95-0.34-2.523c-0.344-0.572-0.837-0.893-1.482-0.96c-0.645-0.068-1.198,0.145-1.659,0.638
					S249.345,59.431,249.227,60.554z"/>
				<path fill="#FFFFFF" d="M256.017,66.107l1.001-9.567l3.335,0.349c0.853,0.089,1.453,0.239,1.801,0.449s0.616,0.54,0.807,0.988
					s0.255,0.969,0.192,1.561c-0.078,0.749-0.319,1.333-0.727,1.752c-0.407,0.419-0.947,0.652-1.621,0.701
					c0.314,0.279,0.567,0.575,0.759,0.888c0.192,0.313,0.439,0.863,0.744,1.652l0.757,1.966l-1.889-0.198l-0.93-2.202
					c-0.332-0.795-0.564-1.295-0.692-1.5c-0.127-0.205-0.271-0.352-0.429-0.441c-0.157-0.089-0.419-0.152-0.785-0.191l-0.326-0.034
					l-0.418,3.994L256.017,66.107z M258.174,60.751l1.175,0.123c0.718,0.075,1.178,0.091,1.381,0.049
					c0.202-0.042,0.374-0.153,0.516-0.332c0.142-0.179,0.229-0.427,0.263-0.744c0.032-0.305-0.004-0.556-0.106-0.753
					c-0.102-0.197-0.253-0.342-0.455-0.434c-0.144-0.063-0.569-0.132-1.278-0.207l-1.24-0.13L258.174,60.751z"/>
				<path fill="#FFFFFF" d="M272.621,60.542l-1.477,0.043c0.005-0.716-0.244-1.101-0.746-1.154c-0.327-0.034-0.617,0.115-0.87,0.45
					s-0.466,1.04-0.636,2.117c0.216-0.25,0.446-0.43,0.69-0.541c0.246-0.111,0.508-0.152,0.787-0.123
					c0.614,0.064,1.12,0.407,1.518,1.026c0.399,0.619,0.548,1.402,0.448,2.35c-0.105,1.009-0.43,1.774-0.975,2.297
					c-0.542,0.523-1.172,0.747-1.887,0.672c-0.783-0.082-1.395-0.523-1.833-1.322c-0.438-0.8-0.565-2.062-0.385-3.789
					c0.183-1.752,0.583-2.984,1.199-3.699c0.616-0.713,1.345-1.026,2.187-0.938c0.578,0.061,1.047,0.309,1.404,0.743
					C272.404,59.11,272.597,59.733,272.621,60.542z M268.795,64.189c-0.063,0.604,0.002,1.077,0.192,1.419
					c0.191,0.343,0.432,0.529,0.719,0.56c0.279,0.029,0.525-0.079,0.739-0.324c0.213-0.246,0.353-0.67,0.416-1.274
					c0.065-0.625,0.011-1.092-0.159-1.4c-0.171-0.307-0.404-0.477-0.702-0.508c-0.287-0.03-0.546,0.082-0.776,0.334
					C268.996,63.249,268.852,63.646,268.795,64.189z"/>
				<path fill="#FFFFFF" d="M276.359,68.237l1.001-9.567l2.368,0.248l0.743,6.682l2.099-6.384l2.379,0.249l-1.001,9.567
					l-1.475-0.155l0.789-7.538l-2.354,7.374l-1.523-0.16l-0.763-7.7l-0.789,7.537L276.359,68.237z"/>
				<path fill="#FFFFFF" d="M285.749,64.444c0.119-1.14,0.387-2.061,0.801-2.764c0.414-0.702,0.913-1.205,1.495-1.509
					c0.582-0.305,1.259-0.416,2.034-0.335c1.121,0.118,1.991,0.642,2.608,1.573s0.843,2.188,0.678,3.772
					c-0.168,1.601-0.672,2.812-1.516,3.635c-0.74,0.728-1.674,1.032-2.801,0.915c-1.136-0.119-1.99-0.607-2.564-1.463
					C285.83,67.289,285.585,66.014,285.749,64.444z M287.388,64.549c-0.115,1.101,0.009,1.948,0.368,2.542
					c0.361,0.595,0.851,0.924,1.47,0.989c0.622,0.065,1.167-0.154,1.635-0.657c0.467-0.504,0.759-1.321,0.878-2.452
					c0.116-1.109,0.003-1.95-0.342-2.523c-0.343-0.572-0.836-0.893-1.48-0.96c-0.646-0.068-1.199,0.145-1.659,0.638
					C287.795,62.619,287.506,63.426,287.388,64.549z"/>
				<path fill="#FFFFFF" d="M294.19,70.104l1.001-9.567l1.54,0.162l2.541,6.725l0.669-6.389l1.476,0.154l-1.001,9.567l-1.593-0.167
					l-2.505-6.57l-0.653,6.239L294.19,70.104z"/>
				<path fill="#FFFFFF" d="M303.917,71.122l0.832-7.949l-2.33-0.244l0.169-1.618l6.232,0.652l-0.169,1.618l-2.323-0.243
					l-0.832,7.949L303.917,71.122z"/>
				<path fill="#FFFFFF" d="M308.917,71.646l1.001-9.567l1.579,0.165l-0.394,3.765l3.112,0.326l0.394-3.765l1.58,0.166l-1.001,9.567
					l-1.58-0.166l0.438-4.183l-3.112-0.326l-0.438,4.183L308.917,71.646z"/>
				<path fill="#FFFFFF" d="M316.815,69.319l1.565-0.021c0.047,1.241,0.552,1.912,1.519,2.013c0.478,0.05,0.868-0.035,1.168-0.257
					s0.469-0.517,0.508-0.886c0.022-0.218-0.005-0.407-0.085-0.57c-0.079-0.162-0.213-0.303-0.397-0.421
					c-0.186-0.119-0.643-0.332-1.371-0.641c-0.654-0.275-1.124-0.548-1.412-0.82c-0.288-0.271-0.505-0.612-0.648-1.021
					c-0.145-0.409-0.192-0.836-0.146-1.284c0.055-0.521,0.221-0.979,0.503-1.371c0.28-0.393,0.641-0.674,1.081-0.843
					c0.439-0.169,0.967-0.222,1.579-0.158c0.923,0.097,1.616,0.422,2.081,0.976c0.466,0.555,0.666,1.299,0.599,2.233l-1.595-0.081
					c-0.016-0.521-0.128-0.895-0.338-1.124c-0.21-0.228-0.527-0.365-0.953-0.41c-0.427-0.044-0.764,0.01-1.014,0.164
					c-0.249,0.153-0.388,0.362-0.415,0.628c-0.027,0.26,0.054,0.49,0.245,0.689c0.19,0.2,0.65,0.446,1.381,0.738
					c0.773,0.314,1.323,0.616,1.65,0.908s0.563,0.648,0.709,1.07c0.145,0.422,0.186,0.92,0.126,1.495
					c-0.087,0.831-0.415,1.502-0.985,2.014c-0.569,0.512-1.4,0.711-2.487,0.597C317.76,72.736,316.805,71.53,316.815,69.319z"/>
			</g>
		</g>
	</g>
</g>
</svg>
