<?xml version="1.0" encoding="utf-8"?>
<!-- Generator: Adobe Illustrator 16.0.0, SVG Export Plug-In . SVG Version: 6.00 Build 0)  -->
<!DOCTYPE svg PUBLIC "-//W3C//DTD SVG 1.1//EN" "http://www.w3.org/Graphics/SVG/1.1/DTD/svg11.dtd">
<svg version="1.1" id="Layer_1" xmlns="http://www.w3.org/2000/svg" xmlns:xlink="http://www.w3.org/1999/xlink" x="0px" y="0px"
	 width="116.192px" height="100.099px" viewBox="0 0 116.192 100.099" enable-background="new 0 0 116.192 100.099"
	 xml:space="preserve">
<g>
	<rect x="17.527" y="51.568" fill="#0E383F" width="57.86" height="26.864"/>
	<g>
		<path fill="#32AEB4" d="M93.787,100.099l-7.401-8.945c-7.675-9.276-18.456-14.549-29.749-14.549h-18.83
			c-11.293,0-22.074,5.272-29.749,14.549l-7.401,8.945H93.787z"/>
		<path opacity="0.15" fill="#1A4F5B" d="M62.766,78.618c0,1.685-7.696,3.051-17.19,3.051s-17.19-1.366-17.19-3.051
			c0-1.686,7.696-1.479,17.19-1.479S62.766,76.933,62.766,78.618z"/>
		<ellipse fill="#32AEB4" cx="47.104" cy="39.381" rx="31.674" ry="35.468"/>
	</g>
	<g>
		<path fill="#E2E2E1" d="M94.105,100.099H0l7.748-9.392c6.789-8.231,16.002-13.331,25.854-14.424
			c1.324-0.147,3.615,12.77,13.608,19.928c10.78-6.54,12.117-20.066,13.513-19.903c9.769,1.144,18.896,6.229,25.635,14.399
			L94.105,100.099z"/>
		<g>
			<defs>
				<path id="SVGID_1_" d="M94.105,99.887H0l7.748-9.392c6.789-8.231,16.002-13.331,25.854-14.424
					c1.324-0.147,3.615,12.77,13.608,19.928c10.78-6.54,12.117-20.066,13.513-19.903c9.769,1.144,18.896,6.229,25.635,14.399
					L94.105,99.887z"/>
			</defs>
			<clipPath id="SVGID_2_">
				<use xlink:href="#SVGID_1_"  overflow="visible"/>
			</clipPath>
			<rect x="-2.833" y="78.925" clip-path="url(#SVGID_2_)" fill="#6F9C40" width="98.354" height="1.944"/>
			<rect x="-2.833" y="84.467" clip-path="url(#SVGID_2_)" fill="#6F9C40" width="98.354" height="1.944"/>
			<rect x="-2.833" y="90.3" clip-path="url(#SVGID_2_)" fill="#6F9C40" width="98.354" height="1.944"/>
			<rect x="-2.833" y="95.842" clip-path="url(#SVGID_2_)" fill="#6F9C40" width="98.354" height="1.944"/>
		</g>
		<path fill="#F2F2F3" d="M47.304,96.53c-5.896,0-13.897-19.318-14.26-20.169l1.136-0.14c2.394,5.619,8.722,19.248,13.124,19.248
			s10.672-13.627,13.043-19.246l1.137,0.138C61.125,77.21,53.199,96.53,47.304,96.53z"/>
	</g>
	<g>
		<path fill="#1A4F5B" d="M17.624,38.758c0.506-3.287,1.63-6.278,1.804-9.608c0.071-1.372-0.126-2.743-0.379-4.088
			c-0.207-1.101-0.452-2.191-0.733-3.27c-0.835,1.574-1.238,3.382-1.596,5.169c-0.562,2.813-1.038,5.669-1.033,8.552
			c0.007,3.495,0.355,7.406,1.728,10.546C16.562,43.916,17.268,41.068,17.624,38.758z"/>
		<path fill="#103D3C" d="M24.911,90.828c3.356,1.473,6.994,2.137,10.596,1.936c3.468-0.194,7.229-1.449,9.067-4.749
			c-1.667,0.609-3.369,1.218-5.123,1.224c-1.754,0.005-3.599-0.689-4.657-2.255c-1.866-2.759-0.62-6.657-0.681-10.117
			c-0.077-4.414-2.392-8.329-4.542-12.03C23.172,53.822,17.359,41.71,16.915,28.58c-2.716,10.452-4.192,21.675-1.693,32.196
			c0.754,3.174,1.866,6.27,2.156,9.538c0.291,3.269-0.406,6.885-2.668,8.976c0.791,0.212,1.566-1.392,2.159-0.768
			c0.203,0.214,0.193,0.573,0.16,0.884c-0.249,2.337-0.957,4.663-0.648,6.991c0.426,3.202,2.752,5.764,5.392,7.085
			c2.64,1.32,5.583,1.616,8.464,1.894C27.77,95.829,25.173,93.612,24.911,90.828z"/>
		<path fill="#103D3C" d="M72.741,93.879c4.245-0.003,8.304-3.454,9.445-8.032c0.758,1.258,1.237,2.725,1.384,4.233
			c-0.157-1.983,1.048-3.756,1.447-5.695c0.725-3.522-1.236-6.934-2.619-10.199c-1.453-3.432-2.33-7.167-2.571-10.954
			c-0.142-2.226-0.066-4.461-0.134-6.69c-0.21-6.916-1.819-13.774-4.673-19.913c0.404,7.658-0.793,15.416-3.467,22.479
			c-1.102,2.906-2.458,5.732-3.029,8.824c-0.863,4.68,0.147,9.508,0.232,14.285s-1.155,10.184-4.91,12.452
			c4.083,1.009,8.644-1.487,10.44-5.715C74.623,90.743,74.004,92.717,72.741,93.879z"/>
		<path fill="#1B545E" d="M93.049,87.535c-5.297-2.019-9.219-7.214-9.631-12.758c0.666,1.578,2.682,2.475,4.307,1.915
			c-2.631-1.552-4.207-4.447-4.835-7.387c-0.627-2.939-0.429-5.968-0.271-8.956c0.56-10.52,0.565-21.282-2.679-31.377
			c-1.206-3.754-2.929-7.417-5.126-10.749C70.156,8.617,61.64,2.024,51.856,0.632l-3.823-0.544
			c-0.846-0.121-1.702-0.117-2.547,0.011l-2.975,0.449c-2.82,0.426-5.179,0.544-8.071,1.586c-2.408,0.981-4.977,2.837-7.093,4.509
			c-8.675,6.854-13.665,19.146-12.573,30.97c0.27,2.914,0.877,5.775,1.571,8.6c1.79,7.285,4.191,14.552,4.105,22.107
			c-0.086,7.555-3.394,15.704-9.726,18.314c6.587,3.849,15.667,0.875,19.364-6.341c0.058,2.156-0.629,4.327-1.888,5.961
			c4.47-1.648,6.638-7.587,6.354-12.846c-0.282-5.259-2.378-10.145-3.857-15.146c-2.166-7.324-2.908-15.109-2.389-22.797
			c0.535-9.272,9.3-8.001,14.647-10.703c5.727-2.894,7.866-5.283,8.468-6.496c0.956,1.214,2.674,5.177,4.155,5.608
			c5.799,1.691,16.542,2.318,17.81,10.085c0.109,3.738-0.261,7.568-0.675,11.237c-0.683,6.051-1.364,12.102-2.047,18.152
			c-0.495,4.395-0.98,8.923,0.268,13.195c1.227,4.197,4.154,7.911,7.992,10.138c-1.632-1.543-2.531-3.805-2.39-6.007
			C81.106,84.642,87.008,87.093,93.049,87.535z"/>
		<path fill="#256671" d="M35.063,13.812c0.88-1.152,2.278-1.628,3.621-1.82c1.344-0.193,2.72-0.161,4.027-0.555
			c1.002-0.301,2.07-1.055,2.134-2.214c0.023,1.122-0.011,2.384-0.735,3.16c-0.785,0.841-2.118,0.798-2.849,1.698
			c0.852-0.201,1.73-0.265,2.599-0.186c-0.146,0.38-0.292,0.76-0.438,1.14c0.729,0.219,1.556-0.028,2.09-0.626
			c0.135,1.19,0.175,2.637-0.704,3.322c-0.437,0.34-1.054,0.438-1.326,0.949c0.474,0.166,0.482,0.921,0.312,1.442
			c-0.448,1.374-1.436,2.451-2.53,3.249s-2.31,1.358-3.473,2.023c4.949-1.023,9.788-4.022,12.232-8.948
			c-0.576,0.449-1.297,0.659-1.995,0.581c0.084-1.087,0.649-2.056,0.835-3.126c0.188-1.085-0.024-2.2-0.235-3.279
			c-0.207-1.055-0.413-2.109-0.619-3.164c-0.344-1.757-0.778-3.675-2.083-4.724c-1.129-0.909-2.668-0.926-4.007-0.504
			c-1.339,0.421-2.551,1.226-3.816,1.872c-1.265,0.646-2.658,1.146-4.031,0.898c1.233,0.768,2.729,0.861,4.117,0.576
			c1.388-0.284,2.696-0.92,3.99-1.551c-0.981,1.721-2.868,2.429-4.592,3.095c-1.723,0.665-3.59,1.576-4.323,3.444
			c0.882-0.865,1.937-1.509,3.064-1.87c1.132-0.363,2.32-0.44,3.476-0.691c1.157-0.251,2.332-0.711,3.14-1.67
			c0.283,0.816-0.28,1.694-0.904,2.222c-1.149,0.973-2.576,1.416-3.893,2.07C36.83,11.281,35.515,12.279,35.063,13.812z"/>
		<path fill="#256671" d="M57.913,4.069c-1.058-0.268-2.146-0.352-3.219-0.524c-1.147-0.186-2.279-0.473-3.41-0.76
			c-0.925-0.234-1.957-0.555-2.419-1.482c-0.363,0.304-0.406,0.896-0.343,1.397c0.369,2.917,2.997,4.782,4.039,7.487
			c0.682,1.771,0.638,3.782,1.123,5.632c0.382,1.459,1.087,2.787,1.878,4.022c0.277,0.433,0.573,0.863,0.965,1.165
			c0.552,0.426,1.239,0.555,1.903,0.659c2.881,0.453,5.819,0.661,8.585,1.672c2.766,1.01,5.416,2.977,6.594,5.956
			c-0.136-0.516-0.371-0.99-0.621-1.449c-2.092-3.839-5.341-6.872-9.089-8.486c1.572,0.071,3.127,0.582,4.484,1.474
			c-1.082-2.007-2.753-3.609-4.692-4.496c-1.136-0.52-2.354-0.799-3.468-1.374c-1.115-0.574-2.165-1.537-2.478-2.865
			c0.856,0.346,1.781,0.479,2.688,0.384c-0.735-0.297-1.377-0.872-1.798-1.609c0.742-0.046,1.484-0.091,2.227-0.137
			c-0.548-0.884-1.096-1.767-1.645-2.65c2.696-0.593,5.612,0.22,7.744,2.16c-1.554-1.931-3.471-3.471-5.531-4.665
			C60.312,4.931,59.142,4.379,57.913,4.069z"/>
	</g>
	<g>
		<path fill="#434243" d="M54.994,44.479c0,0-1.604-0.948-4.507-0.948c-2.901,0-4.48,0.948-4.48,0.948v-4.46
			c0,0,1.385-0.315,4.559-0.315c3.175,0,4.429,0.315,4.429,0.315V44.479z"/>
		<path fill="#434243" d="M43.343,53.044L32.07,54.213c-1.224,0.126-2.341-0.783-2.61-2.126l-1.433-7.146l-0.679-1.481l-2.052-0.746
			l-0.112-2.294c-0.028-0.589,0.368-1.096,0.893-1.142l2.678-0.233c0,0,9.526-1.506,13.76-0.387
			c1.433,0.379,2.434,0.758,3.132,1.093c0.954,0.458,1.497,1.582,1.302,2.724l-1.431,8.358
			C45.313,52.03,44.426,52.932,43.343,53.044z"/>
		<path fill="#434243" d="M57.226,53.044l11.271,1.169c1.224,0.126,2.341-0.783,2.61-2.126l1.434-7.146l0.679-1.481l2.052-0.746
			l0.112-2.294c0.028-0.589-0.368-1.096-0.894-1.142l-2.678-0.233c0,0-9.525-1.506-13.759-0.387
			c-1.433,0.379-2.435,0.758-3.133,1.093c-0.953,0.458-1.497,1.582-1.302,2.724l1.431,8.358
			C55.255,52.03,56.142,52.932,57.226,53.044z"/>
		<path fill="#B4D1D3" d="M29.234,42.604l1.933,7.757c0.204,0.821,0.891,1.375,1.651,1.331l9.865-0.566
			c1.077-0.062,1.948-1.004,2.041-2.207l0.462-5.607c0.209-0.79-0.575-1.976-1.638-2.305c-1.548-0.479-4.162-0.719-6.324-0.898
			c-2.054-0.17-5.502,0.613-7.229,1.054C29.418,41.31,29.075,41.965,29.234,42.604z"/>
		<path fill="#B4D1D3" d="M71.51,42.473l-1.933,7.757c-0.204,0.822-0.891,1.375-1.651,1.331l-9.865-0.566
			c-1.077-0.062-1.948-1.004-2.041-2.207l-0.462-5.607c-0.209-0.79,0.575-1.976,1.637-2.305c1.549-0.479,4.163-0.719,6.325-0.898
			c2.054-0.17,5.502,0.614,7.229,1.054C71.326,41.178,71.669,41.833,71.51,42.473z"/>
		<path fill="#D9EAE9" d="M39.607,40.269c-0.753-0.08-1.511-0.152-2.229-0.212c-2.283,2.558-4.567,5.114-6.852,7.672l0.518,2.078
			C33.896,46.625,36.752,43.446,39.607,40.269z"/>
		<path fill="#D9EAE9" d="M44.429,41.482c-0.257-0.234-0.545-0.438-0.88-0.541c-0.443-0.138-0.987-0.25-1.569-0.353
			c-3.267,3.638-6.536,7.273-9.799,10.916c0.201,0.082,0.413,0.135,0.638,0.122l2.688-0.155L44.429,41.482z"/>
		<path fill="#D9EAE9" d="M56.412,49.853c2.947-3.308,5.901-6.606,8.851-9.911c-0.636-0.056-1.232-0.072-1.743-0.03
			c-0.262,0.021-0.543,0.048-0.815,0.072c-2.254,2.537-4.509,5.072-6.779,7.591l0.095,1.146
			C56.053,49.147,56.209,49.519,56.412,49.853z"/>
		<path fill="#D9EAE9" d="M69.676,40.706c-0.622-0.144-1.324-0.296-2.059-0.43c-3.174,3.55-6.348,7.099-9.516,10.654l2.324,0.134
			L69.676,40.706z"/>
	</g>
	<g>
		<path fill="#32AEB4" d="M92.481,32.945c0,0,8.738,1.073,10.77-0.924c2.876-2.828,4.499-0.506,2.382,2.718
			c0,0-2.7,4.396-5.383,4.147S92.481,32.945,92.481,32.945z"/>
		<path opacity="0.5" fill="#1A4F5B" d="M92.481,32.945c0,0,8.738,1.073,10.77-0.924c2.876-2.828,4.499-0.506,2.382,2.718
			c0,0-2.7,4.396-5.383,4.147S92.481,32.945,92.481,32.945z"/>
		<rect x="85.331" y="42.93" fill="#32AEB4" width="14.209" height="39.467"/>
		<path fill="#E2E2E1" d="M99.54,100.047l-14.27,0.052l-0.065-25.275c0,0,2.592,0.921,7.26,0.921s7.01-0.973,7.01-0.973
			L99.54,100.047z"/>
		<rect x="85.331" y="87.67" fill="#6F9C40" width="14.209" height="1.944"/>
		<rect x="85.331" y="92.87" fill="#6F9C40" width="14.209" height="1.944"/>
		<rect x="85.331" y="77.196" fill="#6F9C40" width="14.209" height="1.944"/>
		<rect x="85.331" y="82.396" fill="#6F9C40" width="14.209" height="1.944"/>
		<rect x="85.331" y="98.155" fill="#6F9C40" width="14.209" height="1.943"/>
		<path fill="#32AEB4" d="M103.432,41.246c0,0.389,0.234,1.017-0.084,1.148c-0.396,0.163-1.97,1.146-2.341,1.532
			c-0.89,0.928-1.623,3.519-1.623,4.516c0,3.006-1.773,1.204-5.065,1.204c-5.033,0-8.964,7.359-9.113-8.4
			c-0.044-4.641,2.441-8.402,7.475-8.402c1.514,0,4.58,0.341,5.837,0.943C101.438,35.187,103.432,38.001,103.432,41.246z"/>
		<path fill="#32AEB4" d="M116.188,34.898c0.056-0.737-0.536-1.327-1.183-1.169c-3.047,0.745-11.588,2.554-15.646,0.543
			c-4.99-2.473,2.652,8.682,2.652,8.682s8.407-3.987,11.576-5.234C116.161,36.706,116.1,36.079,116.188,34.898z"/>
	</g>
</g>
</svg>
