<?xml version="1.0" encoding="utf-8"?>
<!-- Generator: Adobe Illustrator 16.0.0, SVG Export Plug-In . SVG Version: 6.00 Build 0)  -->
<!DOCTYPE svg PUBLIC "-//W3C//DTD SVG 1.1//EN" "http://www.w3.org/Graphics/SVG/1.1/DTD/svg11.dtd">
<svg version="1.1" id="Layer_1" xmlns="http://www.w3.org/2000/svg" xmlns:xlink="http://www.w3.org/1999/xlink" x="0px" y="0px"
	 width="107.57px" height="106.496px" viewBox="0 0 107.57 106.496" enable-background="new 0 0 107.57 106.496"
	 xml:space="preserve">
<g>
	<g>
		<path fill="#31ADB3" d="M89.385,81.938C86.5,73.247,85.201,64,85.201,64H54.34h-3.061H20.418c0,0-1.299,9.247-4.182,17.938
			C13.352,90.631,10.418,106,10.418,106h40.861h3.061h42.809C97.148,106,92.268,90.631,89.385,81.938z"/>
		<path opacity="0.15" fill="#1A4F5B" d="M89.385,81.842c-2.885-8.692-4.184-18.173-4.184-18.173h-30.99v42.468h42.938
			C97.148,106.137,92.268,90.534,89.385,81.842z"/>
		<path fill="#31ADB3" d="M20.418,63.532L6.521,106h3.896C10.418,106,22.105,81.714,20.418,63.532z"/>
		<path opacity="0.5" fill="#1A4F5B" d="M20.418,63.532L6.521,106h3.896C10.418,106,22.105,81.714,20.418,63.532z"/>
		<path fill="#31ADB3" d="M85.078,63.532L100.922,106h-3.896C97.025,106,83.391,81.714,85.078,63.532z"/>
		<path opacity="0.5" fill="#B8E2E0" d="M85.078,63.532L100.922,106h-3.896C97.025,106,83.391,81.714,85.078,63.532z"/>
		<g>
			<g>
				<rect x="39.736" y="1.571" fill="#31ADB3" width="26.02" height="3.477"/>
				<rect x="39.736" y="1.571" opacity="0.5" fill="#1A4F5B" width="26.02" height="3.477"/>
				<path fill="#31ADB3" d="M69.312,0.715h-3.729V6h0.889c0.918,0,1.855,0.646,1.855,1.563v6.723H37.184V7.563
					C37.184,6.646,38,6,38.918,6h0.818V0.715h-3.648c-2.266,0-4.047,1.788-4.047,4.054v18.946h41.43V4.769
					C73.471,2.503,71.578,0.715,69.312,0.715z"/>
				<path fill="#31ADB3" d="M42.059,6.143h-0.01c-0.273,0-0.494-0.222-0.494-0.494V0.495C41.555,0.222,41.775,0,42.049,0h0.01
					c0.273,0,0.496,0.222,0.496,0.495v5.153C42.555,5.921,42.332,6.143,42.059,6.143z"/>
				<path fill="#31ADB3" d="M43.572,6.143h-0.01c-0.273,0-0.496-0.222-0.496-0.494V0.495C43.066,0.222,43.289,0,43.562,0h0.01
					c0.273,0,0.494,0.222,0.494,0.495v5.153C44.066,5.921,43.846,6.143,43.572,6.143z"/>
				<path fill="#31ADB3" d="M45.086,6.143h-0.012c-0.273,0-0.494-0.222-0.494-0.494V0.495C44.58,0.222,44.801,0,45.074,0h0.012
					c0.271,0,0.494,0.222,0.494,0.495v5.153C45.58,5.921,45.357,6.143,45.086,6.143z"/>
				<path fill="#31ADB3" d="M46.598,6.143h-0.01c-0.273,0-0.496-0.222-0.496-0.494V0.495C46.092,0.222,46.314,0,46.588,0h0.01
					c0.273,0,0.494,0.222,0.494,0.495v5.153C47.092,5.921,46.871,6.143,46.598,6.143z"/>
				<path fill="#31ADB3" d="M48.111,6.143h-0.01c-0.275,0-0.496-0.222-0.496-0.494V0.495C47.605,0.222,47.826,0,48.102,0h0.01
					c0.273,0,0.494,0.222,0.494,0.495v5.153C48.605,5.921,48.385,6.143,48.111,6.143z"/>
				<path fill="#31ADB3" d="M49.623,6.143h-0.01c-0.273,0-0.494-0.222-0.494-0.494V0.495C49.119,0.222,49.34,0,49.613,0h0.01
					c0.273,0,0.496,0.222,0.496,0.495v5.153C50.119,5.921,49.896,6.143,49.623,6.143z"/>
				<path fill="#31ADB3" d="M51.137,6.143h-0.01c-0.273,0-0.496-0.222-0.496-0.494V0.495C50.631,0.222,50.854,0,51.127,0h0.01
					c0.273,0,0.494,0.222,0.494,0.495v5.153C51.631,5.921,51.41,6.143,51.137,6.143z"/>
				<path fill="#31ADB3" d="M51.137,6.143h-0.01c-0.273,0-0.496-0.222-0.496-0.494V0.495C50.631,0.222,50.854,0,51.127,0h0.01
					c0.273,0,0.494,0.222,0.494,0.495v5.153C51.631,5.921,51.41,6.143,51.137,6.143z"/>
				<path fill="#31ADB3" d="M52.648,6.143h-0.01c-0.273,0-0.494-0.222-0.494-0.494V0.495C52.145,0.222,52.365,0,52.639,0h0.01
					c0.273,0,0.496,0.222,0.496,0.495v5.153C53.145,5.921,52.922,6.143,52.648,6.143z"/>
				<path fill="#31ADB3" d="M54.162,6.143h-0.01c-0.273,0-0.496-0.222-0.496-0.494V0.495C53.656,0.222,53.879,0,54.152,0h0.01
					c0.273,0,0.494,0.222,0.494,0.495v5.153C54.656,5.921,54.436,6.143,54.162,6.143z"/>
				<path fill="#31ADB3" d="M55.674,6.143h-0.01c-0.273,0-0.494-0.222-0.494-0.494V0.495C55.17,0.222,55.391,0,55.664,0h0.01
					c0.273,0,0.496,0.222,0.496,0.495v5.153C56.17,5.921,55.947,6.143,55.674,6.143z"/>
				<path fill="#31ADB3" d="M57.188,6.143h-0.01c-0.273,0-0.496-0.222-0.496-0.494V0.495C56.682,0.222,56.904,0,57.178,0h0.01
					c0.273,0,0.494,0.222,0.494,0.495v5.153C57.682,5.921,57.461,6.143,57.188,6.143z"/>
				<path fill="#31ADB3" d="M58.699,6.143h-0.01c-0.273,0-0.494-0.222-0.494-0.494V0.495C58.195,0.222,58.416,0,58.689,0h0.01
					c0.273,0,0.496,0.222,0.496,0.495v5.153C59.195,5.921,58.973,6.143,58.699,6.143z"/>
				<path fill="#31ADB3" d="M60.213,6.143h-0.01c-0.273,0-0.496-0.222-0.496-0.494V0.495C59.707,0.222,59.93,0,60.203,0h0.01
					c0.273,0,0.494,0.222,0.494,0.495v5.153C60.707,5.921,60.486,6.143,60.213,6.143z"/>
				<path fill="#31ADB3" d="M61.727,6.143h-0.012c-0.273,0-0.494-0.222-0.494-0.494V0.495C61.221,0.222,61.441,0,61.715,0h0.012
					c0.271,0,0.494,0.222,0.494,0.495v5.153C62.221,5.921,61.998,6.143,61.727,6.143z"/>
				<path fill="#31ADB3" d="M63.238,6.143h-0.01c-0.273,0-0.494-0.222-0.494-0.494V0.495C62.734,0.222,62.955,0,63.229,0h0.01
					c0.273,0,0.496,0.222,0.496,0.495v5.153C63.734,5.921,63.512,6.143,63.238,6.143z"/>
				<path opacity="0.5" fill="#B8E2E0" d="M42.059,6.143h-0.01c-0.273,0-0.494-0.222-0.494-0.494V0.495
					C41.555,0.222,41.775,0,42.049,0h0.01c0.273,0,0.496,0.222,0.496,0.495v5.153C42.555,5.921,42.332,6.143,42.059,6.143z"/>
				<path opacity="0.5" fill="#B8E2E0" d="M43.572,6.143h-0.01c-0.273,0-0.496-0.222-0.496-0.494V0.495
					C43.066,0.222,43.289,0,43.562,0h0.01c0.273,0,0.494,0.222,0.494,0.495v5.153C44.066,5.921,43.846,6.143,43.572,6.143z"/>
				<path opacity="0.5" fill="#B8E2E0" d="M45.086,6.143h-0.012c-0.273,0-0.494-0.222-0.494-0.494V0.495
					C44.58,0.222,44.801,0,45.074,0h0.012c0.271,0,0.494,0.222,0.494,0.495v5.153C45.58,5.921,45.357,6.143,45.086,6.143z"/>
				<path opacity="0.5" fill="#B8E2E0" d="M46.598,6.143h-0.01c-0.273,0-0.496-0.222-0.496-0.494V0.495
					C46.092,0.222,46.314,0,46.588,0h0.01c0.273,0,0.494,0.222,0.494,0.495v5.153C47.092,5.921,46.871,6.143,46.598,6.143z"/>
				<path opacity="0.5" fill="#B8E2E0" d="M48.111,6.143h-0.01c-0.275,0-0.496-0.222-0.496-0.494V0.495
					C47.605,0.222,47.826,0,48.102,0h0.01c0.273,0,0.494,0.222,0.494,0.495v5.153C48.605,5.921,48.385,6.143,48.111,6.143z"/>
				<path opacity="0.5" fill="#B8E2E0" d="M49.623,6.143h-0.01c-0.273,0-0.494-0.222-0.494-0.494V0.495
					C49.119,0.222,49.34,0,49.613,0h0.01c0.273,0,0.496,0.222,0.496,0.495v5.153C50.119,5.921,49.896,6.143,49.623,6.143z"/>
				<path opacity="0.5" fill="#B8E2E0" d="M51.137,6.143h-0.01c-0.273,0-0.496-0.222-0.496-0.494V0.495
					C50.631,0.222,50.854,0,51.127,0h0.01c0.273,0,0.494,0.222,0.494,0.495v5.153C51.631,5.921,51.41,6.143,51.137,6.143z"/>
				<path opacity="0.5" fill="#B8E2E0" d="M52.648,6.143h-0.01c-0.273,0-0.494-0.222-0.494-0.494V0.495
					C52.145,0.222,52.365,0,52.639,0h0.01c0.273,0,0.496,0.222,0.496,0.495v5.153C53.145,5.921,52.922,6.143,52.648,6.143z"/>
				<path opacity="0.5" fill="#B8E2E0" d="M54.162,6.143h-0.01c-0.273,0-0.496-0.222-0.496-0.494V0.495
					C53.656,0.222,53.879,0,54.152,0h0.01c0.273,0,0.494,0.222,0.494,0.495v5.153C54.656,5.921,54.436,6.143,54.162,6.143z"/>
				<path opacity="0.5" fill="#B8E2E0" d="M55.674,6.143h-0.01c-0.273,0-0.494-0.222-0.494-0.494V0.495
					C55.17,0.222,55.391,0,55.664,0h0.01c0.273,0,0.496,0.222,0.496,0.495v5.153C56.17,5.921,55.947,6.143,55.674,6.143z"/>
				<path opacity="0.5" fill="#B8E2E0" d="M57.188,6.143h-0.01c-0.273,0-0.496-0.222-0.496-0.494V0.495
					C56.682,0.222,56.904,0,57.178,0h0.01c0.273,0,0.494,0.222,0.494,0.495v5.153C57.682,5.921,57.461,6.143,57.188,6.143z"/>
				<path opacity="0.5" fill="#B8E2E0" d="M58.699,6.143h-0.01c-0.273,0-0.494-0.222-0.494-0.494V0.495
					C58.195,0.222,58.416,0,58.689,0h0.01c0.273,0,0.496,0.222,0.496,0.495v5.153C59.195,5.921,58.973,6.143,58.699,6.143z"/>
				<path opacity="0.5" fill="#B8E2E0" d="M60.213,6.143h-0.01c-0.273,0-0.496-0.222-0.496-0.494V0.495
					C59.707,0.222,59.93,0,60.203,0h0.01c0.273,0,0.494,0.222,0.494,0.495v5.153C60.707,5.921,60.486,6.143,60.213,6.143z"/>
				<path opacity="0.5" fill="#B8E2E0" d="M61.727,6.143h-0.012c-0.273,0-0.494-0.222-0.494-0.494V0.495
					C61.221,0.222,61.441,0,61.715,0h0.012c0.271,0,0.494,0.222,0.494,0.495v5.153C62.221,5.921,61.998,6.143,61.727,6.143z"/>
				<path opacity="0.5" fill="#B8E2E0" d="M63.238,6.143h-0.01c-0.273,0-0.494-0.222-0.494-0.494V0.495
					C62.734,0.222,62.955,0,63.229,0h0.01c0.273,0,0.496,0.222,0.496,0.495v5.153C63.734,5.921,63.512,6.143,63.238,6.143z"/>
			</g>
			<path fill="#31ADB3" d="M89.418,40.35C89.418,26.425,88,15.051,88,14.31V14h0.152c-0.018,0-0.033-0.016-0.051-0.016
				c-0.016,0-0.031,0.016-0.047,0.016H17.438c-0.018,0-0.033-0.016-0.049-0.016c-0.018,0-0.033,0.016-0.049,0.016H17v0.294
				c-1,0.556-1.439,12.007-1.439,26.056S16,65.851,17,66.405V67h71v-0.61C88,65.649,89.418,54.274,89.418,40.35z"/>
			<ellipse opacity="0.5" fill="#B8E2E0" cx="88.246" cy="40.35" rx="1.5" ry="26.079"/>
			<rect x="33.455" y="14" opacity="0.5" fill="#1A4F5B" width="4" height="0"/>
			<rect x="67.455" y="14" opacity="0.5" fill="#1A4F5B" width="7" height="0"/>
			<polygon opacity="0.15" fill="#1A4F5B" points="17.389,66.332 87.471,66.332 87.041,60.317 18.613,60.317 			"/>
			<polygon opacity="0.3" fill="#1A4F5B" points="17.666,64.972 17.389,66.332 87.471,66.332 87.373,64.972 			"/>
			<ellipse opacity="0.5" fill="#1A4F5B" cx="17.389" cy="40.35" rx="1.5" ry="26.079"/>
		</g>
		<g>
			<ellipse fill="#31ADB3" cx="90.376" cy="40.286" rx="0.38" ry="5.429"/>
			<path fill="#31ADB3" d="M88,35v-0.098c0,0.341-0.332,2.62-0.332,5.384c0,2.763,0.332,5.043,0.332,5.383V46h2.328l0.047-11H88z"/>
			<ellipse opacity="0.5" fill="#B8E2E0" cx="90.376" cy="40.286" rx="0.38" ry="5.429"/>
		</g>
		<g>
			<ellipse fill="#31ADB3" cx="15.233" cy="40.286" rx="0.38" ry="5.429"/>
			<path fill="#31ADB3" d="M17,46v-0.331c0-0.34,0.332-2.62,0.332-5.383c0-2.764-0.332-5.043-0.332-5.384V35h-1.719l-0.049,11H17z"
				/>
			<ellipse opacity="0.5" fill="#1A4F5B" cx="15.233" cy="40.286" rx="0.38" ry="5.429"/>
		</g>
		<rect x="44" y="46" opacity="0.5" fill="#1A4F5B" width="17" height="16"/>
		<rect x="45" y="47" opacity="0.5" fill="#1A4F5B" width="16" height="14"/>
		<rect x="44" y="47" fill="#31ADB3" width="17" height="6"/>
		<rect x="44" y="52" opacity="0.75" fill="#0F383F" width="17" height="1"/>
		<rect x="44" y="55" fill="#31ADB3" width="17" height="6"/>
		<rect x="44" y="55" opacity="0.5" fill="#B8E2E0" width="17" height="2"/>
		<g opacity="0.5">
			<circle fill="#1A4F5B" cx="36.797" cy="34.164" r="12.867"/>
			<circle fill="#1A4F5B" cx="68.967" cy="34.164" r="12.867"/>
		</g>
		<g>
			<circle fill="#6F9C40" cx="36.904" cy="34.878" r="11.58"/>
			<circle fill="#6F9C40" cx="68.859" cy="34.878" r="11.58"/>
		</g>
		<g opacity="0.15">
			<g>
				<path fill="#F2F2F3" d="M37.041,23.43c-0.674,0-1.334,0.062-1.977,0.172c-3.182,3.186-6.35,6.383-9.469,9.631
					c-0.088,0.58-0.135,1.174-0.135,1.778c0,0.645,0.055,1.276,0.156,1.892c4.469-4.437,8.949-8.864,13.424-13.297
					C38.391,23.492,37.723,23.43,37.041,23.43z"/>
				<path fill="#F2F2F3" d="M48.238,32.053c-0.432-1.639-1.211-3.135-2.258-4.404C40.52,33.06,35.051,38.462,29.6,43.882
					c1.287,1.08,2.811,1.885,4.484,2.326L48.238,32.053z"/>
			</g>
			<g>
				<path fill="#F2F2F3" d="M68.996,23.43c-0.674,0-1.334,0.062-1.977,0.172c-3.182,3.186-6.35,6.383-9.467,9.631
					c-0.09,0.58-0.137,1.174-0.137,1.778c0,0.645,0.055,1.276,0.156,1.892c4.471-4.437,8.949-8.864,13.424-13.297
					C70.346,23.492,69.68,23.43,68.996,23.43z"/>
				<path fill="#F2F2F3" d="M80.193,32.053c-0.432-1.639-1.211-3.135-2.258-4.404c-5.461,5.411-10.93,10.813-16.381,16.233
					c1.287,1.08,2.812,1.885,4.484,2.326L80.193,32.053z"/>
			</g>
		</g>
		<g>
			<polygon opacity="0.55" fill="#FFFFFF" points="29.576,39.701 33.826,36.44 37.092,37.904 40.121,32.929 41.225,34.034 
				42.723,31.506 43.471,31.951 43.625,29.354 41.418,30.73 42.248,31.225 41.111,33.143 40.014,32.044 36.873,37.203 
				33.752,35.803 29.033,39.424 29.033,30.247 28.703,30.247 28.703,40.032 46.859,40.032 46.859,39.701 			"/>
			<polygon opacity="0.3" fill="#FFFFFF" points="29.545,39.772 33.826,36.504 37.143,37.931 40.111,33.039 41.307,34.113 
				42.695,31.568 43.439,31.934 43.621,39.743 			"/>
		</g>
		<g>
			<polygon opacity="0.55" fill="#FFFFFF" points="61.045,39.701 65.293,36.44 68.561,37.904 71.588,32.929 72.693,34.034 
				74.189,31.506 74.939,31.951 75.094,29.354 72.887,30.73 73.717,31.225 72.58,33.143 71.482,32.044 68.342,37.203 65.219,35.803 
				60.502,39.424 60.502,30.247 60.172,30.247 60.172,40.032 78.328,40.032 78.328,39.701 			"/>
			<polygon opacity="0.3" fill="#FFFFFF" points="61.014,39.772 65.293,36.504 68.609,37.931 71.58,33.039 72.775,34.113 
				74.164,31.568 74.908,31.934 75.088,39.743 			"/>
		</g>
		<rect x="2" y="40" fill="#1A4F5B" width="12" height="1"/>
		<circle fill="#6F9C40" cx="1.704" cy="40.701" r="1.429"/>
		<rect x="90" y="40" fill="#1A4F5B" width="14" height="1"/>
		<circle fill="#6F9C40" cx="103.925" cy="40.701" r="1.429"/>
		<circle opacity="0.5" fill="#1A4F5B" cx="53.795" cy="74.318" r="1.494"/>
		<circle opacity="0.5" fill="#1A4F5B" cx="53.795" cy="83.799" r="1.494"/>
		<circle opacity="0.5" fill="#1A4F5B" cx="53.795" cy="95.357" r="1.494"/>
		<circle fill="#6F9C40" cx="53.795" cy="73.929" r="1.494"/>
		<circle fill="#6F9C40" cx="53.795" cy="83.409" r="1.494"/>
		<circle fill="#6F9C40" cx="53.795" cy="94.968" r="1.494"/>
		<g>
			<path fill="#31ADB3" d="M9.48,106.496H0l1.947-20.507c0-7.5,6.08-13.581,13.582-13.581h0.199c3.363,0,3.662,2.317,2.582,8.038
				C17.381,85.376,9.613,106.22,9.48,106.496z"/>
			<path opacity="0.5" fill="#1A4F5B" d="M6.279,76.046c-2.664,2.479-4.332,6.017-4.332,9.943L0,106.496h3.682L6.279,76.046z"/>
		</g>
		<path fill="#31ADB3" d="M98.09,106.496h9.48l-1.947-20.507c0-7.5-6.08-13.581-13.582-13.581h-0.199
			c-3.363,0-3.662,2.317-2.582,8.038C90.189,85.376,97.957,106.22,98.09,106.496z"/>
		<path opacity="0.5" fill="#B8E2E0" d="M101.291,76.046c2.664,2.479,4.332,6.017,4.332,9.943l1.947,20.507h-3.682L101.291,76.046z"
			/>
	</g>
</g>
</svg>
