<?xml version="1.0" encoding="utf-8"?>
<!-- Generator: Adobe Illustrator 16.0.0, SVG Export Plug-In . SVG Version: 6.00 Build 0)  -->
<!DOCTYPE svg PUBLIC "-//W3C//DTD SVG 1.1//EN" "http://www.w3.org/Graphics/SVG/1.1/DTD/svg11.dtd">
<svg version="1.1" id="Layer_1" xmlns="http://www.w3.org/2000/svg" xmlns:xlink="http://www.w3.org/1999/xlink" x="0px" y="0px"
	 width="99.366px" height="107.367px" viewBox="0 0 99.366 107.367" enable-background="new 0 0 99.366 107.367"
	 xml:space="preserve">
<g>
	<g>
		<path fill="#31ADB3" d="M57.348,106.847L2.79,79.878c-2.479-1.227-3.496-4.23-2.271-6.709L34.896,3.626
			c1.226-2.48,4.229-3.497,6.709-2.271l54.558,26.969c2.479,1.226,3.496,4.23,2.271,6.71l-34.377,69.542
			C62.831,107.056,59.827,108.074,57.348,106.847z"/>
		<path opacity="0.5" fill="#1A4F5B" d="M57.348,106.847L2.79,79.878c-2.479-1.227-3.496-4.23-2.271-6.709L34.896,3.626
			c1.226-2.48,4.229-3.497,6.709-2.271l54.558,26.969c2.479,1.226,3.496,4.23,2.271,6.71l-34.377,69.542
			C62.831,107.056,59.827,108.074,57.348,106.847z"/>
		<path fill="#31ADB3" d="M57.76,106.011L3.203,79.042c-2.479-1.225-3.496-4.229-2.271-6.709L35.309,2.79
			c1.227-2.479,4.23-3.496,6.71-2.271l54.557,26.969c2.48,1.226,3.497,4.229,2.271,6.709L64.47,103.742
			C63.244,106.22,60.24,107.238,57.76,106.011z"/>
		<path opacity="0.5" fill="#1A4F5B" d="M59.188,100.845L6.441,74.771c-0.624-0.309-0.88-1.064-0.571-1.688L38.49,7.093
			c0.308-0.623,1.063-0.879,1.688-0.57l52.747,26.073c0.624,0.309,0.88,1.064,0.571,1.688l-32.62,65.989
			C60.568,100.898,59.812,101.154,59.188,100.845z"/>
		<path fill="#B8E2E0" d="M59.464,100.289L6.717,74.214c-0.624-0.309-0.88-1.064-0.571-1.688l32.62-65.991
			c0.308-0.624,1.063-0.879,1.688-0.571L93.2,32.039c0.624,0.309,0.88,1.063,0.571,1.688l-32.62,65.99
			C60.843,100.339,60.088,100.595,59.464,100.289z"/>
		<path fill="#92C0BE" d="M77.938,24.933c-0.115-0.781-0.51-1.493-1.109-2.006l-0.894-0.763c-0.818-1.91-0.604-4.105,0.567-5.821
			l0.665-0.975c0.231-0.339,0.353-0.74,0.347-1.15v-0.02c-0.011-0.746-0.438-1.424-1.108-1.754L64.902,6.757
			c-0.72-0.355-1.584-0.243-2.189,0.284l-0.015,0.013c-0.272,0.238-0.476,0.546-0.586,0.89l-0.501,1.554
			c-0.595,1.844-2.032,3.294-3.871,3.904l-1.131-0.125c-0.796-0.088-1.597,0.12-2.25,0.584l-0.893,0.634
			c-0.391,0.277-0.343,0.87,0.086,1.082l23.733,11.732c0.458,0.226,0.98-0.155,0.906-0.659L77.938,24.933z M67.905,15.806
			c-1.327-0.655-1.87-2.262-1.215-3.589c0.655-1.326,2.263-1.87,3.589-1.214c1.326,0.655,1.87,2.262,1.215,3.589
			C70.838,15.918,69.231,16.462,67.905,15.806z"/>
		<path opacity="0.15" fill="#1A4F5B" d="M78.148,26.397l-24.43-12.076l-0.257,0.183c-0.39,0.277-0.343,0.87,0.086,1.083
			l23.733,11.731c0.458,0.227,0.98-0.154,0.906-0.659L78.148,26.397z"/>
		<path opacity="0.15" fill="#1A4F5B" d="M70.369,10.82c-1.427-0.706-3.156-0.121-3.861,1.307c-0.705,1.427-0.12,3.156,1.307,3.862
			c1.428,0.705,3.156,0.12,3.862-1.308C72.382,13.255,71.797,11.525,70.369,10.82z M70.279,11.003
			c-1.326-0.656-2.934-0.112-3.589,1.214c-0.655,1.327-0.112,2.934,1.215,3.589c1.326,0.656,2.933,0.112,3.589-1.214
			C72.149,13.265,71.605,11.658,70.279,11.003z"/>
		<path opacity="0.5" fill="#B8E2E0" d="M77.478,13.943c-0.094-0.64-0.477-1.206-1.066-1.497L64.907,6.76
			c-0.59-0.292-1.261-0.24-1.821,0.069L77.478,13.943z"/>
	</g>
	<path fill="#6F9C40" d="M76.954,43.669l-0.691-1.567c-0.315-0.715-1.15-1.039-1.865-0.724L48.885,52.636
		c-0.725,0.319-1.57-0.018-1.877-0.748l-4.184-9.979c-0.315-0.751-1.197-1.081-1.929-0.723l-2.045,1.002
		c-0.605,0.298-0.917,0.98-0.745,1.633l4.785,18.083c0.235,0.891,1.244,1.322,2.051,0.877l31.401-17.301
		C76.984,45.126,77.25,44.34,76.954,43.669z"/>
</g>
</svg>
