<svg xmlns="http://www.w3.org/2000/svg" width="126" height="126"><polygon fill="#F6AA1E" points="62.937,112.695 46.846,123.01 38.069,106.031 18.976,106.92 19.865,87.827 2.886,79.05 13.202,62.96 2.886,46.869 19.865,38.092 18.976,19 38.069,19.888 46.846,2.909 62.937,13.225 79.027,2.909 87.805,19.888 106.896,19 106.008,38.092 122.988,46.869 112.67,62.96 122.988,79.05 106.008,87.827 106.896,106.92 87.805,106.031 79.027,123.01"/><path fill="#DB9227" d="M78.258 5.777l7.182 13.89 1.179 2.278 2.562-.119 15.617-.727-.727 15.619-.118 2.562 2.278 1.177 13.889 7.18-8.44 13.163-1.384 2.159 1.384 2.159 8.438 13.163-13.89 7.18-2.277 1.178.119 2.562.726 15.619-15.618-.729-2.562-.117-1.179 2.276-7.182 13.892-13.16-8.439-2.161-1.385-2.159 1.385-13.163 8.439-7.18-13.892-1.179-2.276-2.561.117-15.619.729.727-15.619.118-2.562-2.277-1.178-13.89-7.18 8.438-13.163 1.384-2.159-1.38-2.159-8.439-13.162 13.89-7.18 2.277-1.177-.118-2.562-.726-15.619 15.619.727 2.561.119 1.179-2.278 7.18-13.89 13.163 8.439 2.159 1.384 2.16-1.384 13.16-8.44zm1.537-5.736l-16.858 10.808-16.859-10.808-9.197 17.79-20.004-.931.931 20.005-17.79 9.196 10.808 16.859-10.808 16.858 17.789 9.197-.931 20.004 20.004-.932 9.197 17.789 16.859-10.809 16.858 10.809 9.197-17.789 20.004.932-.931-20.004 17.789-9.197-10.81-16.859 10.81-16.859-17.789-9.196.932-20.005-20.005.931-9.196-17.789z"/><path fill="#fff" d="M35.752 44.806l-7.206-5.769.91-1.137 6.201 4.964 3.096-3.867 1.004.804-4.005 5.005z"/><path fill="#fff" d="M37.774 37.035c-1.177-1.473-1.113-3.62.533-4.935 1.654-1.323 3.754-.904 4.932.569 1.176 1.473 1.122 3.612-.533 4.935-1.666 1.331-3.754.904-4.932-.569zm4.169-.385c.884-.706.96-2.049.147-3.064-.812-1.016-2.138-1.237-3.021-.531-.873.698-.951 2.059-.139 3.074.82 1.025 2.129 1.227 3.013.521z"/><path fill="#fff" d="M44.177 32.076c-.819-1.698-.279-3.777 1.618-4.693 1.908-.921 3.861-.045 4.681 1.652.819 1.698.29 3.772-1.618 4.693-1.92.927-3.861.046-4.681-1.652zm4.15.552c1.02-.491 1.392-1.784.826-2.954-.564-1.171-1.809-1.682-2.827-1.19-1.007.486-1.386 1.795-.82 2.966.571 1.182 1.803 1.67 2.821 1.178z"/><path fill="#fff" d="M57.321 30.811l-2.838-2.544-.854 1.3.479 2.01-1.391.332-2.199-9.232 1.391-.332 1.395 5.855 2.28-3.951 1.505-.358-1.895 3.378 3.619 3.187-1.492.355z"/><path fill="#fff" d="M58.665 22.693l-.137-1.567 1.424-.125.137 1.567-1.424.125zm.687 7.887l-.591-6.773 1.424-.125.591 6.773-1.424.125z"/><path fill="#fff" d="M68.208 30.669l-1.427-.095.253-3.801c.085-1.271-.308-1.858-1.085-1.91-.83-.055-1.782.559-2.143 1.46l-.271 4.034-1.427-.095.451-6.784 1.295.087-.09 1.361c.58-.874 1.668-1.374 2.861-1.295 1.635.108 1.952 1.407 1.854 2.899l-.271 4.139z"/><path fill="#fff" d="M69.943 27.495c.562-1.854 2.257-2.997 4.035-2.456 1.059.322 1.674 1.107 1.94 2.059l.375-1.23 1.207.367-1.923 6.318c-.571 1.877-2.395 2.506-4.357 1.907-1.443-.438-2.181-1.233-2.574-2.305l.992-.486c.283.848 1.018 1.479 1.899 1.747 1.132.344 2.271.038 2.671-1.28l.305-.994c-.697.644-1.723.835-2.617.562-1.753-.535-2.487-2.456-1.953-4.209zm4.922 2.489l.519-1.704c-.073-.919-.679-1.742-1.462-1.98-1.182-.359-2.27.532-2.609 1.652-.358 1.181.227 2.433 1.369 2.78.82.25 1.776-.125 2.183-.748z"/><path fill="#fff" d="M79.665 34.989l2.664-4.114-.765-.495.602-.927.764.494.487-.753c.903-1.397 2.187-1.821 3.3-1.101.458.297.842.73 1.094 1.203l-.84.727c-.123-.266-.388-.576-.66-.752-.566-.367-1.156-.129-1.67.668l-.509.785 1.451.939-.601.928-1.451-.939-2.664 4.114-1.202-.777z"/><path fill="#fff" d="M85.029 34.371c1.293-1.373 3.428-1.614 4.962-.171 1.543 1.452 1.425 3.589.133 4.963-1.291 1.372-3.417 1.622-4.96.17-1.555-1.46-1.426-3.589-.135-4.962zm.972 4.072c.824.774 2.163.66 3.054-.287.891-.947.922-2.291.1-3.065-.813-.767-2.172-.651-3.062.296-.902.956-.916 2.28-.092 3.056z"/><path fill="#fff" d="M94.98 42.162c-.679-.874-1.625-1.307-2.549-1.094l-3.352 2.467-.85-1.151 5.478-4.031.787 1.067-1.226.902c1.039-.168 2.039.096 2.541.776l.205.301-1.034.763z"/><path fill="#fff" d="M31.133 85.626l7.034-5.957.941 1.111-3.671 3.108 6.521.235 1.008 1.188-5.467-.14-1.443 6.263-1.017-1.199 1.262-5.189-2.084-.127-2.143 1.814-.941-1.107z"/><path fill="#fff" d="M38.67 90.979c.746-1.033 2.214-1.047 3.585-.059.516.373.986.854 1.272 1.303l.274-.381c.586-.812.451-1.646-.414-2.27-.58-.418-1.309-.607-2.207-.631l.174-.996c1.049.035 1.951.315 2.731.881 1.508 1.088 1.818 2.545.784 3.979l-1.438 1.993c-.19.263-.181.431.054.615l-.715.989c-.252-.116-.46-.25-.607-.356-.42-.353-.492-.739-.293-1.126l.219-.37c-.96.285-1.978.097-2.8-.498-1.066-.766-1.326-2.093-.619-3.073zm3.35 2.865c.221-.018.419-.113.511-.24l.525-.729c-.284-.43-.679-.857-1.101-1.162-.822-.593-1.702-.619-2.12-.039-.396.549-.236 1.305.386 1.754.558.404 1.266.577 1.799.416z"/><path fill="#fff" d="M47.112 97.175l-1.521 3.746-1.325-.537 3.599-8.866 1.168.477-.459 1.132c.786-.551 1.793-.717 2.745-.331 1.711.694 2.352 2.709 1.643 4.455-.739 1.818-2.487 2.809-4.125 2.145-1.012-.416-1.581-1.264-1.725-2.221zm4.5-.474c.474-1.168.005-2.467-1.104-2.917-.686-.278-1.762-.084-2.238.536l-.669 1.649c.013.902.492 1.8 1.274 2.116 1.108.453 2.292-.288 2.737-1.384z"/><path fill="#fff" d="M54.121 100.883l1.41-6.65 1.398.295-1.41 6.652-1.398-.297zm1.642-7.744l.326-1.539 1.398.297-.326 1.537-1.398-.295z"/><path fill="#fff" d="M61.869 101.58c-.389.136-1.088.363-1.827.3-.881-.075-1.593-.593-1.5-1.681l.363-4.236-.907-.077.094-1.101.907.076.191-2.229 1.425.122-.191 2.229 1.477.127-.094 1.101-1.477-.127-.324 3.783c-.041.479.264.714.654.747.4.033.818-.112.994-.188l.215 1.154z"/><path fill="#fff" d="M63.35 100.021c-.127-1.269.962-2.252 2.646-2.42.633-.062 1.305-.014 1.816.133l-.047-.467c-.102-.996-.754-1.531-1.815-1.427-.712.071-1.384.413-2.069.991l-.531-.861c.81-.668 1.671-1.056 2.628-1.149 1.852-.187 3.049.701 3.226 2.461l.245 2.445c.031.321.148.441.447.424l.121 1.217c-.268.078-.512.115-.691.134-.547.017-.858-.228-.967-.647l-.08-.424c-.529.852-1.418 1.383-2.426 1.483-1.308.131-2.383-.689-2.503-1.893zm4.408-.074c.153-.159.238-.364.225-.521l-.09-.893c-.498-.134-1.078-.192-1.596-.142-1.009.102-1.686.664-1.613 1.375.066.674.688 1.133 1.451 1.059.685-.065 1.331-.404 1.623-.878z"/><path fill="#fff" d="M69.904 91.582l1.378-.389 2.034 7.205c.138.487.479.703.933.576.188-.055.444-.194.629-.354l.515 1.057c-.352.288-.929.587-1.367.71-.938.266-1.668-.123-1.934-1.062l-2.188-7.743z"/><path fill="#fff" d="M73.34 90.521l1.318-.558 2.906 6.901c.197.467.562.637.996.453.18-.074.418-.245.582-.428l.641.986c-.312.329-.85.696-1.27.873-.897.378-1.673.083-2.052-.814l-3.121-7.413z"/><path fill="#fff" d="M88.455 92.514l-3.928-5.357.762 5.679-.65.478-5.195-2.43 3.928 5.358-1.178.86-5.455-7.444 1.261-.923 5.8 2.744-.871-6.354 1.26-.922 5.455 7.444-1.189.867z"/><path fill="#fff" d="M90.359 86.398c-.703-.558-1.092-1.179-.973-2.146.086-.676.43-1.863-.416-2.532-.664-.524-1.457-.274-1.91.298-.509.643-.438 1.477-.185 2.074l-1.088.352c-.546-1.028-.349-2.264.37-3.172.807-1.021 2.246-1.604 3.634-.508.948.75 1.002 1.604.81 2.562-.146.729-.306 1.516.49 2.145l-.732.927zm2.27 1.762l-1.285-1.016.742-.938 1.285 1.017-.742.937z"/><g fill="#DB9227"><path d="M24.988 57.539c2.018 0 3.569 1.008 4.274 2.481l-1.697 1.168c-.528-1.28-1.681-1.696-2.641-1.696-2.097 0-3.153 1.969-3.153 3.777 0 2.017 1.312 3.84 3.201 3.84.977 0 2.145-.495 2.657-1.729l1.809 1.041c-.688 1.697-2.753 2.642-4.53 2.642-3.153 0-5.362-2.979-5.362-5.857-.001-2.77 2-5.667 5.442-5.667zM30.714 68.967v-11.364h2.209v9.428h5.794v1.937l-8.003-.001zM39.914 68.967v-11.348h2.209v11.349l-2.209-.001zM49.036 57.539c2.018 0 3.569 1.008 4.274 2.481l-1.697 1.168c-.528-1.28-1.681-1.696-2.641-1.696-2.097 0-3.153 1.969-3.153 3.777 0 2.017 1.312 3.84 3.201 3.84.977 0 2.145-.495 2.657-1.729l1.809 1.041c-.688 1.697-2.753 2.642-4.53 2.642-3.153 0-5.361-2.979-5.361-5.857-.001-2.77 1.999-5.667 5.441-5.667zM54.762 68.967v-11.348h2.209v5.538l4.914-5.554h2.289l-4.354 5.042 4.625 6.323h-2.336l-3.617-5.073-1.521 1.648v3.425l-2.209-.001zM78.366 57.603v11.365h-2.192v-4.85h-5.154v4.85h-2.209v-11.365h2.209v4.594h5.153v-4.594h2.193zM88.38 67.03v1.937h-7.89v-11.364h7.746v1.937h-5.537v2.737h4.785v1.793h-4.785v2.961l5.681-.001zM89.93 68.967v-11.364h5.025c2.097 0 3.617 1.921 3.617 3.778 0 1.457-.801 2.785-2.049 3.312l2.672 4.273h-2.495l-2.386-3.81h-2.176v3.81h-2.208v.001zm2.209-5.746h2.77c.814 0 1.439-.816 1.439-1.841 0-1.057-.752-1.841-1.537-1.841h-2.672v3.682zM108.38 67.03v1.937h-7.892v-11.364h7.748v1.937h-5.538v2.737h4.786v1.793h-4.786v2.961l5.682-.001z"/></g><g fill="#F6F7F7"><path d="M23.996 56.546c2.018 0 3.569 1.008 4.274 2.481l-1.697 1.168c-.528-1.28-1.681-1.696-2.641-1.696-2.097 0-3.153 1.969-3.153 3.777 0 2.017 1.312 3.841 3.201 3.841.977 0 2.145-.496 2.657-1.729l1.809 1.041c-.688 1.695-2.753 2.641-4.53 2.641-3.153 0-5.362-2.979-5.362-5.858-.001-2.768 2-5.666 5.442-5.666zM29.722 67.975v-11.365h2.209v9.428h5.794v1.937h-8.003zM38.921 67.975v-11.349h2.209v11.349h-2.209zM48.043 56.546c2.018 0 3.569 1.008 4.274 2.481l-1.697 1.168c-.528-1.28-1.681-1.696-2.641-1.696-2.097 0-3.153 1.969-3.153 3.777 0 2.017 1.312 3.841 3.201 3.841.977 0 2.145-.496 2.657-1.729l1.809 1.041c-.688 1.695-2.753 2.641-4.53 2.641-3.153 0-5.361-2.979-5.361-5.858 0-2.768 2-5.666 5.441-5.666zM53.77 67.975v-11.349h2.209v5.538l4.914-5.554h2.289l-4.354 5.042 4.626 6.323h-2.337l-3.617-5.074-1.521 1.649v3.425h-2.209zM77.374 56.61v11.365h-2.192v-4.85h-5.154v4.85h-2.209v-11.365h2.209v4.594h5.154v-4.594h2.192zM87.389 66.038v1.937h-7.892v-11.365h7.747v1.937h-5.538v2.737h4.786v1.793h-4.786v2.961h5.683zM88.938 67.975v-11.365h5.025c2.098 0 3.617 1.921 3.617 3.778 0 1.457-.801 2.785-2.049 3.313l2.673 4.273h-2.497l-2.385-3.811h-2.178v3.811h-2.206v.001zm2.208-5.746h2.769c.815 0 1.44-.816 1.44-1.841 0-1.057-.752-1.841-1.537-1.841h-2.672v3.682zM107.389 66.038v1.937h-7.892v-11.365h7.747v1.937h-5.538v2.737h4.786v1.793h-4.786v2.961h5.683z"/></g></svg>