<?xml version="1.0" encoding="utf-8"?>
<!-- Generator: Adobe Illustrator 17.1.0, SVG Export Plug-In . SVG Version: 6.00 Build 0)  -->
<!DOCTYPE svg PUBLIC "-//W3C//DTD SVG 1.1//EN" "http://www.w3.org/Graphics/SVG/1.1/DTD/svg11.dtd">
<svg version="1.1" id="Layer_1" xmlns="http://www.w3.org/2000/svg" xmlns:xlink="http://www.w3.org/1999/xlink" x="0px" y="0px"
	 viewBox="0 0 133.1 135.2" enable-background="new 0 0 133.1 135.2" xml:space="preserve">
<g>
	<g>
		<path fill="#A5702A" d="M129,45.9c12.5,34.9-5.1,73.1-39.4,85.4c-34.2,12.3-72.2-5.9-84.7-40.7C-7.6,55.8,10,17.6,44.3,5.2
			C78.5-7.1,116.5,11.1,129,45.9z"/>
	</g>
	<g>
		<path fill="#FBBD17" d="M126.1,39c14.9,33.2,0,72.2-33.2,87.1c-33.2,14.9-72.3,0-87.1-33.2C-9.1,59.7,5.8,20.7,39,5.8
			C72.2-9.1,111.2,5.7,126.1,39z"/>
	</g>
	<path fill="#A5702A" d="M116.2,41.1c12.4,27.6-0.5,60.1-28.8,72.8c-28.2,12.6-61.1,0.6-73.4-26.9c-12.3-27.5,0.6-60,28.8-72.7
		C71,1.6,103.9,13.7,116.2,41.1z"/>
	<path fill="#FBF4A1" d="M117.9,44.9c12.4,27.7-0.5,60.4-28.7,73c-28.2,12.6-61.2,0.4-73.5-27.2c-12.4-27.6,0.4-60.3,28.6-73
		C72.6,5.1,105.5,17.3,117.9,44.9z"/>
	<path fill="#EFAB1F" d="M116.9,42.8c12.5,27.8-0.3,60.6-28.5,73.2c-28.2,12.7-61.2,0.4-73.6-27.4C2.3,60.8,15.1,28.1,43.3,15.4
		C71.5,2.8,104.5,15.1,116.9,42.8z"/>
	<path fill="#A5702A" d="M110.3,48.4c10.6,23.9-0.2,51.9-24.2,62.7c-24,10.7-52.2,0.1-62.8-23.7c-10.7-23.9,0.1-51.9,24.1-62.7
		C71.4,13.9,99.7,24.5,110.3,48.4z"/>
	<path fill="#FDE573" d="M109.5,46.5c10.7,24,0,52.3-24,63c-24,10.8-52.3,0-63.1-24c-10.7-24.1,0-52.2,24.1-63
		C70.5,11.7,98.7,22.4,109.5,46.5z"/>
	<path opacity="0.8" fill="#FBBD17" d="M32.6,99.5c-6.5-6-11.4-14-13.6-23.2C12.7,50.9,28.4,25,53.9,18.7c22.3-5.5,45,5.7,54.5,25.6
		C71.7,19.2,18.3,46.3,32.6,99.5z"/>
	<path fill="#FBF4A1" d="M111.6,58.4c2.3,24.3-13.7,48.2-41.5,52.1c-7.4,1-14.8,0-21.2-2.1C78.9,107.7,104,90.2,111.6,58.4z"/>
	<polygon fill="#EFAB1F" points="74.8,68.7 72.7,65.8 91.5,38 76.3,38 60.2,63.1 60.2,38 45.7,38 45.7,66.8 45.7,93.7 60.3,93.7 
		60.3,69.6 75.8,93.7 92.7,93.7 	"/>
	<path fill="#FBF4A1" d="M92.7,94.3H75.8L75.3,94L60.8,71.5v22.2l-0.6,0.6H45.7l-0.5-0.6V38l0.5-0.5h14.5l0.6,0.5v23.2l15.1-23.5
		l0.4-0.3h15.2l0.4,0.9L73.4,65.7l1.9,2.7l17.8,25L92.7,94.3z M76.1,93.2h15.5L72,65.7l0.2-0.3l18.1-26.9H76.6L60.8,63.1h-1.2V38.6
		H46.3v54.6h13.4V69.6l1.3,0L76.1,93.2z"/>
	<polygon fill="#A5702A" points="59.6,38.6 60.5,37.8 60.2,37.4 45.7,37.4 45.2,38 45.2,93.7 46.3,53.5 46.3,38.6 	"/>
	<polygon fill="#E6A125" points="76,37.4 75.9,37.6 76.3,37.4 	"/>
	<polygon fill="#E6A125" points="92.7,37.4 91.5,37.4 91.7,37.9 	"/>
	<polygon fill="#A5702A" points="91.5,37.4 76.3,37.4 75.9,37.6 59.6,63 59.6,63.1 60.8,63.1 76.6,38.6 90.4,38.6 91.7,37.9 	"/>
	<path opacity="0.55" fill="#FBF4A1" d="M131.2,55.9c-1.5-9.5-4.9-18.1-9.9-25.7c4.3,7.1,8.3,14.9,8.7,23.7
		c1.8,36.8-19,66.2-55,71.8c-28,4.4-56.1-9.6-67.7-29.5c12.6,24.7,40,39.6,69,35C112.3,125.5,136.9,91.9,131.2,55.9z"/>
	<path fill="#D1962B" d="M45.2,17.7c10-13.6,35.3-8.1,56.4,5.2C85.8,10,63.3,6.4,43.3,15.4c-27.8,12.5-40.6,44.5-29.1,72
		C11.6,54.9,34.9,31.7,45.2,17.7z"/>
</g>
</svg>
