<?xml version="1.0" encoding="utf-8"?>
<!-- Generator: Adobe Illustrator 17.1.0, SVG Export Plug-In . SVG Version: 6.00 Build 0)  -->
<!DOCTYPE svg PUBLIC "-//W3C//DTD SVG 1.1//EN" "http://www.w3.org/Graphics/SVG/1.1/DTD/svg11.dtd">
<svg version="1.1" id="Layer_1" xmlns="http://www.w3.org/2000/svg" xmlns:xlink="http://www.w3.org/1999/xlink" x="0px" y="0px"
	 viewBox="0 0 350 280" enable-background="new 0 0 350 280" xml:space="preserve">
<g>
	<g>
		<g>
			<g>
				<g>
					<g>
						<path fill="#FAAC1F" d="M139.3,200.9c2.1-5.8,10-30,18.8-34.8c2.4-1.3,4.2-2.3,5.8-3c2.7-0.9,17.5-7.9,17.5-7.9
							c4.3-2.2,6.7-4.7,6.9-5c3.8-3.8,10.3-16.1,12.8-21.3c0.7-1.5,2.4-4.7,3.3-6.3c1-1.7,3.9-3.4,7.3-2.1c3,1.1,4.6,2.8,4.8,5.3
							c0.1,1.7-0.6,4.5-1.6,7.5c-2.8,7.8-13.7,28.2-12.5,45.9c0.6,8.1,2.6,15.1,3.7,20.4c0.6,3,3.8,13.2,4.2,14.6
							c5.9,20.9,15.1,55.3,15.2,55.6c1.5,3.6,1.9,8.5-4.2,10c-6.1,1.4-9.8-2.3-11.3-5.9c-0.4-1.1-12-33.6-15.3-40.2
							c-1.7-3.4-3.1-6.1-4.6-6.6c-0.4-0.1-1.5-0.3-2.1-0.1c-1.4,0.5-2.8,3-4.1,6.4c-2.4,6.5-15.4,36.6-16.9,40.5
							c-1.3,3.4-5,8-11.3,5.5c-4.9-2-5.8-5.2-4.2-10.2c0.2-0.6,13.5-38.4,17.2-56.4c0-0.2,0.8-6,0.9-6.7c0.9-12.7-2.4-23.9-4.7-23.2
							c-4.3,1.3-7.9,12.6-11.6,20.1c-0.6,1.2-2.4,5-2.4,5c-1,1.8-4.1,5.2-9.1,2.9C137.2,208.5,138.7,202.4,139.3,200.9z"/>
						<path fill="#FAAC1F" d="M175.5,152.8c-7.8,3.4-17.3-0.1-20.7-7.6c-3.2-7.2,0.5-15,8-17.6c7.2-2.5,15.7,0.5,19.2,7
							C185.8,141.3,183,149.5,175.5,152.8z"/>
					</g>
				</g>
			</g>
		</g>
		<g>
			<path fill="#FAAC1F" d="M225.8,156.7l-50-84.7L138.1,8.2l-0.5-0.9l0,0c0,0,0,0.1,0,0.1c0,0,0,0,0,0c0,0,0,0.1,0,0.1
				c0,0,0,0.1-0.1,0.2c0,0,0,0,0,0c-0.1,0.1-0.2,0.2-0.3,0.4c0,0,0,0,0,0c-0.1,0.1-0.1,0.1-0.2,0.2c0,0-0.1,0.1-0.1,0.1
				c-0.1,0-0.1,0.1-0.1,0.1c-0.1,0.1-0.2,0.2-0.4,0.3c0,0-0.1,0.1-0.2,0.1c0,0-0.1,0.1-0.1,0.1c0,0-0.1,0.1-0.1,0.1c0,0,0,0,0,0
				c-0.1,0-0.1,0.1-0.2,0.1c0,0,0,0,0,0c-0.1,0-0.1,0.1-0.2,0.1c0,0,0,0,0,0c-0.1,0-0.1,0.1-0.2,0.1c0,0,0,0,0,0
				c-0.1,0-0.1,0.1-0.2,0.1c0,0,0,0,0,0c-0.1,0-0.1,0.1-0.2,0.1c0,0,0,0,0,0c-0.1,0.1-0.3,0.1-0.4,0.2c0,0,0,0-0.1,0
				c-0.1,0-0.1,0.1-0.2,0.1c0,0,0,0,0,0c-0.1,0-0.1,0-0.2,0.1c0,0-0.1,0-0.1,0c0,0-0.1,0-0.1,0c0,0,0,0,0,0c-0.1,0-0.1,0-0.2,0
				c0,0,0,0-0.1,0c0,0-0.1,0-0.1,0c0,0,0,0,0,0c-0.1,0-0.2,0-0.2,0c-0.1,0-0.2-0.1-0.2-0.1l89,150.7
				C223,159.4,224.3,158,225.8,156.7z"/>
			<path fill="#FAAC1F" d="M138.1,8.2L175.7,72c11.5-33.6,41.2-36.2,51.4-72C204.4,14.6,162.1-4,138.1,8.2z"/>
		</g>
	</g>
	<g>
		<g>
			<g>
				<g>
					<g>
						<path fill="#3EBFBB" d="M261.9,200.9c2.1-5.8,10-30,18.8-34.8c2.4-1.3,4.2-2.3,5.8-3c2.7-0.9,17.5-7.9,17.5-7.9
							c4.3-2.2,6.7-4.7,6.9-5c3.8-3.8,10.3-16.1,12.8-21.3c0.7-1.5,2.4-4.7,3.3-6.3c1-1.7,3.9-3.4,7.3-2.1c3,1.1,4.6,2.8,4.8,5.3
							c0.1,1.7-0.6,4.5-1.6,7.5c-2.8,7.8-13.7,28.2-12.5,45.9c0.6,8.1,2.6,15.1,3.7,20.4c0.6,3,3.8,13.2,4.2,14.6
							c5.9,20.9,15.1,55.3,15.2,55.6c1.5,3.6,1.9,8.5-4.2,10c-6.1,1.4-9.8-2.3-11.3-5.9c-0.4-1.1-12-33.6-15.3-40.2
							c-1.7-3.4-3.1-6.1-4.6-6.6c-0.4-0.1-1.5-0.3-2.1-0.1c-1.4,0.5-2.8,3-4.1,6.4c-2.4,6.5-15.4,36.6-16.9,40.5
							c-1.3,3.4-5,8-11.3,5.5c-4.9-2-5.8-5.2-4.2-10.2c0.2-0.6,13.5-38.4,17.2-56.4c0-0.2,0.8-6,0.9-6.7c0.9-12.7-2.4-23.9-4.7-23.2
							c-4.3,1.3-7.9,12.6-11.6,20.1c-0.6,1.2-2.4,5-2.4,5c-1,1.8-4.1,5.2-9.1,2.9C259.8,208.5,261.4,202.4,261.9,200.9z"/>
						<path fill="#3EBFBB" d="M298.2,152.8c-7.8,3.4-17.3-0.1-20.7-7.6c-3.2-7.2,0.5-15,8-17.6c7.2-2.5,15.7,0.5,19.2,7
							C308.4,141.3,305.7,149.5,298.2,152.8z"/>
					</g>
				</g>
			</g>
		</g>
		<g>
			<path fill="#3EBFBB" d="M348.4,156.7l-50-84.7L260.7,8.2l-0.5-0.9l0,0c0,0,0,0.1,0,0.1c0,0,0,0,0,0c0,0,0,0.1,0,0.1
				c0,0,0,0.1-0.1,0.2c0,0,0,0,0,0c-0.1,0.1-0.2,0.2-0.3,0.4c0,0,0,0,0,0c-0.1,0.1-0.1,0.1-0.2,0.2c0,0-0.1,0.1-0.1,0.1
				c-0.1,0-0.1,0.1-0.1,0.1c-0.1,0.1-0.2,0.2-0.4,0.3c0,0-0.1,0.1-0.2,0.1c0,0-0.1,0.1-0.1,0.1c0,0-0.1,0.1-0.1,0.1c0,0,0,0,0,0
				c-0.1,0-0.1,0.1-0.2,0.1c0,0,0,0,0,0c-0.1,0-0.1,0.1-0.2,0.1c0,0,0,0,0,0c-0.1,0-0.1,0.1-0.2,0.1c0,0,0,0,0,0
				c-0.1,0-0.1,0.1-0.2,0.1c0,0,0,0,0,0c-0.1,0-0.1,0.1-0.2,0.1c0,0,0,0,0,0c-0.1,0.1-0.3,0.1-0.4,0.2c0,0,0,0-0.1,0
				c-0.1,0-0.1,0.1-0.2,0.1c0,0,0,0,0,0c-0.1,0-0.1,0-0.2,0.1c0,0-0.1,0-0.1,0c0,0-0.1,0-0.1,0c0,0,0,0,0,0c-0.1,0-0.1,0-0.2,0
				c0,0,0,0-0.1,0c0,0-0.1,0-0.1,0c0,0,0,0,0,0c-0.1,0-0.2,0-0.2,0c-0.1,0-0.2-0.1-0.2-0.1l89,150.7
				C345.6,159.4,347,158,348.4,156.7z"/>
			<path fill="#3EBFBB" d="M260.7,8.2L298.4,72c11.5-33.6,41.2-36.2,51.4-72C327.1,14.6,284.8-4,260.7,8.2z"/>
		</g>
	</g>
	<g>
		<path fill="#FFFFFF" d="M55.5,25.3c-0.3-1.3-5.7-1.1-12,0.4c-6.3,1.6-11.1,3.9-10.8,5.2l2.2,8.7l0.3-0.1c0.9-1.4,5.2-3.3,10.6-4.6
			c5.4-1.4,10.2-1.7,11.6-0.9l0.3-0.1L55.5,25.3z"/>
		<path fill="#FFFFFF" d="M61.5,20.9l-20.2-4.5L25.5,29.8l2.4,0.8l1.7,6.7c0,0,0.3,0.2,0.9,0.8c-1.1,1.7-0.5,4.2-0.3,4.3
			c0.2,0,2.5-0.6,2.5-0.6s-1-2.7-1.8-3.5c0.1-0.5,0.1-1.2,0.1-1.2l-1.8-6l2.9,1l-0.2-0.9c-0.8-3.2,7.8-5.7,11.6-6.7
			c3.7-0.9,12.5-2.7,13.3,0.5l0.2,0.7L61.5,20.9z"/>
	</g>
	<g>
		<g>
			<path fill="#FFFFFF" d="M182,38.4c-0.2-0.9-0.5-1.8-0.7-2.7c4.8-7.1,11.9-13.2,7.6-24.3c-2.3,0.6-4.7,1.3-7,1.9
				c0,0.6,0.8,1.6,0.2,1.9c-2.7,0.7-5.3,1.4-8,2.1c-2.7,0.7-5.3,1.4-8,2.1c-0.7,0-0.5-1.3-0.8-1.8c-2.3,0.6-4.7,1.3-7,1.9
				c1.9,11.8,11.1,13.5,18.8,17.2c0.2,0.9,0.5,1.8,0.7,2.7c-1.1,1.8-4.7,2.5-5.4,4.4c2.8-0.7,5.5-1.5,8.3-2.2
				c2.8-0.7,5.5-1.5,8.3-2.2C187.3,38.1,183.8,39.4,182,38.4z M182.5,31.4c2.6-4.6,3.1-10.1,0.5-17c1.6-0.4,3.2-0.9,4.8-1.3
				c1.6,7.7-0.9,13.5-5.3,18.5C182.3,32,182.5,31.6,182.5,31.4z M174,33.9c-6.3-2.2-11.4-6-13.9-13.4c1.6-0.4,3.2-0.9,4.8-1.3
				c1.2,7.3,4.5,11.8,9,14.5C174.1,33.9,174.4,34.1,174,33.9z"/>
		</g>
	</g>
	<polygon fill="#FFFFFF" points="304.9,27.2 303.4,26.3 306.1,10.9 299.7,13.8 297.6,27.5 292.9,16.8 286.8,19.5 292.2,31.8 
		297.3,43.3 303.5,40.6 298.9,30.3 310,37.7 317.1,34.6 	"/>
	<g>
		<path fill="#214764" d="M93.3,156.7L43.3,72L5.6,8.2L5.1,7.3l0,0c0,0,0,0.1,0,0.1c0,0,0,0,0,0c0,0,0,0.1,0,0.1c0,0,0,0.1-0.1,0.2
			c0,0,0,0,0,0C5,7.9,4.8,8,4.7,8.1c0,0,0,0,0,0C4.6,8.2,4.5,8.3,4.5,8.3c0,0-0.1,0.1-0.1,0.1c-0.1,0-0.1,0.1-0.1,0.1
			C4.1,8.7,4,8.8,3.8,8.9c0,0-0.1,0.1-0.2,0.1c0,0-0.1,0.1-0.1,0.1c0,0-0.1,0.1-0.1,0.1c0,0,0,0,0,0c-0.1,0-0.1,0.1-0.2,0.1
			c0,0,0,0,0,0C3,9.4,3,9.4,2.9,9.5c0,0,0,0,0,0c-0.1,0-0.1,0.1-0.2,0.1c0,0,0,0,0,0c-0.1,0-0.1,0.1-0.2,0.1c0,0,0,0,0,0
			c-0.1,0-0.1,0.1-0.2,0.1c0,0,0,0,0,0C2,9.9,1.9,10,1.8,10c0,0,0,0-0.1,0c-0.1,0-0.1,0.1-0.2,0.1c0,0,0,0,0,0c-0.1,0-0.1,0-0.2,0.1
			c0,0-0.1,0-0.1,0c0,0-0.1,0-0.1,0c0,0,0,0,0,0c-0.1,0-0.1,0-0.2,0c0,0,0,0-0.1,0c0,0-0.1,0-0.1,0c0,0,0,0,0,0c-0.1,0-0.2,0-0.2,0
			c-0.1,0-0.2-0.1-0.2-0.1l89,150.7C90.5,159.4,91.9,158,93.3,156.7z"/>
		<path fill="#214764" d="M5.6,8.2L43.3,72C54.8,38.4,84.5,35.8,94.6,0C72,14.6,29.7-4,5.6,8.2z"/>
	</g>
	<g>
		<g>
			<g>
				<g>
					<path fill="#214764" d="M6.8,200.9c2.1-5.8,10-30,18.8-34.8c2.4-1.3,4.2-2.3,5.8-3c2.7-0.9,17.5-7.9,17.5-7.9
						c4.3-2.2,6.7-4.7,6.9-5c3.8-3.8,10.3-16.1,12.8-21.3c0.7-1.5,2.4-4.7,3.3-6.3c1-1.7,3.9-3.4,7.3-2.1c3,1.1,4.6,2.8,4.8,5.3
						c0.1,1.7-0.6,4.5-1.6,7.5c-2.8,7.8-13.7,28.2-12.5,45.9c0.6,8.1,2.6,15.1,3.7,20.4c0.6,3,3.8,13.2,4.2,14.6
						c5.9,20.9,15.1,55.3,15.2,55.6c1.5,3.6,1.9,8.5-4.2,10c-6.1,1.4-9.8-2.3-11.3-5.9c-0.4-1.1-12-33.6-15.3-40.2
						c-1.7-3.4-3.1-6.1-4.6-6.6c-0.4-0.1-1.5-0.3-2.1-0.1c-1.4,0.5-2.8,3-4.1,6.4c-2.4,6.5-15.4,36.6-16.9,40.5
						c-1.3,3.4-5,8-11.3,5.5c-4.9-2-5.8-5.2-4.2-10.2c0.2-0.6,13.5-38.4,17.2-56.4c0-0.2,0.8-6,0.9-6.7c0.9-12.7-2.4-23.9-4.7-23.2
						c-4.3,1.3-7.9,12.6-11.6,20.1c-0.6,1.2-2.4,5-2.4,5c-1,1.8-4.1,5.2-9.1,2.9C4.7,208.5,6.3,202.4,6.8,200.9z"/>
					<path fill="#214764" d="M43.1,152.8c-7.8,3.4-17.3-0.1-20.7-7.6c-3.2-7.2,0.5-15,8-17.6c7.2-2.5,15.7,0.5,19.2,7
						C53.3,141.3,50.6,149.5,43.1,152.8z"/>
				</g>
			</g>
		</g>
	</g>
	<g>
		<path fill="#FFFFFF" d="M59.2,24.2c-0.6-1.6-7.2-0.3-14.6,2.7c-7.4,3.1-12.9,6.8-12.2,8.4l4.3,10.2l0.3-0.1
			c0.8-1.8,5.8-5,12.2-7.6c6.4-2.7,12.1-3.9,14-3.2l0.3-0.1L59.2,24.2z"/>
		<path fill="#FFFFFF" d="M65.6,17.8L40,16L23.3,35.4l3,0.5l3.3,7.9c0,0,0.5,0.2,1.3,0.8c-1,2.3,0.2,5.3,0.4,5.3
			c0.3,0,2.9-1.2,2.9-1.2s-1.7-3.1-2.8-4c0-0.6-0.1-1.5-0.1-1.5l-3.3-7l3.7,0.7l-0.4-1c-1.6-3.8,8.5-8.5,12.9-10.3
			c4.4-1.8,14.8-5.7,16.4-1.9l0.3,0.8L65.6,17.8z"/>
	</g>
</g>
</svg>
