<?xml version="1.0" encoding="utf-8"?>
<!-- Generator: Adobe Illustrator 16.0.0, SVG Export Plug-In . SVG Version: 6.00 Build 0)  -->
<!DOCTYPE svg PUBLIC "-//W3C//DTD SVG 1.1 Basic//EN" "http://www.w3.org/Graphics/SVG/1.1/DTD/svg11-basic.dtd">
<svg version="1.1" baseProfile="basic" id="Layer_1"
	 xmlns="http://www.w3.org/2000/svg" xmlns:xlink="http://www.w3.org/1999/xlink" x="0px" y="0px" width="126px" height="126px"
	 viewBox="0 0 126 126" xml:space="preserve">
<defs>
	<filter id="Adobe_OpacityMaskFilter" filterUnits="userSpaceOnUse" x="-21.646" y="-33.303" width="219.71" height="148.137">
		<feColorMatrix  type="matrix" values="1 0 0 0 0  0 1 0 0 0  0 0 1 0 0  0 0 0 1 0"/>
	</filter>
</defs>
<mask maskUnits="userSpaceOnUse" x="-21.646" y="-33.303" width="219.71" height="148.137" id="SVGID_1_">
	<g filter="url(#Adobe_OpacityMaskFilter)">
		<g>
			<g>
				<defs>
					<rect id="SVGID_2_" x="-21.646" y="-33.303" width="219.71" height="148.136"/>
				</defs>
				<clipPath id="SVGID_3_">
					<use xlink:href="#SVGID_2_"  overflow="visible"/>
				</clipPath>
				<rect x="-57.342" y="-67.909" clip-path="url(#SVGID_3_)" width="255.4" height="182.742"/>
			</g>
			<g>
				<g>
					<g>
						<defs>
							<rect id="SVGID_4_" x="-21.646" y="-33.303" width="219.71" height="148.136"/>
						</defs>
						<clipPath id="SVGID_5_">
							<use xlink:href="#SVGID_4_"  overflow="visible"/>
						</clipPath>
					</g>
					<g>
						<defs>
							<rect id="SVGID_6_" x="-21.646" y="-33.303" width="219.71" height="148.136"/>
						</defs>
						<defs>
							<rect id="SVGID_7_" x="-57.346" y="-67.909" width="255.411" height="182.742"/>
						</defs>
						<clipPath id="SVGID_9_">
							<use xlink:href="#SVGID_6_"  overflow="visible"/>
						</clipPath>
						<clipPath id="SVGID_10_" clip-path="url(#SVGID_9_)">
							<use xlink:href="#SVGID_7_"  overflow="visible"/>
						</clipPath>
						<polygon clip-path="url(#SVGID_10_)" fill="#FFFFFF" points="62.966,10.895 79.824,0.085 89.021,17.875 109.025,16.945 
							108.096,36.949 125.885,46.146 115.076,63.006 125.885,79.864 108.096,89.061 109.025,109.064 89.021,108.135 79.824,125.924 
							62.966,115.117 46.106,125.924 36.91,108.135 16.904,109.064 17.836,89.061 0.047,79.864 10.854,63.006 0.047,46.146 
							17.836,36.949 16.904,16.945 36.91,17.875 46.106,0.085 						"/>
					</g>
				</g>
			</g>
		</g>
	</g>
</mask>
<g opacity="0.25" mask="url(#SVGID_1_)">
	<g>
		<g>
			<defs>
				<rect id="SVGID_11_" x="-21.646" y="-33.303" width="219.71" height="148.136"/>
			</defs>
			<clipPath id="SVGID_12_">
				<use xlink:href="#SVGID_11_"  overflow="visible"/>
			</clipPath>
			<path clip-path="url(#SVGID_12_)" fill="#F6F7F7" d="M198.061,42.461c0,0-60.401-3.586-116.076,13.895
				c-55.676,17.479-94.188,58.478-94.188,58.478S-57.342,23.462,49.769-22.224C156.88-67.909,198.061,42.461,198.061,42.461"/>
		</g>
	</g>
</g>
<polygon fill="#F6AA1E" points="62.937,112.695 46.846,123.01 38.069,106.031 18.976,106.92 19.865,87.827 2.886,79.05 
	13.202,62.96 2.886,46.869 19.865,38.092 18.976,19 38.069,19.888 46.846,2.909 62.937,13.225 79.027,2.909 87.805,19.888 
	106.896,19 106.008,38.092 122.988,46.869 112.67,62.96 122.988,79.05 106.008,87.827 106.896,106.92 87.805,106.031 79.027,123.01 
	"/>
<path fill="#DB9227" d="M78.258,5.777l7.182,13.89l1.178,2.278l2.562-0.119l15.617-0.727l-0.727,15.619l-0.118,2.562l2.278,1.177
	l13.889,7.18L111.68,60.8l-1.384,2.159l1.384,2.159l8.438,13.163l-13.89,7.18l-2.277,1.178l0.119,2.562l0.726,15.619l-15.618-0.728
	l-2.562-0.118l-1.179,2.277l-7.181,13.891l-13.161-8.439l-2.16-1.385l-2.159,1.385l-13.163,8.439l-7.18-13.891l-1.179-2.277
	l-2.561,0.118l-15.619,0.728l0.727-15.619l0.118-2.562l-2.277-1.178l-13.89-7.18l8.438-13.163l1.384-2.159L14.193,60.8L5.754,47.638
	l13.89-7.18l2.277-1.177l-0.118-2.562L21.077,21.1l15.619,0.727l2.561,0.119l1.179-2.278l7.18-13.89l13.163,8.439l2.159,1.384
	l2.16-1.384L78.258,5.777z M79.795,0.041L62.937,10.849L46.078,0.041l-9.197,17.79L16.877,16.9l0.931,20.005l-17.79,9.196
	L10.826,62.96L0.018,79.818l17.789,9.197l-0.931,20.004l20.004-0.931l9.197,17.789l16.859-10.808l16.858,10.808l9.197-17.789
	l20.004,0.931l-0.931-20.004l17.789-9.197l-10.809-16.859L125.854,46.1l-17.789-9.196l0.931-20.005L88.991,17.83L79.795,0.041z"/>
<defs>
	<filter id="Adobe_OpacityMaskFilter_1_" filterUnits="userSpaceOnUse" x="-21.675" y="-33.349" width="219.711" height="148.137">
		<feColorMatrix  type="matrix" values="1 0 0 0 0  0 1 0 0 0  0 0 1 0 0  0 0 0 1 0"/>
	</filter>
</defs>
<mask maskUnits="userSpaceOnUse" x="-21.675" y="-33.349" width="219.711" height="148.137" id="SVGID_8_">
	<g filter="url(#Adobe_OpacityMaskFilter_1_)">
		<g>
			<g>
				<defs>
					<rect id="SVGID_13_" x="-21.674" y="-33.348" width="219.71" height="148.136"/>
				</defs>
				<clipPath id="SVGID_14_">
					<use xlink:href="#SVGID_13_"  overflow="visible"/>
				</clipPath>
				<rect x="-57.371" y="-67.955" clip-path="url(#SVGID_14_)" width="255.4" height="182.742"/>
			</g>
			<g>
				<g>
					<g>
						<defs>
							<rect id="SVGID_15_" x="-21.674" y="-33.348" width="219.71" height="148.136"/>
						</defs>
						<clipPath id="SVGID_16_">
							<use xlink:href="#SVGID_15_"  overflow="visible"/>
						</clipPath>
					</g>
					<g>
						<defs>
							<rect id="SVGID_17_" x="-21.674" y="-33.348" width="219.71" height="148.136"/>
						</defs>
						<defs>
							<rect id="SVGID_18_" x="-57.375" y="-67.955" width="255.41" height="182.742"/>
						</defs>
						<clipPath id="SVGID_19_">
							<use xlink:href="#SVGID_17_"  overflow="visible"/>
						</clipPath>
						<clipPath id="SVGID_20_" clip-path="url(#SVGID_19_)">
							<use xlink:href="#SVGID_18_"  overflow="visible"/>
						</clipPath>
						<polygon clip-path="url(#SVGID_20_)" fill="#FFFFFF" points="62.937,10.849 79.795,0.04 88.993,17.83 108.997,16.9 
							108.066,36.904 125.855,46.1 115.047,62.96 125.855,79.818 108.066,89.016 108.997,109.02 88.993,108.089 79.795,125.879 
							62.937,115.07 46.078,125.879 36.881,108.089 16.875,109.02 17.807,89.016 0.018,79.818 10.826,62.96 0.018,46.1 
							17.807,36.904 16.875,16.9 36.881,17.83 46.078,0.04 						"/>
					</g>
				</g>
			</g>
		</g>
	</g>
</mask>
<g opacity="0.25" mask="url(#SVGID_8_)">
	<g>
		<g>
			<defs>
				<rect id="SVGID_21_" x="-21.674" y="-33.348" width="219.71" height="148.136"/>
			</defs>
			<clipPath id="SVGID_22_">
				<use xlink:href="#SVGID_21_"  overflow="visible"/>
			</clipPath>
			<path clip-path="url(#SVGID_22_)" fill="#F6F7F7" d="M198.032,42.416c0,0-60.402-3.586-116.077,13.894
				c-55.676,17.48-94.188,58.478-94.188,58.478S-57.371,23.417,49.74-22.27C156.852-67.955,198.032,42.416,198.032,42.416"/>
		</g>
	</g>
</g>
<g opacity="0.9">
	<g>
		<g>
			<defs>
				<rect id="SVGID_23_" x="26.016" y="19.28" width="73.839" height="76.247"/>
			</defs>
			<clipPath id="SVGID_24_">
				<use xlink:href="#SVGID_23_"  overflow="visible"/>
			</clipPath>
			<g clip-path="url(#SVGID_24_)">
				<path fill="#C3802A" d="M35.752,44.806l-7.206-5.769l0.91-1.137l6.201,4.964l3.096-3.867l1.004,0.804L35.752,44.806z"/>
			</g>
		</g>
		<g>
			<defs>
				<rect id="SVGID_25_" x="26.016" y="19.28" width="73.839" height="76.247"/>
			</defs>
			<clipPath id="SVGID_26_">
				<use xlink:href="#SVGID_25_"  overflow="visible"/>
			</clipPath>
			<g clip-path="url(#SVGID_26_)">
				<path fill="#C3802A" d="M37.774,37.035c-1.177-1.473-1.113-3.62,0.533-4.935c1.654-1.323,3.754-0.904,4.932,0.569
					c1.176,1.473,1.122,3.612-0.533,4.935C41.04,38.935,38.952,38.508,37.774,37.035z M41.943,36.65
					c0.884-0.706,0.96-2.049,0.147-3.064c-0.812-1.016-2.138-1.237-3.021-0.531c-0.873,0.698-0.951,2.059-0.139,3.074
					C39.75,37.154,41.059,37.356,41.943,36.65z"/>
			</g>
		</g>
		<g>
			<defs>
				<rect id="SVGID_27_" x="26.016" y="19.28" width="73.839" height="76.247"/>
			</defs>
			<clipPath id="SVGID_28_">
				<use xlink:href="#SVGID_27_"  overflow="visible"/>
			</clipPath>
			<g clip-path="url(#SVGID_28_)">
				<path fill="#C3802A" d="M44.177,32.076c-0.819-1.698-0.279-3.777,1.618-4.693c1.908-0.921,3.861-0.045,4.681,1.652
					c0.819,1.698,0.29,3.772-1.618,4.693C46.938,34.655,44.997,33.774,44.177,32.076z M48.327,32.628
					c1.02-0.491,1.392-1.784,0.826-2.954c-0.564-1.171-1.809-1.682-2.827-1.19c-1.007,0.486-1.386,1.795-0.82,2.966
					C46.077,32.632,47.309,33.12,48.327,32.628z"/>
			</g>
		</g>
		<g>
			<defs>
				<rect id="SVGID_29_" x="26.016" y="19.28" width="73.839" height="76.247"/>
			</defs>
			<clipPath id="SVGID_30_">
				<use xlink:href="#SVGID_29_"  overflow="visible"/>
			</clipPath>
			<g clip-path="url(#SVGID_30_)">
				<path fill="#C3802A" d="M57.321,30.811l-2.838-2.544l-0.854,1.3l0.479,2.01l-1.391,0.332l-2.199-9.232l1.391-0.332l1.395,5.855
					l2.28-3.951l1.505-0.358l-1.895,3.378l3.619,3.187L57.321,30.811z"/>
			</g>
		</g>
		<g>
			<defs>
				<rect id="SVGID_31_" x="26.016" y="19.28" width="73.839" height="76.247"/>
			</defs>
			<clipPath id="SVGID_32_">
				<use xlink:href="#SVGID_31_"  overflow="visible"/>
			</clipPath>
			<g clip-path="url(#SVGID_32_)">
				<path fill="#C3802A" d="M58.665,22.693l-0.137-1.567l1.424-0.125l0.137,1.567L58.665,22.693z M59.352,30.58l-0.591-6.773
					l1.424-0.125l0.591,6.773L59.352,30.58z"/>
			</g>
		</g>
		<g>
			<defs>
				<rect id="SVGID_33_" x="26.016" y="19.28" width="73.839" height="76.247"/>
			</defs>
			<clipPath id="SVGID_34_">
				<use xlink:href="#SVGID_33_"  overflow="visible"/>
			</clipPath>
			<g clip-path="url(#SVGID_34_)">
				<path fill="#C3802A" d="M68.208,30.669l-1.427-0.095l0.253-3.801c0.085-1.271-0.308-1.858-1.085-1.91
					c-0.83-0.055-1.782,0.559-2.143,1.46l-0.27,4.034l-1.427-0.095l0.451-6.784l1.296,0.087l-0.09,1.361
					c0.58-0.874,1.668-1.374,2.861-1.295c1.635,0.108,1.952,1.407,1.854,2.899L68.208,30.669z"/>
			</g>
		</g>
		<g>
			<defs>
				<rect id="SVGID_35_" x="26.016" y="19.28" width="73.839" height="76.247"/>
			</defs>
			<clipPath id="SVGID_36_">
				<use xlink:href="#SVGID_35_"  overflow="visible"/>
			</clipPath>
			<g clip-path="url(#SVGID_36_)">
				<path fill="#C3802A" d="M69.943,27.495c0.563-1.854,2.257-2.997,4.035-2.456c1.059,0.322,1.674,1.107,1.941,2.059l0.375-1.23
					l1.207,0.367l-1.923,6.318c-0.571,1.877-2.394,2.506-4.358,1.907c-1.443-0.438-2.18-1.233-2.574-2.305l0.992-0.486
					c0.284,0.848,1.018,1.479,1.9,1.747c1.132,0.344,2.271,0.038,2.671-1.28l0.304-0.994c-0.697,0.644-1.722,0.835-2.617,0.562
					C70.143,31.169,69.409,29.248,69.943,27.495z M74.865,29.984l0.519-1.704c-0.073-0.919-0.679-1.742-1.462-1.98
					c-1.182-0.359-2.27,0.532-2.609,1.652c-0.359,1.181,0.226,2.433,1.369,2.78C73.502,30.982,74.458,30.607,74.865,29.984z"/>
			</g>
		</g>
		<g>
			<defs>
				<rect id="SVGID_37_" x="26.016" y="19.28" width="73.839" height="76.247"/>
			</defs>
			<clipPath id="SVGID_38_">
				<use xlink:href="#SVGID_37_"  overflow="visible"/>
			</clipPath>
			<g clip-path="url(#SVGID_38_)">
				<path fill="#C3802A" d="M79.665,34.989l2.664-4.114l-0.765-0.495l0.602-0.927l0.764,0.494l0.487-0.753
					c0.903-1.397,2.187-1.821,3.3-1.101c0.458,0.297,0.842,0.73,1.094,1.203l-0.84,0.727c-0.123-0.266-0.388-0.576-0.66-0.752
					c-0.567-0.367-1.156-0.129-1.67,0.668l-0.509,0.785l1.451,0.939l-0.601,0.928l-1.451-0.939l-2.664,4.114L79.665,34.989z"/>
			</g>
		</g>
		<g>
			<defs>
				<rect id="SVGID_39_" x="26.016" y="19.28" width="73.839" height="76.247"/>
			</defs>
			<clipPath id="SVGID_40_">
				<use xlink:href="#SVGID_39_"  overflow="visible"/>
			</clipPath>
			<g clip-path="url(#SVGID_40_)">
				<path fill="#C3802A" d="M85.029,34.371c1.293-1.373,3.428-1.614,4.962-0.171c1.543,1.452,1.425,3.589,0.133,4.963
					c-1.291,1.372-3.417,1.622-4.96,0.17C83.609,37.873,83.738,35.744,85.029,34.371z M86.001,38.443
					c0.824,0.774,2.163,0.66,3.054-0.287c0.891-0.947,0.922-2.291,0.1-3.065c-0.814-0.767-2.172-0.651-3.063,0.296
					C85.191,36.343,85.177,37.667,86.001,38.443z"/>
			</g>
		</g>
		<g>
			<defs>
				<rect id="SVGID_41_" x="26.016" y="19.28" width="73.839" height="76.247"/>
			</defs>
			<clipPath id="SVGID_42_">
				<use xlink:href="#SVGID_41_"  overflow="visible"/>
			</clipPath>
			<g clip-path="url(#SVGID_42_)">
				<path fill="#C3802A" d="M94.98,42.162c-0.678-0.874-1.625-1.307-2.549-1.094l-3.351,2.467l-0.849-1.151l5.477-4.031l0.787,1.067
					l-1.225,0.902c1.039-0.168,2.039,0.096,2.541,0.776c0.1,0.136,0.162,0.22,0.205,0.301L94.98,42.162z"/>
			</g>
		</g>
	</g>
</g>
<g>
	<path fill="#C3802A" d="M31.133,85.626l7.034-5.957l0.941,1.111l-3.671,3.108l6.521,0.236l1.008,1.189l-5.467-0.14l-1.443,6.263
		l-1.017-1.199l1.262-5.19l-2.084-0.127l-2.143,1.815L31.133,85.626z"/>
</g>
<g>
	<path fill="#C3802A" d="M38.67,90.979c0.746-1.033,2.214-1.047,3.585-0.059c0.516,0.373,0.986,0.854,1.272,1.303l0.274-0.381
		c0.586-0.812,0.451-1.646-0.414-2.27c-0.58-0.418-1.309-0.607-2.207-0.631l0.174-0.996c1.049,0.035,1.951,0.316,2.731,0.881
		c1.508,1.088,1.818,2.545,0.784,3.979l-1.438,1.993c-0.19,0.263-0.181,0.431,0.054,0.615l-0.715,0.989
		c-0.252-0.116-0.46-0.25-0.607-0.356c-0.42-0.353-0.492-0.739-0.293-1.126l0.219-0.37c-0.96,0.285-1.978,0.097-2.8-0.498
		C38.223,93.286,37.963,91.959,38.67,90.979z M42.02,93.844c0.221-0.018,0.419-0.113,0.511-0.24l0.525-0.729
		c-0.284-0.43-0.679-0.857-1.101-1.162c-0.822-0.593-1.702-0.619-2.12-0.039c-0.396,0.549-0.236,1.305,0.386,1.754
		C40.779,93.832,41.487,94.005,42.02,93.844z"/>
</g>
<g>
	<path fill="#C3802A" d="M47.112,97.175l-1.521,3.746l-1.325-0.537l3.599-8.866l1.168,0.476l-0.459,1.132
		c0.786-0.551,1.793-0.717,2.745-0.331c1.711,0.694,2.352,2.709,1.643,4.455c-0.739,1.819-2.487,2.808-4.125,2.144
		C47.825,98.98,47.256,98.132,47.112,97.175z M51.612,96.701c0.474-1.168,0.005-2.467-1.104-2.917
		c-0.686-0.278-1.762-0.084-2.238,0.536l-0.669,1.65c0.013,0.902,0.492,1.799,1.274,2.116
		C49.983,98.538,51.167,97.797,51.612,96.701z"/>
</g>
<g>
	<path fill="#C3802A" d="M54.121,100.883l1.41-6.65l1.398,0.295l-1.41,6.652L54.121,100.883z M55.763,93.139l0.326-1.539
		l1.398,0.297l-0.326,1.537L55.763,93.139z"/>
</g>
<g>
	<path fill="#C3802A" d="M61.869,101.58c-0.389,0.136-1.088,0.363-1.827,0.3c-0.881-0.075-1.593-0.593-1.5-1.681l0.363-4.236
		l-0.907-0.077l0.094-1.101l0.907,0.076l0.191-2.228l1.425,0.122l-0.191,2.229l1.477,0.127l-0.094,1.101l-1.477-0.127l-0.324,3.783
		c-0.041,0.479,0.264,0.714,0.654,0.747c0.4,0.033,0.818-0.112,0.994-0.188L61.869,101.58z"/>
</g>
<g>
	<path fill="#C3802A" d="M63.35,100.021c-0.127-1.268,0.962-2.252,2.646-2.42c0.633-0.062,1.305-0.013,1.816,0.133l-0.047-0.467
		c-0.101-0.996-0.754-1.531-1.815-1.426c-0.712,0.071-1.384,0.413-2.069,0.991l-0.531-0.862c0.81-0.668,1.671-1.056,2.628-1.15
		c1.852-0.186,3.049,0.701,3.226,2.461l0.245,2.445c0.031,0.322,0.148,0.442,0.447,0.424l0.121,1.217
		c-0.267,0.078-0.511,0.115-0.691,0.134c-0.547,0.017-0.858-0.228-0.967-0.647l-0.08-0.424c-0.529,0.851-1.418,1.383-2.426,1.483
		C64.545,102.045,63.47,101.225,63.35,100.021z M67.758,99.947c0.153-0.159,0.238-0.364,0.225-0.52l-0.09-0.893
		c-0.498-0.133-1.078-0.192-1.596-0.141c-1.009,0.101-1.686,0.664-1.613,1.375c0.066,0.674,0.688,1.133,1.451,1.058
		C66.82,100.76,67.466,100.421,67.758,99.947z"/>
</g>
<g>
	<path fill="#C3802A" d="M69.904,91.582l1.378-0.389l2.034,7.205c0.138,0.488,0.48,0.703,0.933,0.576
		c0.188-0.054,0.444-0.194,0.629-0.354l0.515,1.057c-0.352,0.288-0.929,0.587-1.367,0.71c-0.938,0.266-1.668-0.123-1.934-1.062
		L69.904,91.582z"/>
</g>
<g>
	<path fill="#C3802A" d="M73.34,90.521l1.318-0.557l2.906,6.901c0.197,0.467,0.563,0.637,0.996,0.454
		c0.18-0.075,0.418-0.246,0.582-0.428l0.641,0.986c-0.312,0.329-0.85,0.696-1.27,0.873c-0.897,0.378-1.672,0.083-2.051-0.814
		L73.34,90.521z"/>
</g>
<g>
	<path fill="#C3802A" d="M88.455,92.514l-3.928-5.358l0.762,5.679l-0.65,0.477l-5.195-2.429l3.927,5.358l-1.177,0.861l-5.455-7.445
		l1.26-0.922l5.8,2.744l-0.871-6.355l1.259-0.922l5.455,7.445L88.455,92.514z"/>
</g>
<g>
	<path fill="#C3802A" d="M90.359,86.398c-0.703-0.557-1.092-1.178-0.973-2.146c0.086-0.676,0.43-1.864-0.416-2.532
		c-0.664-0.525-1.457-0.275-1.91,0.297c-0.508,0.643-0.438,1.477-0.184,2.075l-1.088,0.351c-0.546-1.028-0.348-2.264,0.37-3.172
		c0.807-1.02,2.247-1.604,3.634-0.508c0.948,0.75,1.002,1.604,0.809,2.562c-0.146,0.729-0.305,1.516,0.491,2.145L90.359,86.398z
		 M92.629,88.16l-1.285-1.016l0.742-0.938l1.285,1.017L92.629,88.16z"/>
</g>
<g>
	<path fill="#DB9227" d="M24.988,57.539c2.018,0,3.569,1.008,4.274,2.481l-1.697,1.168c-0.528-1.28-1.681-1.696-2.641-1.696
		c-2.097,0-3.153,1.969-3.153,3.777c0,2.017,1.312,3.84,3.201,3.84c0.977,0,2.145-0.495,2.657-1.729l1.809,1.041
		c-0.688,1.697-2.753,2.641-4.53,2.641c-3.153,0-5.362-2.978-5.362-5.857C19.545,60.436,21.546,57.539,24.988,57.539z"/>
	<path fill="#DB9227" d="M30.714,68.967V57.603h2.209v9.428h5.794v1.937L30.714,68.967L30.714,68.967z"/>
	<path fill="#DB9227" d="M39.914,68.967V57.619h2.209v11.349L39.914,68.967L39.914,68.967z"/>
	<path fill="#DB9227" d="M49.036,57.539c2.018,0,3.569,1.008,4.274,2.481l-1.697,1.168c-0.528-1.28-1.681-1.696-2.641-1.696
		c-2.097,0-3.153,1.969-3.153,3.777c0,2.017,1.312,3.84,3.201,3.84c0.977,0,2.145-0.495,2.657-1.729l1.809,1.041
		c-0.688,1.697-2.753,2.641-4.53,2.641c-3.153,0-5.361-2.978-5.361-5.857C43.594,60.436,45.594,57.539,49.036,57.539z"/>
	<path fill="#DB9227" d="M54.762,68.967V57.619h2.209v5.538l4.914-5.554h2.289l-4.354,5.042l4.625,6.323h-2.336l-3.617-5.073
		l-1.521,1.648v3.425L54.762,68.967L54.762,68.967z"/>
	<path fill="#DB9227" d="M78.366,57.603v11.365h-2.192v-4.85H71.02v4.85h-2.209V57.603h2.209v4.594h5.153v-4.594H78.366z"/>
	<path fill="#DB9227" d="M88.38,67.03v1.937h-7.89V57.603h7.746v1.937h-5.537v2.737h4.785v1.793h-4.785v2.961L88.38,67.03
		L88.38,67.03z"/>
	<path fill="#DB9227" d="M89.93,68.967V57.603h5.025c2.097,0,3.617,1.921,3.617,3.778c0,1.457-0.801,2.785-2.049,3.312l2.672,4.274
		H96.7l-2.386-3.81h-2.176v3.81L89.93,68.967L89.93,68.967z M92.139,63.221h2.769c0.815,0,1.44-0.816,1.44-1.841
		c0-1.057-0.752-1.841-1.537-1.841h-2.672V63.221z"/>
	<path fill="#DB9227" d="M108.38,67.03v1.937h-7.892V57.603h7.748v1.937h-5.538v2.737h4.786v1.793h-4.786v2.961L108.38,67.03
		L108.38,67.03z"/>
</g>
<g>
	<path fill="#F6F7F7" d="M23.996,56.546c2.018,0,3.569,1.008,4.274,2.481l-1.697,1.168c-0.528-1.28-1.681-1.696-2.641-1.696
		c-2.097,0-3.153,1.969-3.153,3.777c0,2.017,1.312,3.841,3.201,3.841c0.977,0,2.145-0.496,2.657-1.729l1.809,1.041
		c-0.688,1.696-2.753,2.641-4.53,2.641c-3.153,0-5.362-2.979-5.362-5.858C18.553,59.444,20.554,56.546,23.996,56.546z"/>
	<path fill="#F6F7F7" d="M29.722,67.975V56.61h2.209v9.428h5.794v1.937H29.722z"/>
	<path fill="#F6F7F7" d="M38.921,67.975V56.626h2.209v11.349H38.921z"/>
	<path fill="#F6F7F7" d="M48.043,56.546c2.018,0,3.569,1.008,4.274,2.481l-1.697,1.168c-0.528-1.28-1.681-1.696-2.641-1.696
		c-2.097,0-3.153,1.969-3.153,3.777c0,2.017,1.312,3.841,3.201,3.841c0.977,0,2.145-0.496,2.657-1.729l1.809,1.041
		c-0.688,1.696-2.753,2.641-4.53,2.641c-3.153,0-5.361-2.979-5.361-5.858C42.602,59.444,44.602,56.546,48.043,56.546z"/>
	<path fill="#F6F7F7" d="M53.77,67.975V56.626h2.209v5.538l4.914-5.554h2.289l-4.354,5.042l4.626,6.323h-2.337L57.5,62.901
		l-1.521,1.649v3.425H53.77z"/>
	<path fill="#F6F7F7" d="M77.374,56.61v11.365h-2.192v-4.85h-5.154v4.85h-2.209V56.61h2.209v4.594h5.154V56.61H77.374z"/>
	<path fill="#F6F7F7" d="M87.389,66.038v1.937h-7.892V56.61h7.747v1.937h-5.538v2.737h4.786v1.793h-4.786v2.961H87.389z"/>
	<path fill="#F6F7F7" d="M88.938,67.975V56.61h5.025c2.098,0,3.617,1.921,3.617,3.778c0,1.457-0.801,2.785-2.049,3.313l2.673,4.273
		h-2.497l-2.385-3.81h-2.178v3.81H88.938z M91.146,62.229h2.769c0.815,0,1.44-0.816,1.44-1.841c0-1.057-0.752-1.841-1.537-1.841
		h-2.672V62.229z"/>
	<path fill="#F6F7F7" d="M107.389,66.038v1.937h-7.892V56.61h7.747v1.937h-5.538v2.737h4.786v1.793h-4.786v2.961H107.389z"/>
</g>
</svg>
