<?xml version="1.0" encoding="utf-8"?>
<!-- Generator: Adobe Illustrator 18.0.0, SVG Export Plug-In . SVG Version: 6.00 Build 0)  -->
<!DOCTYPE svg PUBLIC "-//W3C//DTD SVG 1.1//EN" "http://www.w3.org/Graphics/SVG/1.1/DTD/svg11.dtd">
<svg version="1.1" id="Layer_1" xmlns="http://www.w3.org/2000/svg" xmlns:xlink="http://www.w3.org/1999/xlink" x="0px" y="0px"
	 viewBox="-238 215 323 572" enable-background="new -238 215 323 572" xml:space="preserve">
<g>
	<g>
		<g>
			<path id="XMLID_143_" fill="#0D3435" d="M-135.4,783.3c0,1.2-1,2.2-2.2,2.2h-8.7c-1.2,0-2.2-1-2.2-2.2v-18.8c0-1.2,1-2.2,2.2-2.2
				h8.7c1.2,0,2.2,1,2.2,2.2V783.3z"/>
			<path id="XMLID_142_" fill="#0D3435" d="M-119.2,783.3c0,1.2-1,2.2-2.2,2.2h-8.7c-1.2,0-2.2-1-2.2-2.2v-18.8c0-1.2,1-2.2,2.2-2.2
				h8.7c1.2,0,2.2,1,2.2,2.2V783.3z"/>
		</g>
		<g>
			<path id="XMLID_141_" fill="#0D3435" d="M-63.7,783.3c0,1.2-1,2.2-2.2,2.2h-8.7c-1.2,0-2.2-1-2.2-2.2v-18.8c0-1.2,1-2.2,2.2-2.2
				h8.7c1.2,0,2.2,1,2.2,2.2V783.3z"/>
			<path id="XMLID_140_" fill="#0D3435" d="M-48.5,783.3c0,1.2-1,2.2-2.2,2.2h-8.7c-1.2,0-2.2-1-2.2-2.2v-18.8c0-1.2,1-2.2,2.2-2.2
				h8.7c1.2,0,2.2,1,2.2,2.2V783.3z"/>
		</g>
		<path id="XMLID_139_" fill="#31ADB3" d="M-211.4,592.6H-223c-5.8,5.1-9.6,12-9.6,20.4c0,9.4,4.7,18,11.8,22h10.9
			c-4-3-9.5-11.3-9.5-22C-219.5,603.6-215.2,597.7-211.4,592.6z"/>
		<path id="XMLID_138_" opacity="0.5" fill="#1A4F5B" enable-background="new    " d="M-211.4,592.6H-223c-5.8,5.1-9.6,12-9.6,20.4
			c0,9.4,4.7,18,11.8,22h10.9c-4-3-9.5-11.3-9.5-22C-219.5,603.6-215.2,597.7-211.4,592.6z"/>
		<path id="XMLID_137_" fill="#31ADB3" d="M-207.5,592.6h-8c-4.1,5.1-6.7,12-6.7,20.4c0,9.4,3.3,18,8.2,22h7.6
			c-2.8-3-6.6-11.3-6.6-22C-213,603.6-210.1,597.7-207.5,592.6z"/>
		<polygon id="XMLID_136_" fill="#31ADB3" points="-77.1,751.2 -121.8,751.2 -147,682.5 -51.8,682.5 		"/>
		<polygon id="XMLID_135_" opacity="0.5" fill="#1A4F5B" enable-background="new    " points="-77.1,751.2 -121.8,751.2 -147,682.5 
			-51.8,682.5 		"/>
		<polygon id="XMLID_134_" opacity="0.5" fill="#1A4F5B" enable-background="new    " points="-77.1,751.2 -121.8,751.2 -147,682.5 
			-51.8,682.5 		"/>
		<polygon id="XMLID_133_" opacity="0.5" fill="#1A4F5B" enable-background="new    " points="-97,682.5 -97,751.2 -77.1,751.2 
			-51.8,682.5 		"/>
		<path id="XMLID_132_" opacity="0.5" fill="#1A4F5B" enable-background="new    " d="M-60.4,706l8.6-23.5H-147l8.6,23.5
			c0,0,20.7,5.4,37.9,5.4S-60.4,706-60.4,706z"/>
		<path id="XMLID_131_" fill="#31ADB3" d="M-14.3,677.7c4.9-48.1,15.1-157,11.2-185.1c-4-28.9-11.2-36-17.9-56.1
			c-5.5-16.7-8.5-34.6-9.4-40.2c-0.2-1-1-1.7-2-1.7h-145.9c-1,0-1.9,0.7-2,1.7c-0.9,5.6-3.9,23.5-9.4,40.2
			c-6.7,20.1-4.9,9.6-13.4,56.1c-6.6,36.2,9.9,140.6,17.6,185.1c0,0,40.8,15.2,83.6,15.2S-14.3,677.7-14.3,677.7z"/>
		<path id="XMLID_130_" opacity="0.15" fill="#1A4F5B" enable-background="new    " d="M-14.1,677.7c5.2-55.6,17.3-191.2,10.8-185.8
			c-4.1-9.4-11.3-36.1-18-56.2s-9.7-42.1-9.7-42.1h-71.2c0,0,0,301,0,299.2C-73.8,693.6-14.1,677.7-14.1,677.7z"/>
		<path id="XMLID_129_" fill="#31ADB3" d="M-180,394.6l-32.1,98h9C-203.1,492.6-176.2,436.6-180,394.6z"/>
		<path id="XMLID_128_" fill="#31ADB3" d="M-189.7,673.6l4,3.9l-16.4-160.8c-1.3-11.6,0.3-23.3,4.5-34.1c8-20.5,20.2-57.2,17.6-85.9
			l-28.9,77.6c-4.2,11-5.6,23-4,34.7l21,157.1C-191.3,670.1-190.7,672.1-189.7,673.6z"/>
		<path id="XMLID_127_" opacity="0.5" fill="#1A4F5B" enable-background="new    " d="M-189.7,673.6l4,3.9l-11.7-160.8
			c-1.3-11.6,2.7-22.6,4.5-34.1c4.3-26.9,15.5-57.2,12.9-85.9l-28.9,77.6c-4.2,11-5.6,23-4,34.7l21,157.1
			C-191.3,670.1-190.7,672.1-189.7,673.6z"/>
		<path id="XMLID_126_" fill="#31ADB3" d="M-10.2,673.5l-3.9,4.1L-8,516.4c0.9-11.6-3.5-22.5-5.7-34c-5.3-26.8-17.5-56.7-15.9-85.4
			l31.7,76.5c4.5,11,6.3,22.9,5.1,34.7L-8.3,666C-8.7,670-9.3,672.1-10.2,673.5z"/>
		<path id="XMLID_125_" opacity="0.5" fill="#B8E2E0" enable-background="new    " d="M-10.2,673.5l-3.9,4.1L-8,516.4
			c0.9-11.6-3.5-22.5-5.7-34c-5.3-26.8-17.5-56.7-15.9-85.4l31.7,76.5c4.5,11,6.3,22.9,5.1,34.7L-8.3,666
			C-8.7,670-9.3,672.1-10.2,673.5z"/>
		<g>
			<g>
				<rect id="XMLID_124_" x="-135.4" y="251.2" fill="#31ADB3" width="59.6" height="8.1"/>
				
					<rect id="XMLID_123_" x="-135.4" y="251.2" opacity="0.5" fill="#1A4F5B" enable-background="new    " width="59.6" height="8.1"/>
				<path id="XMLID_122_" fill="#31ADB3" d="M-67.2,249.2h-8.6v12.1h2c2.1,0,4.1,1.9,4.1,4v15.2h-71.7v-15.2c0-2.1,2-4,4.1-4h2
					v-12.1h-8.6c-5.2,0-9.7,4.5-9.7,9.7v43.8h96v-43.8C-57.6,253.7-62,249.2-67.2,249.2z"/>
				<path id="XMLID_121_" fill="#31ADB3" d="M-129.3,261.3c0,0.6-0.5,1-1,1l0,0c-0.6,0-1-0.5-1-1v-12.1c0-0.6,0.5-1,1-1l0,0
					c0.6,0,1,0.5,1,1V261.3z"/>
				<path id="XMLID_120_" fill="#31ADB3" d="M-125.3,261.3c0,0.6-0.5,1-1,1l0,0c-0.6,0-1-0.5-1-1v-12.1c0-0.6,0.5-1,1-1l0,0
					c0.6,0,1,0.5,1,1V261.3z"/>
				<path id="XMLID_119_" fill="#31ADB3" d="M-122.2,261.3c0,0.6-0.5,1-1,1l0,0c-0.6,0-1-0.5-1-1v-12.1c0-0.6,0.5-1,1-1l0,0
					c0.6,0,1,0.5,1,1V261.3z"/>
				<path id="XMLID_118_" fill="#31ADB3" d="M-119.2,261.3c0,0.6-0.5,1-1,1l0,0c-0.6,0-1-0.5-1-1v-12.1c0-0.6,0.5-1,1-1l0,0
					c0.6,0,1,0.5,1,1V261.3z"/>
				<path id="XMLID_117_" fill="#31ADB3" d="M-115.2,261.3c0,0.6-0.5,1-1,1l0,0c-0.6,0-1-0.5-1-1v-12.1c0-0.6,0.5-1,1-1l0,0
					c0.6,0,1,0.5,1,1V261.3z"/>
				<path id="XMLID_116_" fill="#31ADB3" d="M-112.1,261.3c0,0.6-0.5,1-1,1l0,0c-0.6,0-1-0.5-1-1v-12.1c0-0.6,0.5-1,1-1l0,0
					c0.6,0,1,0.5,1,1V261.3z"/>
				<path id="XMLID_115_" fill="#31ADB3" d="M-108.1,261.3c0,0.6-0.5,1-1,1l0,0c-0.6,0-1-0.5-1-1v-12.1c0-0.6,0.5-1,1-1l0,0
					c0.6,0,1,0.5,1,1V261.3z"/>
				<path id="XMLID_114_" fill="#31ADB3" d="M-108.1,261.3c0,0.6-0.5,1-1,1l0,0c-0.6,0-1-0.5-1-1v-12.1c0-0.6,0.5-1,1-1l0,0
					c0.6,0,1,0.5,1,1V261.3z"/>
				<path id="XMLID_113_" fill="#31ADB3" d="M-105.1,261.3c0,0.6-0.5,1-1,1l0,0c-0.6,0-1-0.5-1-1v-12.1c0-0.6,0.5-1,1-1l0,0
					c0.6,0,1,0.5,1,1V261.3z"/>
				<path id="XMLID_112_" fill="#31ADB3" d="M-101,261.3c0,0.6-0.5,1-1,1l0,0c-0.6,0-1-0.5-1-1v-12.1c0-0.6,0.5-1,1-1l0,0
					c0.6,0,1,0.5,1,1V261.3z"/>
				<path id="XMLID_111_" fill="#31ADB3" d="M-98,261.3c0,0.6-0.5,1-1,1l0,0c-0.6,0-1-0.5-1-1v-12.1c0-0.6,0.5-1,1-1l0,0
					c0.6,0,1,0.5,1,1V261.3z"/>
				<path id="XMLID_110_" fill="#31ADB3" d="M-94,261.3c0,0.6-0.5,1-1,1l0,0c-0.6,0-1-0.5-1-1v-12.1c0-0.6,0.5-1,1-1l0,0
					c0.6,0,1,0.5,1,1V261.3z"/>
				<path id="XMLID_109_" fill="#31ADB3" d="M-90.9,261.3c0,0.6-0.5,1-1,1l0,0c-0.6,0-1-0.5-1-1v-12.1c0-0.6,0.5-1,1-1l0,0
					c0.6,0,1,0.5,1,1V261.3z"/>
				<path id="XMLID_108_" fill="#31ADB3" d="M-86.9,261.3c0,0.6-0.5,1-1,1l0,0c-0.6,0-1-0.5-1-1v-12.1c0-0.6,0.5-1,1-1l0,0
					c0.6,0,1,0.5,1,1V261.3z"/>
				<path id="XMLID_107_" fill="#31ADB3" d="M-83.9,261.3c0,0.6-0.5,1-1,1l0,0c-0.6,0-1-0.5-1-1v-12.1c0-0.6,0.5-1,1-1l0,0
					c0.6,0,1,0.5,1,1V261.3z"/>
				<path id="XMLID_106_" fill="#31ADB3" d="M-80.8,261.3c0,0.6-0.5,1-1,1l0,0c-0.6,0-1-0.5-1-1v-12.1c0-0.6,0.5-1,1-1l0,0
					c0.6,0,1,0.5,1,1V261.3z"/>
				<path id="XMLID_105_" opacity="0.5" fill="#B8E2E0" enable-background="new    " d="M-129.3,261.3c0,0.6-0.5,1-1,1l0,0
					c-0.6,0-1-0.5-1-1v-12.1c0-0.6,0.5-1,1-1l0,0c0.6,0,1,0.5,1,1V261.3z"/>
				<path id="XMLID_104_" opacity="0.5" fill="#B8E2E0" enable-background="new    " d="M-125.3,261.3c0,0.6-0.5,1-1,1l0,0
					c-0.6,0-1-0.5-1-1v-12.1c0-0.6,0.5-1,1-1l0,0c0.6,0,1,0.5,1,1V261.3z"/>
				<path id="XMLID_103_" opacity="0.5" fill="#B8E2E0" enable-background="new    " d="M-122.2,261.3c0,0.6-0.5,1-1,1l0,0
					c-0.6,0-1-0.5-1-1v-12.1c0-0.6,0.5-1,1-1l0,0c0.6,0,1,0.5,1,1V261.3z"/>
				<path id="XMLID_102_" opacity="0.5" fill="#B8E2E0" enable-background="new    " d="M-119.2,261.3c0,0.6-0.5,1-1,1l0,0
					c-0.6,0-1-0.5-1-1v-12.1c0-0.6,0.5-1,1-1l0,0c0.6,0,1,0.5,1,1V261.3z"/>
				<path id="XMLID_101_" opacity="0.5" fill="#B8E2E0" enable-background="new    " d="M-115.2,261.3c0,0.6-0.5,1-1,1l0,0
					c-0.6,0-1-0.5-1-1v-12.1c0-0.6,0.5-1,1-1l0,0c0.6,0,1,0.5,1,1V261.3z"/>
				<path id="XMLID_100_" opacity="0.5" fill="#B8E2E0" enable-background="new    " d="M-112.1,261.3c0,0.6-0.5,1-1,1l0,0
					c-0.6,0-1-0.5-1-1v-12.1c0-0.6,0.5-1,1-1l0,0c0.6,0,1,0.5,1,1V261.3z"/>
				<path id="XMLID_99_" opacity="0.5" fill="#B8E2E0" enable-background="new    " d="M-108.1,261.3c0,0.6-0.5,1-1,1l0,0
					c-0.6,0-1-0.5-1-1v-12.1c0-0.6,0.5-1,1-1l0,0c0.6,0,1,0.5,1,1V261.3z"/>
				<path id="XMLID_98_" opacity="0.5" fill="#B8E2E0" enable-background="new    " d="M-105.1,261.3c0,0.6-0.5,1-1,1l0,0
					c-0.6,0-1-0.5-1-1v-12.1c0-0.6,0.5-1,1-1l0,0c0.6,0,1,0.5,1,1V261.3z"/>
				<path id="XMLID_97_" opacity="0.5" fill="#B8E2E0" enable-background="new    " d="M-101,261.3c0,0.6-0.5,1-1,1l0,0
					c-0.6,0-1-0.5-1-1v-12.1c0-0.6,0.5-1,1-1l0,0c0.6,0,1,0.5,1,1V261.3z"/>
				<path id="XMLID_96_" opacity="0.5" fill="#B8E2E0" enable-background="new    " d="M-98,261.3c0,0.6-0.5,1-1,1l0,0
					c-0.6,0-1-0.5-1-1v-12.1c0-0.6,0.5-1,1-1l0,0c0.6,0,1,0.5,1,1V261.3z"/>
				<path id="XMLID_95_" opacity="0.5" fill="#B8E2E0" enable-background="new    " d="M-94,261.3c0,0.6-0.5,1-1,1l0,0
					c-0.6,0-1-0.5-1-1v-12.1c0-0.6,0.5-1,1-1l0,0c0.6,0,1,0.5,1,1V261.3z"/>
				<path id="XMLID_94_" opacity="0.5" fill="#B8E2E0" enable-background="new    " d="M-90.9,261.3c0,0.6-0.5,1-1,1l0,0
					c-0.6,0-1-0.5-1-1v-12.1c0-0.6,0.5-1,1-1l0,0c0.6,0,1,0.5,1,1V261.3z"/>
				<path id="XMLID_93_" opacity="0.5" fill="#B8E2E0" enable-background="new    " d="M-86.9,261.3c0,0.6-0.5,1-1,1l0,0
					c-0.6,0-1-0.5-1-1v-12.1c0-0.6,0.5-1,1-1l0,0c0.6,0,1,0.5,1,1V261.3z"/>
				<path id="XMLID_92_" opacity="0.5" fill="#B8E2E0" enable-background="new    " d="M-83.9,261.3c0,0.6-0.5,1-1,1l0,0
					c-0.6,0-1-0.5-1-1v-12.1c0-0.6,0.5-1,1-1l0,0c0.6,0,1,0.5,1,1V261.3z"/>
				<path id="XMLID_91_" opacity="0.5" fill="#B8E2E0" enable-background="new    " d="M-80.8,261.3c0,0.6-0.5,1-1,1l0,0
					c-0.6,0-1-0.5-1-1v-12.1c0-0.6,0.5-1,1-1l0,0c0.6,0,1,0.5,1,1V261.3z"/>
			</g>
			<path id="XMLID_90_" fill="#31ADB3" d="M-20,341c0-32.1-2.3-58.4-3.3-60.1v0.6h-0.5h-0.1H-24h-162.9h-0.1h-0.1h-0.8v-0.6
				c-2,1.3-3.3,27.7-3.3,60.1s1.3,58.8,3.3,60.1v0.6h164.6v-0.6C-22.2,399.4-20,373.1-20,341z"/>
			<ellipse id="XMLID_89_" opacity="0.5" fill="#B8E2E0" enable-background="new    " cx="-23.5" cy="341" rx="3.5" ry="60.2"/>
			<rect id="XMLID_88_" x="-152.6" y="278.5" opacity="0.5" fill="#1A4F5B" enable-background="new    " width="11.1" height="3"/>
			<rect id="XMLID_87_" x="-70.7" y="278.5" opacity="0.5" fill="#1A4F5B" enable-background="new    " width="14.1" height="3"/>
			<polygon id="XMLID_86_" opacity="0.15" fill="#1A4F5B" enable-background="new    " points="-187,400.7 -25.3,400.7 -26.3,387.6 
				-184.2,387.6 			"/>
			<polygon id="XMLID_85_" opacity="0.3" fill="#1A4F5B" enable-background="new    " points="-186.4,397.7 -187,400.7 -25.3,400.7 
				-25.6,397.7 			"/>
			<ellipse id="XMLID_84_" opacity="0.5" fill="#1A4F5B" enable-background="new    " cx="-187" cy="341" rx="3.5" ry="60.2"/>
		</g>
		<g>
			<ellipse id="XMLID_83_" fill="#31ADB3" cx="-18.6" cy="340.8" rx="0.9" ry="12.5"/>
			<path id="XMLID_82_" fill="#31ADB3" d="M-23.3,329v-0.6c0,0.8-0.8,6-0.8,12.4s0.8,11.6,0.8,12.4l0,0h4.5l0.1-24.2L-23.3,329
				L-23.3,329z"/>
			<ellipse id="XMLID_81_" opacity="0.5" fill="#B8E2E0" enable-background="new    " cx="-18.6" cy="340.8" rx="0.9" ry="12.5"/>
		</g>
		<g>
			<ellipse id="XMLID_80_" fill="#31ADB3" cx="-192" cy="340.8" rx="0.9" ry="12.5"/>
			<path id="XMLID_79_" fill="#31ADB3" d="M-187.9,353.2L-187.9,353.2c0-0.7,0.8-6,0.8-12.4s-0.8-11.6-0.8-12.4v0.6h-4l-0.1,24.2
				L-187.9,353.2L-187.9,353.2z"/>
			<ellipse id="XMLID_78_" opacity="0.5" fill="#1A4F5B" enable-background="new    " cx="-192" cy="340.8" rx="0.9" ry="12.5"/>
		</g>
		
			<rect id="XMLID_77_" x="-125.3" y="354.2" opacity="0.5" fill="#1A4F5B" enable-background="new    " width="39.4" height="38.4"/>
		
			<rect id="XMLID_76_" x="-123.3" y="356.3" opacity="0.5" fill="#1A4F5B" enable-background="new    " width="35.4" height="33.3"/>
		<rect id="XMLID_75_" x="-148.5" y="534" opacity="0.5" fill="#1A4F5B" enable-background="new    " width="97" height="16.2"/>
		<rect id="XMLID_74_" x="-148.5" y="537.1" opacity="0.5" fill="#1A4F5B" enable-background="new    " width="97" height="10.1"/>
		<rect id="XMLID_73_" x="-148.5" y="532" fill="#31ADB3" width="97" height="2"/>
		<rect id="XMLID_72_" x="-148.5" y="532" opacity="0.5" fill="#B8E2E0" enable-background="new    " width="97" height="2"/>
		<rect id="XMLID_71_" x="-124.3" y="356.3" fill="#31ADB3" width="37.4" height="13.1"/>
		<rect id="XMLID_70_" x="-124.3" y="367.4" opacity="0.75" fill="#103940" enable-background="new    " width="37.4" height="2"/>
		<rect id="XMLID_69_" x="-124.3" y="376.5" fill="#31ADB3" width="37.4" height="13.1"/>
		<rect id="XMLID_68_" x="-124.3" y="376.5" opacity="0.5" fill="#B8E2E0" enable-background="new    " width="37.4" height="2"/>
		<g opacity="0.5">
			<circle id="XMLID_67_" fill="#1A4F5B" cx="-142.3" cy="326.7" r="29.7"/>
			<circle id="XMLID_66_" fill="#1A4F5B" cx="-68" cy="326.7" r="29.7"/>
		</g>
		<g>
			<circle id="XMLID_65_" fill="#709D40" cx="-142" cy="328.4" r="26.7"/>
			<circle id="XMLID_64_" fill="#709D40" cx="-68.3" cy="328.4" r="26.7"/>
		</g>
		<g opacity="0.15">
			<g>
				<path id="XMLID_63_" fill="#F2F2F3" d="M-141.7,302c-1.6,0-3.1,0.1-4.6,0.4c-7.3,7.3-14.7,14.7-21.8,22.2
					c-0.2,1.3-0.3,2.7-0.3,4.1c0,1.5,0.1,2.9,0.4,4.4c10.3-10.2,20.6-20.5,31-30.7C-138.6,302.1-140.1,302-141.7,302z"/>
				<path id="XMLID_62_" fill="#F2F2F3" d="M-115.9,321.9c-1-3.8-2.8-7.2-5.2-10.2c-12.6,12.5-25.2,25-37.8,37.5
					c3,2.5,6.5,4.3,10.3,5.4L-115.9,321.9z"/>
			</g>
			<g>
				<path id="XMLID_61_" fill="#F2F2F3" d="M-68,302c-1.6,0-3.1,0.1-4.6,0.4c-7.3,7.3-14.7,14.7-21.8,22.2c-0.2,1.3-0.3,2.7-0.3,4.1
					c0,1.5,0.1,2.9,0.4,4.4c10.3-10.2,20.6-20.5,31-30.7C-64.8,302.1-66.4,302-68,302z"/>
				<path id="XMLID_60_" fill="#F2F2F3" d="M-42.1,321.9c-1-3.8-2.8-7.2-5.2-10.2c-12.6,12.5-25.2,25-37.8,37.5
					c3,2.5,6.5,4.3,10.3,5.4L-42.1,321.9z"/>
			</g>
		</g>
		<g>
			<polygon id="XMLID_59_" opacity="0.55" fill="#FFFFFF" enable-background="new    " points="-158.9,339.1 -149.1,331.8 
				-141.6,335.3 -134.6,323.8 -132,326.4 -128.6,320.6 -126.9,321.6 -126.5,315.6 -131.6,318.8 -129.7,319.9 -132.3,324.4 
				-134.8,321.8 -142.1,333.7 -149.5,330.5 -160.6,338.9 -160.6,317.9 -160.6,317.9 -160.6,340.1 -119.2,340.1 -119.2,339.1 			"/>
			<polygon id="XMLID_58_" opacity="0.3" fill="#FFFFFF" enable-background="new    " points="-159,339.7 -149.1,332.1 
				-141.5,335.4 -134.6,324.1 -131.8,326.6 -128.6,320.7 -126.9,321.6 -126.5,339.6 			"/>
		</g>
		<g>
			<polygon id="XMLID_57_" opacity="0.55" fill="#FFFFFF" enable-background="new    " points="-86.3,339.1 -76.5,331.8 -69,335.3 
				-62,323.8 -59.4,326.4 -56,320.6 -54.2,321.6 -53.9,315.6 -59,318.8 -57.1,319.9 -59.7,324.4 -62.2,321.8 -69.5,333.7 
				-76.8,330.5 -87.9,338.9 -87.9,317.9 -87.9,317.9 -87.9,340.1 -46.5,340.1 -46.5,339.1 			"/>
			<polygon id="XMLID_56_" opacity="0.3" fill="#FFFFFF" enable-background="new    " points="-86.4,339.7 -76.5,332.1 -68.8,335.4 
				-62,324.1 -59.2,326.6 -56,320.7 -54.3,321.6 -53.9,339.6 			"/>
		</g>
		<rect id="XMLID_55_" x="-222.3" y="340.1" fill="#1A4F5B" width="29.3" height="3"/>
		<circle id="XMLID_54_" fill="#709D40" cx="-223.2" cy="341.8" r="3.3"/>
		<rect id="XMLID_53_" x="-20.2" y="340.1" fill="#1A4F5B" width="33.3" height="3"/>
		<circle id="XMLID_52_" fill="#709D40" cx="12.6" cy="341.8" r="3.3"/>
		<g>
			<circle id="XMLID_51_" opacity="0.5" fill="#1A4F5B" enable-background="new    " cx="-102.1" cy="421.8" r="5.4"/>
			<circle id="XMLID_50_" opacity="0.5" fill="#1A4F5B" enable-background="new    " cx="-102.1" cy="463" r="5.4"/>
			<circle id="XMLID_49_" opacity="0.5" fill="#1A4F5B" enable-background="new    " cx="-102.1" cy="497.6" r="5.4"/>
			<circle id="XMLID_48_" fill="#709D40" cx="-102.1" cy="420.4" r="5.4"/>
			<circle id="XMLID_47_" fill="#709D40" cx="-102.1" cy="461.6" r="5.4"/>
			<circle id="XMLID_46_" fill="#709D40" cx="-102.1" cy="496.2" r="5.4"/>
		</g>
		<path id="XMLID_45_" fill="#31ADB3" d="M-44.9,771.4c0.9-2,1.3-4.7,1.3-7.2c0-18.3-24.6-33-54.8-33c-30.3,0-54.8,14.8-54.8,33
			c0,2.5,0.5,5.2,1.3,7.2H-44.9z"/>
		<path id="XMLID_44_" opacity="0.5" fill="#B8E2E0" enable-background="new    " d="M-46,757c-6.9-13.5-27.7-23.4-52.5-23.4
			c-24.7,0-45.6,9.8-52.5,23.4c0,0,16.2-16,52.5-16S-46,757-46,757z"/>
		<path id="XMLID_43_" fill="#31ADB3" d="M-212.8,598.7h-6.6c-4.6,0-8.4-3.3-9-7.9l-9.6-77.9l30.9,2.1l3.3,74.2
			C-203.5,594.5-207.6,598.7-212.8,598.7z"/>
		<path id="XMLID_42_" opacity="0.5" fill="#1A4F5B" enable-background="new    " d="M-231.6,517.7c-2,1.1-3.8,2.7-5.3,4.7l8.5,68.6
			c0.5,4.4,4.2,7.7,8.6,7.9C-220.6,592.6-229.1,534.2-231.6,517.7z"/>
		<path id="XMLID_41_" opacity="0.5" fill="#1A4F5B" enable-background="new    " d="M-153.2,763.3c0,0,0,0.5,0,0.8
			c0,2.5,0.5,4.3,1.3,7.3h107c0.9-3,1.3-4.8,1.3-7.3c0-0.2,0-0.8,0-0.8H-153.2z"/>
		<path id="XMLID_40_" fill="#31ADB3" d="M-211.9,517.9h-20.5c-3.5,0-6.1-3.2-5.5-6.6l13-71.4c3.8-20.2,14-31.1,31.3-31.1h0.5
			c7.8,0,9.8,5.4,6,18.3c-2.9,9.8-15.7,69.8-19.3,86.6C-207,516.2-209.3,517.9-211.9,517.9z"/>
		<path id="XMLID_39_" opacity="0.5" fill="#1A4F5B" enable-background="new    " d="M-228.7,504.4l20.8-92.8
			c-10,5.2-14.3,15.4-16.8,27.8l-12.6,70C-235.1,506.8-232,505.2-228.7,504.4z"/>
		<path id="XMLID_38_" opacity="0.5" fill="#1A4F5B" enable-background="new    " d="M-237.9,513.8l1.3-1.8c2.6-4,7-6.2,11.7-6.2
			h4.6c5.6,0,10.5,3.2,12.7,8.3l0.5,1.4v3.2l-1.3-2.9c-2.3-4.6-7-7.6-12.2-7.7l-3.2-0.1c-4.7-0.1-9,2.2-11.7,6l-2,2.9L-237.9,513.8z
			"/>
		<path id="XMLID_37_" fill="#31ADB3" d="M1.8,517.9h20.5c3.5,0,6.1-3.2,5.5-6.6l-13-71.4c-3.8-20.2-14-31.1-31.3-31.1H-17
			c-7.8,0-9.8,5.4-6,18.3c2.9,9.8,15.7,69.8,19.3,86.6C-3.1,516.2-0.8,517.9,1.8,517.9z"/>
		<path id="XMLID_36_" opacity="0.5" fill="#1A4F5B" enable-background="new    " d="M27.8,513.8l-1.3-1.8c-2.6-4-7-6.2-11.7-6.2
			h-4.6c-5.6,0-10.5,3.2-12.7,8.3l-0.6,1.4v3.2l1.4-2.9c2.3-4.6,7-7.6,12.2-7.7l3.2-0.1c4.7-0.1,9,2.2,11.7,6l2,2.9L27.8,513.8z"/>
		<circle id="XMLID_35_" fill="#31ADB3" cx="12.3" cy="526.1" r="18.8"/>
		<path id="XMLID_34_" fill="#31ADB3" d="M-27,555.9c0,8.9-7.2,16.1-16.1,16.1s-16.1-7.2-16.1-16.1c0-3.7,1.2-7.1,3.4-9.8
			c3-3.8,7.6-6.3,12.8-6.3C-34.2,539.8-27,547-27,555.9z"/>
		<polygon id="XMLID_33_" fill="#31ADB3" points="1.9,510.4 -49.6,541.7 -34.3,569.4 23,542.1 		"/>
		<path id="XMLID_32_" opacity="0.5" fill="#B8E2E0" enable-background="new    " d="M-39.3,561l4.5,8.1l57.2-27.3l-0.3-0.4
			c5-3.4,8.4-9.1,8.4-15.6c0-1.4-0.2-2.7-0.4-4C7,534.7-16.1,547.9-39.3,561z"/>
		
			<rect id="XMLID_31_" x="-107.1" y="621.5" transform="matrix(0.7071 0.7071 -0.7071 0.7071 411.4198 256.3775)" fill="#B8E2E0" width="6.7" height="6.7"/>
		
			<rect id="XMLID_30_" x="-97.7" y="621.4" transform="matrix(0.7071 0.7071 -0.7071 0.7071 414.1242 249.7106)" fill="#B8E2E0" width="6.7" height="6.7"/>
		
			<rect id="XMLID_29_" x="-88.3" y="621.3" transform="matrix(0.7071 0.7071 -0.7071 0.7071 416.8284 243.0436)" fill="#B8E2E0" width="6.7" height="6.7"/>
		
			<rect id="XMLID_28_" x="-78.8" y="621.5" transform="matrix(0.7071 0.7071 -0.7071 0.7071 419.7036 236.3644)" fill="#B8E2E0" width="6.7" height="6.7"/>
		
			<rect id="XMLID_27_" x="-69.4" y="621.4" transform="matrix(0.7071 0.7071 -0.7071 0.7071 422.4077 229.6974)" fill="#B8E2E0" width="6.7" height="6.7"/>
		
			<rect id="XMLID_26_" x="-59.9" y="621.4" transform="matrix(0.7071 0.7071 -0.7071 0.7071 425.2124 222.9891)" fill="#B8E2E0" width="6.7" height="6.7"/>
		
			<rect id="XMLID_25_" x="-50.6" y="621.4" transform="matrix(0.7071 0.7071 -0.7071 0.7071 427.9496 216.4187)" fill="#B8E2E0" width="6.7" height="6.7"/>
		
			<rect id="XMLID_24_" x="-41.2" y="621.4" transform="matrix(0.7071 0.7071 -0.7071 0.7071 430.654 209.7517)" fill="#B8E2E0" width="6.7" height="6.7"/>
		
			<rect id="XMLID_23_" x="-31.4" y="621.4" transform="matrix(0.7071 0.7071 -0.7071 0.7071 433.5501 202.8328)" fill="#B8E2E0" width="6.7" height="6.7"/>
		
			<rect id="XMLID_22_" x="-22" y="621.4" transform="matrix(0.7071 0.7071 -0.7071 0.7071 436.3252 196.1952)" fill="#B8E2E0" width="6.7" height="6.7"/>
		<path id="XMLID_21_" fill="#B8E2E0" d="M-22.6,519.2l-95.3,8.2c-1.5,0-3.3,0.1-5.3,0.5l0,0h-0.4c0,0,0,0,0.1,0
			c-9.9,1.9-19.6,11.9-21.8,14.3c-0.3,0.3-0.5,0.5-0.5,0.5s22-1.5,30-1.5c3.3,0,11,3.9,11.4,16c-0.3,21.4-4,67.7-4,67.7h94.6
			c0,0,9.4-53.7,9.4-79C-4.4,520.7-22.6,519.2-22.6,519.2z"/>
		<path id="XMLID_20_" opacity="0.5" fill="#B8E2E0" enable-background="new    " d="M18.6,503.5l-20.8-92.9
			c10,5.2,14.3,15.4,16.8,27.8l12.6,70C25,505.9,21.9,504.3,18.6,503.5z"/>
		<path id="XMLID_19_" fill="#93C1BF" d="M-145.6,542.5c0,0,13.7-12.9,23.6-12c5.8,0.5,12.4,8.1,15.6,14.3c2.2,4.3,2,9.7,2,9.7
			s-5.1-12.5-12.4-12.8C-124,541.4-145.6,542.5-145.6,542.5z"/>
	</g>
	<g>
		
			<ellipse id="XMLID_18_" transform="matrix(0.9883 0.1522 -0.1522 0.9883 39.3201 -1.6773)" fill="#F7921E" cx="30.6" cy="256" rx="42.5" ry="29.3"/>
		<polygon id="XMLID_17_" fill="#F7921E" points="18.6,236.7 10.4,227.6 19.7,215 27.7,228.5 		"/>
		<polygon id="XMLID_16_" fill="#F7921E" points="7.8,240.1 -3.4,235.2 -0.2,219.9 12.7,228.8 		"/>
		<polygon id="XMLID_15_" fill="#F7921E" points="43.8,241.1 42.3,229 57.1,224 56,239.6 		"/>
		<polygon id="XMLID_14_" fill="#F7921E" points="33,236.5 26.6,226.1 38,215.4 43.4,230.1 		"/>
		<polygon id="XMLID_13_" fill="#F7921E" points="60.8,255 65,243.5 80.5,245.8 72.4,259.2 		"/>
		<polygon id="XMLID_12_" fill="#F7921E" points="54.4,246 54.9,233.7 70.3,231.2 66.7,246.4 		"/>
		<polygon id="XMLID_11_" fill="#F7921E" points="13.3,270.7 2.8,276.9 7.9,291.7 19.5,281.2 		"/>
		<polygon id="XMLID_10_" fill="#F7921E" points="5.2,265.2 -7,264.7 -21.3,281.3 -16.3,287 -30.7,309.6 0.1,288.9 -4.3,283.6 
			4.6,277.5 		"/>
		<polygon id="XMLID_9_" fill="#F7921E" points="38.7,274 33.6,285.2 46.3,294.4 49.9,279.1 		"/>
		<polygon id="XMLID_8_" fill="#F7921E" points="27,275.2 17.8,283.2 25.5,296.8 35,284.4 		"/>
		<polygon id="XMLID_7_" fill="#F7921E" points="59.2,265.9 59.7,278.2 75.1,280.6 71.4,265.4 		"/>
		<polygon id="XMLID_6_" fill="#F7921E" points="63.5,263.2 72.4,271.6 85.2,262.5 71.9,254.3 		"/>
		<polygon id="XMLID_5_" fill="#F7921E" points="-0.1,245.6 -0.6,233.4 -16,230.9 -12.3,246.1 		"/>
		<polygon id="XMLID_4_" fill="#F7921E" points="-1.7,256.6 -5.9,268.1 -21.4,265.8 -13.3,252.4 		"/>
		<polygon id="XMLID_3_" fill="#F7921E" points="-5.1,252.6 -16.1,257.9 -25.5,245.5 -10.4,241.6 		"/>
		<polygon id="XMLID_2_" fill="#F7921E" points="50.3,272.6 47.1,284.4 61,291.5 62.1,275.9 		"/>
	</g>
	<g id="XMLID_145_">
		<path id="XMLID_146_" fill="#FFFFFF" d="M-1,244.5l1.2-7.9l1.4,0.2l-1.2,7.9L-1,244.5z"/>
		<path id="XMLID_148_" fill="#FFFFFF" d="M4.2,239.2c0,0.6,0,1.3-0.1,2l-0.6,4L2.2,245l1.2-7.9l1.3,0.2l1.5,4.2
			c0.1,0.4,0.3,1,0.3,1.7c0-0.6,0-1.3,0.1-2l0.5-3.6l1.3,0.2l-1.2,7.9l-1.1-0.2l-1.6-4.7C4.4,240.6,4.3,240,4.2,239.2z"/>
		<path id="XMLID_150_" fill="#FFFFFF" d="M14,240l-1.6-0.2l-1,6.6l-1.4-0.2l1-6.6l-1.6-0.2l0.2-1.3l4.6,0.7L14,240z"/>
		<path id="XMLID_152_" fill="#FFFFFF" d="M14.2,246.8l1.2-7.9l2.6,0.4c1.5,0.2,2.2,1.2,2,2.8c-0.2,1.3-1,2-2.1,2l1.6,3.5l-1.5-0.2
			l-1.8-3.8l-0.5,3.5L14.2,246.8z M18.5,241.9c0.1-0.8-0.2-1.3-1-1.4l-1-0.1l-0.4,2.5L17,243C17.9,243.1,18.4,242.7,18.5,241.9z"/>
		<path id="XMLID_155_" fill="#FFFFFF" d="M20.6,243.8c0.4-2.7,1.8-3.9,3.7-3.6c1.9,0.3,2.8,1.9,2.4,4.6s-1.8,3.9-3.7,3.6
			C21.1,248.1,20.2,246.5,20.6,243.8z M24.1,241.4c-1.1-0.2-1.8,0.7-2.1,2.6c-0.3,1.9,0.1,2.9,1.2,3.1s1.8-0.7,2.1-2.6
			C25.6,242.6,25.2,241.6,24.1,241.4z"/>
		<path id="XMLID_158_" fill="#FFFFFF" d="M28.7,241l2.4,0.3c2,0.3,3,1.9,2.6,4.4c-0.4,2.6-1.8,3.8-3.8,3.5l-2.4-0.4L28.7,241z
			 M29.9,248c1.3,0.2,2.1-0.7,2.4-2.5s-0.3-2.9-1.5-3.1l-0.9-0.1l-0.8,5.5L29.9,248z"/>
		<path id="XMLID_161_" fill="#FFFFFF" d="M36.1,247.1c-0.2,1.3-0.1,1.9,0.8,2c0.9,0.1,1.2-0.4,1.4-1.7l0.8-4.9l1.4,0.2l-0.8,4.9
			c-0.2,1-0.3,1.7-0.7,2.2c-0.5,0.5-1.2,0.7-2.2,0.5c-1-0.1-1.6-0.5-1.9-1.2c-0.3-0.6-0.2-1.3,0-2.3l0.8-4.9l1.4,0.2L36.1,247.1z"/>
		<path id="XMLID_163_" fill="#FFFFFF" d="M44.3,244.5c-1-0.2-1.7,0.7-2,2.6c-0.3,1.9,0,2.9,1.1,3.1c0.8,0.1,1.3-0.4,1.6-1.8
			l1.4,0.2c0,0.1,0,0.1,0,0.2c-0.3,2-1.4,2.9-3.1,2.6c-2-0.3-2.7-1.8-2.3-4.5s1.6-4,3.5-3.7c1.7,0.3,2.5,1.5,2.2,3.5l-1.3-0.2
			C45.4,245.3,45.1,244.6,44.3,244.5z"/>
		<path id="XMLID_165_" fill="#FFFFFF" d="M47.3,251.9l1.2-7.9l1.4,0.2l-1.2,7.9L47.3,251.9z"/>
		<path id="XMLID_167_" fill="#FFFFFF" d="M52.5,246.6c0,0.6,0,1.3-0.1,2l-0.6,4l-1.3-0.2l1.2-7.9l1.3,0.2l1.5,4.2
			c0.1,0.4,0.2,1,0.3,1.7c0-0.6,0-1.3,0.1-2l0.5-3.6l1.3,0.2l-1.2,7.9l-1.1-0.2l-1.6-4.7C52.7,248,52.6,247.4,52.5,246.6z"/>
		<path id="XMLID_169_" fill="#FFFFFF" d="M61,247.1c-1.1-0.2-1.8,0.7-2.1,2.6c-0.3,1.9,0.1,2.9,1.3,3.1c0.9,0.1,1.6-0.5,1.8-1.6
			v-0.1l-1.9-0.3l0.2-1.2l3.3,0.5c0,0.3,0,0.5-0.1,0.7c-0.3,2.3-1.6,3.4-3.4,3.1c-2-0.3-2.9-1.9-2.5-4.6c0.4-2.6,1.8-3.9,3.7-3.6
			c1.6,0.2,2.5,1.5,2.3,3.4l-1.3-0.2C62.3,247.9,61.8,247.3,61,247.1z"/>
		<path id="XMLID_171_" fill="#FFFFFF" d="M7.2,270.2l0.7-4.2l-7.5-1.2l0.5-2.9l9.2-11.1l3.3,0.5l-1.9,12.2l2.3,0.4l-0.5,2.9
			l-2.3-0.4l-0.7,4.2L7.2,270.2z M9.6,255c-0.7,1.2-1.3,2-1.6,2.5l-4,5l4.4,0.7L9.6,255z"/>
		<path id="XMLID_174_" fill="#FFFFFF" d="M15.3,261.6c1-6.6,4-9.7,8.3-9.1c4.2,0.6,6.2,4.6,5.2,11.1s-4.1,9.7-8.3,9
			C16.3,272,14.3,268.2,15.3,261.6z M23.1,255.7c-2.1-0.3-3.7,1.8-4.4,6.3c-0.7,4.5,0.2,7.1,2.3,7.4s3.7-1.8,4.4-6.3
			C26.1,258.6,25.2,256.1,23.1,255.7z"/>
		<path id="XMLID_177_" fill="#FFFFFF" d="M32.8,257.3l0.5-3l6.7,1l-3,19.4l-3.3-0.5l2.5-16.4L32.8,257.3z"/>
		<path id="XMLID_179_" fill="#FFFFFF" d="M42.5,275.6l3-19.4l3.1,0.5l-1.5,9.8l4.5-4.9l3.4,0.5l-4.8,4.8l3,10.4l-3.4-0.5l-2-7.4
			l-1.4,1.3l-0.8,5.4L42.5,275.6z"/>
	</g>
	<g>
		<g id="g4QpBZ.tif">
			
				<image overflow="visible" enable-background="new    " width="214" height="253" id="Layer_1_2_" xlink:href="780C90496DEE9EF9.png"  transform="matrix(0.2493 0 0 0.2493 -85.0946 539.9432)">
			</image>
		</g>
		<g id="USHhFw.tif" opacity="0.15">
			
				<image overflow="visible" enable-background="new    " width="214" height="253" id="Layer_1_1_" xlink:href="780C90496DEE9EFB.png"  transform="matrix(0.2493 0 0 0.2493 -85.0946 539.9432)">
			</image>
		</g>
	</g>
</g>
</svg>
