<?xml version="1.0" encoding="utf-8"?>
<!-- Generator: Adobe Illustrator 16.0.0, SVG Export Plug-In . SVG Version: 6.00 Build 0)  -->
<!DOCTYPE svg PUBLIC "-//W3C//DTD SVG 1.1//EN" "http://www.w3.org/Graphics/SVG/1.1/DTD/svg11.dtd">
<svg version="1.1" id="Layer_1" xmlns="http://www.w3.org/2000/svg" xmlns:xlink="http://www.w3.org/1999/xlink" x="0px" y="0px"
	 width="185px" height="151px" viewBox="0 0 185 151" enable-background="new 0 0 185 151" xml:space="preserve">
<g>
	<g>
		
			<ellipse transform="matrix(0.1522 -0.9883 0.9883 0.1522 18.3044 152.1814)" fill="#F6901E" cx="97.858" cy="65.421" rx="46.751" ry="67.834"/>
		<polygon fill="#F6901E" points="78.658,34.638 65.577,20.14 80.433,0.098 93.154,21.559 		"/>
		<polygon fill="#F6901E" points="61.526,40.021 43.604,32.274 48.785,7.869 69.273,22.101 		"/>
		<polygon fill="#F6901E" points="118.916,41.726 116.518,22.348 140.182,14.45 138.293,39.325 		"/>
		<polygon fill="#F6901E" points="101.628,34.381 91.394,17.755 109.633,0.734 118.257,24.145 		"/>
		<polygon fill="#F6901E" points="146.078,63.851 152.711,45.486 177.389,49.152 164.443,70.482 		"/>
		<polygon fill="#F6901E" points="135.844,49.413 136.55,29.901 161.169,25.86 155.355,50.12 		"/>
		<polygon fill="#F6901E" points="70.305,88.859 53.469,98.748 61.604,122.332 80.194,105.693 		"/>
		<polygon fill="#F6901E" points="57.308,80.173 37.803,79.271 14.998,105.859 23.035,114.857 0.106,150.902 49.273,117.975 
			42.245,109.427 56.403,99.68 		"/>
		<polygon fill="#F6901E" points="110.831,94.215 102.71,111.973 122.9,126.626 128.589,102.334 		"/>
		<polygon fill="#F6901E" points="92.134,96.018 77.368,108.791 89.643,130.514 104.91,110.781 		"/>
		<polygon fill="#F6901E" points="143.395,81.291 144.189,100.8 168.827,104.729 162.902,80.493 		"/>
		<polygon fill="#F6901E" points="150.323,76.898 164.542,90.281 184.895,75.854 163.707,62.681 		"/>
		<polygon fill="#F6901E" points="48.937,48.887 48.14,29.377 23.503,25.448 29.428,49.684 		"/>
		<polygon fill="#F6901E" points="46.249,66.326 39.619,84.689 14.941,81.023 27.885,59.695 		"/>
		<polygon fill="#F6901E" points="40.963,60.052 23.376,68.537 8.309,48.653 32.479,42.466 		"/>
		<polygon fill="#F6901E" points="129.286,91.979 124.09,110.799 146.35,122.062 148.107,97.175 		"/>
	</g>
	<g>
		<g enable-background="new    ">
			<path fill="#FFFFFF" d="M39.448,48.827l-1.122-1.305c0.3-0.334,0.589-0.639,0.868-0.914l0.892-0.861
				c-0.132-0.041-0.514-0.192-1.15-0.455c-0.439-0.188-0.733-0.324-0.881-0.407l0.667-1.716c0.66,0.421,1.26,0.88,1.805,1.376
				c-0.021-1.091,0.008-1.989,0.088-2.691l1.456,0.153c-0.05,0.475-0.218,1.364-0.502,2.667l0.754-0.317
				c0.531-0.222,1.01-0.409,1.44-0.56l0.25,1.864c-0.634,0.103-1.357,0.193-2.17,0.27l1.244,2.18l-1.361,0.883l-0.891-2.356
				C40.455,47.294,39.992,48.024,39.448,48.827z"/>
		</g>
		<g enable-background="new    ">
			<path fill="#FFFFFF" d="M44.601,63.52l2.175-20.779l3.346,0.35l5.522,14.607l1.453-13.877l3.203,0.335l-2.175,20.78l-3.459-0.362
				l-5.442-14.269l-1.418,13.551L44.601,63.52z"/>
			<path fill="#FFFFFF" d="M62.117,54.978c0.259-2.476,0.839-4.476,1.739-6c0.9-1.525,1.982-2.618,3.246-3.279
				s2.737-0.903,4.418-0.727c2.438,0.255,4.326,1.394,5.667,3.416c1.34,2.022,1.832,4.753,1.472,8.193
				c-0.364,3.478-1.461,6.109-3.291,7.895c-1.608,1.58-3.637,2.242-6.084,1.986c-2.466-0.258-4.323-1.317-5.571-3.177
				C62.293,61.158,61.76,58.39,62.117,54.978z M65.677,55.208c-0.25,2.391,0.015,4.231,0.799,5.522
				c0.783,1.29,1.847,2.006,3.19,2.146c1.354,0.142,2.537-0.334,3.55-1.427c1.014-1.093,1.65-2.868,1.907-5.325
				c0.252-2.41,0.006-4.236-0.74-5.479c-0.746-1.244-1.819-1.939-3.219-2.085s-2.602,0.314-3.604,1.385
				C66.56,51.015,65.932,52.77,65.677,55.208z"/>
			<path fill="#FFFFFF" d="M86.912,67.948l2.175-20.78l11.678,1.223l-0.368,3.515l-8.249-0.864l-0.515,4.919l7.144,0.748
				l-0.368,3.515l-7.144-0.748l-0.924,8.831L86.912,67.948z"/>
			<path fill="#FFFFFF" d="M101.44,69.469l2.175-20.78l12.644,1.324l-0.368,3.515l-9.214-0.964l-0.481,4.606l8.561,0.896
				l-0.367,3.501l-8.561-0.896l-0.59,5.642l9.525,0.997l-0.368,3.516L101.44,69.469z"/>
			<path fill="#FFFFFF" d="M117.316,71.13l2.175-20.78l12.644,1.324l-0.368,3.515l-9.213-0.964l-0.481,4.606l8.561,0.896
				l-0.367,3.501l-8.561-0.896l-0.59,5.641l9.524,0.997l-0.368,3.516L117.316,71.13z"/>
			<path fill="#FFFFFF" d="M133.021,65.924l3.401-0.045c0.1,2.695,1.199,4.152,3.297,4.372c1.039,0.109,1.885-0.077,2.537-0.558
				c0.651-0.481,1.021-1.123,1.104-1.925c0.05-0.473-0.013-0.884-0.186-1.237c-0.174-0.352-0.462-0.657-0.864-0.913
				c-0.403-0.258-1.396-0.722-2.979-1.393c-1.418-0.597-2.439-1.19-3.065-1.78c-0.626-0.591-1.096-1.33-1.409-2.216
				c-0.313-0.888-0.42-1.818-0.317-2.79c0.118-1.134,0.482-2.126,1.094-2.979c0.609-0.852,1.392-1.462,2.348-1.831
				c0.955-0.367,2.1-0.481,3.432-0.342c2.003,0.209,3.51,0.917,4.521,2.121c1.012,1.205,1.443,2.821,1.299,4.851l-3.464-0.176
				c-0.035-1.131-0.278-1.945-0.733-2.441c-0.454-0.496-1.144-0.793-2.07-0.891c-0.926-0.097-1.66,0.022-2.2,0.356
				c-0.542,0.333-0.843,0.788-0.903,1.362c-0.059,0.565,0.119,1.065,0.532,1.499c0.415,0.433,1.415,0.968,3.002,1.602
				c1.676,0.683,2.87,1.34,3.581,1.974c0.712,0.633,1.226,1.408,1.54,2.325c0.313,0.916,0.406,1.998,0.275,3.245
				c-0.188,1.805-0.902,3.263-2.141,4.375c-1.239,1.112-3.039,1.545-5.402,1.298C135.072,73.348,132.997,70.727,133.021,65.924z"/>
		</g>
		<g enable-background="new    ">
			<path fill="#FFFFFF" d="M44.099,81.779l1.269-12.121l6.812,0.713l-0.215,2.05l-4.812-0.503l-0.3,2.869l4.167,0.436l-0.214,2.051
				l-4.167-0.436l-0.539,5.15L44.099,81.779z"/>
			<path fill="#FFFFFF" d="M52.786,76.637c0.151-1.444,0.488-2.611,1.014-3.501c0.525-0.89,1.156-1.527,1.893-1.913
				c0.736-0.385,1.595-0.526,2.578-0.424c1.422,0.149,2.523,0.813,3.305,1.993c0.783,1.18,1.069,2.773,0.859,4.78
				c-0.212,2.027-0.853,3.562-1.92,4.605c-0.939,0.92-2.121,1.307-3.548,1.158c-1.438-0.15-2.522-0.77-3.25-1.854
				C52.887,80.241,52.577,78.627,52.786,76.637z M54.861,76.771c-0.146,1.395,0.01,2.468,0.467,3.221
				c0.457,0.753,1.077,1.171,1.861,1.253c0.789,0.082,1.479-0.195,2.071-0.832c0.591-0.639,0.961-1.674,1.111-3.107
				c0.147-1.405,0.004-2.47-0.431-3.196c-0.435-0.725-1.06-1.131-1.877-1.216s-1.518,0.184-2.102,0.808
				C55.377,74.325,55.01,75.348,54.861,76.771z"/>
			<path fill="#FFFFFF" d="M63.38,83.797l1.269-12.121l4.225,0.442c1.081,0.113,1.841,0.302,2.281,0.568
				c0.441,0.266,0.78,0.684,1.023,1.252c0.241,0.568,0.322,1.228,0.243,1.977c-0.099,0.949-0.406,1.688-0.921,2.219
				c-0.515,0.531-1.2,0.827-2.053,0.889c0.398,0.354,0.719,0.729,0.96,1.124c0.242,0.396,0.557,1.094,0.943,2.093l0.96,2.491
				l-2.395-0.251l-1.176-2.79c-0.423-1.008-0.716-1.642-0.878-1.901c-0.163-0.259-0.343-0.445-0.542-0.558
				c-0.201-0.113-0.532-0.193-0.996-0.242l-0.413-0.043l-0.529,5.06L63.38,83.797z M66.113,77.012l1.488,0.156
				c0.909,0.095,1.493,0.115,1.749,0.062s0.474-0.194,0.654-0.421c0.18-0.226,0.291-0.541,0.333-0.943
				c0.04-0.386-0.004-0.704-0.134-0.955c-0.13-0.25-0.323-0.433-0.577-0.549c-0.181-0.08-0.721-0.167-1.62-0.261l-1.571-0.165
				L66.113,77.012z"/>
			<path fill="#FFFFFF" d="M84.247,76.729l-1.869,0.055c0.005-0.907-0.31-1.395-0.946-1.461c-0.415-0.043-0.782,0.146-1.103,0.569
				c-0.322,0.424-0.59,1.317-0.806,2.683c0.274-0.316,0.566-0.545,0.876-0.686c0.31-0.141,0.643-0.191,0.997-0.154
				c0.777,0.08,1.418,0.514,1.922,1.299c0.504,0.785,0.694,1.777,0.568,2.978c-0.134,1.278-0.544,2.248-1.234,2.911
				c-0.688,0.662-1.485,0.947-2.391,0.852c-0.993-0.104-1.768-0.662-2.323-1.676c-0.554-1.013-0.718-2.613-0.489-4.8
				c0.232-2.22,0.739-3.782,1.52-4.686s1.704-1.3,2.769-1.188c0.734,0.077,1.328,0.39,1.781,0.94
				C83.973,74.914,84.215,75.702,84.247,76.729z M79.4,81.35c-0.08,0.765,0.001,1.363,0.243,1.799
				c0.243,0.434,0.547,0.67,0.912,0.708c0.354,0.037,0.665-0.101,0.936-0.411c0.27-0.311,0.445-0.849,0.525-1.613
				c0.083-0.793,0.017-1.383-0.2-1.773c-0.217-0.389-0.513-0.604-0.889-0.643c-0.365-0.039-0.693,0.102-0.984,0.422
				C79.653,80.158,79.473,80.662,79.4,81.35z"/>
			<path fill="#FFFFFF" d="M88.813,86.459l1.269-12.121l3.001,0.314l0.94,8.466l2.659-8.089l3.016,0.315L98.43,87.466l-1.869-0.195
				l0.999-9.55l-2.98,9.342l-1.931-0.201l-0.967-9.756l-1,9.55L88.813,86.459z"/>
			<path fill="#FFFFFF" d="M100.626,81.645c0.151-1.445,0.489-2.611,1.015-3.502c0.525-0.889,1.156-1.526,1.893-1.912
				c0.736-0.385,1.596-0.526,2.578-0.424c1.422,0.149,2.524,0.813,3.306,1.993c0.783,1.179,1.068,2.772,0.858,4.779
				c-0.212,2.028-0.852,3.563-1.92,4.605c-0.938,0.921-2.121,1.308-3.549,1.158c-1.438-0.15-2.521-0.769-3.249-1.854
				C100.728,85.249,100.418,83.635,100.626,81.645z M102.702,81.777c-0.146,1.395,0.01,2.469,0.467,3.221
				c0.457,0.754,1.077,1.171,1.861,1.253c0.79,0.083,1.48-0.194,2.071-0.832s0.962-1.673,1.111-3.106
				c0.147-1.406,0.003-2.471-0.431-3.196c-0.435-0.726-1.061-1.131-1.878-1.216c-0.817-0.086-1.519,0.184-2.102,0.808
				C103.218,79.332,102.851,80.355,102.702,81.777z"/>
			<path fill="#FFFFFF" d="M111.237,88.807l1.269-12.121l1.951,0.204l3.221,8.521l0.848-8.095l1.869,0.196l-1.269,12.121
				l-2.019-0.212l-3.174-8.323l-0.827,7.904L111.237,88.807z"/>
			<path fill="#FFFFFF" d="M123.476,90.088l1.054-10.071l-2.953-0.31l0.215-2.05l7.896,0.827l-0.215,2.05l-2.943-0.308l-1.054,10.07
				L123.476,90.088z"/>
			<path fill="#FFFFFF" d="M129.726,90.742l1.269-12.121l2,0.209l-0.5,4.771l3.944,0.413l0.5-4.771l2.001,0.21l-1.269,12.121
				l-2.001-0.21l0.555-5.3l-3.944-0.413l-0.555,5.301L129.726,90.742z"/>
			<path fill="#FFFFFF" d="M139.646,87.784l1.985-0.026c0.058,1.572,0.698,2.422,1.922,2.551c0.607,0.062,1.101-0.045,1.48-0.326
				c0.381-0.28,0.596-0.654,0.645-1.123c0.029-0.275-0.007-0.516-0.108-0.722c-0.102-0.205-0.27-0.383-0.504-0.533
				c-0.235-0.149-0.814-0.421-1.737-0.812c-0.828-0.348-1.424-0.694-1.79-1.038c-0.364-0.344-0.638-0.775-0.821-1.293
				c-0.183-0.518-0.244-1.06-0.185-1.627c0.069-0.661,0.281-1.24,0.638-1.737c0.355-0.497,0.812-0.854,1.369-1.067
				c0.558-0.215,1.225-0.281,2.003-0.2c1.168,0.122,2.047,0.534,2.637,1.237c0.59,0.702,0.842,1.646,0.757,2.83l-2.021-0.104
				c-0.019-0.659-0.162-1.135-0.428-1.424c-0.265-0.289-0.667-0.463-1.207-0.52c-0.541-0.057-0.968,0.013-1.284,0.207
				c-0.316,0.195-0.491,0.461-0.526,0.795c-0.034,0.33,0.068,0.621,0.311,0.875c0.241,0.252,0.826,0.564,1.751,0.934
				c0.978,0.398,1.674,0.782,2.089,1.151c0.416,0.369,0.716,0.821,0.898,1.356c0.184,0.534,0.237,1.165,0.161,1.893
				c-0.11,1.053-0.527,1.903-1.249,2.553c-0.724,0.648-1.774,0.9-3.151,0.756C140.843,92.115,139.633,90.586,139.646,87.784z"/>
		</g>
	</g>
</g>
</svg>
