<?xml version="1.0" encoding="utf-8"?>
<!-- Generator: Adobe Illustrator 18.1.1, SVG Export Plug-In . SVG Version: 6.00 Build 0)  -->
<svg version="1.1" id="Layer_1" xmlns="http://www.w3.org/2000/svg" xmlns:xlink="http://www.w3.org/1999/xlink" x="0px" y="0px"
	 viewBox="0 0 126 39" enable-background="new 0 0 126 39" xml:space="preserve">
<g>
	<path d="M122.2,38.5H3.8c-2,0-3.6-1.6-3.6-3.6V4.1c0-2,1.6-3.6,3.6-3.6h118.4c2,0,3.6,1.6,3.6,3.6v30.8
		C125.9,36.9,124.2,38.5,122.2,38.5z"/>
	<g>
		<rect x="98.4" y="17.5" fill="#FFFFFF" width="0.9" height="10.9"/>
		<path fill="#FFFFFF" d="M107.2,27.1v-4.4c0,0-0.1-2.4-3.1-2.4c-3,0-3.1,2.2-3.1,2.2l1,0c0,0,0-1.5,2.1-1.5s2.2,1.8,2.2,1.8v1.1
			l-1.8,0c-2.6,0-3.8,1-3.8,2.4c0,1.4,0.8,2.4,2.6,2.4c1.9,0,2.9-1.3,2.9-1.3c0,0.5,0.3,1.1,0.3,1.1h1
			C107.5,28.3,107.2,27.7,107.2,27.1z M106.2,25.5c0,1.6-1.9,2.3-2.9,2.3s-1.8-0.5-1.8-1.5c0-1.1,1.3-1.8,2.8-1.8h1.9V25.5z"/>
		<path fill="#FFFFFF" d="M108.1,20.5h0.9l2.9,6.7l2.8-6.7h1.1c0,0-3.7,8.7-4.1,9.6c-0.3,0.8-1.2,1.6-2.2,1.6
			c-0.5,0-0.9-0.3-0.9-0.3l0.3-0.7c0,0,0.2,0.1,0.7,0.1c0.4,0,1.2-1,1.2-1l0.6-1.3L108.1,20.5z"/>
		<path fill="#FFFFFF" d="M93.7,20.3c-1.7,0-2.8,1.4-2.8,1.4v-1.2h0H90v10.9h0.9h0v-4.3c0,0.1,0.9,1.5,2.8,1.5c2,0,3.5-1.3,3.5-4.2
			C97.2,21.4,95.4,20.3,93.7,20.3z M93.5,27.8c-1.6,0-2.6-1.7-2.7-1.7v-3.4c0,0,1.2-1.6,2.8-1.6c1.4,0,2.6,1.5,2.6,3.4
			C96.3,26.3,95.2,27.8,93.5,27.8z"/>
		<linearGradient id="SVGID_1_" gradientUnits="userSpaceOnUse" x1="29.3752" y1="25.7543" x2="26.3053" y2="19.7291">
			<stop  offset="0" style="stop-color:#FBCF8E"/>
			<stop  offset="1" style="stop-color:#F69674"/>
		</linearGradient>
		<path fill="url(#SVGID_1_)" d="M26.9,27c2.9-1.6,5.1-2.8,5.3-2.9c0.6-0.3,1.2-1.2,0-1.8c-0.4-0.2-2.5-1.4-5.3-2.9l-3.8,3.8
			L26.9,27z"/>
		<linearGradient id="SVGID_2_" gradientUnits="userSpaceOnUse" x1="24.9113" y1="24.8572" x2="13.2222" y2="37.3922">
			<stop  offset="0" style="stop-color:#E64048"/>
			<stop  offset="1" style="stop-color:#7F509F"/>
		</linearGradient>
		<path fill="url(#SVGID_2_)" d="M23.2,23.2L11.1,35.4c0.3,0,0.6,0,1-0.2c0.8-0.4,9.2-5,14.9-8.1L23.2,23.2z"/>
		<linearGradient id="SVGID_3_" gradientUnits="userSpaceOnUse" x1="24.9735" y1="21.4581" x2="13.0989" y2="9.1617">
			<stop  offset="0" style="stop-color:#E4EBA9"/>
			<stop  offset="1" style="stop-color:#49BDBB"/>
		</linearGradient>
		<path fill="url(#SVGID_3_)" d="M23.2,23.2l3.8-3.8c0,0-14-7.7-14.9-8.1c-0.3-0.2-0.7-0.2-1-0.2L23.2,23.2z"/>
		<linearGradient id="SVGID_4_" gradientUnits="userSpaceOnUse" x1="16.6542" y1="35.3881" x2="16.6542" y2="11.1264">
			<stop  offset="0" style="stop-color:#91D3CE"/>
			<stop  offset="1" style="stop-color:#187490"/>
		</linearGradient>
		<path fill="url(#SVGID_4_)" d="M23.2,23.2L11.1,11.1c-0.5,0.1-0.9,0.5-0.9,1.4c0,1.4,0,20.2,0,21.4c0,0.8,0.3,1.4,0.9,1.5
			L23.2,23.2z"/>
		<path fill="#FFFFFF" d="M48,18.2c0,0-1.3-1.3-4.6-1.3c-4,0-6.3,3.1-6.3,5.9c0,2.5,1.7,5.7,6.1,5.7c2.2,0,4.8-0.8,4.8-0.8s0-1,0-2
			c0-1,0.7-1.3,0.7-1.3h-3.5l-1.2,0.7c0.7-0.2,2.4-0.1,2.4-0.1v2.4c0,0-0.8,0.4-1.9,0.4c-3.4,0-5.6-3-5.6-5.7c0-3.3,2.4-4.7,4.4-4.7
			c2.1,0,3.2,1.5,3.2,1.5l-0.4,0.6l0.6-0.2L48,18.2z"/>
		<path fill="#FFFFFF" d="M53.5,20.3c-2.3,0-4.2,1.7-4.2,4.2c0,1.8,1.4,3.9,4,3.9c2.5,0,4.3-1.7,4.3-4.1
			C57.6,22,55.8,20.3,53.5,20.3z M53.7,27.9c-1.9,0-2.8-3-2.8-4.5c0-1.5,1-2.6,2.2-2.6c1.7,0,2.8,2,2.8,4.3
			C55.9,25.9,55.6,27.9,53.7,27.9z"/>
		<path fill="#FFFFFF" d="M62.6,20.3c-2.3,0-4.2,1.7-4.2,4.2c0,1.8,1.4,3.9,4,3.9c2.5,0,4.3-1.7,4.3-4.1
			C66.6,22,64.9,20.3,62.6,20.3z M62.8,27.9c-1.9,0-2.8-3-2.8-4.5c0-1.5,1-2.6,2.2-2.6c1.7,0,2.8,2,2.8,4.3
			C64.9,25.9,64.7,27.9,62.8,27.9z"/>
		<path fill="#FFFFFF" d="M73.3,27.8c-0.8-0.6-1-0.8-1-1.1c0-0.2,0-0.4,0.6-1c0.6-0.6,1.1-1.1,1.1-2.2c0-1.6-1.1-2.3-1.1-2.3l1,0
			l1-0.6c0,0-1.9,0-3.9,0c-2,0-3.5,1.6-3.5,3.2c0,1.2,1,2.6,3,2.6c0.2,0,0.3,0,0.3,0s-0.1,0.3-0.1,0.6c0,0.6,0.5,1.1,0.5,1.1
			s-4.6,0-4.6,2.9c0,1.8,2,2.4,3.6,2.4c1.6,0,4.4-0.9,4.4-3.1C74.7,29.2,74.2,28.4,73.3,27.8z M71.2,25.9c-1.2,0-2.1-1.8-2.1-2.9
			c0-1.1,0.5-1.9,1.5-1.9c1,0,2.1,1.1,2.1,3.1C72.6,25,72.4,25.9,71.2,25.9z M71.1,32.7c-0.6,0-2.9-0.2-2.9-2.1c0-1.9,2.7-2,3-2
			c0.3,0,0.6,0,0.6,0c0.8,0.7,1.8,1.1,1.8,2.3C73.5,32.6,71.6,32.7,71.1,32.7z"/>
		<path fill="#FFFFFF" d="M74.8,16.9l1.1-0.6h2.5c-0.6,0.3-0.8,0.6-0.8,2c0,1.4-0.1,8.7-0.1,8.7c0,0.5,0.5,0.7,0.9,0.7
			c0.4,0,0.6,0.1,0.6,0.1l-0.5,0.4h-3c0,0,0.4-0.4,0.4-0.8l0.2-10.5L74.8,16.9z"/>
		<path fill="#FFFFFF" d="M85.8,22.4c0,0-0.4-2.1-2.9-2.1c-2.5,0-3.8,2-3.8,3.9c0,2,1.2,4.2,4.1,4.2c2,0,2.9-1.5,2.9-1.5
			s-1,0.6-2,0.6c-1.6,0-3.5-1.7-3.5-4.2c0-1.7,1.2-2.4,1.9-2.4c1.5,0,1.7,1.3,1.6,1.6c-0.1,0.2-3.5,1.6-3.5,1.6l1.3-0.1L85.8,22.4z"
			/>
		<text transform="matrix(1 0 0 1 37.1457 11.5114)" fill="#FFFFFF" font-family="'Raleway-Medium'" font-size="9.2489">GET IT ON</text>
	</g>
</g>
</svg>
