<?xml version="1.0" encoding="utf-8"?>
<!-- Generator: Adobe Illustrator 18.1.1, SVG Export Plug-In . SVG Version: 6.00 Build 0)  -->
<svg version="1.1" id="Layer_1" xmlns="http://www.w3.org/2000/svg" xmlns:xlink="http://www.w3.org/1999/xlink" x="0px" y="0px"
	 viewBox="21 39 193 93" enable-background="new 21 39 193 93" xml:space="preserve">
<g>
	<path fill="#5E5E5E" d="M142.4,105.8h2.9l-3.6,5.4l0.4,0.6l3.4,4.9h-3.2l-2.9-4.7v4.7h-2.8v-5.2v-5.6h2.8v4.9L142.4,105.8z
		 M135.1,104.6c-0.4,0-0.7,0.3-0.7,0.7v5.6v6.3c0,0.4,0.3,0.7,0.7,0.7H147c0.4,0,0.7-0.3,0.7-0.7v-6.3v-5.6c0-0.4-0.3-0.7-0.7-0.7
		L135.1,104.6L135.1,104.6z"/>
	<g>
		<g>
			<g>
				<defs>
					<path id="SVGID_1_" d="M142.4,105.8h2.9l-3.6,5.4l0.4,0.6l3.4,4.8h-3.2l-2.9-4.7v4.7h-2.8v-5.2v-5.6h2.8v4.9L142.4,105.8z
						 M135.1,104.6c-0.4,0-0.7,0.3-0.7,0.7v5.6v6.3c0,0.4,0.3,0.7,0.7,0.7H147c0.4,0,0.7-0.3,0.7-0.7v-6.3v-5.6
						c0-0.4-0.3-0.7-0.7-0.7C147,104.6,135.1,104.6,135.1,104.6z"/>
				</defs>
				<clipPath id="SVGID_2_">
					<use xlink:href="#SVGID_1_"  overflow="visible"/>
				</clipPath>
				<rect x="134.4" y="104.6" clip-path="url(#SVGID_2_)" fill="#5E5E5E" width="13.2" height="13.2"/>
			</g>
		</g>
	</g>
	<polygon fill="#5E5E5E" points="207.8,105.8 207.8,116.6 213.7,116.6 213.7,114.2 210.5,114.2 210.5,105.8 	"/>
	<g>
		<g>
			<g>
				<defs>
					<polygon id="SVGID_3_" points="207.8,105.8 207.8,116.6 213.7,116.6 213.7,114.2 210.5,114.2 210.5,105.8 					"/>
				</defs>
				<clipPath id="SVGID_4_">
					<use xlink:href="#SVGID_3_"  overflow="visible"/>
				</clipPath>
				<rect x="207.8" y="105.8" clip-path="url(#SVGID_4_)" fill="#5E5E5E" width="6" height="10.8"/>
			</g>
		</g>
	</g>
	<path fill="#5E5E5E" d="M155.1,109.1L155.1,109.1l1.2,3.7H154L155.1,109.1z M154,105.8l-4.3,10.8h3l0.6-1.6h3.8l0.5,1.6h3
		l-4.3-10.8H154z"/>
	<g>
		<g>
			<g>
				<defs>
					<path id="SVGID_5_" d="M155.1,109.2L155.1,109.2l1.1,3.7H154L155.1,109.2z M154,105.8l-4.3,10.8h3l0.6-1.6h3.8l0.5,1.6h3
						l-4.3-10.8H154z"/>
				</defs>
				<clipPath id="SVGID_6_">
					<use xlink:href="#SVGID_5_"  overflow="visible"/>
				</clipPath>
				<rect x="149.7" y="105.8" clip-path="url(#SVGID_6_)" fill="#5E5E5E" width="10.8" height="10.8"/>
			</g>
		</g>
	</g>
	<path fill="#5E5E5E" d="M165.3,108.2h1c0.2,0,0.5,0,0.7,0c0.3,0,0.5,0.1,0.7,0.3c0.2,0.2,0.3,0.5,0.3,0.9c0,0.4-0.1,0.7-0.3,0.9
		c-0.2,0.2-0.4,0.3-0.7,0.3c-0.3,0-0.5,0.1-0.7,0.1h-1.1L165.3,108.2L165.3,108.2z M162.7,105.8v10.8h2.6v-3.4h1.2
		c0.8,0,1.5-0.1,1.9-0.2c0.5-0.2,0.9-0.4,1.2-0.7c0.3-0.3,0.6-0.7,0.8-1.2c0.2-0.5,0.3-1,0.3-1.6c0-0.6-0.1-1.1-0.3-1.6
		c-0.2-0.5-0.5-0.9-1-1.3c-0.3-0.2-0.6-0.4-1.1-0.6c-0.5-0.1-1.2-0.2-2.2-0.2L162.7,105.8L162.7,105.8z"/>
	<g>
		<g>
			<g>
				<defs>
					<path id="SVGID_7_" d="M165.3,108.2h1c0.2,0,0.5,0,0.7,0c0.3,0,0.5,0.1,0.8,0.3c0.2,0.2,0.3,0.5,0.3,0.9c0,0.4-0.1,0.7-0.3,0.9
						c-0.2,0.2-0.4,0.3-0.7,0.3c-0.3,0-0.5,0.1-0.7,0.1h-1.1V108.2z M162.7,105.8v10.8h2.6v-3.4h1.2c0.8,0,1.5-0.1,1.9-0.2
						c0.5-0.2,0.9-0.4,1.2-0.7c0.3-0.3,0.6-0.7,0.8-1.2c0.2-0.5,0.3-1,0.3-1.6c0-0.6-0.1-1.1-0.3-1.6c-0.2-0.5-0.5-0.9-0.9-1.3
						c-0.3-0.2-0.6-0.4-1.1-0.6c-0.5-0.1-1.2-0.2-2.2-0.2L162.7,105.8L162.7,105.8z"/>
				</defs>
				<clipPath id="SVGID_8_">
					<use xlink:href="#SVGID_7_"  overflow="visible"/>
				</clipPath>
				<rect x="162.7" y="105.8" clip-path="url(#SVGID_8_)" fill="#5E5E5E" width="8.1" height="10.8"/>
			</g>
		</g>
	</g>
	<rect x="173" y="105.8" fill="#5E5E5E" width="2.8" height="10.8"/>
	<g>
		<g>
			<g>
				<defs>
					<rect id="SVGID_9_" x="173" y="105.8" width="2.8" height="10.8"/>
				</defs>
				<clipPath id="SVGID_10_">
					<use xlink:href="#SVGID_9_"  overflow="visible"/>
				</clipPath>
				<rect x="173" y="105.8" clip-path="url(#SVGID_10_)" fill="#5E5E5E" width="2.8" height="10.8"/>
			</g>
		</g>
	</g>
	<polygon fill="#5E5E5E" points="178.5,105.8 178.5,108.2 180.7,108.2 180.7,116.6 183.4,116.6 183.4,108.2 185.5,108.2 
		185.5,105.8 	"/>
	<g>
		<g>
			<g>
				<defs>
					<polygon id="SVGID_11_" points="178.5,105.8 178.5,108.2 180.7,108.2 180.7,116.6 183.4,116.6 183.4,108.2 185.5,108.2 
						185.5,105.8 					"/>
				</defs>
				<clipPath id="SVGID_12_">
					<use xlink:href="#SVGID_11_"  overflow="visible"/>
				</clipPath>
				<rect x="178.5" y="105.8" clip-path="url(#SVGID_12_)" fill="#5E5E5E" width="7" height="10.8"/>
			</g>
		</g>
	</g>
	<path fill="#5E5E5E" d="M192,109.1L192,109.1l1.2,3.7h-2.3L192,109.1z M190.9,105.8l-4.3,10.8h3l0.6-1.6h3.8l0.5,1.6h3l-4.3-10.8
		H190.9z"/>
	<g>
		<g>
			<g>
				<defs>
					<path id="SVGID_13_" d="M192,109.2L192,109.2l1.2,3.7h-2.3L192,109.2z M190.9,105.8l-4.3,10.8h3l0.6-1.6h3.7l0.5,1.6h3
						l-4.3-10.8H190.9z"/>
				</defs>
				<clipPath id="SVGID_14_">
					<use xlink:href="#SVGID_13_"  overflow="visible"/>
				</clipPath>
				<rect x="186.6" y="105.8" clip-path="url(#SVGID_14_)" fill="#5E5E5E" width="10.8" height="10.8"/>
			</g>
		</g>
	</g>
	<polygon fill="#5E5E5E" points="199.6,105.8 199.6,116.6 205.6,116.6 205.6,114.2 202.4,114.2 202.4,105.8 	"/>
	<g>
		<g>
			<g>
				<defs>
					<polygon id="SVGID_15_" points="199.6,105.8 199.6,116.6 205.6,116.6 205.6,114.2 202.4,114.2 202.4,105.8 					"/>
				</defs>
				<clipPath id="SVGID_16_">
					<use xlink:href="#SVGID_15_"  overflow="visible"/>
				</clipPath>
				<rect x="199.6" y="105.8" clip-path="url(#SVGID_16_)" fill="#5E5E5E" width="6" height="10.8"/>
			</g>
		</g>
	</g>
	<path fill="#5E5E5E" d="M118.6,108.7c0,0.9-0.4,1.6-1.2,2.1c1.1,0.3,1.8,1.3,1.8,2.6c0,1.1-0.4,2-1.1,2.6c-0.8,0.7-1.7,0.8-2.9,0.8
		h-2.6v-11.1h2.4C117.4,105.6,118.6,106.7,118.6,108.7 M115.5,115.3c1.5,0,2.2-0.5,2.2-1.7c0-1.3-0.7-1.9-2.2-1.9h-1.3v3.6
		L115.5,115.3L115.5,115.3z M114.7,110.3c1.6,0,2.3-0.4,2.3-1.6c0-1-0.6-1.5-2-1.5h-0.9v3.1L114.7,110.3L114.7,110.3z"/>
	<polygon fill="#5E5E5E" points="124.3,116.8 122.7,116.8 122.7,112.7 119.3,105.6 121.1,105.6 123.5,111 126,105.6 127.8,105.6 
		124.3,112.8 	"/>
	<polygon fill="#5E5E5E" points="112.9,61.4 112.9,39.6 120.2,39.6 124.4,52.9 128.6,39.6 135.8,39.6 135.8,61.4 130.7,61.4 
		130.7,47 126.2,61.4 122.5,61.4 118,47 118,61.4 	"/>
	<path fill="#5E5E5E" d="M142,61.4h-5.8l8.4-21.8h4.4l8.4,21.8h-5.9l-1.1-3.2h-7.2L142,61.4z M146.7,46.7l-2.2,7h4.3L146.7,46.7z"/>
	<polygon fill="#5E5E5E" points="159.6,61.4 159.6,44.7 155.5,44.7 155.5,39.6 169,39.6 169,44.7 164.9,44.7 164.9,61.4 	"/>
	<path fill="#5E5E5E" d="M180.3,61.8c-3.2,0-5.9-1.2-8.1-3.5c-2.1-2.2-3.1-4.9-3.1-8.1c0-3,1.1-5.8,3.3-7.9c2.1-2.1,4.8-3.2,7.9-3.2
		c5.1,0,9.4,3.3,10.9,8.7h-5.8c-1.2-2.1-2.9-3.3-5.1-3.3c-3.2,0-5.8,2.5-5.8,5.7c0,3.5,2.7,6.1,5.7,6.1c2.1,0,3.9-1.1,5-3.1h5.8
		C189.6,58.6,185.5,61.8,180.3,61.8"/>
	<polygon fill="#5E5E5E" points="204.5,53.1 199,53.1 199,61.4 193.7,61.4 193.7,39.6 199,39.6 199,47.9 204.5,47.9 204.5,39.6 
		209.8,39.6 209.8,61.4 204.5,61.4 	"/>
	<rect x="112.9" y="67.1" fill="#5E5E5E" width="7.9" height="32.4"/>
	<polygon fill="#5E5E5E" points="129.6,99.5 129.6,74.6 123.6,74.6 123.6,67.1 143.7,67.1 143.7,74.6 137.5,74.6 137.5,99.5 	"/>
	<path fill="#5E5E5E" d="M167.5,67.1v19.9c0,3.6,1.1,5.5,3.8,5.5c2.8,0,4.1-1.8,4.1-5.5V67.1h7.9v20.3c0,7.9-4.8,12.6-12.1,12.6
		c-7.3,0-11.8-4.5-11.8-12.6V67.1H167.5z"/>
	<path fill="#5E5E5E" d="M188.5,99.5V67.1h10.7c3.4,0,6,0.2,8.2,1.8c2.9,2,4.4,5.1,4.4,9.1c0,4.2-1.9,7.7-5.1,9.6
		c-2.1,1.2-4.6,1.5-8,1.5h-2.3v10.4L188.5,99.5L188.5,99.5L188.5,99.5z M198,82.1c3.9,0,5.8-1,5.8-3.9c0-2.7-1.7-3.8-5.2-3.8h-2.1
		v7.7H198z"/>
	<path fill="#8BC53F" d="M29,50.2c0-1.9,1.5-3.2,3.5-3.2H87v-4.8c0-1.9-1.5-3.2-3.5-3.2H24.5c-1.9,0-3.5,1.2-3.5,3.2v59.1
		c0,1.9,1.5,3.7,3.5,3.7H29V50.2z"/>
	<path fill="#30ACB0" d="M100.3,113.3c0,1.9-1.5,3.5-3.5,3.5H37.7c-1.9,0-3.5-1.5-3.5-3.5V54.2c0-1.9,1.5-3.5,3.5-3.5h59.1
		c1.9,0,3.5,1.5,3.5,3.5V113.3z"/>
	<polygon fill="#FFFFFF" points="74.1,86.9 72.4,84.4 88.2,60.6 75.4,60.6 61.8,82.1 61.8,60.6 49.7,60.6 49.7,85.2 49.7,108.3 
		61.9,108.3 61.9,87.7 75,108.3 89.2,108.3 	"/>
</g>
</svg>
