<svg xmlns="http://www.w3.org/2000/svg" width="36" height="36"><path fill="#424143" d="M18 .119c-9.875 0-17.881 8.006-17.881 17.881s8.006 17.881 17.881 17.881 17.88-8.006 17.88-17.881c.001-9.875-8.004-17.881-17.88-17.881m2.683 30.862h-5.364v-17.38h5.364v17.38zm-.485-20.653c-.605.608-1.339.913-2.198.913-.858 0-1.592-.305-2.2-.913-.606-.606-.911-1.34-.911-2.199 0-.857.304-1.592.911-2.199.608-.607 1.342-.912 2.2-.912.859 0 1.592.304 2.198.912.609.607.914 1.342.914 2.199 0 .859-.304 1.593-.914 2.199"/></svg>