<?xml version="1.0" encoding="utf-8"?>
<!-- Generator: Adobe Illustrator 18.1.1, SVG Export Plug-In . SVG Version: 6.00 Build 0)  -->
<svg version="1.1" id="Layer_1" xmlns="http://www.w3.org/2000/svg" xmlns:xlink="http://www.w3.org/1999/xlink" x="0px" y="0px"
	 viewBox="0 0 126 39" enable-background="new 0 0 126 39" xml:space="preserve">
<g>
	<path d="M122.2,38.5H3.8c-2,0-3.6-1.6-3.6-3.6V4.1c0-2,1.6-3.6,3.6-3.6h118.4c2,0,3.6,1.6,3.6,3.6v30.8
		C125.9,36.9,124.2,38.5,122.2,38.5z"/>
	<g>
		<g>
			<path fill="#FFFFFF" d="M27.8,19.3c0-3,2.5-4.5,2.6-4.6c-1.4-2.1-3.6-2.4-4.4-2.4c-1.9-0.2-3.7,1.1-4.6,1.1c-1,0-2.4-1.1-4-1.1
				c-2,0-3.9,1.2-4.9,3c-2.1,3.7-0.5,9.1,1.5,12.1c1,1.5,2.2,3.1,3.8,3c1.5-0.1,2.1-1,4-1c1.8,0,2.4,1,4,0.9c1.6,0,2.7-1.5,3.7-3
				c1.2-1.7,1.7-3.3,1.7-3.4C30.9,24.2,27.8,23,27.8,19.3z"/>
			<path fill="#FFFFFF" d="M24.7,10.4c0.8-1,1.4-2.4,1.2-3.9c-1.2,0.1-2.7,0.8-3.5,1.8c-0.8,0.9-1.4,2.3-1.3,3.7
				C22.5,12.1,23.9,11.4,24.7,10.4z"/>
		</g>
	</g>
	<g>
		<path fill="#FFFFFF" d="M50,30.4h-2.1l-1.2-3.7h-4.1l-1.1,3.7h-2.1l4-12.6h2.5L50,30.4z M46.3,25.1l-1.1-3.3
			c-0.1-0.3-0.3-1.1-0.6-2.4h0c-0.1,0.5-0.3,1.3-0.6,2.4l-1,3.3H46.3z"/>
		<path fill="#FFFFFF" d="M60.4,25.7c0,1.5-0.4,2.8-1.2,3.7c-0.7,0.8-1.7,1.2-2.8,1.2c-1.2,0-2.1-0.4-2.6-1.3h0v4.8h-2v-9.8
			c0-1,0-2-0.1-3h1.8l0.1,1.4h0c0.7-1.1,1.7-1.6,3.1-1.6c1.1,0,2,0.4,2.7,1.3C60,23.2,60.4,24.3,60.4,25.7z M58.3,25.8
			c0-0.9-0.2-1.6-0.6-2.2c-0.4-0.6-1-0.9-1.8-0.9c-0.5,0-0.9,0.2-1.4,0.5c-0.4,0.3-0.7,0.8-0.8,1.3c-0.1,0.2-0.1,0.5-0.1,0.6v1.5
			c0,0.7,0.2,1.2,0.6,1.7c0.4,0.5,0.9,0.7,1.6,0.7c0.8,0,1.3-0.3,1.8-0.9C58.1,27.5,58.3,26.8,58.3,25.8z"/>
		<path fill="#FFFFFF" d="M70.8,25.7c0,1.5-0.4,2.8-1.3,3.7c-0.7,0.8-1.7,1.2-2.8,1.2c-1.2,0-2.1-0.4-2.6-1.3h0v4.8h-2v-9.8
			c0-1,0-2-0.1-3h1.8l0.1,1.4h0c0.7-1.1,1.7-1.6,3.1-1.6c1.1,0,2,0.4,2.7,1.3C70.4,23.2,70.8,24.3,70.8,25.7z M68.7,25.8
			c0-0.9-0.2-1.6-0.6-2.2c-0.4-0.6-1-0.9-1.8-0.9c-0.5,0-0.9,0.2-1.4,0.5c-0.4,0.3-0.7,0.8-0.8,1.3c-0.1,0.2-0.1,0.5-0.1,0.6v1.5
			c0,0.7,0.2,1.2,0.6,1.7c0.4,0.5,0.9,0.7,1.6,0.7c0.8,0,1.3-0.3,1.8-0.9C68.5,27.5,68.7,26.8,68.7,25.8z"/>
		<path fill="#FFFFFF" d="M82.4,26.8c0,1.1-0.4,1.9-1.1,2.6c-0.8,0.7-2,1.1-3.4,1.1c-1.4,0-2.4-0.3-3.3-0.8l0.5-1.7
			c0.9,0.5,1.9,0.8,2.9,0.8c0.8,0,1.3-0.2,1.8-0.5c0.4-0.3,0.6-0.8,0.6-1.4c0-0.5-0.2-0.9-0.5-1.3c-0.3-0.3-0.9-0.7-1.7-1
			c-2.2-0.8-3.3-2-3.3-3.6c0-1,0.4-1.9,1.2-2.5c0.8-0.7,1.8-1,3.1-1c1.1,0,2.1,0.2,2.9,0.6l-0.5,1.6c-0.7-0.4-1.5-0.6-2.4-0.6
			c-0.7,0-1.3,0.2-1.7,0.5c-0.3,0.3-0.5,0.7-0.5,1.1c0,0.5,0.2,0.9,0.6,1.2c0.3,0.3,0.9,0.6,1.8,1c1.1,0.4,1.9,0.9,2.4,1.5
			C82.2,25.3,82.4,26,82.4,26.8z"/>
		<path fill="#FFFFFF" d="M89.1,22.8h-2.2v4.4c0,1.1,0.4,1.7,1.2,1.7c0.4,0,0.7,0,0.9-0.1l0.1,1.5c-0.4,0.1-0.9,0.2-1.6,0.2
			c-0.8,0-1.4-0.2-1.9-0.7c-0.4-0.5-0.7-1.3-0.7-2.4v-4.6h-1.3v-1.5h1.3v-1.7l2-0.6v2.3h2.2V22.8z"/>
		<path fill="#FFFFFF" d="M99.1,25.8c0,1.4-0.4,2.5-1.2,3.4c-0.8,0.9-1.9,1.4-3.3,1.4c-1.3,0-2.4-0.4-3.2-1.3
			c-0.8-0.9-1.2-2-1.2-3.3c0-1.4,0.4-2.6,1.2-3.4c0.8-0.9,1.9-1.3,3.3-1.3c1.3,0,2.4,0.4,3.2,1.3C98.7,23.3,99.1,24.4,99.1,25.8z
			 M97,25.8c0-0.8-0.2-1.6-0.5-2.2c-0.4-0.7-1-1.1-1.8-1.1c-0.8,0-1.4,0.4-1.8,1.1c-0.4,0.6-0.5,1.3-0.5,2.2c0,0.8,0.2,1.6,0.5,2.1
			c0.4,0.7,1,1.1,1.8,1.1c0.8,0,1.4-0.4,1.8-1.1C96.8,27.4,97,26.7,97,25.8z"/>
		<path fill="#FFFFFF" d="M105.6,23.1c-0.2,0-0.4-0.1-0.6-0.1c-0.7,0-1.3,0.3-1.6,0.8c-0.3,0.5-0.5,1.1-0.5,1.8v4.8h-2l0-6.2
			c0-1,0-2-0.1-2.9h1.8l0.1,1.7h0.1c0.2-0.6,0.5-1.1,1-1.4c0.4-0.3,0.9-0.5,1.5-0.5c0.2,0,0.4,0,0.5,0V23.1z"/>
		<path fill="#FFFFFF" d="M114.6,25.4c0,0.4,0,0.7-0.1,0.9h-6c0,0.9,0.3,1.6,0.9,2.1c0.5,0.4,1.2,0.6,2,0.6c0.9,0,1.7-0.1,2.4-0.4
			l0.3,1.4c-0.9,0.4-1.9,0.6-3,0.6c-1.4,0-2.5-0.4-3.3-1.2c-0.8-0.8-1.2-1.9-1.2-3.3c0-1.4,0.4-2.5,1.1-3.4c0.8-1,1.8-1.5,3.2-1.5
			c1.3,0,2.3,0.5,3,1.5C114.4,23.3,114.6,24.3,114.6,25.4z M112.7,24.9c0-0.6-0.1-1.1-0.4-1.5c-0.3-0.6-0.9-0.8-1.6-0.8
			c-0.7,0-1.2,0.3-1.6,0.8c-0.3,0.4-0.5,1-0.6,1.6H112.7z"/>
	</g>
	<g>
		<g>
			<path fill="#FFFFFF" d="M45.6,10.1c0,1.1-0.3,1.9-1,2.5c-0.6,0.5-1.5,0.8-2.6,0.8c-0.6,0-1,0-1.4-0.1V7.2
				c0.5-0.1,1.1-0.1,1.7-0.1c1.1,0,1.9,0.2,2.4,0.7C45.3,8.3,45.6,9.1,45.6,10.1z M44.6,10.1c0-0.7-0.2-1.3-0.6-1.7
				c-0.4-0.4-0.9-0.6-1.7-0.6c-0.3,0-0.6,0-0.8,0.1v4.6c0.1,0,0.3,0,0.7,0c0.8,0,1.3-0.2,1.8-0.6C44.4,11.5,44.6,10.9,44.6,10.1z"/>
			<path fill="#FFFFFF" d="M51.1,11c0,0.7-0.2,1.2-0.6,1.7c-0.4,0.5-1,0.7-1.6,0.7c-0.7,0-1.2-0.2-1.6-0.7c-0.4-0.4-0.6-1-0.6-1.6
				c0-0.7,0.2-1.3,0.6-1.7C47.8,9,48.3,8.8,49,8.8c0.7,0,1.2,0.2,1.6,0.6C51,9.8,51.1,10.4,51.1,11z M50.1,11.1
				c0-0.4-0.1-0.8-0.3-1.1c-0.2-0.4-0.5-0.5-0.9-0.5c-0.4,0-0.7,0.2-0.9,0.5c-0.2,0.3-0.3,0.7-0.3,1.1c0,0.4,0.1,0.8,0.3,1.1
				c0.2,0.4,0.5,0.5,0.9,0.5c0.4,0,0.7-0.2,0.9-0.5C50,11.8,50.1,11.5,50.1,11.1z"/>
			<path fill="#FFFFFF" d="M58.6,8.9l-1.4,4.5h-0.9l-0.6-1.9c-0.1-0.5-0.3-1-0.4-1.4h0c-0.1,0.5-0.2,1-0.4,1.4l-0.6,1.9h-0.9
				l-1.3-4.5h1l0.5,2.1c0.1,0.5,0.2,1,0.3,1.4h0c0.1-0.4,0.2-0.8,0.4-1.4L55,8.9h0.8l0.6,2.1c0.1,0.5,0.3,1,0.4,1.5h0
				c0.1-0.5,0.2-0.9,0.3-1.5l0.5-2.1H58.6z"/>
			<path fill="#FFFFFF" d="M63.7,13.3h-1v-2.5c0-0.8-0.3-1.2-0.9-1.2c-0.3,0-0.5,0.1-0.7,0.3c-0.2,0.2-0.3,0.5-0.3,0.8v2.6h-1v-3.2
				c0-0.4,0-0.8,0-1.3h0.9l0,0.7h0C60.9,9.3,61,9.2,61.3,9c0.3-0.2,0.6-0.2,0.9-0.2c0.4,0,0.8,0.1,1,0.4c0.3,0.3,0.5,0.8,0.5,1.5
				V13.3z"/>
			<path fill="#FFFFFF" d="M66.4,13.3h-1V6.8h1V13.3z"/>
			<path fill="#FFFFFF" d="M72.2,11c0,0.7-0.2,1.2-0.6,1.7c-0.4,0.5-1,0.7-1.6,0.7c-0.7,0-1.2-0.2-1.6-0.7c-0.4-0.4-0.6-1-0.6-1.6
				c0-0.7,0.2-1.3,0.6-1.7c0.4-0.4,0.9-0.7,1.6-0.7c0.7,0,1.2,0.2,1.6,0.6C72.1,9.8,72.2,10.4,72.2,11z M71.2,11.1
				c0-0.4-0.1-0.8-0.3-1.1c-0.2-0.4-0.5-0.5-0.9-0.5c-0.4,0-0.7,0.2-0.9,0.5c-0.2,0.3-0.3,0.7-0.3,1.1c0,0.4,0.1,0.8,0.3,1.1
				c0.2,0.4,0.5,0.5,0.9,0.5c0.4,0,0.7-0.2,0.9-0.5C71.1,11.8,71.2,11.5,71.2,11.1z"/>
			<path fill="#FFFFFF" d="M77,13.3h-0.9l-0.1-0.5h0c-0.3,0.4-0.7,0.6-1.3,0.6c-0.4,0-0.8-0.1-1-0.4c-0.2-0.2-0.3-0.5-0.3-0.9
				c0-0.5,0.2-1,0.7-1.2c0.5-0.3,1.1-0.4,1.9-0.4v-0.1c0-0.6-0.3-0.9-0.9-0.9c-0.4,0-0.8,0.1-1.2,0.3l-0.2-0.7
				c0.4-0.3,0.9-0.4,1.5-0.4c1.2,0,1.7,0.6,1.7,1.8v1.6C77,12.7,77,13,77,13.3z M76,11.8v-0.7c-1.1,0-1.6,0.3-1.6,0.9
				c0,0.2,0.1,0.4,0.2,0.5c0.1,0.1,0.3,0.2,0.5,0.2c0.2,0,0.4-0.1,0.6-0.2c0.2-0.1,0.3-0.3,0.3-0.5C76,11.9,76,11.8,76,11.8z"/>
			<path fill="#FFFFFF" d="M82.7,13.3h-0.9l0-0.7h0c-0.3,0.5-0.8,0.8-1.4,0.8c-0.5,0-1-0.2-1.3-0.6s-0.5-1-0.5-1.6
				c0-0.7,0.2-1.3,0.6-1.7c0.4-0.4,0.8-0.6,1.4-0.6c0.6,0,1,0.2,1.3,0.6h0V6.8h1v5.3C82.6,12.5,82.6,12.9,82.7,13.3z M81.6,11.4
				v-0.7c0-0.1,0-0.2,0-0.3c-0.1-0.2-0.2-0.4-0.4-0.6c-0.2-0.2-0.4-0.2-0.7-0.2c-0.4,0-0.7,0.1-0.9,0.4c-0.2,0.3-0.3,0.7-0.3,1.1
				c0,0.4,0.1,0.8,0.3,1.1c0.2,0.3,0.5,0.4,0.9,0.4c0.3,0,0.6-0.1,0.8-0.4C81.5,12,81.6,11.7,81.6,11.4z"/>
			<path fill="#FFFFFF" d="M91.1,11c0,0.7-0.2,1.2-0.6,1.7c-0.4,0.5-1,0.7-1.6,0.7c-0.7,0-1.2-0.2-1.6-0.7c-0.4-0.4-0.6-1-0.6-1.6
				c0-0.7,0.2-1.3,0.6-1.7C87.8,9,88.3,8.8,89,8.8c0.7,0,1.2,0.2,1.6,0.6C90.9,9.8,91.1,10.4,91.1,11z M90.1,11.1
				c0-0.4-0.1-0.8-0.3-1.1c-0.2-0.4-0.5-0.5-0.9-0.5c-0.4,0-0.7,0.2-0.9,0.5c-0.2,0.3-0.3,0.7-0.3,1.1c0,0.4,0.1,0.8,0.3,1.1
				c0.2,0.4,0.5,0.5,0.9,0.5c0.4,0,0.7-0.2,0.9-0.5C90,11.8,90.1,11.5,90.1,11.1z"/>
			<path fill="#FFFFFF" d="M96.4,13.3h-1v-2.5c0-0.8-0.3-1.2-0.9-1.2c-0.3,0-0.5,0.1-0.7,0.3c-0.2,0.2-0.3,0.5-0.3,0.8v2.6h-1v-3.2
				c0-0.4,0-0.8,0-1.3h0.9l0,0.7h0C93.6,9.3,93.8,9.2,94,9c0.3-0.2,0.6-0.2,0.9-0.2c0.4,0,0.8,0.1,1,0.4c0.3,0.3,0.5,0.8,0.5,1.5
				V13.3z"/>
			<path fill="#FFFFFF" d="M103.1,9.6H102v2.2c0,0.5,0.2,0.8,0.6,0.8c0.2,0,0.3,0,0.4,0l0,0.8c-0.2,0.1-0.5,0.1-0.8,0.1
				c-0.4,0-0.7-0.1-0.9-0.4c-0.2-0.2-0.3-0.6-0.3-1.2V9.6h-0.7V8.9h0.7V8l1-0.3v1.1h1.1V9.6z"/>
			<path fill="#FFFFFF" d="M108.3,13.3h-1v-2.5c0-0.8-0.3-1.2-0.9-1.2c-0.5,0-0.8,0.2-0.9,0.7c0,0.1,0,0.2,0,0.4v2.7h-1V6.8h1v2.7h0
				c0.3-0.5,0.8-0.7,1.3-0.7c0.4,0,0.7,0.1,1,0.4c0.3,0.3,0.5,0.8,0.5,1.5V13.3z"/>
			<path fill="#FFFFFF" d="M113.7,10.9c0,0.2,0,0.3,0,0.4h-3c0,0.4,0.2,0.8,0.4,1c0.3,0.2,0.6,0.3,1,0.3c0.4,0,0.8-0.1,1.2-0.2
				l0.2,0.7c-0.4,0.2-0.9,0.3-1.5,0.3c-0.7,0-1.2-0.2-1.6-0.6c-0.4-0.4-0.6-1-0.6-1.6c0-0.7,0.2-1.2,0.5-1.7
				c0.4-0.5,0.9-0.7,1.6-0.7c0.6,0,1.1,0.2,1.5,0.7C113.6,9.8,113.7,10.3,113.7,10.9z M112.8,10.6c0-0.3-0.1-0.5-0.2-0.8
				c-0.2-0.3-0.4-0.4-0.8-0.4c-0.3,0-0.6,0.1-0.8,0.4c-0.2,0.2-0.3,0.5-0.3,0.8H112.8z"/>
		</g>
	</g>
</g>
</svg>
