<?xml version="1.0" encoding="utf-8"?>
<!-- Generator: Adobe Illustrator 18.0.0, SVG Export Plug-In . SVG Version: 6.00 Build 0)  -->
<!DOCTYPE svg PUBLIC "-//W3C//DTD SVG 1.1//EN" "http://www.w3.org/Graphics/SVG/1.1/DTD/svg11.dtd">
<svg version="1.1" id="Layer_1" xmlns="http://www.w3.org/2000/svg" xmlns:xlink="http://www.w3.org/1999/xlink" x="0px" y="0px"
	 viewBox="0 0 123 21" enable-background="new 0 0 123 21" xml:space="preserve">
<g id="XMLID_3_">
	<path id="XMLID_5_" fill="#31ADB3" d="M19.331,0H1.018C0.455,0,0,0.455,0,1.021v8.656v9.659c0,0.563,0.455,1.021,1.018,1.021
		h18.313c0.566,0,1.024-0.458,1.024-1.021V9.685V1.021C20.355,0.455,19.898,0,19.331,0z M17.134,18.503h-4.974l-4.541-7.198v7.198
		H3.322v-8.049V1.852h4.25v7.489l4.748-7.489h4.452l-5.512,8.301l0.618,0.875L17.134,18.503z"/>
	<g id="XMLID_8_">
		<g id="XMLID_9_">
			<polygon id="XMLID_10_" fill="#31ADB3" points="117.201,14.759 117.201,1.852 112.954,1.852 112.954,18.486 122.126,18.486 
				122.126,14.759 			"/>
			<path id="XMLID_11_" fill="#31ADB3" d="M30.15,1.852l-6.679,16.634h4.562l0.873-2.409h5.785l0.803,2.409h4.613L33.496,1.852
				H30.15z M30.086,12.71l1.704-5.69h0.068l1.709,5.69H30.086z"/>
			<path id="XMLID_14_" fill="#31ADB3" d="M54.012,3.066c-0.416-0.38-0.997-0.67-1.748-0.884c-0.746-0.214-1.873-0.33-3.382-0.33
				h-5.437v16.634h4.073v-5.22h1.842c1.26,0,2.247-0.11,2.969-0.353c0.712-0.238,1.343-0.603,1.886-1.079
				c0.535-0.475,0.961-1.097,1.273-1.885c0.306-0.792,0.473-1.616,0.478-2.481c0-0.849-0.161-1.66-0.486-2.429
				C55.15,4.274,54.669,3.615,54.012,3.066z M51.394,8.951c-0.322,0.278-0.688,0.456-1.099,0.513
				c-0.413,0.062-0.764,0.087-1.049,0.077h-1.727v-3.96h1.571c0.322-0.01,0.704,0.011,1.138,0.066
				c0.436,0.065,0.813,0.234,1.148,0.515c0.327,0.274,0.506,0.734,0.525,1.377C51.882,8.193,51.71,8.667,51.394,8.951z"/>
			<rect id="XMLID_17_" x="59.35" y="1.852" fill="#31ADB3" width="4.247" height="16.634"/>
			<polygon id="XMLID_18_" fill="#31ADB3" points="67.904,5.581 71.185,5.581 71.185,18.486 75.429,18.486 75.429,5.581 
				78.686,5.581 78.686,1.852 67.904,1.852 			"/>
			<path id="XMLID_19_" fill="#31ADB3" d="M86.976,1.852l-6.673,16.634h4.561l0.878-2.409h5.777l0.81,2.409h4.608L90.329,1.852
				H86.976z M86.913,12.71l1.707-5.69h0.068l1.707,5.69H86.913z"/>
			<polygon id="XMLID_22_" fill="#31ADB3" points="104.637,1.852 100.389,1.852 100.389,18.486 109.559,18.486 109.559,14.759 
				104.637,14.759 			"/>
		</g>
	</g>
</g>
</svg>
