<?xml version="1.0" encoding="utf-8"?>
<!-- Generator: Adobe Illustrator 18.0.0, SVG Export Plug-In . SVG Version: 6.00 Build 0)  -->
<!DOCTYPE svg PUBLIC "-//W3C//DTD SVG 1.1//EN" "http://www.w3.org/Graphics/SVG/1.1/DTD/svg11.dtd">
<svg version="1.1" id="Layer_1" xmlns="http://www.w3.org/2000/svg" xmlns:xlink="http://www.w3.org/1999/xlink" x="0px" y="0px"
	 viewBox="0 0 1280 757" enable-background="new 0 0 1280 757" xml:space="preserve">
<defs>
	<filter id="Adobe_OpacityMaskFilter" filterUnits="userSpaceOnUse" x="-171.1" y="-40" width="1451.2" height="900">
		<feColorMatrix  type="matrix" values="1 0 0 0 0  0 1 0 0 0  0 0 1 0 0  0 0 0 1 0"/>
	</filter>
</defs>
<mask maskUnits="userSpaceOnUse" x="-171.1" y="-40" width="1451.2" height="900" id="XMLID_5_">
	<g id="XMLID_2_" filter="url(#Adobe_OpacityMaskFilter)">
		<rect id="XMLID_39_" y="0" fill="#FFFFFF" width="1280" height="757"/>
	</g>
</mask>
<g id="XMLID_1_" mask="url(#XMLID_5_)">
	<rect id="XMLID_4_" y="0" fill="#E2DABA" width="1280" height="757"/>
	<g id="XMLID_752_">
		<linearGradient id="XMLID_6_" gradientUnits="userSpaceOnUse" x1="263.0293" y1="441.8651" x2="1280.0455" y2="441.8651">
			<stop  offset="0.9" style="stop-color:#FFFFFF"/>
			<stop  offset="1" style="stop-color:#FFFFFF;stop-opacity:0"/>
		</linearGradient>
		<polygon id="XMLID_647_" opacity="0.1" fill="url(#XMLID_6_)" points="1280,493.1 263,441.9 1280,390.6 		"/>
		
			<linearGradient id="XMLID_7_" gradientUnits="userSpaceOnUse" x1="247.4009" y1="443.6866" x2="1289.3647" y2="443.6866" gradientTransform="matrix(0.9848 0.1736 -0.1736 0.9848 96.3484 -37.5851)">
			<stop  offset="0.9" style="stop-color:#FFFFFF"/>
			<stop  offset="1" style="stop-color:#FFFFFF;stop-opacity:0"/>
		</linearGradient>
		<polygon id="XMLID_660_" opacity="0.1" fill="url(#XMLID_7_)" points="1280.1,674.5 263,441.9 1280,568.8 		"/>
		
			<linearGradient id="XMLID_8_" gradientUnits="userSpaceOnUse" x1="710.0906" y1="273.364" x2="853.0953" y2="666.285" gradientTransform="matrix(0.9397 0.342 -0.342 0.9397 197.7594 -57.8694)">
			<stop  offset="0.6465" style="stop-color:#FFFFFF"/>
			<stop  offset="0.7507" style="stop-color:#FFFFFF;stop-opacity:0"/>
		</linearGradient>
		<polygon id="XMLID_661_" opacity="0.1" fill="url(#XMLID_8_)" points="1280,860 1253.7,860 263,441.9 1280,755 		"/>
		
			<linearGradient id="XMLID_9_" gradientUnits="userSpaceOnUse" x1="218.0248" y1="450.1958" x2="1134.2677" y2="450.1958" gradientTransform="matrix(0.866 0.5 -0.5 0.866 301.1521 -60.2364)">
			<stop  offset="0.9" style="stop-color:#FFFFFF"/>
			<stop  offset="1" style="stop-color:#FFFFFF;stop-opacity:0"/>
		</linearGradient>
		<polygon id="XMLID_662_" opacity="0.1" fill="url(#XMLID_9_)" points="909.8,860 263,441.9 1079.6,860 		"/>
		
			<linearGradient id="XMLID_10_" gradientUnits="userSpaceOnUse" x1="205.1697" y1="460.9163" x2="897.239" y2="460.9163" gradientTransform="matrix(0.7661 0.6428 -0.6428 0.7661 403.3852 -44.6142)">
			<stop  offset="0.9" style="stop-color:#FFFFFF"/>
			<stop  offset="1" style="stop-color:#FFFFFF;stop-opacity:0"/>
		</linearGradient>
		<polygon id="XMLID_663_" opacity="0.1" fill="url(#XMLID_10_)" points="713.3,860 263,441.9 815.6,860 		"/>
		
			<linearGradient id="XMLID_11_" gradientUnits="userSpaceOnUse" x1="194.071" y1="472.8128" x2="764.013" y2="472.8128" gradientTransform="matrix(0.6428 0.766 -0.766 0.6428 501.3526 -11.4776)">
			<stop  offset="0.9" style="stop-color:#FFFFFF"/>
			<stop  offset="1" style="stop-color:#FFFFFF;stop-opacity:0"/>
		</linearGradient>
		<polygon id="XMLID_664_" opacity="0.1" fill="url(#XMLID_11_)" points="579.5,860 263,441.9 651.4,860 		"/>
		
			<linearGradient id="XMLID_12_" gradientUnits="userSpaceOnUse" x1="278.6529" y1="442.7777" x2="1320.6014" y2="442.7777" gradientTransform="matrix(0.9848 -0.1736 0.1736 0.9848 -88.3399 53.7305)">
			<stop  offset="0.9" style="stop-color:#FFFFFF"/>
			<stop  offset="1" style="stop-color:#FFFFFF;stop-opacity:0"/>
		</linearGradient>
		<polyline id="XMLID_649_" opacity="0.1" fill="url(#XMLID_12_)" points="263,441.9 1280,209.3 1280,314.9 263,441.9 		"/>
		
			<linearGradient id="XMLID_13_" gradientUnits="userSpaceOnUse" x1="293.8006" y1="446.3061" x2="1396.2552" y2="446.3061" gradientTransform="matrix(0.9397 -0.3419 0.3419 0.9397 -166.0106 121.9812)">
			<stop  offset="0.9" style="stop-color:#FFFFFF"/>
			<stop  offset="1" style="stop-color:#FFFFFF;stop-opacity:0"/>
		</linearGradient>
		<polyline id="XMLID_650_" opacity="0.1" fill="url(#XMLID_13_)" points="263,441.9 1280,12.7 1280,128.8 263,441.9 		"/>
		
			<linearGradient id="XMLID_14_" gradientUnits="userSpaceOnUse" x1="308.0125" y1="458.2093" x2="1364.1471" y2="458.2093" gradientTransform="matrix(0.8661 -0.4999 0.4999 0.8661 -230.6535 202.6793)">
			<stop  offset="0.9" style="stop-color:#FFFFFF"/>
			<stop  offset="1" style="stop-color:#FFFFFF;stop-opacity:0"/>
		</linearGradient>
		<polyline id="XMLID_651_" opacity="0.1" fill="url(#XMLID_14_)" points="263,441.9 1008.6,-40 1204.3,-40 263,441.9 		"/>
		
			<linearGradient id="XMLID_15_" gradientUnits="userSpaceOnUse" x1="320.8569" y1="465.2159" x2="1118.5776" y2="465.2159" gradientTransform="matrix(0.7662 -0.6426 0.6426 0.7662 -280.3055 293.3743)">
			<stop  offset="0.9" style="stop-color:#FFFFFF"/>
			<stop  offset="1" style="stop-color:#FFFFFF;stop-opacity:0"/>
		</linearGradient>
		<polyline id="XMLID_652_" opacity="0.1" fill="url(#XMLID_15_)" points="263,441.9 782.1,-40 900,-40 263,441.9 		"/>
		
			<linearGradient id="XMLID_16_" gradientUnits="userSpaceOnUse" x1="331.9438" y1="475.3755" x2="988.8764" y2="475.3755" gradientTransform="matrix(0.643 -0.7659 0.7659 0.643 -313.4587 391.3118)">
			<stop  offset="0.9" style="stop-color:#FFFFFF"/>
			<stop  offset="1" style="stop-color:#FFFFFF;stop-opacity:0"/>
		</linearGradient>
		<polyline id="XMLID_653_" opacity="0.1" fill="url(#XMLID_16_)" points="263,441.9 627.9,-40 710.8,-40 263,441.9 		"/>
		
			<linearGradient id="XMLID_17_" gradientUnits="userSpaceOnUse" x1="340.9366" y1="487.6992" x2="914.1159" y2="487.6992" gradientTransform="matrix(0.5002 -0.8659 0.8659 0.5002 -329.1064 493.5177)">
			<stop  offset="0.9" style="stop-color:#FFFFFF"/>
			<stop  offset="1" style="stop-color:#FFFFFF;stop-opacity:0"/>
		</linearGradient>
		<polyline id="XMLID_654_" opacity="0.1" fill="url(#XMLID_17_)" points="263,441.9 510,-40 574.8,-40 263,441.9 		"/>
		
			<linearGradient id="XMLID_18_" gradientUnits="userSpaceOnUse" x1="347.562" y1="501.5729" x2="870.0013" y2="501.5729" gradientTransform="matrix(0.3423 -0.9396 0.9396 0.3423 -326.7733 596.8882)">
			<stop  offset="0.9" style="stop-color:#FFFFFF"/>
			<stop  offset="1" style="stop-color:#FFFFFF;stop-opacity:0"/>
		</linearGradient>
		<polyline id="XMLID_655_" opacity="0.1" fill="url(#XMLID_18_)" points="263,441.9 411.6,-40 466.6,-40 263,441.9 		"/>
		
			<linearGradient id="XMLID_19_" gradientUnits="userSpaceOnUse" x1="351.619" y1="516.4681" x2="845.3453" y2="516.4681" gradientTransform="matrix(0.174 -0.9847 0.9847 0.174 -306.5302 698.284)">
			<stop  offset="0.9" style="stop-color:#FFFFFF"/>
			<stop  offset="1" style="stop-color:#FFFFFF;stop-opacity:0"/>
		</linearGradient>
		<polyline id="XMLID_656_" opacity="8.000000e-02" fill="url(#XMLID_19_)" points="263,441.9 323.4,-40 373.4,-40 263,441.9 		"/>
		
			<linearGradient id="XMLID_20_" gradientUnits="userSpaceOnUse" x1="352.9842" y1="531.8737" x2="834.8606" y2="531.8737" gradientTransform="matrix(4.199205e-04 -1 1 4.199205e-04 -268.992 794.626)">
			<stop  offset="0.9" style="stop-color:#FFFFFF"/>
			<stop  offset="1" style="stop-color:#FFFFFF;stop-opacity:0"/>
		</linearGradient>
		<polyline id="XMLID_657_" opacity="6.000000e-02" fill="url(#XMLID_20_)" points="263,441.9 239,-40 287.5,-40 263,441.9 		"/>
		
			<linearGradient id="XMLID_21_" gradientUnits="userSpaceOnUse" x1="351.6163" y1="547.279" x2="845.2473" y2="547.279" gradientTransform="matrix(-0.1732 -0.9849 0.9849 -0.1732 -215.2986 882.9884)">
			<stop  offset="0.9" style="stop-color:#FFFFFF"/>
			<stop  offset="1" style="stop-color:#FFFFFF;stop-opacity:0"/>
		</linearGradient>
		<polyline id="XMLID_658_" opacity="4.000000e-02" fill="url(#XMLID_21_)" points="263,441.9 153,-40 203.1,-40 263,441.9 		"/>
		
			<linearGradient id="XMLID_22_" gradientUnits="userSpaceOnUse" x1="347.5568" y1="562.174" x2="869.8087" y2="562.174" gradientTransform="matrix(-0.3415 -0.9399 0.9399 -0.3415 -147.0806 960.6878)">
			<stop  offset="0.9" style="stop-color:#FFFFFF"/>
			<stop  offset="1" style="stop-color:#FFFFFF;stop-opacity:0"/>
		</linearGradient>
		<polyline id="XMLID_659_" opacity="2.000000e-02" fill="url(#XMLID_22_)" points="263,441.9 59.9,-40 114.9,-40 263,441.9 		"/>
	</g>
	<defs>
		<filter id="Adobe_OpacityMaskFilter_1_" filterUnits="userSpaceOnUse" x="-171.1" y="-33.3" width="731.8" height="853.7">
			<feColorMatrix  type="matrix" values="1 0 0 0 0  0 1 0 0 0  0 0 1 0 0  0 0 0 1 0"/>
		</filter>
	</defs>
	<mask maskUnits="userSpaceOnUse" x="-171.1" y="-33.3" width="731.8" height="853.7" id="XMLID_5_">
		<g id="XMLID_98_" filter="url(#Adobe_OpacityMaskFilter_1_)">
			<rect id="XMLID_101_" x="0" y="0" fill="#FFFFFF" width="1280" height="895.5"/>
		</g>
	</mask>
	<g id="XMLID_515_">
		<linearGradient id="XMLID_23_" gradientUnits="userSpaceOnUse" x1="-23.0369" y1="323.5747" x2="574.9834" y2="541.2363">
			<stop  offset="0.45" style="stop-color:#E2DABA;stop-opacity:0"/>
			<stop  offset="0.8488" style="stop-color:#E2DABA"/>
		</linearGradient>
		<path id="XMLID_913_" fill="url(#XMLID_23_)" d="M277.6,92.6c0,0-18.6,33.2-70.7,25.4c-52.1-7.8-59.6-90.7-56-115
			c3.6-24.2-12.7-47.8-36.4-30.2c-23.7,17.5-49.4,98-34.3,163.5c15,65.5,28.2,167.9-15.4,235.7C21.2,439.9-31.4,501.4-45.4,594.8
			c-14,93.4,57.9,184.7,255.6,214.2c197.7,29.5,289.9,1.2,309.9-132.2c19.9-133.4-55.8-215.4-41.9-308.8
			c7.1-47.3,54.5-82.4,65.5-156.3c11.1-74-32.9-95.4-45.6-51.4c-12.8,44-47.7,78.4-95,71.4c-47.3-7.1-65.8-49.5-65.8-49.5l3.3-80.1
			L277.6,92.6z"/>
		
			<linearGradient id="XMLID_24_" gradientUnits="userSpaceOnUse" x1="-354.4611" y1="-477.7977" x2="313.1609" y2="-234.8032" gradientTransform="matrix(0.989 0.1478 -0.1478 0.989 230.5025 791.1218)">
			<stop  offset="0.45" style="stop-color:#EE88A8;stop-opacity:0"/>
			<stop  offset="1" style="stop-color:#EE88A8"/>
		</linearGradient>
		<path id="XMLID_648_" opacity="0.9" fill="url(#XMLID_24_)" d="M277.6,92.6c0,0-18.6,33.2-70.7,25.4c-52.1-7.8-59.6-90.7-56-115
			c3.6-24.2-12.7-47.8-36.4-30.2c-23.7,17.5-49.4,98-34.3,163.5c15,65.5,28.2,167.9-15.4,235.7C21.2,439.9-31.4,501.4-45.4,594.8
			c-14,93.4,57.9,184.7,255.6,214.2c197.7,29.5,289.9,1.2,309.9-132.2c19.9-133.4-55.8-215.4-41.9-308.8
			c7.1-47.3,54.5-82.4,65.5-156.3c11.1-74-32.9-95.4-45.6-51.4c-12.8,44-47.7,78.4-95,71.4c-47.3-7.1-65.8-49.5-65.8-49.5l3.3-80.1
			L277.6,92.6z"/>
		<path id="XMLID_912_" opacity="0.5" fill="#FFFFFF" d="M507.9,641.5c2-53.9-11.9-98.8-25.2-142.4c-13.7-44.9-26.6-87.3-19.8-133.2
			c3.6-24,15.7-44.4,28.6-65.9c15.4-25.7,31.2-52.3,36.9-90.4c5.8-39-4.5-53.5-7.7-54c-3.2-0.5-5.3,0.5-7.8,9.1
			c-16.5,56.8-61.5,89.9-112.1,82.3c-55.1-8.2-76.7-56.6-77.6-58.6l-61.7-17.4c0,0-18-8.3-25.5-14.8c-9.7-8.5-28.6-7.7-26.6,13.1
			c1.9,19.2,3.5,58.1-1.4,90.4c-10.2,68.6-71.3,140.1-79.6,195.2c-8.2,55.1,4.4,84.1,58.7,92.2c54.3,8.1,100.5,15,119,17.8
			c18.5,2.8,64.2,8.1,97,34.2c28.7,22.8,51.2,52.9,57.7,61.8C470.9,674.4,506.4,681,507.9,641.5z"/>
		<g id="XMLID_905_">
			<path id="XMLID_911_" fill="#D1D3D4" d="M301,617.2L172.7,598c-2.1-0.3-3.6-2.3-3.3-4.4l10.5-70.5c0.3-2.1,2.3-3.6,4.4-3.3
				L312.7,539c2.1,0.3,3.6,2.3,3.3,4.4l-10.5,70.5C305.1,616,303.2,617.5,301,617.2z"/>
			<path id="XMLID_910_" opacity="0.1" fill="#194E5B" d="M304,610.7c-0.3,2.1-2.3,3.6-4.4,3.3l-128.3-19.2
				c-0.7-0.1-1.3-0.4-1.8-0.8c-0.1,1.9,1.3,3.7,3.3,4L301,617.2c2.1,0.3,4.1-1.2,4.4-3.3l10.5-70.5L304,610.7z"/>
			<path id="XMLID_909_" opacity="0.4" fill="#FFFFFF" d="M181.5,526.2c0.3-2.1,2.3-3.6,4.4-3.3l128.3,19.2c0.7,0.1,1.3,0.4,1.8,0.8
				c0.1-1.9-1.3-3.7-3.3-4l-128.3-19.2c-2.1-0.3-4.1,1.2-4.4,3.3l-10.5,70.5L181.5,526.2z"/>
			<defs>
				<filter id="Adobe_OpacityMaskFilter_2_" filterUnits="userSpaceOnUse" x="154.6" y="513.9" width="175.1" height="83">
					<feColorMatrix  type="matrix" values="1 0 0 0 0  0 1 0 0 0  0 0 1 0 0  0 0 0 1 0"/>
				</filter>
			</defs>
			<mask maskUnits="userSpaceOnUse" x="154.6" y="513.9" width="175.1" height="83" id="XMLID_5_">
				<g id="XMLID_291_" filter="url(#Adobe_OpacityMaskFilter_2_)">
					<path id="XMLID_292_" fill="#FFFFFF" d="M301,617.2L172.7,598c-2.1-0.3-3.6-2.3-3.3-4.4l10.5-70.5c0.3-2.1,2.3-3.6,4.4-3.3
						L312.7,539c2.1,0.3,3.6,2.3,3.3,4.4l-10.5,70.5C305.1,616,303.2,617.5,301,617.2z"/>
				</g>
			</mask>
			<path id="XMLID_906_" display="none" opacity="0.2" fill="#F6F7F7" d="M156.1,597c0,0,41.2-22.2,83.3-34.9s90.2-12,90.2-12
				s-3.7-26.3-118.1-35.9C140.1,508.2,156.1,597,156.1,597z"/>
		</g>
		<g id="XMLID_875_">
			<path id="XMLID_904_" display="none" fill="#DB9227" d="M337.6,302.4l-105.7-15.8c-10.3-1.5-17.3-11.1-15.8-21.3l1.4-9.6
				c1.5-10.3,11.1-17.3,21.3-15.8l105.7,15.8c10.3,1.5,17.3,11.1,15.8,21.3l-1.4,9.6C357.4,296.8,347.9,303.9,337.6,302.4z"/>
			<path id="XMLID_903_" fill="#D1D3D4" d="M336.4,298.4l-103.9-15.5c-9.2-1.4-15.6-10-14.2-19.2l1.2-7.7c1.4-9.2,10-15.6,19.2-14.2
				l103.9,15.5c9.2,1.4,15.6,10,14.2,19.2l-1.2,7.7C354.2,293.4,345.6,299.8,336.4,298.4z"/>
			<path id="XMLID_902_" opacity="0.1" fill="#194E5B" d="M352.8,262.8c2,3.3,3,7.3,2.4,11.4l-1.2,7.7c-1.4,9.2-10,15.6-19.2,14.2
				l-103.9-15.5c-4.1-0.6-7.7-2.7-10.2-5.6c2.5,4.1,6.7,7,11.9,7.8l103.9,15.5c9.2,1.4,17.8-5,19.2-14.2l1.2-7.7
				C357.5,271.3,355.9,266.4,352.8,262.8z"/>
			<g id="XMLID_877_">
				<g id="XMLID_898_">
					<path id="XMLID_901_" fill="#636466" d="M243,263.3c-0.4,2.9-3.1,4.9-6.1,4.5c-2.9-0.4-4.9-3.1-4.5-6.1
						c0.4-2.9,3.1-4.9,6.1-4.5C241.4,257.7,243.5,260.4,243,263.3z"/>
					<path id="XMLID_900_" opacity="0.4" fill="#FFFFFF" d="M238.4,258.3c2.7,0.4,4.7,2.8,4.5,5.6c0-0.2,0.1-0.3,0.1-0.5
						c0.4-2.9-1.6-5.6-4.5-6.1c-2.9-0.4-5.6,1.6-6.1,4.5c0,0.2,0,0.3,0,0.5C233.1,259.6,235.6,257.9,238.4,258.3z"/>
					<path id="XMLID_899_" opacity="0.3" d="M237.1,266.8c-2.7-0.4-4.7-2.8-4.5-5.6c0,0.2-0.1,0.3-0.1,0.5c-0.4,2.9,1.6,5.6,4.5,6.1
						c2.9,0.4,5.6-1.6,6.1-4.5c0-0.2,0-0.3,0-0.5C242.4,265.5,239.9,267.2,237.1,266.8z"/>
				</g>
				<g id="XMLID_894_">
					<path id="XMLID_897_" fill="#636466" d="M263,266.3c-0.4,2.9-3.1,4.9-6.1,4.5c-2.9-0.4-4.9-3.1-4.5-6.1
						c0.4-2.9,3.1-4.9,6.1-4.5C261.4,260.7,263.4,263.4,263,266.3z"/>
					<path id="XMLID_896_" opacity="0.4" fill="#FFFFFF" d="M258.3,261.3c2.7,0.4,4.7,2.8,4.5,5.6c0-0.2,0.1-0.3,0.1-0.5
						c0.4-2.9-1.6-5.6-4.5-6.1c-2.9-0.4-5.6,1.6-6.1,4.5c0,0.2,0,0.3,0,0.5C253.1,262.6,255.6,260.8,258.3,261.3z"/>
					<path id="XMLID_895_" opacity="0.3" d="M257.1,269.8c-2.7-0.4-4.7-2.8-4.5-5.6c0,0.2-0.1,0.3-0.1,0.5c-0.4,2.9,1.6,5.6,4.5,6.1
						c2.9,0.4,5.6-1.6,6.1-4.5c0-0.2,0-0.3,0-0.5C262.3,268.5,259.8,270.2,257.1,269.8z"/>
				</g>
				<g id="XMLID_890_">
					<path id="XMLID_893_" fill="#636466" d="M282.9,269.3c-0.4,2.9-3.1,4.9-6.1,4.5c-2.9-0.4-4.9-3.1-4.5-6.1
						c0.4-2.9,3.1-4.9,6.1-4.5C281.3,263.7,283.4,266.4,282.9,269.3z"/>
					<path id="XMLID_892_" opacity="0.4" fill="#FFFFFF" d="M278.3,264.2c2.7,0.4,4.7,2.8,4.5,5.6c0-0.2,0.1-0.3,0.1-0.5
						c0.4-2.9-1.6-5.6-4.5-6.1c-2.9-0.4-5.6,1.6-6.1,4.5c0,0.2,0,0.3,0,0.5C273,265.6,275.5,263.8,278.3,264.2z"/>
					<path id="XMLID_891_" opacity="0.3" d="M277,272.8c-2.7-0.4-4.7-2.8-4.5-5.6c0,0.2-0.1,0.3-0.1,0.5c-0.4,2.9,1.6,5.6,4.5,6.1
						c2.9,0.4,5.6-1.6,6.1-4.5c0-0.2,0-0.3,0-0.5C282.3,271.4,279.7,273.2,277,272.8z"/>
				</g>
				<g id="XMLID_886_">
					<path id="XMLID_889_" fill="#636466" d="M302.9,272.3c-0.4,2.9-3.1,4.9-6.1,4.5c-2.9-0.4-4.9-3.1-4.5-6.1
						c0.4-2.9,3.1-4.9,6.1-4.5C301.3,266.7,303.3,269.4,302.9,272.3z"/>
					<path id="XMLID_888_" opacity="0.4" fill="#FFFFFF" d="M298.2,267.2c2.7,0.4,4.7,2.8,4.5,5.6c0-0.2,0.1-0.3,0.1-0.5
						c0.4-2.9-1.6-5.6-4.5-6.1c-2.9-0.4-5.6,1.6-6.1,4.5c0,0.2,0,0.3,0,0.5C293,268.6,295.5,266.8,298.2,267.2z"/>
					<path id="XMLID_887_" opacity="0.3" d="M297,275.8c-2.7-0.4-4.7-2.8-4.5-5.6c0,0.2-0.1,0.3-0.1,0.5c-0.4,2.9,1.6,5.6,4.5,6.1
						c2.9,0.4,5.6-1.6,6.1-4.5c0-0.2,0-0.3,0-0.5C302.2,274.4,299.7,276.2,297,275.8z"/>
				</g>
				<g id="XMLID_882_">
					<path id="XMLID_885_" fill="#636466" d="M322.8,275.3c-0.4,2.9-3.1,4.9-6.1,4.5c-2.9-0.4-4.9-3.1-4.5-6.1
						c0.4-2.9,3.1-4.9,6.1-4.5C321.3,269.6,323.3,272.4,322.8,275.3z"/>
					<path id="XMLID_884_" opacity="0.4" fill="#FFFFFF" d="M318.2,270.2c2.7,0.4,4.7,2.8,4.5,5.6c0-0.2,0.1-0.3,0.1-0.5
						c0.4-2.9-1.6-5.6-4.5-6.1c-2.9-0.4-5.6,1.6-6.1,4.5c0,0.2,0,0.3,0,0.5C312.9,271.6,315.5,269.8,318.2,270.2z"/>
					<path id="XMLID_883_" opacity="0.3" d="M316.9,278.8c-2.7-0.4-4.7-2.8-4.5-5.6c0,0.2-0.1,0.3-0.1,0.5c-0.4,2.9,1.6,5.6,4.5,6.1
						c2.9,0.4,5.6-1.6,6.1-4.5c0-0.2,0-0.3,0-0.5C322.2,277.4,319.7,279.2,316.9,278.8z"/>
				</g>
				<g id="XMLID_878_">
					<path id="XMLID_881_" fill="#636466" d="M342.8,278.3c-0.4,2.9-3.1,4.9-6.1,4.5c-2.9-0.4-4.9-3.1-4.5-6.1
						c0.4-2.9,3.1-4.9,6.1-4.5C341.2,272.6,343.2,275.3,342.8,278.3z"/>
					<path id="XMLID_880_" opacity="0.4" fill="#FFFFFF" d="M338.1,273.2c2.7,0.4,4.7,2.8,4.5,5.6c0-0.2,0.1-0.3,0.1-0.5
						c0.4-2.9-1.6-5.6-4.5-6.1c-2.9-0.4-5.6,1.6-6.1,4.5c0,0.2,0,0.3,0,0.5C332.9,274.5,335.4,272.8,338.1,273.2z"/>
					<path id="XMLID_879_" opacity="0.3" d="M336.9,281.7c-2.7-0.4-4.7-2.8-4.5-5.6c0,0.2-0.1,0.3-0.1,0.5c-0.4,2.9,1.6,5.6,4.5,6.1
						c2.9,0.4,5.6-1.6,6.1-4.5c0-0.2,0-0.3,0-0.5C342.1,280.4,339.6,282.2,336.9,281.7z"/>
				</g>
			</g>
			<path id="XMLID_876_" opacity="0.4" fill="#FFFFFF" d="M219,265.7l1.2-7.7c1.4-9.2,10-15.6,19.2-14.2l103.9,15.5
				c6.2,0.9,11.1,5.1,13.2,10.5c-1.6-6.4-6.9-11.6-13.9-12.6l-103.9-15.5c-9.2-1.4-17.8,5-19.2,14.2l-1.2,7.7c-0.5,3-0.1,6,1,8.7
				C218.8,270.2,218.7,268,219,265.7z"/>
		</g>
		<g id="XMLID_845_">
			<path id="XMLID_874_" display="none" fill="#DB9227" d="M322.4,404.1l-105.7-15.8c-10.3-1.5-17.3-11.1-15.8-21.3l1.4-9.6
				c1.5-10.3,11.1-17.3,21.3-15.8l105.7,15.8c10.3,1.5,17.3,11.1,15.8,21.3l-1.4,9.6C342.2,398.6,332.7,405.7,322.4,404.1z"/>
			<path id="XMLID_873_" fill="#D1D3D4" d="M321.2,400.2l-103.9-15.5c-9.2-1.4-15.6-10-14.2-19.2l1.2-7.7c1.4-9.2,10-15.6,19.2-14.2
				L327.4,359c9.2,1.4,15.6,10,14.2,19.2l-1.2,7.7C339,395.2,330.4,401.5,321.2,400.2z"/>
			<path id="XMLID_872_" opacity="0.1" fill="#194E5B" d="M337.6,364.6c2,3.3,3,7.3,2.4,11.4l-1.2,7.7c-1.4,9.2-10,15.6-19.2,14.2
				l-103.9-15.5c-4.1-0.6-7.7-2.7-10.2-5.6c2.5,4.1,6.7,7,11.9,7.8l103.9,15.5c9.2,1.4,17.8-5,19.2-14.2l1.2-7.7
				C342.3,373.1,340.7,368.2,337.6,364.6z"/>
			<path id="XMLID_871_" opacity="0.4" fill="#FFFFFF" d="M203.8,367.5l1.2-7.7c1.4-9.2,10-15.6,19.2-14.2L328,361.1
				c6.2,0.9,11.1,5.1,13.2,10.5c-1.6-6.4-6.9-11.6-13.9-12.6l-103.9-15.5c-9.2-1.4-17.8,5-19.2,14.2l-1.2,7.7c-0.5,3-0.1,6,1,8.7
				C203.6,372,203.5,369.8,203.8,367.5z"/>
			<g id="XMLID_846_">
				<g id="XMLID_867_">
					<path id="XMLID_870_" fill="#636466" d="M227.8,365.2c-0.4,2.9-3.1,4.9-6.1,4.5c-2.9-0.4-4.9-3.1-4.5-6.1
						c0.4-2.9,3.1-4.9,6.1-4.5C226.2,359.5,228.2,362.2,227.8,365.2z"/>
					<path id="XMLID_869_" opacity="0.4" fill="#FFFFFF" d="M223.2,360.1c2.7,0.4,4.7,2.8,4.5,5.6c0-0.2,0.1-0.3,0.1-0.5
						c0.4-2.9-1.6-5.6-4.5-6.1c-2.9-0.4-5.6,1.6-6.1,4.5c0,0.2,0,0.3,0,0.5C217.9,361.5,220.4,359.7,223.2,360.1z"/>
					<path id="XMLID_868_" opacity="0.3" d="M221.9,368.7c-2.7-0.4-4.7-2.8-4.5-5.6c0,0.2-0.1,0.3-0.1,0.5c-0.4,2.9,1.6,5.6,4.5,6.1
						c2.9,0.4,5.6-1.6,6.1-4.5c0-0.2,0-0.3,0-0.5C227.2,367.3,224.6,369.1,221.9,368.7z"/>
				</g>
				<g id="XMLID_863_">
					<path id="XMLID_866_" fill="#636466" d="M247.8,368.1c-0.4,2.9-3.1,4.9-6.1,4.5c-2.9-0.4-4.9-3.1-4.5-6.1
						c0.4-2.9,3.1-4.9,6.1-4.5C246.2,362.5,248.2,365.2,247.8,368.1z"/>
					<path id="XMLID_865_" opacity="0.4" fill="#FFFFFF" d="M243.1,363.1c2.7,0.4,4.7,2.8,4.5,5.6c0-0.2,0.1-0.3,0.1-0.5
						c0.4-2.9-1.6-5.6-4.5-6.1c-2.9-0.4-5.6,1.6-6.1,4.5c0,0.2,0,0.3,0,0.5C237.8,364.4,240.4,362.7,243.1,363.1z"/>
					<path id="XMLID_864_" opacity="0.3" d="M241.8,371.6c-2.7-0.4-4.7-2.8-4.5-5.6c0,0.2-0.1,0.3-0.1,0.5c-0.4,2.9,1.6,5.6,4.5,6.1
						c2.9,0.4,5.6-1.6,6.1-4.5c0-0.2,0-0.3,0-0.5C247.1,370.3,244.6,372,241.8,371.6z"/>
				</g>
				<g id="XMLID_859_">
					<path id="XMLID_862_" fill="#636466" d="M267.7,371.1c-0.4,2.9-3.1,4.9-6.1,4.5c-2.9-0.4-4.9-3.1-4.5-6.1
						c0.4-2.9,3.1-4.9,6.1-4.5C266.1,365.5,268.1,368.2,267.7,371.1z"/>
					<path id="XMLID_861_" opacity="0.4" fill="#FFFFFF" d="M263.1,366.1c2.7,0.4,4.7,2.8,4.5,5.6c0-0.2,0.1-0.3,0.1-0.5
						c0.4-2.9-1.6-5.6-4.5-6.1c-2.9-0.4-5.6,1.6-6.1,4.5c0,0.2,0,0.3,0,0.5C257.8,367.4,260.3,365.6,263.1,366.1z"/>
					<path id="XMLID_860_" opacity="0.3" d="M261.8,374.6c-2.7-0.4-4.7-2.8-4.5-5.6c0,0.2-0.1,0.3-0.1,0.5c-0.4,2.9,1.6,5.6,4.5,6.1
						c2.9,0.4,5.6-1.6,6.1-4.5c0-0.2,0-0.3,0-0.5C267.1,373.3,264.5,375,261.8,374.6z"/>
				</g>
				<g id="XMLID_855_">
					<path id="XMLID_858_" fill="#636466" d="M287.7,374.1c-0.4,2.9-3.1,4.9-6.1,4.5c-2.9-0.4-4.9-3.1-4.5-6.1
						c0.4-2.9,3.1-4.9,6.1-4.5C286.1,368.5,288.1,371.2,287.7,374.1z"/>
					<path id="XMLID_857_" opacity="0.4" fill="#FFFFFF" d="M283,369c2.7,0.4,4.7,2.8,4.5,5.6c0-0.2,0.1-0.3,0.1-0.5
						c0.4-2.9-1.6-5.6-4.5-6.1c-2.9-0.4-5.6,1.6-6.1,4.5c0,0.2,0,0.3,0,0.5C277.7,370.4,280.3,368.6,283,369z"/>
					<path id="XMLID_856_" opacity="0.3" d="M281.7,377.6c-2.7-0.4-4.7-2.8-4.5-5.6c0,0.2-0.1,0.3-0.1,0.5c-0.4,2.9,1.6,5.6,4.5,6.1
						c2.9,0.4,5.6-1.6,6.1-4.5c0-0.2,0-0.3,0-0.5C287,376.2,284.5,378,281.7,377.6z"/>
				</g>
				<g id="XMLID_851_">
					<path id="XMLID_854_" fill="#636466" d="M307.6,377.1c-0.4,2.9-3.1,4.9-6.1,4.5c-2.9-0.4-4.9-3.1-4.5-6.1
						c0.4-2.9,3.1-4.9,6.1-4.5C306,371.5,308,374.2,307.6,377.1z"/>
					<path id="XMLID_853_" opacity="0.4" fill="#FFFFFF" d="M303,372c2.7,0.4,4.7,2.8,4.5,5.6c0-0.2,0.1-0.3,0.1-0.5
						c0.4-2.9-1.6-5.6-4.5-6.1c-2.9-0.4-5.6,1.6-6.1,4.5c0,0.2,0,0.3,0,0.5C297.7,373.4,300.2,371.6,303,372z"/>
					<path id="XMLID_852_" opacity="0.3" d="M301.7,380.6c-2.7-0.4-4.7-2.8-4.5-5.6c0,0.2-0.1,0.3-0.1,0.5c-0.4,2.9,1.6,5.6,4.5,6.1
						c2.9,0.4,5.6-1.6,6.1-4.5c0-0.2,0-0.3,0-0.5C307,379.2,304.4,381,301.7,380.6z"/>
				</g>
				<g id="XMLID_847_">
					<path id="XMLID_850_" fill="#636466" d="M327.6,380.1c-0.4,2.9-3.1,4.9-6.1,4.5c-2.9-0.4-4.9-3.1-4.5-6.1
						c0.4-2.9,3.1-4.9,6.1-4.5C326,374.4,328,377.2,327.6,380.1z"/>
					<path id="XMLID_849_" opacity="0.4" fill="#FFFFFF" d="M322.9,375c2.7,0.4,4.7,2.8,4.5,5.6c0-0.2,0.1-0.3,0.1-0.5
						c0.4-2.9-1.6-5.6-4.5-6.1c-2.9-0.4-5.6,1.6-6.1,4.5c0,0.2,0,0.3,0,0.5C317.6,376.4,320.2,374.6,322.9,375z"/>
					<path id="XMLID_848_" opacity="0.3" d="M321.6,383.6c-2.7-0.4-4.7-2.8-4.5-5.6c0,0.2-0.1,0.3-0.1,0.5c-0.4,2.9,1.6,5.6,4.5,6.1
						c2.9,0.4,5.6-1.6,6.1-4.5c0-0.2,0-0.3,0-0.5C326.9,382.2,324.4,384,321.6,383.6z"/>
				</g>
			</g>
		</g>
		<g id="XMLID_815_">
			<path id="XMLID_844_" display="none" fill="#DB9227" d="M302.4,510.6l-102.3-31.2c-9.9-3-15.5-13.5-12.5-23.4l2.8-9.3
				c3-9.9,13.5-15.5,23.4-12.5l102.3,31.2c9.9,3,15.5,13.5,12.5,23.4l-2.8,9.3C322.8,508.1,312.3,513.7,302.4,510.6z"/>
			<path id="XMLID_843_" fill="#D1D3D4" d="M301.8,506.5l-100.5-30.6c-8.9-2.7-14-12.2-11.2-21.1l2.3-7.5c2.7-8.9,12.2-14,21.1-11.2
				l100.5,30.6c8.9,2.7,14,12.2,11.2,21.1l-2.3,7.5C320.2,504.2,310.7,509.2,301.8,506.5z"/>
			<path id="XMLID_842_" opacity="0.1" fill="#194E5B" d="M323.2,473.7c1.5,3.5,1.9,7.6,0.7,11.6l-2.3,7.5
				c-2.7,8.9-12.2,14-21.1,11.2L200,473.5c-4-1.2-7.2-3.8-9.3-7c1.9,4.4,5.6,8,10.6,9.5l100.5,30.6c8.9,2.7,18.4-2.3,21.1-11.2
				l2.3-7.5C326.7,482.9,325.8,477.8,323.2,473.7z"/>
			<path id="XMLID_841_" opacity="0.4" fill="#FFFFFF" d="M190.5,457l2.3-7.5c2.7-8.9,12.2-14,21.1-11.2l100.5,30.6
				c6,1.8,10.2,6.7,11.5,12.4c-0.6-6.6-5.2-12.5-11.9-14.5l-100.5-30.6c-8.9-2.7-18.4,2.3-21.1,11.2l-2.3,7.5
				c-0.9,2.9-0.9,5.9-0.3,8.7C189.6,461.4,189.8,459.2,190.5,457z"/>
			<g id="XMLID_816_">
				<g id="XMLID_837_">
					<path id="XMLID_840_" fill="#636466" d="M214.5,458.2c-0.9,2.8-3.8,4.4-6.7,3.5c-2.8-0.9-4.4-3.8-3.5-6.6
						c0.9-2.8,3.8-4.4,6.6-3.5C213.8,452.4,215.4,455.4,214.5,458.2z"/>
					<path id="XMLID_839_" opacity="0.4" fill="#FFFFFF" d="M210.7,452.5c2.7,0.8,4.2,3.5,3.6,6.2c0.1-0.2,0.1-0.3,0.2-0.5
						c0.9-2.8-0.7-5.8-3.5-6.7c-2.8-0.9-5.8,0.7-6.6,3.5c0,0.2-0.1,0.3-0.1,0.5C205.3,453,208.1,451.7,210.7,452.5z"/>
					<path id="XMLID_838_" opacity="0.3" d="M208.2,460.8c-2.7-0.8-4.2-3.5-3.6-6.2c-0.1,0.2-0.1,0.3-0.2,0.5
						c-0.9,2.8,0.7,5.8,3.5,6.6c2.8,0.9,5.8-0.7,6.7-3.5c0.1-0.2,0.1-0.3,0.1-0.5C213.6,460.2,210.8,461.6,208.2,460.8z"/>
				</g>
				<g id="XMLID_833_">
					<path id="XMLID_836_" fill="#636466" d="M233.8,464.1c-0.9,2.8-3.8,4.4-6.7,3.5c-2.8-0.9-4.4-3.8-3.5-6.6
						c0.9-2.8,3.8-4.4,6.6-3.5C233.1,458.3,234.7,461.2,233.8,464.1z"/>
					<path id="XMLID_835_" opacity="0.4" fill="#FFFFFF" d="M230,458.4c2.7,0.8,4.2,3.5,3.6,6.2c0.1-0.2,0.1-0.3,0.2-0.5
						c0.9-2.8-0.7-5.8-3.5-6.7c-2.8-0.9-5.8,0.7-6.6,3.5c0,0.2-0.1,0.3-0.1,0.5C224.6,458.9,227.4,457.6,230,458.4z"/>
					<path id="XMLID_834_" opacity="0.3" d="M227.5,466.6c-2.7-0.8-4.2-3.5-3.6-6.2c-0.1,0.2-0.1,0.3-0.2,0.5
						c-0.9,2.8,0.7,5.8,3.5,6.6c2.8,0.9,5.8-0.7,6.7-3.5c0.1-0.2,0.1-0.3,0.1-0.5C232.9,466.1,230.1,467.4,227.5,466.6z"/>
				</g>
				<g id="XMLID_829_">
					<path id="XMLID_832_" fill="#636466" d="M253.1,469.9c-0.9,2.8-3.8,4.4-6.7,3.5c-2.8-0.9-4.4-3.8-3.5-6.6
						c0.9-2.8,3.8-4.4,6.6-3.5C252.4,464.1,254,467.1,253.1,469.9z"/>
					<path id="XMLID_831_" opacity="0.4" fill="#FFFFFF" d="M249.3,464.2c2.7,0.8,4.2,3.5,3.6,6.2c0.1-0.2,0.1-0.3,0.2-0.5
						c0.9-2.8-0.7-5.8-3.5-6.7c-2.8-0.9-5.8,0.7-6.6,3.5c0,0.2-0.1,0.3-0.1,0.5C243.9,464.8,246.6,463.4,249.3,464.2z"/>
					<path id="XMLID_830_" opacity="0.3" d="M246.8,472.5c-2.7-0.8-4.2-3.5-3.6-6.2c-0.1,0.2-0.1,0.3-0.2,0.5
						c-0.9,2.8,0.7,5.8,3.5,6.6c2.8,0.9,5.8-0.7,6.7-3.5c0.1-0.2,0.1-0.3,0.1-0.5C252.2,472,249.4,473.3,246.8,472.5z"/>
				</g>
				<g id="XMLID_825_">
					<path id="XMLID_828_" fill="#636466" d="M272.4,475.8c-0.9,2.8-3.8,4.4-6.7,3.5c-2.8-0.9-4.4-3.8-3.5-6.6
						c0.9-2.8,3.8-4.4,6.6-3.5C271.7,470,273.3,473,272.4,475.8z"/>
					<path id="XMLID_827_" opacity="0.4" fill="#FFFFFF" d="M268.6,470.1c2.7,0.8,4.2,3.5,3.6,6.2c0.1-0.2,0.1-0.3,0.2-0.5
						c0.9-2.8-0.7-5.8-3.5-6.7c-2.8-0.9-5.8,0.7-6.6,3.5c0,0.2-0.1,0.3-0.1,0.5C263.2,470.7,265.9,469.3,268.6,470.1z"/>
					<path id="XMLID_826_" opacity="0.3" d="M266.1,478.4c-2.7-0.8-4.2-3.5-3.6-6.2c-0.1,0.2-0.1,0.3-0.2,0.5
						c-0.9,2.8,0.7,5.8,3.5,6.6c2.8,0.9,5.8-0.7,6.7-3.5c0.1-0.2,0.1-0.3,0.1-0.5C271.5,477.8,268.7,479.2,266.1,478.4z"/>
				</g>
				<g id="XMLID_821_">
					<path id="XMLID_824_" fill="#636466" d="M291.7,481.7c-0.9,2.8-3.8,4.4-6.7,3.5c-2.8-0.9-4.4-3.8-3.5-6.6
						c0.9-2.8,3.8-4.4,6.6-3.5C291,475.9,292.6,478.9,291.7,481.7z"/>
					<path id="XMLID_823_" opacity="0.4" fill="#FFFFFF" d="M287.9,476c2.7,0.8,4.2,3.5,3.6,6.2c0.1-0.2,0.1-0.3,0.2-0.5
						c0.9-2.8-0.7-5.8-3.5-6.7c-2.8-0.9-5.8,0.7-6.6,3.5c0,0.2-0.1,0.3-0.1,0.5C282.5,476.6,285.2,475.2,287.9,476z"/>
					<path id="XMLID_822_" opacity="0.3" d="M285.4,484.3c-2.7-0.8-4.2-3.5-3.6-6.2c-0.1,0.2-0.1,0.3-0.2,0.5
						c-0.9,2.8,0.7,5.8,3.5,6.6c2.8,0.9,5.8-0.7,6.7-3.5c0.1-0.2,0.1-0.3,0.1-0.5C290.8,483.7,288,485.1,285.4,484.3z"/>
				</g>
				<g id="XMLID_817_">
					<path id="XMLID_820_" fill="#636466" d="M311,487.6c-0.9,2.8-3.8,4.4-6.7,3.5c-2.8-0.9-4.4-3.8-3.5-6.6
						c0.9-2.8,3.8-4.4,6.6-3.5C310.3,481.8,311.9,484.8,311,487.6z"/>
					<path id="XMLID_819_" opacity="0.4" fill="#FFFFFF" d="M307.2,481.9c2.7,0.8,4.2,3.5,3.6,6.2c0.1-0.2,0.1-0.3,0.2-0.5
						c0.9-2.8-0.7-5.8-3.5-6.7c-2.8-0.9-5.8,0.7-6.6,3.5c0,0.2-0.1,0.3-0.1,0.5C301.8,482.5,304.5,481.1,307.2,481.9z"/>
					<path id="XMLID_818_" opacity="0.3" d="M304.7,490.2c-2.7-0.8-4.2-3.5-3.6-6.2c-0.1,0.2-0.1,0.3-0.2,0.5
						c-0.9,2.8,0.7,5.8,3.5,6.6c2.8,0.9,5.8-0.7,6.7-3.5c0.1-0.2,0.1-0.3,0.1-0.5C310.1,489.6,307.3,491,304.7,490.2z"/>
				</g>
			</g>
		</g>
		<g id="XMLID_804_">
			<path id="XMLID_814_" fill="#424143" d="M409.4,516.5l1.2-1.5c1.5-1.8,4.5-0.7,4.4,1.6l-0.1,1.9c-0.1,1.9,1.9,3.1,3.6,2.3
				l1.7-0.9c2.1-1.1,4.4,1.2,3.3,3.3l-0.8,1.7c-0.8,1.7,0.5,3.6,2.3,3.5l1.9-0.1c2.4-0.1,3.5,2.8,1.7,4.4l-1.5,1.2
				c-1.4,1.2-1.1,3.5,0.7,4.2l1.8,0.7c2.2,0.8,2.1,4-0.2,4.7l-1.9,0.5c-1.8,0.5-2.4,2.8-1.1,4.1l1.4,1.4c1.7,1.7,0.3,4.5-2.1,4.2
				l-1.9-0.3c-1.9-0.3-3.3,1.6-2.6,3.3l0.7,1.8c0.8,2.2-1.6,4.2-3.6,3l-1.6-1c-1.6-1-3.7,0.1-3.8,2l-0.1,1.9
				c-0.1,2.4-3.2,3.2-4.5,1.3l-1.1-1.6c-1.1-1.6-3.4-1.4-4.2,0.3l-0.9,1.7c-1.1,2.1-4.2,1.6-4.6-0.7l-0.3-1.9
				c-0.3-1.9-2.5-2.7-4-1.5l-1.5,1.2c-1.8,1.5-4.5-0.2-3.9-2.5l0.5-1.9c0.5-1.8-1.2-3.5-3-3l-1.9,0.5c-2.3,0.6-4-2-2.6-3.9l1.2-1.5
				c1.2-1.5,0.3-3.7-1.6-4l-1.9-0.3c-2.3-0.4-2.9-3.5-0.8-4.6l1.7-0.9c1.7-0.9,1.8-3.2,0.2-4.3l-1.6-1.1c-2-1.3-1.2-4.4,1.2-4.5
				l1.9-0.1c1.9-0.1,2.9-2.2,1.9-3.8l-1.1-1.6c-1.3-2,0.7-4.5,2.9-3.7l1.8,0.7c1.8,0.6,3.6-0.8,3.3-2.7l-0.3-1.9
				c-0.4-2.3,2.4-3.8,4.2-2.2l1.4,1.3c1.4,1.3,3.6,0.7,4.1-1.1l0.5-1.9c0.6-2.3,3.8-2.5,4.7-0.3l0.7,1.8
				C405.9,517.6,408.2,517.9,409.4,516.5z"/>
			<defs>
				<filter id="Adobe_OpacityMaskFilter_3_" filterUnits="userSpaceOnUse" x="374.5" y="509.9" width="57.9" height="42.8">
					<feColorMatrix  type="matrix" values="1 0 0 0 0  0 1 0 0 0  0 0 1 0 0  0 0 0 1 0"/>
				</filter>
			</defs>
			<mask maskUnits="userSpaceOnUse" x="374.5" y="509.9" width="57.9" height="42.8" id="XMLID_25_">
				<g id="XMLID_194_" filter="url(#Adobe_OpacityMaskFilter_3_)">
					<path id="XMLID_195_" fill="#FFFFFF" d="M409.4,516.5l1.2-1.5c1.5-1.8,4.5-0.7,4.4,1.6l-0.1,1.9c-0.1,1.9,1.9,3.1,3.6,2.3
						l1.7-0.9c2.1-1.1,4.4,1.2,3.3,3.3l-0.8,1.7c-0.8,1.7,0.5,3.6,2.3,3.5l1.9-0.1c2.4-0.1,3.5,2.8,1.7,4.4l-1.5,1.2
						c-1.4,1.2-1.1,3.5,0.7,4.2l1.8,0.7c2.2,0.8,2.1,4-0.2,4.7l-1.9,0.5c-1.8,0.5-2.4,2.8-1.1,4.1l1.4,1.4c1.7,1.7,0.3,4.5-2.1,4.2
						l-1.9-0.3c-1.9-0.3-3.3,1.6-2.6,3.3l0.7,1.8c0.8,2.2-1.6,4.2-3.6,3l-1.6-1c-1.6-1-3.7,0.1-3.8,2l-0.1,1.9
						c-0.1,2.4-3.2,3.2-4.5,1.3l-1.1-1.6c-1.1-1.6-3.4-1.4-4.2,0.3l-0.9,1.7c-1.1,2.1-4.2,1.6-4.6-0.7l-0.3-1.9
						c-0.3-1.9-2.5-2.7-4-1.5l-1.5,1.2c-1.8,1.5-4.5-0.2-3.9-2.5l0.5-1.9c0.5-1.8-1.2-3.5-3-3l-1.9,0.5c-2.3,0.6-4-2-2.6-3.9
						l1.2-1.5c1.2-1.5,0.3-3.7-1.6-4l-1.9-0.3c-2.3-0.4-2.9-3.5-0.8-4.6l1.7-0.9c1.7-0.9,1.8-3.2,0.2-4.3l-1.6-1.1
						c-2-1.3-1.2-4.4,1.2-4.5l1.9-0.1c1.9-0.1,2.9-2.2,1.9-3.8l-1.1-1.6c-1.3-2,0.7-4.5,2.9-3.7l1.8,0.7c1.8,0.6,3.6-0.8,3.3-2.7
						l-0.3-1.9c-0.4-2.3,2.4-3.8,4.2-2.2l1.4,1.3c1.4,1.3,3.6,0.7,4.1-1.1l0.5-1.9c0.6-2.3,3.8-2.5,4.7-0.3l0.7,1.8
						C405.9,517.6,408.2,517.9,409.4,516.5z"/>
				</g>
			</mask>
			<path id="XMLID_811_" opacity="0.15" mask="url(#XMLID_25_)" fill="#F6F7F7" d="M374.9,552.6c0,0,14.8-12.7,27.3-16.5
				c12.5-3.8,30.2-1.6,30.2-1.6s-10.9-33.5-39.2-22.5C370.3,521,374.9,552.6,374.9,552.6z"/>
			<path id="XMLID_810_" fill="#D1D3D4" d="M424,543.4c-1.7,11.2-12.1,18.9-23.3,17.3c-11.2-1.7-18.9-12.1-17.3-23.3
				c1.7-11.2,12.1-18.9,23.3-17.3C417.9,521.7,425.7,532.2,424,543.4z"/>
			<path id="XMLID_809_" opacity="0.1" fill="#194E5B" d="M401.1,557.5c-10.7-1.6-18.2-11.1-17.4-21.7c-0.1,0.5-0.2,1-0.3,1.6
				c-1.7,11.2,6.1,21.7,17.3,23.3s21.7-6.1,23.3-17.3c0.1-0.5,0.1-1.1,0.2-1.6C421.8,552.1,411.8,559.1,401.1,557.5z"/>
			<path id="XMLID_808_" opacity="0.4" fill="#FFFFFF" d="M406.3,523.3c10.7,1.6,18.2,11.1,17.4,21.7c0.1-0.5,0.2-1,0.3-1.6
				c1.7-11.2-6.1-21.7-17.3-23.3c-11.2-1.7-21.7,6.1-23.3,17.3c-0.1,0.5-0.1,1.1-0.2,1.6C385.6,528.6,395.6,521.7,406.3,523.3z"/>
			<defs>
				<filter id="Adobe_OpacityMaskFilter_4_" filterUnits="userSpaceOnUse" x="379.6" y="516.6" width="49.8" height="34.4">
					<feColorMatrix  type="matrix" values="1 0 0 0 0  0 1 0 0 0  0 0 1 0 0  0 0 0 1 0"/>
				</filter>
			</defs>
			<mask maskUnits="userSpaceOnUse" x="379.6" y="516.6" width="49.8" height="34.4" id="XMLID_26_">
				<g id="XMLID_188_" filter="url(#Adobe_OpacityMaskFilter_4_)">
					<path id="XMLID_189_" fill="#FFFFFF" d="M424,543.4c-1.7,11.2-12.1,18.9-23.3,17.3c-11.2-1.7-18.9-12.1-17.3-23.3
						c1.7-11.2,12.1-18.9,23.3-17.3C417.9,521.7,425.7,532.2,424,543.4z"/>
				</g>
			</mask>
			<path id="XMLID_805_" display="none" opacity="0.2" mask="url(#XMLID_26_)" fill="#F6F7F7" d="M380.2,551.1
				c0,0,9.4-8.8,21.9-12.5s27.2-2.4,27.2-2.4s-10-26.4-34.4-17.8C374.9,525.4,380.2,551.1,380.2,551.1z"/>
		</g>
		<g id="XMLID_793_">
			<path id="XMLID_803_" fill="#424143" d="M467.9,571.5l1.2-1.5c1.5-1.8,4.5-0.7,4.4,1.6l-0.1,1.9c-0.1,1.9,1.9,3.1,3.6,2.3
				l1.7-0.9c2.1-1.1,4.4,1.2,3.3,3.3l-0.8,1.7c-0.8,1.7,0.5,3.6,2.3,3.5l1.9-0.1c2.4-0.1,3.5,2.8,1.7,4.4l-1.5,1.2
				c-1.4,1.2-1.1,3.5,0.7,4.2l1.8,0.7c2.2,0.8,2.1,4-0.2,4.7l-1.9,0.5c-1.8,0.5-2.4,2.8-1.1,4.1l1.4,1.4c1.7,1.7,0.3,4.5-2.1,4.2
				l-1.9-0.3c-1.9-0.3-3.3,1.6-2.6,3.3l0.7,1.8c0.8,2.2-1.6,4.2-3.6,3l-1.6-1c-1.6-1-3.7,0.1-3.8,2l-0.1,1.9
				c-0.1,2.4-3.2,3.2-4.5,1.3l-1.1-1.6c-1.1-1.6-3.4-1.4-4.2,0.3l-0.9,1.7c-1.1,2.1-4.2,1.6-4.6-0.7l-0.3-1.9
				c-0.3-1.9-2.5-2.7-4-1.5l-1.5,1.2c-1.8,1.5-4.5-0.2-3.9-2.5l0.5-1.9c0.5-1.8-1.2-3.5-3-3l-1.9,0.5c-2.3,0.6-4-2-2.6-3.9l1.2-1.5
				c1.2-1.5,0.3-3.7-1.6-4l-1.9-0.3c-2.3-0.4-2.9-3.5-0.8-4.6l1.7-0.9c1.7-0.9,1.8-3.2,0.2-4.3l-1.6-1.1c-2-1.3-1.2-4.4,1.2-4.5
				l1.9-0.1c1.9-0.1,2.9-2.2,1.9-3.8l-1.1-1.6c-1.3-2,0.7-4.5,2.9-3.7l1.8,0.7c1.8,0.6,3.6-0.8,3.3-2.7l-0.3-1.9
				c-0.4-2.3,2.4-3.8,4.2-2.2l1.4,1.3c1.4,1.3,3.6,0.7,4.1-1.1l0.5-1.9c0.6-2.3,3.8-2.5,4.7-0.3l0.7,1.8
				C464.4,572.6,466.7,572.9,467.9,571.5z"/>
			<defs>
				<filter id="Adobe_OpacityMaskFilter_5_" filterUnits="userSpaceOnUse" x="433" y="564.9" width="57.9" height="42.8">
					<feColorMatrix  type="matrix" values="1 0 0 0 0  0 1 0 0 0  0 0 1 0 0  0 0 0 1 0"/>
				</filter>
			</defs>
			<mask maskUnits="userSpaceOnUse" x="433" y="564.9" width="57.9" height="42.8" id="XMLID_27_">
				<g id="XMLID_181_" filter="url(#Adobe_OpacityMaskFilter_5_)">
					<path id="XMLID_182_" fill="#FFFFFF" d="M467.9,571.5l1.2-1.5c1.5-1.8,4.5-0.7,4.4,1.6l-0.1,1.9c-0.1,1.9,1.9,3.1,3.6,2.3
						l1.7-0.9c2.1-1.1,4.4,1.2,3.3,3.3l-0.8,1.7c-0.8,1.7,0.5,3.6,2.3,3.5l1.9-0.1c2.4-0.1,3.5,2.8,1.7,4.4l-1.5,1.2
						c-1.4,1.2-1.1,3.5,0.7,4.2l1.8,0.7c2.2,0.8,2.1,4-0.2,4.7l-1.9,0.5c-1.8,0.5-2.4,2.8-1.1,4.1l1.4,1.4c1.7,1.7,0.3,4.5-2.1,4.2
						l-1.9-0.3c-1.9-0.3-3.3,1.6-2.6,3.3l0.7,1.8c0.8,2.2-1.6,4.2-3.6,3l-1.6-1c-1.6-1-3.7,0.1-3.8,2l-0.1,1.9
						c-0.1,2.4-3.2,3.2-4.5,1.3l-1.1-1.6c-1.1-1.6-3.4-1.4-4.2,0.3l-0.9,1.7c-1.1,2.1-4.2,1.6-4.6-0.7l-0.3-1.9
						c-0.3-1.9-2.5-2.7-4-1.5l-1.5,1.2c-1.8,1.5-4.5-0.2-3.9-2.5l0.5-1.9c0.5-1.8-1.2-3.5-3-3l-1.9,0.5c-2.3,0.6-4-2-2.6-3.9
						l1.2-1.5c1.2-1.5,0.3-3.7-1.6-4l-1.9-0.3c-2.3-0.4-2.9-3.5-0.8-4.6l1.7-0.9c1.7-0.9,1.8-3.2,0.2-4.3l-1.6-1.1
						c-2-1.3-1.2-4.4,1.2-4.5l1.9-0.1c1.9-0.1,2.9-2.2,1.9-3.8l-1.1-1.6c-1.3-2,0.7-4.5,2.9-3.7l1.8,0.7c1.8,0.6,3.6-0.8,3.3-2.7
						l-0.3-1.9c-0.4-2.3,2.4-3.8,4.2-2.2l1.4,1.3c1.4,1.3,3.6,0.7,4.1-1.1l0.5-1.9c0.6-2.3,3.8-2.5,4.7-0.3l0.7,1.8
						C464.4,572.6,466.7,572.9,467.9,571.5z"/>
				</g>
			</mask>
			<path id="XMLID_800_" opacity="0.15" mask="url(#XMLID_27_)" fill="#F6F7F7" d="M433.4,607.7c0,0,14.8-12.7,27.3-16.5
				s30.2-1.6,30.2-1.6s-10.9-33.5-39.2-22.5C428.7,576,433.4,607.7,433.4,607.7z"/>
			<path id="XMLID_799_" fill="#D1D3D4" d="M482.5,598.4c-1.7,11.2-12.1,18.9-23.3,17.3s-18.9-12.1-17.3-23.3
				c1.7-11.2,12.1-18.9,23.3-17.3C476.4,576.8,484.1,587.2,482.5,598.4z"/>
			<path id="XMLID_798_" opacity="0.1" fill="#194E5B" d="M459.6,612.5c-10.7-1.6-18.2-11.1-17.4-21.7c-0.1,0.5-0.2,1-0.3,1.6
				c-1.7,11.2,6.1,21.7,17.3,23.3s21.7-6.1,23.3-17.3c0.1-0.5,0.1-1.1,0.2-1.6C480.3,607.2,470.3,614.1,459.6,612.5z"/>
			<path id="XMLID_797_" opacity="0.4" fill="#FFFFFF" d="M464.7,578.3c10.7,1.6,18.2,11.1,17.4,21.7c0.1-0.5,0.2-1,0.3-1.6
				c1.7-11.2-6.1-21.7-17.3-23.3c-11.2-1.7-21.7,6.1-23.3,17.3c-0.1,0.5-0.1,1.1-0.2,1.6C444.1,583.6,454.1,576.7,464.7,578.3z"/>
			<defs>
				<filter id="Adobe_OpacityMaskFilter_6_" filterUnits="userSpaceOnUse" x="438.1" y="571.6" width="49.8" height="34.4">
					<feColorMatrix  type="matrix" values="1 0 0 0 0  0 1 0 0 0  0 0 1 0 0  0 0 0 1 0"/>
				</filter>
			</defs>
			<mask maskUnits="userSpaceOnUse" x="438.1" y="571.6" width="49.8" height="34.4" id="XMLID_28_">
				<g id="XMLID_171_" filter="url(#Adobe_OpacityMaskFilter_6_)">
					<path id="XMLID_174_" fill="#FFFFFF" d="M482.5,598.4c-1.7,11.2-12.1,18.9-23.3,17.3s-18.9-12.1-17.3-23.3
						c1.7-11.2,12.1-18.9,23.3-17.3C476.4,576.8,484.1,587.2,482.5,598.4z"/>
				</g>
			</mask>
			<path id="XMLID_794_" display="none" opacity="0.2" mask="url(#XMLID_28_)" fill="#F6F7F7" d="M438.7,606.1
				c0,0,9.4-8.8,21.9-12.5c12.5-3.8,27.2-2.4,27.2-2.4s-10-26.4-34.4-17.8C433.4,580.4,438.7,606.1,438.7,606.1z"/>
		</g>
		<g id="XMLID_787_">
			<path id="XMLID_792_" fill="#D1D3D4" d="M351.8,631.7c44.8-39.9,118.3,94.3,97.7,109.6C428.9,756.5,311.2,667.8,351.8,631.7z"/>
			<path id="XMLID_791_" opacity="0.5" fill="#949698" d="M391.7,653.2c4.1-3,10.3-1.6,17.2,7.6c6.8,9.2,39.1,51.5,25.5,63
				c-13.5,11.4-56.4-30.7-62.2-38.4c-5.7-7.7-3.9-9.9,0.7-15.2C377.5,664.8,391.7,653.2,391.7,653.2z"/>
			<path id="XMLID_790_" opacity="0.1" fill="#194E5B" d="M449.9,738.4c-18,13.3-109.8-52.4-106.1-93.5
				c-8.6,40.7,87.2,110,105.6,96.4c2.1-1.6,3.2-4.4,3.5-8.1C452.4,735.5,451.4,737.2,449.9,738.4z"/>
			<path id="XMLID_789_" opacity="0.2" fill="#FFFFFF" d="M351.2,635.6c40-35.7,103,67.7,101.3,101c7.7-28.1-59-142-100.7-104.8
				c-5.3,4.7-7.9,10.4-8.4,16.6C344.5,643.6,347,639.3,351.2,635.6z"/>
			<path id="XMLID_788_" opacity="5.000000e-02" fill="#194E5B" d="M384.2,694.5c-5.7-7.7-4.5-9.5-1.1-13.9c3.3-4.4,14-13.5,14-13.5
				c3.1-2.3,8.6-0.3,15.4,8.9c4.1,5.6,17.5,23.2,25.1,38.3c-0.9-16.9-23.2-46.2-28.8-53.7c-6.8-9.2-13.1-10.6-17.2-7.6
				c0,0-14.2,11.7-18.8,17c-4.6,5.3-6.4,7.5-0.7,15.2c2.8,3.8,14.5,15.8,27.4,25.8C392.1,703.8,386.1,697.1,384.2,694.5z"/>
		</g>
		<g id="XMLID_783_">
			<path id="XMLID_786_" fill="#636466" d="M517.7,210.2c-0.5,3.6-3.9,6.1-7.5,5.5c-3.6-0.5-6.1-3.9-5.5-7.5
				c0.5-3.6,3.9-6.1,7.5-5.5C515.8,203.2,518.3,206.6,517.7,210.2z"/>
			<path id="XMLID_785_" opacity="0.4" fill="#FFFFFF" d="M512,203.7c3.4,0.5,5.8,3.6,5.6,7c0-0.2,0.1-0.3,0.1-0.5
				c0.5-3.6-1.9-7-5.5-7.5c-3.6-0.5-7,1.9-7.5,5.5c0,0.2,0,0.3,0,0.5C505.4,205.4,508.6,203.1,512,203.7z"/>
			<path id="XMLID_784_" opacity="0.3" d="M510.4,214.8c-3.4-0.5-5.8-3.6-5.6-7c0,0.2-0.1,0.3-0.1,0.5c-0.5,3.6,1.9,7,5.5,7.5
				c3.6,0.5,7-1.9,7.5-5.5c0-0.2,0-0.3,0-0.5C517,213,513.8,215.3,510.4,214.8z"/>
		</g>
		<defs>
			<filter id="Adobe_OpacityMaskFilter_7_" filterUnits="userSpaceOnUse" x="-171.1" y="64.1" width="731.8" height="631.9">
				<feColorMatrix  type="matrix" values="1 0 0 0 0  0 1 0 0 0  0 0 1 0 0  0 0 0 1 0"/>
			</filter>
		</defs>
		<mask maskUnits="userSpaceOnUse" x="-171.1" y="64.1" width="731.8" height="631.9" id="XMLID_29_">
			<g id="XMLID_155_" filter="url(#Adobe_OpacityMaskFilter_7_)">
				<path id="XMLID_156_" fill="#FFFFFF" d="M277.6,92.6c0,0-18.6,33.2-70.7,25.4c-52.1-7.8-59.6-90.7-56-115
					c3.6-24.2-12.7-47.8-36.4-30.2c-23.7,17.5-49.4,98-34.3,163.5c15,65.5,28.2,167.9-15.4,235.7C21.2,439.9-31.4,501.4-45.4,594.8
					c-14,93.4,57.9,184.7,255.6,214.2c197.7,29.5,289.9,1.2,309.9-132.2c19.9-133.4-55.8-215.4-41.9-308.8
					c7.1-47.3,54.5-82.4,65.5-156.3c11.1-74-32.9-95.4-45.6-51.4c-12.8,44-47.7,78.4-95,71.4c-47.3-7.1-65.8-49.5-65.8-49.5
					l3.3-80.1L277.6,92.6z"/>
			</g>
		</mask>
		
			<linearGradient id="XMLID_36_" gradientUnits="userSpaceOnUse" x1="-50.316" y1="188.011" x2="361.0618" y2="492.4145" gradientTransform="matrix(0.989 0.1478 -0.1478 0.989 77.0168 -29.1155)">
			<stop  offset="0.5" style="stop-color:#FFFFFF;stop-opacity:0"/>
			<stop  offset="0.8" style="stop-color:#FFFFFF"/>
		</linearGradient>
		<path id="XMLID_780_" opacity="0.35" mask="url(#XMLID_29_)" fill="url(#XMLID_36_)" d="M-41.8,696.1c0,0,176.1-206.1,296.2-281.6
			c123.3-77.4,302.5-98.9,302.5-98.9l3.7-193L84.7,64.1l-255.9,464.3L-41.8,696.1z"/>
		<g id="XMLID_777_">
			<path id="XMLID_47_" fill="#EE88A8" d="M210.2,809.1c0,0,4.6,0.6,13.1,1.8c4.3,0.6,9.5,1.2,15.7,2c6.2,0.8,13.3,1.5,21.3,2.4
				c16,1.5,35.5,3.2,57.9,3.6c22.3,0.4,47.7-0.2,74.8-5c13.5-2.5,27.4-6.1,41-11.9c13.5-5.8,26.8-13.7,38.3-24.4
				c1.4-1.4,2.8-2.7,4.2-4.1c0.7-0.7,1.4-1.4,2.1-2.1l1.9-2.2c1.3-1.5,2.6-3,3.9-4.5c1.2-1.6,2.4-3.2,3.6-4.8l1.8-2.4
				c0.6-0.8,1.1-1.7,1.6-2.5c1.1-1.7,2.2-3.4,3.3-5.1c1-1.7,2-3.6,3-5.3c0.9-1.8,2-3.6,2.8-5.5c7.1-14.8,12.1-31,15.5-47.8
				c0.5-2.1,0.8-4.2,1.2-6.3c0.4-2.1,0.7-4.2,1.1-6.4l0.3-1.6l0.2-1.6l0.4-3.2c0.3-2.2,0.6-4.3,0.8-6.5c0.5-4.3,0.8-8.7,1.2-13
				c0.2-4.4,0.5-8.8,0.6-13.2c0.4-17.6-0.8-35.5-3.4-53.4c-2.7-17.8-6.6-35.6-11.5-53.2c-4.8-17.6-10.4-35.1-15.7-52.8
				c-5.2-17.6-10.2-35.5-13.3-53.6c-1.6-9.1-2.6-18.3-2.9-27.5c-0.3-4.6-0.1-9.2,0-13.8c0.2-2.3,0.3-4.6,0.4-6.9
				c0.1-1.1,0.2-2.3,0.3-3.4l0.4-3.4l0.4-3.4l0.6-3.4c0.2-1.1,0.5-2.2,0.7-3.4c0.3-1.1,0.5-2.3,0.8-3.4c1.2-4.4,2.7-8.7,4.4-12.9
				c3.4-8.4,7.7-16.3,12.1-24.1c4.4-7.7,9.1-15.2,13.5-22.8c4.4-7.5,8.7-15.1,12.6-22.7c3.9-7.7,7.3-15.4,10.3-23.3
				c3-7.9,5.4-15.8,7.4-23.8l0.7-3c0.2-1,0.4-2,0.6-3c0.4-2,0.9-4,1.2-6c0.3-2,0.7-4,1-6c0.3-2,0.6-4,0.8-6
				c0.9-7.9,1.1-15.9,0.6-23.7c-0.6-7.8-2-15.4-4.6-22.4c-1.3-3.5-3.1-6.8-5.2-9.8c-2.1-3-4.7-5.6-7.7-7.3c-3-1.7-6.5-2.5-9.9-1.8
				c-3.3,0.7-6.3,2.6-8.7,5.1c-2.4,2.5-4.3,5.4-5.7,8.5c-0.4,0.7-0.7,1.6-1,2.4c-0.3,0.8-0.7,1.6-0.9,2.4c-0.5,1.6-1.1,3.2-1.6,4.9
				c-4.1,13.3-10.1,25.4-17.6,35.6c-7.5,10.2-16.5,18.5-26.2,24.3c-9.7,5.8-20,9.1-29.7,10.3c-4.8,0.6-9.5,0.7-14,0.4
				c-1.1-0.1-2.2-0.2-3.3-0.3c-1.1-0.1-2.2-0.3-3.2-0.4c-0.5-0.1-1.1-0.1-1.6-0.2c-0.5-0.1-1-0.2-1.5-0.3c-1-0.2-2-0.3-3-0.6
				c-4-0.8-7.6-1.9-11-3.1c-3.4-1.2-6.5-2.6-9.3-4c-5.6-2.8-10-5.9-13.4-8.5c-3.4-2.6-5.9-4.9-7.5-6.4c-1.6-1.6-2.4-2.4-2.4-2.4
				s0.8,0.8,2.4,2.3c1.6,1.5,4.1,3.7,7.5,6.3c3.4,2.6,7.9,5.5,13.5,8.3c2.8,1.4,5.9,2.7,9.3,3.9c3.4,1.1,7,2.2,11,3
				c1,0.2,2,0.4,3,0.5c0.5,0.1,1,0.2,1.5,0.3c0.5,0.1,1,0.1,1.6,0.2c1,0.1,2.1,0.3,3.2,0.4c1.1,0.1,2.2,0.1,3.3,0.2
				c4.4,0.2,9.1,0.1,13.8-0.6c9.5-1.2,19.7-4.6,29.1-10.4c9.5-5.8,18.2-14.1,25.5-24.2c7.3-10.1,13.2-22,17.1-35.2
				c1.9-6.6,4.5-13.6,9.7-19.1c2.6-2.7,5.9-4.9,9.7-5.8c3.9-0.9,8,0.1,11.4,2c3.4,1.9,6.2,4.8,8.5,7.9c2.3,3.2,4.1,6.7,5.5,10.3
				c2.8,7.3,4.3,15.2,5,23.1c0.6,8,0.4,16.1-0.4,24.2c-0.2,2-0.5,4-0.7,6.1c-0.2,2.1-0.6,4.1-0.9,6.1c-0.3,2-0.7,4.1-1.1,6.1
				c-0.2,1-0.4,2-0.6,3.1l-0.7,3c-3.8,16.3-10,32.3-17.8,47.8c-3.9,7.7-8.2,15.3-12.6,22.9c-4.4,7.6-9,15.1-13.4,22.8
				c-4.4,7.7-8.6,15.5-11.9,23.7c-1.6,4.1-3.2,8.3-4.3,12.6c-0.3,1.1-0.5,2.1-0.8,3.2c-0.2,1.1-0.5,2.1-0.7,3.2l-0.6,3.3l-0.4,3.3
				L479,375c-0.1,1.1-0.3,2.2-0.3,3.3c-0.1,2.2-0.3,4.5-0.4,6.7c-0.1,4.5-0.2,9,0.1,13.5c0.4,9,1.3,18.1,2.9,27
				c3.1,17.9,8,35.6,13.3,53.2c5.2,17.6,10.8,35.1,15.6,52.9c4.9,17.7,8.8,35.6,11.5,53.6c2.6,18,3.7,36.1,3.3,53.9
				c-0.1,4.5-0.4,8.9-0.6,13.3c-0.4,4.4-0.7,8.8-1.2,13.2c-0.3,2.2-0.6,4.3-0.8,6.5l-0.4,3.2l-0.2,1.6l-0.3,1.6
				c-0.4,2.2-0.7,4.3-1.1,6.4c-0.4,2.1-0.7,4.3-1.2,6.4c-3.5,17-8.5,33.4-15.9,48.5c-0.8,1.9-1.9,3.7-2.9,5.5c-1,1.8-2,3.7-3,5.4
				c-1.1,1.7-2.2,3.5-3.4,5.2c-0.6,0.9-1.1,1.7-1.7,2.6l-1.9,2.5c-1.2,1.6-2.5,3.3-3.7,4.9c-1.3,1.5-2.7,3.1-4,4.6l-2,2.3
				c-0.7,0.8-1.4,1.4-2.1,2.1c-1.4,1.4-2.9,2.8-4.3,4.2c-11.8,10.8-25.4,18.8-39.2,24.6c-13.8,5.8-27.9,9.4-41.5,11.8
				c-3.4,0.7-6.8,1.1-10.1,1.6c-1.7,0.2-3.3,0.5-5,0.7c-1.7,0.2-3.3,0.3-5,0.5c-1.6,0.2-3.3,0.3-4.9,0.5c-0.8,0.1-1.6,0.2-2.4,0.2
				c-0.8,0.1-1.6,0.1-2.4,0.2c-3.2,0.2-6.4,0.4-9.6,0.6c-12.6,0.5-24.5,0.6-35.7,0.2c-22.4-0.7-41.9-2.5-57.9-4.3
				c-8-0.9-15.1-1.7-21.3-2.6c-6.2-0.8-11.5-1.5-15.7-2.2C214.8,809.8,210.2,809.1,210.2,809.1z"/>
		</g>
		<g id="XMLID_770_">
			<line id="XMLID_776_" fill="none" stroke="#424143" stroke-width="2.25" x1="193.7" y1="548.9" x2="272.3" y2="55.7"/>
			<line id="XMLID_775_" fill="none" stroke="#424143" stroke-width="2" x1="214" y1="551.9" x2="294" y2="50.8"/>
			<line id="XMLID_774_" fill="none" stroke="#424143" stroke-width="1.75" x1="234.3" y1="555.4" x2="312.7" y2="40.9"/>
			<line id="XMLID_773_" fill="none" stroke="#424143" stroke-width="1.5" x1="254.6" y1="558.4" x2="332.7" y2="33.7"/>
			<line id="XMLID_772_" fill="none" stroke="#424143" stroke-width="1.25" x1="274.9" y1="561.9" x2="351.1" y2="29.5"/>
			<line id="XMLID_771_" fill="none" stroke="#424143" x1="295.2" y1="564.9" x2="367.2" y2="46.2"/>
		</g>
		<g id="XMLID_751_">
			<g id="XMLID_767_">
				<path id="XMLID_769_" fill="#636466" d="M195.5,569.8c-0.4,2.7-2.9,4.5-5.5,4.1l0,0c-2.7-0.4-4.5-2.9-4.1-5.5l2.4-16.3
					c0.4-2.7,2.9-4.5,5.5-4.1l0,0c2.7,0.4,4.5,2.9,4.1,5.5L195.5,569.8z"/>
				<path id="XMLID_768_" opacity="0.2" d="M192,573.2c-2.7-0.4-4.5-2.9-4.1-5.5l2.4-16.3c0.2-1.5,1.1-2.7,2.3-3.5
					c-2.2,0.2-4.1,1.9-4.4,4.1l-2.4,16.3c-0.4,2.7,1.4,5.2,4.1,5.5c1.2,0.2,2.3-0.1,3.2-0.6C192.8,573.3,192.4,573.2,192,573.2z"/>
				<path id="XMLID_33_" opacity="0.2" fill="#FFFFFF" d="M193.8,547.9c-0.4-0.1-0.8-0.1-1.3,0c0.1,0,0.2,0,0.3,0
					c2.8,0.4,4.7,3,4.3,5.8l-2.4,16.9c-0.1,0.9-0.5,1.7-1,2.3c0.9-0.7,1.6-1.8,1.8-3.1l2.4-16.3
					C198.3,550.8,196.5,548.3,193.8,547.9z"/>
			</g>
			<g id="XMLID_30_">
				<path id="XMLID_34_" fill="#636466" d="M215.8,572.8c-0.4,2.7-2.9,4.5-5.5,4.1l0,0c-2.7-0.4-4.5-2.9-4.1-5.5l2.4-16.3
					c0.4-2.7,2.9-4.5,5.5-4.1l0,0c2.7,0.4,4.5,2.9,4.1,5.5L215.8,572.8z"/>
				<path id="XMLID_32_" opacity="0.2" d="M212.4,576.2c-2.7-0.4-4.5-2.9-4.1-5.5l2.4-16.3c0.2-1.5,1.1-2.7,2.3-3.5
					c-2.2,0.2-4.1,1.9-4.4,4.1l-2.4,16.3c-0.4,2.7,1.4,5.2,4.1,5.5c1.2,0.2,2.3-0.1,3.2-0.6C213.1,576.3,212.7,576.3,212.4,576.2z"
					/>
				<path id="XMLID_31_" opacity="0.2" fill="#FFFFFF" d="M214.2,550.9c-0.4-0.1-0.8-0.1-1.3,0c0.1,0,0.2,0,0.3,0
					c2.8,0.4,4.7,3,4.3,5.8l-2.4,16.9c-0.1,0.9-0.5,1.7-1,2.3c0.9-0.7,1.6-1.8,1.8-3.1l2.4-16.3
					C218.7,553.8,216.8,551.3,214.2,550.9z"/>
			</g>
			<g id="XMLID_35_">
				<path id="XMLID_52_" fill="#636466" d="M236.2,575.8c-0.4,2.7-2.9,4.5-5.5,4.1l0,0c-2.7-0.4-4.5-2.9-4.1-5.5l2.4-16.3
					c0.4-2.7,2.9-4.5,5.5-4.1l0,0c2.7,0.4,4.5,2.9,4.1,5.5L236.2,575.8z"/>
				<path id="XMLID_38_" opacity="0.2" d="M232.7,579.3c-2.7-0.4-4.5-2.9-4.1-5.5l2.4-16.3c0.2-1.5,1.1-2.7,2.3-3.5
					c-2.2,0.2-4.1,1.9-4.4,4.1l-2.4,16.3c-0.4,2.7,1.4,5.2,4.1,5.5c1.2,0.2,2.3-0.1,3.2-0.6C233.5,579.3,233.1,579.3,232.7,579.3z"
					/>
				<path id="XMLID_37_" opacity="0.2" fill="#FFFFFF" d="M234.5,554c-0.4-0.1-0.8-0.1-1.3,0c0.1,0,0.2,0,0.3,0
					c2.8,0.4,4.7,3,4.3,5.8l-2.4,16.9c-0.1,0.9-0.5,1.7-1,2.3c0.9-0.7,1.6-1.8,1.8-3.1l2.4-16.3C239,556.9,237.2,554.4,234.5,554z"
					/>
			</g>
			<g id="XMLID_761_">
				<path id="XMLID_764_" fill="#636466" d="M256.5,578.9c-0.4,2.7-2.9,4.5-5.5,4.1l0,0c-2.7-0.4-4.5-2.9-4.1-5.5l2.4-16.3
					c0.4-2.7,2.9-4.5,5.5-4.1l0,0c2.7,0.4,4.5,2.9,4.1,5.5L256.5,578.9z"/>
				<path id="XMLID_763_" opacity="0.2" d="M253,582.3c-2.7-0.4-4.5-2.9-4.1-5.5l2.4-16.3c0.2-1.5,1.1-2.7,2.3-3.5
					c-2.2,0.2-4.1,1.9-4.4,4.1l-2.4,16.3c-0.4,2.7,1.4,5.2,4.1,5.5c1.2,0.2,2.3-0.1,3.2-0.6C253.8,582.4,253.4,582.4,253,582.3z"/>
				<path id="XMLID_762_" opacity="0.2" fill="#FFFFFF" d="M254.8,557c-0.4-0.1-0.8-0.1-1.3,0c0.1,0,0.2,0,0.3,0
					c2.8,0.4,4.7,3,4.3,5.8l-2.4,16.9c-0.1,0.9-0.5,1.7-1,2.3c0.9-0.7,1.6-1.8,1.8-3.1l2.4-16.3C259.3,559.9,257.5,557.4,254.8,557z
					"/>
			</g>
			<g id="XMLID_758_">
				<path id="XMLID_765_" fill="#636466" d="M276.8,581.9c-0.4,2.7-2.9,4.5-5.5,4.1l0,0c-2.7-0.4-4.5-2.9-4.1-5.5l2.4-16.3
					c0.4-2.7,2.9-4.5,5.5-4.1l0,0c2.7,0.4,4.5,2.9,4.1,5.5L276.8,581.9z"/>
				<path id="XMLID_760_" opacity="0.2" d="M273.3,585.3c-2.7-0.4-4.5-2.9-4.1-5.5l2.4-16.3c0.2-1.5,1.1-2.7,2.3-3.5
					c-2.2,0.2-4.1,1.9-4.4,4.1l-2.4,16.3c-0.4,2.7,1.4,5.2,4.1,5.5c1.2,0.2,2.3-0.1,3.2-0.6C274.1,585.4,273.7,585.4,273.3,585.3z"
					/>
				<path id="XMLID_759_" opacity="0.2" fill="#FFFFFF" d="M275.1,560.1c-0.4-0.1-0.8-0.1-1.3,0c0.1,0,0.2,0,0.3,0
					c2.8,0.4,4.7,3,4.3,5.8l-2.4,16.9c-0.1,0.9-0.5,1.7-1,2.3c0.9-0.7,1.6-1.8,1.8-3.1l2.4-16.3
					C279.7,562.9,277.8,560.5,275.1,560.1z"/>
			</g>
			<g id="XMLID_755_">
				<path id="XMLID_766_" fill="#636466" d="M297.1,584.9c-0.4,2.7-2.9,4.5-5.5,4.1l0,0c-2.7-0.4-4.5-2.9-4.1-5.5l2.4-16.3
					c0.4-2.7,2.9-4.5,5.5-4.1l0,0c2.7,0.4,4.5,2.9,4.1,5.5L297.1,584.9z"/>
				<path id="XMLID_757_" opacity="0.2" d="M293.7,588.4c-2.7-0.4-4.5-2.9-4.1-5.5l2.4-16.3c0.2-1.5,1.1-2.7,2.3-3.5
					c-2.2,0.2-4.1,1.9-4.4,4.1l-2.4,16.3c-0.4,2.7,1.4,5.2,4.1,5.5c1.2,0.2,2.3-0.1,3.2-0.6C294.4,588.5,294.1,588.4,293.7,588.4z"
					/>
				<path id="XMLID_756_" opacity="0.2" fill="#FFFFFF" d="M295.5,563.1c-0.4-0.1-0.8-0.1-1.3,0c0.1,0,0.2,0,0.3,0
					c2.8,0.4,4.7,3,4.3,5.8l-2.4,16.9c-0.1,0.9-0.5,1.7-1,2.3c0.9-0.7,1.6-1.8,1.8-3.1l2.4-16.3C300,566,298.1,563.5,295.5,563.1z"
					/>
			</g>
		</g>
		<g id="XMLID_524_">
			<path id="XMLID_720_" fill="#636466" d="M231.8,167.5c-0.5,3.6-3.9,6.1-7.5,5.5c-3.6-0.5-6.1-3.9-5.5-7.5
				c0.5-3.6,3.9-6.1,7.5-5.5C229.9,160.5,232.3,163.8,231.8,167.5z"/>
			<path id="XMLID_526_" opacity="0.4" fill="#FFFFFF" d="M226.1,160.9c3.4,0.5,5.8,3.6,5.6,7c0-0.2,0.1-0.3,0.1-0.5
				c0.5-3.6-1.9-7-5.5-7.5c-3.6-0.5-7,1.9-7.5,5.5c0,0.2,0,0.3,0,0.5C219.5,162.7,222.7,160.4,226.1,160.9z"/>
			<path id="XMLID_525_" opacity="0.3" d="M224.5,172c-3.4-0.5-5.8-3.6-5.6-7c0,0.2-0.1,0.3-0.1,0.5c-0.5,3.6,1.9,7,5.5,7.5
				c3.6,0.5,7-1.9,7.5-5.5c0-0.2,0-0.3,0-0.5C231.1,170.3,227.9,172.5,224.5,172z"/>
		</g>
		<g id="XMLID_520_">
			<path id="XMLID_523_" fill="#636466" d="M164.1,513.8c-0.5,3.6-3.9,6.1-7.5,5.5c-3.6-0.5-6.1-3.9-5.5-7.5
				c0.5-3.6,3.9-6.1,7.5-5.5C162.1,506.8,164.6,510.2,164.1,513.8z"/>
			<path id="XMLID_522_" opacity="0.4" fill="#FFFFFF" d="M158.4,507.2c3.4,0.5,5.8,3.6,5.6,7c0-0.2,0.1-0.3,0.1-0.5
				c0.5-3.6-1.9-7-5.5-7.5c-3.6-0.5-7,1.9-7.5,5.5c0,0.2,0,0.3,0,0.5C151.7,509,155,506.7,158.4,507.2z"/>
			<path id="XMLID_521_" opacity="0.3" d="M156.7,518.3c-3.4-0.5-5.8-3.6-5.6-7c0,0.2-0.1,0.3-0.1,0.5c-0.5,3.6,1.9,7,5.5,7.5
				c3.6,0.5,7-1.9,7.5-5.5c0-0.2,0-0.3,0-0.5C163.4,516.6,160.2,518.9,156.7,518.3z"/>
		</g>
		<g id="XMLID_516_">
			<path id="XMLID_519_" fill="#636466" d="M490.5,650.2c-0.5,3.6-3.9,6.1-7.5,5.5c-3.6-0.5-6.1-3.9-5.5-7.5
				c0.5-3.6,3.9-6.1,7.5-5.5C488.5,643.2,491,646.6,490.5,650.2z"/>
			<path id="XMLID_518_" opacity="0.4" fill="#FFFFFF" d="M484.8,643.6c3.4,0.5,5.8,3.6,5.6,7c0-0.2,0.1-0.3,0.1-0.5
				c0.5-3.6-1.9-7-5.5-7.5c-3.6-0.5-7,1.9-7.5,5.5c0,0.2,0,0.3,0,0.5C478.1,645.4,481.3,643.1,484.8,643.6z"/>
			<path id="XMLID_517_" opacity="0.3" d="M483.1,654.7c-3.4-0.5-5.8-3.6-5.6-7c0,0.2-0.1,0.3-0.1,0.5c-0.5,3.6,1.9,7,5.5,7.5
				c3.6,0.5,7-1.9,7.5-5.5c0-0.2,0-0.3,0-0.5C489.8,653,486.6,655.2,483.1,654.7z"/>
		</g>
		<linearGradient id="XMLID_40_" gradientUnits="userSpaceOnUse" x1="4.543114e-02" y1="461.3874" x2="125.0197" y2="461.3874">
			<stop  offset="0.7902" style="stop-color:#E2DABA"/>
			<stop  offset="1" style="stop-color:#E2DABA;stop-opacity:0"/>
		</linearGradient>
		<rect id="XMLID_442_" x="0" y="179.8" fill="url(#XMLID_40_)" width="125" height="563.2"/>
	</g>
</g>
</svg>
