<?xml version="1.0" encoding="utf-8"?>
<!-- Generator: Adobe Illustrator 18.0.0, SVG Export Plug-In . SVG Version: 6.00 Build 0)  -->
<!DOCTYPE svg PUBLIC "-//W3C//DTD SVG 1.1//EN" "http://www.w3.org/Graphics/SVG/1.1/DTD/svg11.dtd">
<svg version="1.1" id="Layer_1" xmlns="http://www.w3.org/2000/svg" xmlns:xlink="http://www.w3.org/1999/xlink" x="0px" y="0px"
	 viewBox="0 0 59 41" enable-background="new 0 0 59 41" xml:space="preserve">
<g id="XMLID_667_">
	
		<line id="XMLID_688_" fill="none" stroke="#B19374" stroke-width="3.5" stroke-linecap="round" stroke-miterlimit="10" x1="13.351" y1="1.802" x2="13.351" y2="38.724"/>
	<g id="XMLID_682_">
		<path id="XMLID_91_" fill="#B19374" d="M8.777,22.806c-1.034,0-1.875-0.841-1.875-1.875v-4.453c0-1.034,0.841-1.875,1.875-1.875
			h9.149c1.034,0,1.875,0.841,1.875,1.875v4.453c0,1.034-0.841,1.875-1.875,1.875H8.777z"/>
		<path id="XMLID_88_" fill="#E2D9B9" d="M17.926,15.479c0.552,0,1,0.448,1,1v4.453c0,0.552-0.448,1-1,1H8.777c-0.552,0-1-0.448-1-1
			v-4.453c0-0.552,0.448-1,1-1H17.926 M17.926,13.729H8.777c-1.516,0-2.75,1.234-2.75,2.75v4.453c0,1.516,1.234,2.75,2.75,2.75
			h9.149c1.516,0,2.75-1.234,2.75-2.75v-4.453C20.676,14.963,19.442,13.729,17.926,13.729L17.926,13.729z"/>
	</g>
	
		<line id="XMLID_681_" fill="none" stroke="#B19374" stroke-width="3.5" stroke-linecap="round" stroke-miterlimit="10" x1="29.5" y1="1.802" x2="29.5" y2="38.724"/>
	<g id="XMLID_680_">
		<path id="XMLID_86_" fill="#B19374" d="M24.926,32.164c-1.034,0-1.875-0.841-1.875-1.875v-4.453c0-1.034,0.841-1.875,1.875-1.875
			h9.148c1.034,0,1.875,0.841,1.875,1.875v4.453c0,1.034-0.841,1.875-1.875,1.875H24.926z"/>
		<path id="XMLID_83_" fill="#E2D9B9" d="M34.074,24.836c0.552,0,1,0.448,1,1v4.453c0,0.552-0.448,1-1,1h-9.149
			c-0.552,0-1-0.448-1-1v-4.453c0-0.552,0.448-1,1-1H34.074 M34.074,23.086h-9.149c-1.516,0-2.75,1.234-2.75,2.75v4.453
			c0,1.516,1.234,2.75,2.75,2.75h9.149c1.516,0,2.75-1.234,2.75-2.75v-4.453C36.824,24.32,35.591,23.086,34.074,23.086
			L34.074,23.086z"/>
	</g>
	
		<line id="XMLID_679_" fill="none" stroke="#B19374" stroke-width="3.5" stroke-linecap="round" stroke-miterlimit="10" x1="45.649" y1="1.802" x2="45.649" y2="38.724"/>
	<g id="XMLID_678_">
		<path id="XMLID_87_" fill="#B19374" d="M41.074,15.313c-1.034,0-1.875-0.841-1.875-1.875V8.985c0-1.034,0.841-1.875,1.875-1.875
			h9.149c1.034,0,1.875,0.841,1.875,1.875v4.453c0,1.034-0.841,1.875-1.875,1.875H41.074z"/>
		<path id="XMLID_80_" fill="#E2D9B9" d="M50.223,7.985c0.552,0,1,0.448,1,1v4.453c0,0.552-0.448,1-1,1h-9.149c-0.552,0-1-0.448-1-1
			V8.985c0-0.552,0.448-1,1-1H50.223 M50.223,6.235h-9.149c-1.516,0-2.75,1.234-2.75,2.75v4.453c0,1.516,1.234,2.75,2.75,2.75h9.149
			c1.516,0,2.75-1.234,2.75-2.75V8.985C52.973,7.468,51.74,6.235,50.223,6.235L50.223,6.235z"/>
	</g>
</g>
</svg>
