<?xml version="1.0" encoding="utf-8"?>
<!-- Generator: Adobe Illustrator 18.0.0, SVG Export Plug-In . SVG Version: 6.00 Build 0)  -->
<!DOCTYPE svg PUBLIC "-//W3C//DTD SVG 1.1//EN" "http://www.w3.org/Graphics/SVG/1.1/DTD/svg11.dtd">
<svg version="1.1" id="Layer_1" xmlns="http://www.w3.org/2000/svg" xmlns:xlink="http://www.w3.org/1999/xlink" x="0px" y="0px"
	 viewBox="0 0 25 25" enable-background="new 0 0 25 25" xml:space="preserve">
<path id="XMLID_109_" opacity="0.3" fill="#B19374" d="M22,0H3C1.343,0,0,1.343,0,3v19c0,1.657,1.343,3,3,3h19c1.657,0,3-1.343,3-3
	V3C25,1.343,23.657,0,22,0z M18.959,9.187c0.006,0.143,0.01,0.287,0.01,0.431c0,4.404-3.352,9.482-9.482,9.482
	c-1.882,0-3.634-0.552-5.109-1.497c0.261,0.031,0.526,0.047,0.795,0.047c1.561,0,2.998-0.533,4.139-1.427
	c-1.458-0.027-2.689-0.99-3.113-2.315c0.203,0.039,0.412,0.06,0.627,0.06c0.304,0,0.598-0.041,0.878-0.117
	c-1.525-0.306-2.673-1.653-2.673-3.268c0-0.014,0-0.028,0-0.042c0.449,0.25,0.963,0.4,1.51,0.417
	c-0.894-0.598-1.483-1.618-1.483-2.774c0-0.611,0.164-1.183,0.451-1.675c1.644,2.016,4.099,3.343,6.869,3.482
	c-0.057-0.244-0.086-0.498-0.086-0.759c0-1.841,1.492-3.333,3.333-3.333c0.958,0,1.825,0.405,2.433,1.052
	c0.759-0.149,1.472-0.427,2.116-0.809c-0.249,0.778-0.777,1.431-1.465,1.844c0.674-0.081,1.317-0.26,1.914-0.525
	C20.175,8.13,19.61,8.717,18.959,9.187z"/>
</svg>
