<?xml version="1.0" encoding="utf-8"?>
<!-- Generator: Adobe Illustrator 18.0.0, SVG Export Plug-In . SVG Version: 6.00 Build 0)  -->
<!DOCTYPE svg PUBLIC "-//W3C//DTD SVG 1.1//EN" "http://www.w3.org/Graphics/SVG/1.1/DTD/svg11.dtd">
<svg version="1.1" id="Layer_1" xmlns="http://www.w3.org/2000/svg" xmlns:xlink="http://www.w3.org/1999/xlink" x="0px" y="0px"
	 viewBox="0 0 59 42" enable-background="new 0 0 59 42" xml:space="preserve">
<g id="XMLID_936_">
	<g id="XMLID_952_">
		
			<line id="XMLID_966_" fill="none" stroke="#B19374" stroke-width="3.5" stroke-linecap="round" stroke-miterlimit="10" x1="52.448" y1="14.298" x2="45.668" y2="14.298"/>
		
			<line id="XMLID_965_" fill="none" stroke="#B19374" stroke-width="3.5" stroke-linecap="round" stroke-miterlimit="10" x1="52.448" y1="20.557" x2="45.668" y2="20.557"/>
		
			<line id="XMLID_964_" fill="none" stroke="#B19374" stroke-width="3.5" stroke-linecap="round" stroke-miterlimit="10" x1="52.448" y1="26.816" x2="45.668" y2="26.816"/>
		
			<line id="XMLID_963_" fill="none" stroke="#B19374" stroke-width="3.5" stroke-linecap="round" stroke-miterlimit="10" x1="39.41" y1="1.781" x2="32.629" y2="1.781"/>
		
			<line id="XMLID_962_" fill="none" stroke="#B19374" stroke-width="3.5" stroke-linecap="round" stroke-miterlimit="10" x1="39.41" y1="8.04" x2="32.629" y2="8.04"/>
		
			<line id="XMLID_961_" fill="none" stroke="#B19374" stroke-width="3.5" stroke-linecap="round" stroke-miterlimit="10" x1="39.41" y1="14.298" x2="32.629" y2="14.298"/>
		
			<line id="XMLID_960_" fill="none" stroke="#B19374" stroke-width="3.5" stroke-linecap="round" stroke-miterlimit="10" x1="39.41" y1="20.557" x2="32.629" y2="20.557"/>
		
			<line id="XMLID_959_" fill="none" stroke="#B19374" stroke-width="3.5" stroke-linecap="round" stroke-miterlimit="10" x1="39.41" y1="26.816" x2="32.629" y2="26.816"/>
		
			<line id="XMLID_958_" fill="none" stroke="#B19374" stroke-width="3.5" stroke-linecap="round" stroke-miterlimit="10" x1="26.371" y1="26.816" x2="19.59" y2="26.816"/>
		
			<line id="XMLID_957_" fill="none" stroke="#B19374" stroke-width="3.5" stroke-linecap="round" stroke-miterlimit="10" x1="13.332" y1="8.04" x2="6.552" y2="8.04"/>
		
			<line id="XMLID_956_" fill="none" stroke="#B19374" stroke-width="3.5" stroke-linecap="round" stroke-miterlimit="10" x1="13.332" y1="14.298" x2="6.552" y2="14.298"/>
		
			<line id="XMLID_955_" fill="none" stroke="#B19374" stroke-width="3.5" stroke-linecap="round" stroke-miterlimit="10" x1="13.332" y1="20.557" x2="6.552" y2="20.557"/>
		
			<line id="XMLID_954_" fill="none" stroke="#B19374" stroke-width="3.5" stroke-linecap="round" stroke-miterlimit="10" x1="26.371" y1="20.557" x2="19.59" y2="20.557"/>
		
			<line id="XMLID_953_" fill="none" stroke="#B19374" stroke-width="3.5" stroke-linecap="round" stroke-miterlimit="10" x1="13.332" y1="26.816" x2="6.552" y2="26.816"/>
	</g>
	<g id="XMLID_937_">
		<path id="XMLID_951_" fill="#B19374" d="M26.471,35.432h1.434l-0.44,3.061c-0.126,0.817-0.407,0.88-0.878,0.88
			c-0.615,0-1.284-0.147-1.568-0.242l-0.761,1.966c0.648,0.167,1.723,0.354,2.214,0.354c1.579,0,2.989-0.46,3.325-2.612l0.771-5.435
			h-3.302L26.471,35.432"/>
		<path id="XMLID_948_" fill="#B19374" d="M34.556,33.279c-1.892,0.032-3.49,0.366-3.908,3.74c-0.416,3.387,1.035,4.253,3.668,4.202
			c1.977-0.031,3.51-0.365,3.939-3.741C38.681,34.094,37.295,33.228,34.556,33.279 M35.831,37.042l-0.074,0.606
			c-0.155,1.264-0.322,1.62-1.389,1.64c-1.359,0.022-1.462-0.543-1.305-1.839l0.074-0.606c0.156-1.263,0.394-1.567,1.377-1.588
			C35.987,35.223,35.987,35.756,35.831,37.042z"/>
		<polyline id="XMLID_947_" fill="#B19374" points="24.186,33.404 22.893,36.959 22.641,33.404 20.415,33.404 19.319,36.801 
			19.057,33.404 16.57,33.404 17.385,41.096 19.612,41.096 20.969,36.968 21.199,41.096 23.529,41.096 26.537,33.404 24.186,33.404 
					"/>
		<polyline id="XMLID_946_" fill="#B19374" points="44.144,33.404 43.65,36.996 42.024,33.404 39.443,33.404 38.356,41.096 
			40.561,41.096 41.147,37.045 43.004,41.096 45.262,41.096 46.35,33.404 44.144,33.404 		"/>
		<path id="XMLID_943_" fill="#B19374" d="M4.173,33.404H1.529l-1.087,7.692h3.687c1.988,0,3.386-0.147,3.889-3.565
			C8.509,34.115,7.234,33.404,4.173,33.404 M5.594,37.094l-0.062,0.501c-0.158,1.213-0.408,1.661-1.515,1.661H3.056l0.564-3.96
			h0.509C5.689,35.297,5.753,35.861,5.594,37.094z"/>
		<path id="XMLID_940_" fill="#B19374" d="M12.528,33.279c-1.89,0.032-3.487,0.366-3.905,3.74c-0.419,3.387,1.032,4.253,3.667,4.202
			c1.974-0.031,3.509-0.365,3.937-3.741C16.657,34.094,15.266,33.228,12.528,33.279 M13.805,37.042l-0.073,0.606
			c-0.157,1.264-0.326,1.62-1.39,1.64c-1.361,0.022-1.474-0.543-1.308-1.839l0.074-0.606c0.156-1.263,0.397-1.567,1.38-1.588
			C13.961,35.223,13.961,35.756,13.805,37.042z"/>
		<path id="XMLID_939_" fill="#B19374" d="M56.331,36.279c-1.127-0.24-1.283-0.294-1.222-0.68c0.043-0.26,0.198-0.343,0.742-0.343
			c0.856,0,1.934,0.197,2.447,0.334l0.26-1.912c-0.658-0.198-1.756-0.377-2.59-0.377c-1.361,0-2.906,0.303-3.167,2.196
			c-0.198,1.494,0.376,2.34,2.133,2.726c1.128,0.251,1.274,0.293,1.201,0.679c-0.053,0.293-0.198,0.376-0.804,0.376
			c-1.015,0-2.163-0.251-2.738-0.376l-0.283,1.993c0.712,0.153,1.944,0.327,2.967,0.327c2.077,0,2.989-0.867,3.176-2.246
			C58.661,37.47,58.079,36.655,56.331,36.279"/>
		<polyline id="XMLID_938_" fill="#B19374" points="48.697,38.233 51.403,38.233 51.664,36.268 48.981,36.268 49.105,35.369 
			52.388,35.369 52.669,33.404 47.026,33.404 45.938,41.096 51.705,41.096 51.969,39.183 48.561,39.183 48.697,38.233 		"/>
	</g>
</g>
</svg>
