<?xml version="1.0" encoding="utf-8"?>
<!-- Generator: Adobe Illustrator 16.0.4, SVG Export Plug-In . SVG Version: 6.00 Build 0)  -->
<!DOCTYPE svg PUBLIC "-//W3C//DTD SVG 1.1//EN" "http://www.w3.org/Graphics/SVG/1.1/DTD/svg11.dtd">
<svg version="1.1" id="Layer_1" xmlns="http://www.w3.org/2000/svg" xmlns:xlink="http://www.w3.org/1999/xlink" x="0px" y="0px"
	 width="184px" height="184px" viewBox="0 0 184 184" enable-background="new 0 0 184 184" xml:space="preserve">
<g>
	<g opacity="0.08">
		<polygon fill="#1A1A1A" points="76.242,24.587 95.016,4.446 113.326,25.008 139.654,16.951 145.232,43.913 172.062,50.101 
			163.412,76.24 183.553,95.014 162.992,113.326 171.049,139.654 144.086,145.232 137.9,172.062 111.76,163.412 92.986,183.555 
			74.674,162.992 48.346,171.049 42.768,144.086 15.938,137.896 24.59,111.758 4.447,92.986 25.008,74.672 16.951,48.345 
			43.916,42.767 50.104,15.937 		"/>
	</g>
	<g>
		<g>
			<polygon fill="#F07D2E" points="72.242,20.587 91.016,0.446 109.326,21.008 135.654,12.951 141.232,39.913 168.062,46.101 
				159.412,72.24 179.553,91.013 158.992,109.326 167.049,135.654 140.086,141.232 133.9,168.062 107.76,159.412 88.986,179.555 
				70.674,158.992 44.346,167.049 38.768,140.086 11.938,133.896 20.59,107.758 0.447,88.986 21.008,70.672 12.951,44.345 
				39.916,38.767 46.104,11.937 			"/>
		</g>
		<g>
			<g>
				<path fill="#FFFFFF" d="M39.423,80.538l-5.279,1.351l3.52,13.757l-3.223,0.825l-3.52-13.757L25.62,84.07l-0.724-2.826
					L38.7,77.712L39.423,80.538z"/>
				<path fill="#FFFFFF" d="M49.191,82.544c-1.885,0.506-3.312,1.644-3.613,3.189l1.895,7.404l-3.129,0.8l-3.132-12.238l2.872-0.735
					l0.67,2.616c0.416-1.874,1.571-3.389,3.066-3.771c0.327-0.084,0.496-0.103,0.643-0.114L49.191,82.544z"/>
				<path fill="#FFFFFF" d="M51.28,88.28c-0.598-2.335,1.14-4.496,4.198-5.279c1.098-0.281,2.243-0.375,3.127-0.229l-0.179-0.7
					c-0.413-1.612-1.58-2.283-3.378-1.823c-1.309,0.335-2.403,1.112-3.479,2.358l-1.465-1.74c1.319-1.457,2.869-2.401,4.691-2.867
					c3.503-0.896,6.018,0.375,6.849,3.623l0.975,3.807c0.167,0.653,0.467,0.852,1.08,0.72l0.681,2.662
					c-0.555,0.266-1.078,0.451-1.453,0.546c-1.174,0.275-1.924-0.13-2.309-0.953l-0.243-0.66c-0.733,1.706-2.147,2.89-3.923,3.344
					C54.07,91.698,51.847,90.499,51.28,88.28z M59.108,86.874c0.261-0.34,0.364-0.715,0.286-1.019l-0.358-1.401
					c-0.819-0.088-1.801-0.037-2.596,0.167c-1.611,0.412-2.547,1.522-2.26,2.644c0.269,1.051,1.384,1.612,2.574,1.308
					C57.806,88.303,58.732,87.643,59.108,86.874z"/>
				<path fill="#FFFFFF" d="M63.887,82.417c-0.902-3.527,0.646-6.909,3.847-7.728c1.774-0.454,3.567,0.132,4.714,1.307l-1.78-6.96
					l3.129-0.801l3.442,13.453c0.167,0.653,0.467,0.852,1.079,0.719L79,85.069c-0.601,0.278-1.079,0.451-1.453,0.547
					c-1.15,0.269-1.941-0.102-2.309-0.953l-0.285-0.824c-0.493,1.77-1.942,3.012-3.647,3.448
					C67.918,88.154,64.795,85.966,63.887,82.417z M73.906,81.595l-0.747-2.919c-0.861-1.224-2.502-1.899-3.786-1.57
					c-1.893,0.484-2.746,2.594-2.244,4.556c0.52,2.032,2.375,3.249,4.312,2.752C72.632,84.11,73.766,82.9,73.906,81.595z"/>
				<path fill="#FFFFFF" d="M78.688,78.705c-0.891-3.479,0.838-7.033,4.832-8.055c3.993-1.022,7.136,1.334,7.983,4.65
					c0.102,0.397,0.181,0.8,0.199,1.069l-9.459,2.42c0.653,1.874,2.395,2.648,4.029,2.23c1.238-0.317,2.332-1.294,2.472-2.399
					l2.878,0.06c-0.41,2.095-2.171,3.965-4.881,4.658C82.794,84.348,79.554,82.091,78.688,78.705z M88.03,75.145
					c-0.63-1.781-2.272-2.655-3.977-2.219c-1.682,0.43-2.702,1.986-2.376,3.844L88.03,75.145z"/>
				<path fill="#FFFFFF" d="M100.203,79.645l-4.244-16.583l11.141-2.85l0.725,2.826l-7.918,2.025L101,69.337l6.586-1.685l0.67,2.616
					l-6.586,1.685l1.756,6.866L100.203,79.645z"/>
				<path fill="#FFFFFF" d="M117.709,65.014c-1.887,0.506-3.312,1.643-3.613,3.188l1.895,7.403l-3.131,0.801l-3.131-12.238
					l2.873-0.735l0.67,2.616c0.416-1.875,1.57-3.39,3.066-3.772c0.326-0.083,0.496-0.102,0.643-0.113L117.709,65.014z"/>
				<path fill="#FFFFFF" d="M119.252,68.326c-0.891-3.479,0.838-7.033,4.832-8.055c3.994-1.021,7.137,1.334,7.984,4.651
					c0.102,0.397,0.18,0.8,0.199,1.069l-9.461,2.42c0.654,1.875,2.396,2.648,4.031,2.23c1.238-0.317,2.33-1.294,2.471-2.399
					l2.879,0.06c-0.41,2.096-2.172,3.965-4.881,4.658C123.359,73.97,120.119,71.712,119.252,68.326z M128.594,64.766
					c-0.629-1.78-2.271-2.654-3.977-2.218c-1.682,0.43-2.703,1.986-2.375,3.844L128.594,64.766z"/>
				<path fill="#FFFFFF" d="M132.914,64.831c-0.891-3.479,0.838-7.033,4.832-8.055s7.135,1.334,7.984,4.651
					c0.102,0.397,0.18,0.8,0.197,1.069l-9.459,2.42c0.654,1.874,2.395,2.648,4.029,2.23c1.238-0.317,2.332-1.293,2.473-2.399
					l2.877,0.06c-0.41,2.095-2.17,3.965-4.881,4.658C137.02,70.474,133.779,68.217,132.914,64.831z M142.256,61.271
					c-0.631-1.78-2.271-2.655-3.977-2.219c-1.682,0.431-2.703,1.986-2.377,3.844L142.256,61.271z"/>
				<path fill="#FFFFFF" d="M36.695,125.752l-2.151-8.408l-1.588,0.406l-0.615-2.404l1.588-0.406l-0.389-1.52
					c-0.776-3.035,0.345-5.364,2.821-5.998c1.004-0.256,2.098-0.263,3.198-0.046l-0.027,2.521c-0.533-0.139-1.281-0.145-1.818-0.008
					c-1.074,0.275-1.438,1.189-1.073,2.613l0.418,1.637l2.99-0.766l0.615,2.405l-2.99,0.765l2.151,8.408L36.695,125.752z"/>
				<path fill="#FFFFFF" d="M42.141,117.864c-0.872-3.411,0.827-6.981,4.798-7.997s7.152,1.305,8.025,4.717
					c0.86,3.363-0.786,6.943-4.78,7.966C46.191,123.572,43.001,121.228,42.141,117.864z M49.503,119.888
					c1.798-0.46,2.805-2.36,2.255-4.509c-0.544-2.127-2.34-3.309-4.138-2.849c-1.799,0.46-2.8,2.384-2.256,4.509
					C45.914,119.188,47.705,120.348,49.503,119.888z"/>
				<path fill="#FFFFFF" d="M63.076,108.849c-1.886,0.507-3.312,1.644-3.613,3.189l1.895,7.404l-3.13,0.801l-3.131-12.238
					l2.872-0.735l0.67,2.615c0.416-1.873,1.571-3.389,3.066-3.771c0.327-0.083,0.496-0.103,0.643-0.114L63.076,108.849z"/>
				<path fill="#FFFFFF" d="M82.566,112.572c0.747,2.92-1.157,5.398-4.848,6.342c-2.382,0.609-4.431,0.288-5.992-0.855l1.207-2.672
					c1.058,0.823,2.281,1.133,3.939,0.708c1.892-0.483,2.751-1.501,2.357-3.042c-0.413-1.612-1.79-2.229-4.126-1.632l-0.653,0.167
					l-0.598-2.336l0.724-0.186c1.892-0.483,2.769-1.728,2.427-3.06c-0.322-1.262-1.44-1.646-2.818-1.294
					c-1.426,0.365-2.42,1.342-2.84,2.718l-2.523-1.694c0.57-1.664,2.591-3.201,5.02-3.822c3.153-0.807,5.75,0.296,6.383,2.771
					c0.473,1.845-0.301,3.785-1.992,4.566C80.277,109.076,82.01,110.4,82.566,112.572z"/>
				<path fill="#FFFFFF" d="M90.702,112.184c-3.479,0.891-6.809-1.418-7.86-5.529s0.753-7.758,4.232-8.648
					c3.434-0.878,6.792,1.448,7.842,5.56C95.969,107.676,94.135,111.305,90.702,112.184z M87.809,100.879
					c-1.752,0.447-2.478,2.475-1.838,4.975c0.64,2.498,2.243,3.904,3.995,3.457c1.658-0.425,2.438-2.44,1.798-4.938
					C91.125,101.872,89.467,100.454,87.809,100.879z"/>
				<path fill="#FFFFFF" d="M104.42,108.425l-4.244-16.583l6.027-1.542c5.418-1.386,9.119,1.599,10.289,6.177
					c1.285,5.021-1.072,9.133-6.047,10.406L104.42,108.425z M106.926,93.126l-2.803,0.718l2.795,10.93l2.805-0.717
					c3.176-0.812,4.324-3.62,3.523-6.75C112.428,94.107,110.055,92.325,106.926,93.126z"/>
				<path fill="#FFFFFF" d="M118.76,100.873c-0.598-2.336,1.139-4.496,4.199-5.279c1.098-0.281,2.242-0.375,3.127-0.229l-0.18-0.699
					c-0.412-1.613-1.58-2.285-3.379-1.825c-1.309,0.334-2.402,1.112-3.477,2.358l-1.467-1.739c1.32-1.457,2.869-2.402,4.691-2.868
					c3.504-0.896,6.02,0.376,6.85,3.623l0.975,3.807c0.166,0.654,0.467,0.852,1.08,0.721l0.682,2.662
					c-0.555,0.266-1.08,0.449-1.453,0.545c-1.174,0.275-1.926-0.129-2.311-0.952l-0.242-0.659c-0.734,1.706-2.148,2.889-3.924,3.344
					C121.551,104.291,119.328,103.092,118.76,100.873z M126.588,99.469c0.26-0.342,0.363-0.717,0.287-1.02l-0.359-1.402
					c-0.818-0.088-1.801-0.037-2.596,0.166c-1.611,0.412-2.547,1.523-2.26,2.645c0.27,1.051,1.383,1.611,2.574,1.307
					C125.285,100.896,126.211,100.236,126.588,99.469z"/>
				<path fill="#FFFFFF" d="M134.43,103.284c0.602,0.021,1.082-0.054,1.432-0.143c0.795-0.203,1.125-0.761,1.252-3.082
					l-7.988-10.995l3.223-0.825l5.777,8.674l0.506-10.282l2.941-0.753l-1.408,15.988c-0.182,2.013-1.426,3.475-3.316,3.959
					c-0.561,0.143-1.145,0.193-1.725,0.168L134.43,103.284z"/>
				<path fill="#FFFFFF" d="M144.646,96.639l0.719-2.448c1.797,0.61,3.424,0.741,4.896,0.365c1.307-0.335,1.977-1.029,1.756-1.893
					c-0.223-0.864-1.117-0.958-3.322-0.918c-3.391,0.072-4.762-0.423-5.24-2.292c-0.639-2.5,1.092-4.585,3.895-5.302
					c1.729-0.442,3.678-0.318,5.41,0.234l-0.787,2.267c-1.576-0.518-2.863-0.587-4.078-0.276c-1.121,0.287-1.877,0.929-1.633,1.887
					c0.215,0.84,0.906,0.912,2.895,0.901c3.695-0.05,5.299,0.386,5.824,2.441c0.609,2.382-0.992,4.384-4.076,5.173
					C148.896,97.293,146.354,97.272,144.646,96.639z"/>
			</g>
		</g>
	</g>
</g>
</svg>
